%TF.GenerationSoftware,KiCad,Pcbnew,7.0.9-7.0.9~ubuntu22.04.1*%
%TF.CreationDate,2023-12-07T20:45:01+01:00*%
%TF.ProjectId,Carte_Base_roulante_2024,43617274-655f-4426-9173-655f726f756c,rev?*%
%TF.SameCoordinates,Original*%
%TF.FileFunction,Legend,Top*%
%TF.FilePolarity,Positive*%
%FSLAX46Y46*%
G04 Gerber Fmt 4.6, Leading zero omitted, Abs format (unit mm)*
G04 Created by KiCad (PCBNEW 7.0.9-7.0.9~ubuntu22.04.1) date 2023-12-07 20:45:01*
%MOMM*%
%LPD*%
G01*
G04 APERTURE LIST*
G04 Aperture macros list*
%AMRoundRect*
0 Rectangle with rounded corners*
0 $1 Rounding radius*
0 $2 $3 $4 $5 $6 $7 $8 $9 X,Y pos of 4 corners*
0 Add a 4 corners polygon primitive as box body*
4,1,4,$2,$3,$4,$5,$6,$7,$8,$9,$2,$3,0*
0 Add four circle primitives for the rounded corners*
1,1,$1+$1,$2,$3*
1,1,$1+$1,$4,$5*
1,1,$1+$1,$6,$7*
1,1,$1+$1,$8,$9*
0 Add four rect primitives between the rounded corners*
20,1,$1+$1,$2,$3,$4,$5,0*
20,1,$1+$1,$4,$5,$6,$7,0*
20,1,$1+$1,$6,$7,$8,$9,0*
20,1,$1+$1,$8,$9,$2,$3,0*%
G04 Aperture macros list end*
%ADD10C,0.150000*%
%ADD11C,0.160000*%
%ADD12C,0.200000*%
%ADD13C,0.120000*%
%ADD14C,0.127000*%
%ADD15C,0.050000*%
%ADD16C,0.010000*%
%ADD17C,5.000000*%
%ADD18RoundRect,0.237500X-0.237500X0.287500X-0.237500X-0.287500X0.237500X-0.287500X0.237500X0.287500X0*%
%ADD19C,2.000000*%
%ADD20RoundRect,0.102000X0.325000X-0.675000X0.325000X0.675000X-0.325000X0.675000X-0.325000X-0.675000X0*%
%ADD21R,3.000000X3.000000*%
%ADD22C,3.000000*%
%ADD23R,1.700000X1.700000*%
%ADD24O,1.700000X1.700000*%
%ADD25RoundRect,0.225000X0.225000X0.250000X-0.225000X0.250000X-0.225000X-0.250000X0.225000X-0.250000X0*%
%ADD26RoundRect,0.250000X-0.450000X0.262500X-0.450000X-0.262500X0.450000X-0.262500X0.450000X0.262500X0*%
%ADD27RoundRect,0.150000X-0.150000X0.825000X-0.150000X-0.825000X0.150000X-0.825000X0.150000X0.825000X0*%
%ADD28RoundRect,0.225000X-0.250000X0.225000X-0.250000X-0.225000X0.250000X-0.225000X0.250000X0.225000X0*%
%ADD29C,0.600000*%
%ADD30R,0.600000X1.090000*%
%ADD31R,0.300000X1.140000*%
%ADD32O,1.000000X2.100000*%
%ADD33O,1.000000X1.800000*%
%ADD34R,1.000000X1.500000*%
%ADD35R,3.300000X1.500000*%
%ADD36C,3.200000*%
%ADD37RoundRect,0.250000X0.450000X-0.262500X0.450000X0.262500X-0.450000X0.262500X-0.450000X-0.262500X0*%
%ADD38R,1.600000X2.500000*%
%ADD39R,1.200000X1.200000*%
%ADD40RoundRect,0.200000X0.200000X0.275000X-0.200000X0.275000X-0.200000X-0.275000X0.200000X-0.275000X0*%
%ADD41R,0.600000X0.700000*%
%ADD42RoundRect,0.075000X-0.700000X-0.075000X0.700000X-0.075000X0.700000X0.075000X-0.700000X0.075000X0*%
%ADD43RoundRect,0.075000X-0.075000X-0.700000X0.075000X-0.700000X0.075000X0.700000X-0.075000X0.700000X0*%
%ADD44RoundRect,0.218750X0.256250X-0.218750X0.256250X0.218750X-0.256250X0.218750X-0.256250X-0.218750X0*%
%ADD45RoundRect,0.250000X-0.262500X-0.450000X0.262500X-0.450000X0.262500X0.450000X-0.262500X0.450000X0*%
%ADD46RoundRect,0.250000X-1.950000X-1.000000X1.950000X-1.000000X1.950000X1.000000X-1.950000X1.000000X0*%
%ADD47RoundRect,0.200000X-0.200000X-0.275000X0.200000X-0.275000X0.200000X0.275000X-0.200000X0.275000X0*%
%ADD48RoundRect,0.250000X-1.000000X1.950000X-1.000000X-1.950000X1.000000X-1.950000X1.000000X1.950000X0*%
%ADD49R,2.300000X1.500000*%
%ADD50O,2.300000X1.500000*%
%ADD51RoundRect,0.225000X0.250000X-0.225000X0.250000X0.225000X-0.250000X0.225000X-0.250000X-0.225000X0*%
%ADD52RoundRect,0.027500X-0.222500X0.272500X-0.222500X-0.272500X0.222500X-0.272500X0.222500X0.272500X0*%
%ADD53RoundRect,0.225000X-0.225000X-0.250000X0.225000X-0.250000X0.225000X0.250000X-0.225000X0.250000X0*%
%ADD54RoundRect,0.150000X-0.700000X0.150000X-0.700000X-0.150000X0.700000X-0.150000X0.700000X0.150000X0*%
%ADD55RoundRect,0.250000X-1.150000X0.250000X-1.150000X-0.250000X1.150000X-0.250000X1.150000X0.250000X0*%
%ADD56RoundRect,0.087500X0.225000X0.087500X-0.225000X0.087500X-0.225000X-0.087500X0.225000X-0.087500X0*%
%ADD57RoundRect,0.087500X0.087500X0.225000X-0.087500X0.225000X-0.087500X-0.225000X0.087500X-0.225000X0*%
G04 APERTURE END LIST*
D10*
X95560000Y-64102000D02*
X112578000Y-64102000D01*
X112578000Y-68420000D01*
X95560000Y-68420000D01*
X95560000Y-64102000D01*
X118391241Y-128000000D02*
G75*
G03*
X118391241Y-128000000I-195621J0D01*
G01*
X111540210Y-107917000D02*
G75*
G03*
X111540210Y-107917000I-359210J0D01*
G01*
X108836621Y-109187000D02*
G75*
G03*
X108836621Y-109187000I-195621J0D01*
G01*
X134617621Y-132174000D02*
G75*
G03*
X134617621Y-132174000I-195621J0D01*
G01*
X134871621Y-107663000D02*
G75*
G03*
X134871621Y-107663000I-195621J0D01*
G01*
X134871621Y-82898000D02*
G75*
G03*
X134871621Y-82898000I-195621J0D01*
G01*
X118869621Y-103218000D02*
G75*
G03*
X118869621Y-103218000I-195621J0D01*
G01*
D11*
X97885489Y-128449308D02*
X97933108Y-128306451D01*
X97933108Y-128306451D02*
X97980727Y-128258832D01*
X97980727Y-128258832D02*
X98075965Y-128211213D01*
X98075965Y-128211213D02*
X98218822Y-128211213D01*
X98218822Y-128211213D02*
X98314060Y-128258832D01*
X98314060Y-128258832D02*
X98361680Y-128306451D01*
X98361680Y-128306451D02*
X98409299Y-128401689D01*
X98409299Y-128401689D02*
X98409299Y-128782641D01*
X98409299Y-128782641D02*
X97409299Y-128782641D01*
X97409299Y-128782641D02*
X97409299Y-128449308D01*
X97409299Y-128449308D02*
X97456918Y-128354070D01*
X97456918Y-128354070D02*
X97504537Y-128306451D01*
X97504537Y-128306451D02*
X97599775Y-128258832D01*
X97599775Y-128258832D02*
X97695013Y-128258832D01*
X97695013Y-128258832D02*
X97790251Y-128306451D01*
X97790251Y-128306451D02*
X97837870Y-128354070D01*
X97837870Y-128354070D02*
X97885489Y-128449308D01*
X97885489Y-128449308D02*
X97885489Y-128782641D01*
X117333358Y-144213346D02*
X118095263Y-144213346D01*
X117714310Y-144594299D02*
X117714310Y-143832394D01*
X119095262Y-144594299D02*
X118523834Y-144594299D01*
X118809548Y-144594299D02*
X118809548Y-143594299D01*
X118809548Y-143594299D02*
X118714310Y-143737156D01*
X118714310Y-143737156D02*
X118619072Y-143832394D01*
X118619072Y-143832394D02*
X118523834Y-143880013D01*
X119666691Y-144022870D02*
X119571453Y-143975251D01*
X119571453Y-143975251D02*
X119523834Y-143927632D01*
X119523834Y-143927632D02*
X119476215Y-143832394D01*
X119476215Y-143832394D02*
X119476215Y-143784775D01*
X119476215Y-143784775D02*
X119523834Y-143689537D01*
X119523834Y-143689537D02*
X119571453Y-143641918D01*
X119571453Y-143641918D02*
X119666691Y-143594299D01*
X119666691Y-143594299D02*
X119857167Y-143594299D01*
X119857167Y-143594299D02*
X119952405Y-143641918D01*
X119952405Y-143641918D02*
X120000024Y-143689537D01*
X120000024Y-143689537D02*
X120047643Y-143784775D01*
X120047643Y-143784775D02*
X120047643Y-143832394D01*
X120047643Y-143832394D02*
X120000024Y-143927632D01*
X120000024Y-143927632D02*
X119952405Y-143975251D01*
X119952405Y-143975251D02*
X119857167Y-144022870D01*
X119857167Y-144022870D02*
X119666691Y-144022870D01*
X119666691Y-144022870D02*
X119571453Y-144070489D01*
X119571453Y-144070489D02*
X119523834Y-144118108D01*
X119523834Y-144118108D02*
X119476215Y-144213346D01*
X119476215Y-144213346D02*
X119476215Y-144403822D01*
X119476215Y-144403822D02*
X119523834Y-144499060D01*
X119523834Y-144499060D02*
X119571453Y-144546680D01*
X119571453Y-144546680D02*
X119666691Y-144594299D01*
X119666691Y-144594299D02*
X119857167Y-144594299D01*
X119857167Y-144594299D02*
X119952405Y-144546680D01*
X119952405Y-144546680D02*
X120000024Y-144499060D01*
X120000024Y-144499060D02*
X120047643Y-144403822D01*
X120047643Y-144403822D02*
X120047643Y-144213346D01*
X120047643Y-144213346D02*
X120000024Y-144118108D01*
X120000024Y-144118108D02*
X119952405Y-144070489D01*
X119952405Y-144070489D02*
X119857167Y-144022870D01*
X96998691Y-65393489D02*
X97141548Y-65441108D01*
X97141548Y-65441108D02*
X97189167Y-65488727D01*
X97189167Y-65488727D02*
X97236786Y-65583965D01*
X97236786Y-65583965D02*
X97236786Y-65726822D01*
X97236786Y-65726822D02*
X97189167Y-65822060D01*
X97189167Y-65822060D02*
X97141548Y-65869680D01*
X97141548Y-65869680D02*
X97046310Y-65917299D01*
X97046310Y-65917299D02*
X96665358Y-65917299D01*
X96665358Y-65917299D02*
X96665358Y-64917299D01*
X96665358Y-64917299D02*
X96998691Y-64917299D01*
X96998691Y-64917299D02*
X97093929Y-64964918D01*
X97093929Y-64964918D02*
X97141548Y-65012537D01*
X97141548Y-65012537D02*
X97189167Y-65107775D01*
X97189167Y-65107775D02*
X97189167Y-65203013D01*
X97189167Y-65203013D02*
X97141548Y-65298251D01*
X97141548Y-65298251D02*
X97093929Y-65345870D01*
X97093929Y-65345870D02*
X96998691Y-65393489D01*
X96998691Y-65393489D02*
X96665358Y-65393489D01*
X98093929Y-65917299D02*
X98093929Y-65393489D01*
X98093929Y-65393489D02*
X98046310Y-65298251D01*
X98046310Y-65298251D02*
X97951072Y-65250632D01*
X97951072Y-65250632D02*
X97760596Y-65250632D01*
X97760596Y-65250632D02*
X97665358Y-65298251D01*
X98093929Y-65869680D02*
X97998691Y-65917299D01*
X97998691Y-65917299D02*
X97760596Y-65917299D01*
X97760596Y-65917299D02*
X97665358Y-65869680D01*
X97665358Y-65869680D02*
X97617739Y-65774441D01*
X97617739Y-65774441D02*
X97617739Y-65679203D01*
X97617739Y-65679203D02*
X97665358Y-65583965D01*
X97665358Y-65583965D02*
X97760596Y-65536346D01*
X97760596Y-65536346D02*
X97998691Y-65536346D01*
X97998691Y-65536346D02*
X98093929Y-65488727D01*
X98522501Y-65869680D02*
X98617739Y-65917299D01*
X98617739Y-65917299D02*
X98808215Y-65917299D01*
X98808215Y-65917299D02*
X98903453Y-65869680D01*
X98903453Y-65869680D02*
X98951072Y-65774441D01*
X98951072Y-65774441D02*
X98951072Y-65726822D01*
X98951072Y-65726822D02*
X98903453Y-65631584D01*
X98903453Y-65631584D02*
X98808215Y-65583965D01*
X98808215Y-65583965D02*
X98665358Y-65583965D01*
X98665358Y-65583965D02*
X98570120Y-65536346D01*
X98570120Y-65536346D02*
X98522501Y-65441108D01*
X98522501Y-65441108D02*
X98522501Y-65393489D01*
X98522501Y-65393489D02*
X98570120Y-65298251D01*
X98570120Y-65298251D02*
X98665358Y-65250632D01*
X98665358Y-65250632D02*
X98808215Y-65250632D01*
X98808215Y-65250632D02*
X98903453Y-65298251D01*
X99760596Y-65869680D02*
X99665358Y-65917299D01*
X99665358Y-65917299D02*
X99474882Y-65917299D01*
X99474882Y-65917299D02*
X99379644Y-65869680D01*
X99379644Y-65869680D02*
X99332025Y-65774441D01*
X99332025Y-65774441D02*
X99332025Y-65393489D01*
X99332025Y-65393489D02*
X99379644Y-65298251D01*
X99379644Y-65298251D02*
X99474882Y-65250632D01*
X99474882Y-65250632D02*
X99665358Y-65250632D01*
X99665358Y-65250632D02*
X99760596Y-65298251D01*
X99760596Y-65298251D02*
X99808215Y-65393489D01*
X99808215Y-65393489D02*
X99808215Y-65488727D01*
X99808215Y-65488727D02*
X99332025Y-65583965D01*
X101570120Y-65917299D02*
X101236787Y-65441108D01*
X100998692Y-65917299D02*
X100998692Y-64917299D01*
X100998692Y-64917299D02*
X101379644Y-64917299D01*
X101379644Y-64917299D02*
X101474882Y-64964918D01*
X101474882Y-64964918D02*
X101522501Y-65012537D01*
X101522501Y-65012537D02*
X101570120Y-65107775D01*
X101570120Y-65107775D02*
X101570120Y-65250632D01*
X101570120Y-65250632D02*
X101522501Y-65345870D01*
X101522501Y-65345870D02*
X101474882Y-65393489D01*
X101474882Y-65393489D02*
X101379644Y-65441108D01*
X101379644Y-65441108D02*
X100998692Y-65441108D01*
X102141549Y-65917299D02*
X102046311Y-65869680D01*
X102046311Y-65869680D02*
X101998692Y-65822060D01*
X101998692Y-65822060D02*
X101951073Y-65726822D01*
X101951073Y-65726822D02*
X101951073Y-65441108D01*
X101951073Y-65441108D02*
X101998692Y-65345870D01*
X101998692Y-65345870D02*
X102046311Y-65298251D01*
X102046311Y-65298251D02*
X102141549Y-65250632D01*
X102141549Y-65250632D02*
X102284406Y-65250632D01*
X102284406Y-65250632D02*
X102379644Y-65298251D01*
X102379644Y-65298251D02*
X102427263Y-65345870D01*
X102427263Y-65345870D02*
X102474882Y-65441108D01*
X102474882Y-65441108D02*
X102474882Y-65726822D01*
X102474882Y-65726822D02*
X102427263Y-65822060D01*
X102427263Y-65822060D02*
X102379644Y-65869680D01*
X102379644Y-65869680D02*
X102284406Y-65917299D01*
X102284406Y-65917299D02*
X102141549Y-65917299D01*
X103332025Y-65250632D02*
X103332025Y-65917299D01*
X102903454Y-65250632D02*
X102903454Y-65774441D01*
X102903454Y-65774441D02*
X102951073Y-65869680D01*
X102951073Y-65869680D02*
X103046311Y-65917299D01*
X103046311Y-65917299D02*
X103189168Y-65917299D01*
X103189168Y-65917299D02*
X103284406Y-65869680D01*
X103284406Y-65869680D02*
X103332025Y-65822060D01*
X103951073Y-65917299D02*
X103855835Y-65869680D01*
X103855835Y-65869680D02*
X103808216Y-65774441D01*
X103808216Y-65774441D02*
X103808216Y-64917299D01*
X104760597Y-65917299D02*
X104760597Y-65393489D01*
X104760597Y-65393489D02*
X104712978Y-65298251D01*
X104712978Y-65298251D02*
X104617740Y-65250632D01*
X104617740Y-65250632D02*
X104427264Y-65250632D01*
X104427264Y-65250632D02*
X104332026Y-65298251D01*
X104760597Y-65869680D02*
X104665359Y-65917299D01*
X104665359Y-65917299D02*
X104427264Y-65917299D01*
X104427264Y-65917299D02*
X104332026Y-65869680D01*
X104332026Y-65869680D02*
X104284407Y-65774441D01*
X104284407Y-65774441D02*
X104284407Y-65679203D01*
X104284407Y-65679203D02*
X104332026Y-65583965D01*
X104332026Y-65583965D02*
X104427264Y-65536346D01*
X104427264Y-65536346D02*
X104665359Y-65536346D01*
X104665359Y-65536346D02*
X104760597Y-65488727D01*
X105236788Y-65250632D02*
X105236788Y-65917299D01*
X105236788Y-65345870D02*
X105284407Y-65298251D01*
X105284407Y-65298251D02*
X105379645Y-65250632D01*
X105379645Y-65250632D02*
X105522502Y-65250632D01*
X105522502Y-65250632D02*
X105617740Y-65298251D01*
X105617740Y-65298251D02*
X105665359Y-65393489D01*
X105665359Y-65393489D02*
X105665359Y-65917299D01*
X105998693Y-65250632D02*
X106379645Y-65250632D01*
X106141550Y-64917299D02*
X106141550Y-65774441D01*
X106141550Y-65774441D02*
X106189169Y-65869680D01*
X106189169Y-65869680D02*
X106284407Y-65917299D01*
X106284407Y-65917299D02*
X106379645Y-65917299D01*
X107093931Y-65869680D02*
X106998693Y-65917299D01*
X106998693Y-65917299D02*
X106808217Y-65917299D01*
X106808217Y-65917299D02*
X106712979Y-65869680D01*
X106712979Y-65869680D02*
X106665360Y-65774441D01*
X106665360Y-65774441D02*
X106665360Y-65393489D01*
X106665360Y-65393489D02*
X106712979Y-65298251D01*
X106712979Y-65298251D02*
X106808217Y-65250632D01*
X106808217Y-65250632D02*
X106998693Y-65250632D01*
X106998693Y-65250632D02*
X107093931Y-65298251D01*
X107093931Y-65298251D02*
X107141550Y-65393489D01*
X107141550Y-65393489D02*
X107141550Y-65488727D01*
X107141550Y-65488727D02*
X106665360Y-65583965D01*
X108284408Y-65012537D02*
X108332027Y-64964918D01*
X108332027Y-64964918D02*
X108427265Y-64917299D01*
X108427265Y-64917299D02*
X108665360Y-64917299D01*
X108665360Y-64917299D02*
X108760598Y-64964918D01*
X108760598Y-64964918D02*
X108808217Y-65012537D01*
X108808217Y-65012537D02*
X108855836Y-65107775D01*
X108855836Y-65107775D02*
X108855836Y-65203013D01*
X108855836Y-65203013D02*
X108808217Y-65345870D01*
X108808217Y-65345870D02*
X108236789Y-65917299D01*
X108236789Y-65917299D02*
X108855836Y-65917299D01*
X109474884Y-64917299D02*
X109570122Y-64917299D01*
X109570122Y-64917299D02*
X109665360Y-64964918D01*
X109665360Y-64964918D02*
X109712979Y-65012537D01*
X109712979Y-65012537D02*
X109760598Y-65107775D01*
X109760598Y-65107775D02*
X109808217Y-65298251D01*
X109808217Y-65298251D02*
X109808217Y-65536346D01*
X109808217Y-65536346D02*
X109760598Y-65726822D01*
X109760598Y-65726822D02*
X109712979Y-65822060D01*
X109712979Y-65822060D02*
X109665360Y-65869680D01*
X109665360Y-65869680D02*
X109570122Y-65917299D01*
X109570122Y-65917299D02*
X109474884Y-65917299D01*
X109474884Y-65917299D02*
X109379646Y-65869680D01*
X109379646Y-65869680D02*
X109332027Y-65822060D01*
X109332027Y-65822060D02*
X109284408Y-65726822D01*
X109284408Y-65726822D02*
X109236789Y-65536346D01*
X109236789Y-65536346D02*
X109236789Y-65298251D01*
X109236789Y-65298251D02*
X109284408Y-65107775D01*
X109284408Y-65107775D02*
X109332027Y-65012537D01*
X109332027Y-65012537D02*
X109379646Y-64964918D01*
X109379646Y-64964918D02*
X109474884Y-64917299D01*
X110189170Y-65012537D02*
X110236789Y-64964918D01*
X110236789Y-64964918D02*
X110332027Y-64917299D01*
X110332027Y-64917299D02*
X110570122Y-64917299D01*
X110570122Y-64917299D02*
X110665360Y-64964918D01*
X110665360Y-64964918D02*
X110712979Y-65012537D01*
X110712979Y-65012537D02*
X110760598Y-65107775D01*
X110760598Y-65107775D02*
X110760598Y-65203013D01*
X110760598Y-65203013D02*
X110712979Y-65345870D01*
X110712979Y-65345870D02*
X110141551Y-65917299D01*
X110141551Y-65917299D02*
X110760598Y-65917299D01*
X111617741Y-65250632D02*
X111617741Y-65917299D01*
X111379646Y-64869680D02*
X111141551Y-65583965D01*
X111141551Y-65583965D02*
X111760598Y-65583965D01*
X98951073Y-67527299D02*
X98951073Y-66527299D01*
X98951073Y-66908251D02*
X99046311Y-66860632D01*
X99046311Y-66860632D02*
X99236787Y-66860632D01*
X99236787Y-66860632D02*
X99332025Y-66908251D01*
X99332025Y-66908251D02*
X99379644Y-66955870D01*
X99379644Y-66955870D02*
X99427263Y-67051108D01*
X99427263Y-67051108D02*
X99427263Y-67336822D01*
X99427263Y-67336822D02*
X99379644Y-67432060D01*
X99379644Y-67432060D02*
X99332025Y-67479680D01*
X99332025Y-67479680D02*
X99236787Y-67527299D01*
X99236787Y-67527299D02*
X99046311Y-67527299D01*
X99046311Y-67527299D02*
X98951073Y-67479680D01*
X99760597Y-66860632D02*
X99998692Y-67527299D01*
X100236787Y-66860632D02*
X99998692Y-67527299D01*
X99998692Y-67527299D02*
X99903454Y-67765394D01*
X99903454Y-67765394D02*
X99855835Y-67813013D01*
X99855835Y-67813013D02*
X99760597Y-67860632D01*
X101379645Y-67527299D02*
X101379645Y-66527299D01*
X101379645Y-67003489D02*
X101951073Y-67003489D01*
X101951073Y-67527299D02*
X101951073Y-66527299D01*
X102855835Y-66860632D02*
X102855835Y-67527299D01*
X102427264Y-66860632D02*
X102427264Y-67384441D01*
X102427264Y-67384441D02*
X102474883Y-67479680D01*
X102474883Y-67479680D02*
X102570121Y-67527299D01*
X102570121Y-67527299D02*
X102712978Y-67527299D01*
X102712978Y-67527299D02*
X102808216Y-67479680D01*
X102808216Y-67479680D02*
X102855835Y-67432060D01*
X103760597Y-66860632D02*
X103760597Y-67670156D01*
X103760597Y-67670156D02*
X103712978Y-67765394D01*
X103712978Y-67765394D02*
X103665359Y-67813013D01*
X103665359Y-67813013D02*
X103570121Y-67860632D01*
X103570121Y-67860632D02*
X103427264Y-67860632D01*
X103427264Y-67860632D02*
X103332026Y-67813013D01*
X103760597Y-67479680D02*
X103665359Y-67527299D01*
X103665359Y-67527299D02*
X103474883Y-67527299D01*
X103474883Y-67527299D02*
X103379645Y-67479680D01*
X103379645Y-67479680D02*
X103332026Y-67432060D01*
X103332026Y-67432060D02*
X103284407Y-67336822D01*
X103284407Y-67336822D02*
X103284407Y-67051108D01*
X103284407Y-67051108D02*
X103332026Y-66955870D01*
X103332026Y-66955870D02*
X103379645Y-66908251D01*
X103379645Y-66908251D02*
X103474883Y-66860632D01*
X103474883Y-66860632D02*
X103665359Y-66860632D01*
X103665359Y-66860632D02*
X103760597Y-66908251D01*
X104379645Y-67527299D02*
X104284407Y-67479680D01*
X104284407Y-67479680D02*
X104236788Y-67432060D01*
X104236788Y-67432060D02*
X104189169Y-67336822D01*
X104189169Y-67336822D02*
X104189169Y-67051108D01*
X104189169Y-67051108D02*
X104236788Y-66955870D01*
X104236788Y-66955870D02*
X104284407Y-66908251D01*
X104284407Y-66908251D02*
X104379645Y-66860632D01*
X104379645Y-66860632D02*
X104522502Y-66860632D01*
X104522502Y-66860632D02*
X104617740Y-66908251D01*
X104617740Y-66908251D02*
X104665359Y-66955870D01*
X104665359Y-66955870D02*
X104712978Y-67051108D01*
X104712978Y-67051108D02*
X104712978Y-67336822D01*
X104712978Y-67336822D02*
X104665359Y-67432060D01*
X104665359Y-67432060D02*
X104617740Y-67479680D01*
X104617740Y-67479680D02*
X104522502Y-67527299D01*
X104522502Y-67527299D02*
X104379645Y-67527299D01*
X105760597Y-67051108D02*
X105712978Y-67003489D01*
X105712978Y-67003489D02*
X105617740Y-66955870D01*
X105617740Y-66955870D02*
X105522502Y-66955870D01*
X105522502Y-66955870D02*
X105427264Y-67003489D01*
X105427264Y-67003489D02*
X105379645Y-67051108D01*
X105379645Y-67051108D02*
X105332026Y-67146346D01*
X105332026Y-67146346D02*
X105332026Y-67241584D01*
X105332026Y-67241584D02*
X105379645Y-67336822D01*
X105379645Y-67336822D02*
X105427264Y-67384441D01*
X105427264Y-67384441D02*
X105522502Y-67432060D01*
X105522502Y-67432060D02*
X105617740Y-67432060D01*
X105617740Y-67432060D02*
X105712978Y-67384441D01*
X105712978Y-67384441D02*
X105760597Y-67336822D01*
X105760597Y-66955870D02*
X105760597Y-67336822D01*
X105760597Y-67336822D02*
X105808216Y-67384441D01*
X105808216Y-67384441D02*
X105855835Y-67384441D01*
X105855835Y-67384441D02*
X105951074Y-67336822D01*
X105951074Y-67336822D02*
X105998693Y-67241584D01*
X105998693Y-67241584D02*
X105998693Y-67003489D01*
X105998693Y-67003489D02*
X105903455Y-66860632D01*
X105903455Y-66860632D02*
X105760597Y-66765394D01*
X105760597Y-66765394D02*
X105570121Y-66717775D01*
X105570121Y-66717775D02*
X105379645Y-66765394D01*
X105379645Y-66765394D02*
X105236788Y-66860632D01*
X105236788Y-66860632D02*
X105141550Y-67003489D01*
X105141550Y-67003489D02*
X105093931Y-67193965D01*
X105093931Y-67193965D02*
X105141550Y-67384441D01*
X105141550Y-67384441D02*
X105236788Y-67527299D01*
X105236788Y-67527299D02*
X105379645Y-67622537D01*
X105379645Y-67622537D02*
X105570121Y-67670156D01*
X105570121Y-67670156D02*
X105760597Y-67622537D01*
X105760597Y-67622537D02*
X105903455Y-67527299D01*
X106427264Y-67003489D02*
X106760597Y-67003489D01*
X106903454Y-67527299D02*
X106427264Y-67527299D01*
X106427264Y-67527299D02*
X106427264Y-66527299D01*
X106427264Y-66527299D02*
X106903454Y-66527299D01*
X107332026Y-66860632D02*
X107332026Y-67527299D01*
X107332026Y-66955870D02*
X107379645Y-66908251D01*
X107379645Y-66908251D02*
X107474883Y-66860632D01*
X107474883Y-66860632D02*
X107617740Y-66860632D01*
X107617740Y-66860632D02*
X107712978Y-66908251D01*
X107712978Y-66908251D02*
X107760597Y-67003489D01*
X107760597Y-67003489D02*
X107760597Y-67527299D01*
X108665359Y-67527299D02*
X108665359Y-67003489D01*
X108665359Y-67003489D02*
X108617740Y-66908251D01*
X108617740Y-66908251D02*
X108522502Y-66860632D01*
X108522502Y-66860632D02*
X108332026Y-66860632D01*
X108332026Y-66860632D02*
X108236788Y-66908251D01*
X108665359Y-67479680D02*
X108570121Y-67527299D01*
X108570121Y-67527299D02*
X108332026Y-67527299D01*
X108332026Y-67527299D02*
X108236788Y-67479680D01*
X108236788Y-67479680D02*
X108189169Y-67384441D01*
X108189169Y-67384441D02*
X108189169Y-67289203D01*
X108189169Y-67289203D02*
X108236788Y-67193965D01*
X108236788Y-67193965D02*
X108332026Y-67146346D01*
X108332026Y-67146346D02*
X108570121Y-67146346D01*
X108570121Y-67146346D02*
X108665359Y-67098727D01*
X109570121Y-67479680D02*
X109474883Y-67527299D01*
X109474883Y-67527299D02*
X109284407Y-67527299D01*
X109284407Y-67527299D02*
X109189169Y-67479680D01*
X109189169Y-67479680D02*
X109141550Y-67432060D01*
X109141550Y-67432060D02*
X109093931Y-67336822D01*
X109093931Y-67336822D02*
X109093931Y-67051108D01*
X109093931Y-67051108D02*
X109141550Y-66955870D01*
X109141550Y-66955870D02*
X109189169Y-66908251D01*
X109189169Y-66908251D02*
X109284407Y-66860632D01*
X109284407Y-66860632D02*
X109474883Y-66860632D01*
X109474883Y-66860632D02*
X109570121Y-66908251D01*
X103607167Y-143641918D02*
X103511929Y-143594299D01*
X103511929Y-143594299D02*
X103369072Y-143594299D01*
X103369072Y-143594299D02*
X103226215Y-143641918D01*
X103226215Y-143641918D02*
X103130977Y-143737156D01*
X103130977Y-143737156D02*
X103083358Y-143832394D01*
X103083358Y-143832394D02*
X103035739Y-144022870D01*
X103035739Y-144022870D02*
X103035739Y-144165727D01*
X103035739Y-144165727D02*
X103083358Y-144356203D01*
X103083358Y-144356203D02*
X103130977Y-144451441D01*
X103130977Y-144451441D02*
X103226215Y-144546680D01*
X103226215Y-144546680D02*
X103369072Y-144594299D01*
X103369072Y-144594299D02*
X103464310Y-144594299D01*
X103464310Y-144594299D02*
X103607167Y-144546680D01*
X103607167Y-144546680D02*
X103654786Y-144499060D01*
X103654786Y-144499060D02*
X103654786Y-144165727D01*
X103654786Y-144165727D02*
X103464310Y-144165727D01*
X104083358Y-144594299D02*
X104083358Y-143594299D01*
X104083358Y-143594299D02*
X104654786Y-144594299D01*
X104654786Y-144594299D02*
X104654786Y-143594299D01*
X105130977Y-144594299D02*
X105130977Y-143594299D01*
X105130977Y-143594299D02*
X105369072Y-143594299D01*
X105369072Y-143594299D02*
X105511929Y-143641918D01*
X105511929Y-143641918D02*
X105607167Y-143737156D01*
X105607167Y-143737156D02*
X105654786Y-143832394D01*
X105654786Y-143832394D02*
X105702405Y-144022870D01*
X105702405Y-144022870D02*
X105702405Y-144165727D01*
X105702405Y-144165727D02*
X105654786Y-144356203D01*
X105654786Y-144356203D02*
X105607167Y-144451441D01*
X105607167Y-144451441D02*
X105511929Y-144546680D01*
X105511929Y-144546680D02*
X105369072Y-144594299D01*
X105369072Y-144594299D02*
X105130977Y-144594299D01*
X119096739Y-75353680D02*
X119239596Y-75401299D01*
X119239596Y-75401299D02*
X119477691Y-75401299D01*
X119477691Y-75401299D02*
X119572929Y-75353680D01*
X119572929Y-75353680D02*
X119620548Y-75306060D01*
X119620548Y-75306060D02*
X119668167Y-75210822D01*
X119668167Y-75210822D02*
X119668167Y-75115584D01*
X119668167Y-75115584D02*
X119620548Y-75020346D01*
X119620548Y-75020346D02*
X119572929Y-74972727D01*
X119572929Y-74972727D02*
X119477691Y-74925108D01*
X119477691Y-74925108D02*
X119287215Y-74877489D01*
X119287215Y-74877489D02*
X119191977Y-74829870D01*
X119191977Y-74829870D02*
X119144358Y-74782251D01*
X119144358Y-74782251D02*
X119096739Y-74687013D01*
X119096739Y-74687013D02*
X119096739Y-74591775D01*
X119096739Y-74591775D02*
X119144358Y-74496537D01*
X119144358Y-74496537D02*
X119191977Y-74448918D01*
X119191977Y-74448918D02*
X119287215Y-74401299D01*
X119287215Y-74401299D02*
X119525310Y-74401299D01*
X119525310Y-74401299D02*
X119668167Y-74448918D01*
X120001501Y-74401299D02*
X120239596Y-75401299D01*
X120239596Y-75401299D02*
X120430072Y-74687013D01*
X120430072Y-74687013D02*
X120620548Y-75401299D01*
X120620548Y-75401299D02*
X120858644Y-74401299D01*
D10*
X103295826Y-106884247D02*
X103410112Y-106922342D01*
X103410112Y-106922342D02*
X103448207Y-106960438D01*
X103448207Y-106960438D02*
X103486303Y-107036628D01*
X103486303Y-107036628D02*
X103486303Y-107150914D01*
X103486303Y-107150914D02*
X103448207Y-107227104D01*
X103448207Y-107227104D02*
X103410112Y-107265200D01*
X103410112Y-107265200D02*
X103333922Y-107303295D01*
X103333922Y-107303295D02*
X103029160Y-107303295D01*
X103029160Y-107303295D02*
X103029160Y-106503295D01*
X103029160Y-106503295D02*
X103295826Y-106503295D01*
X103295826Y-106503295D02*
X103372017Y-106541390D01*
X103372017Y-106541390D02*
X103410112Y-106579485D01*
X103410112Y-106579485D02*
X103448207Y-106655676D01*
X103448207Y-106655676D02*
X103448207Y-106731866D01*
X103448207Y-106731866D02*
X103410112Y-106808057D01*
X103410112Y-106808057D02*
X103372017Y-106846152D01*
X103372017Y-106846152D02*
X103295826Y-106884247D01*
X103295826Y-106884247D02*
X103029160Y-106884247D01*
X103981541Y-106503295D02*
X104133922Y-106503295D01*
X104133922Y-106503295D02*
X104210112Y-106541390D01*
X104210112Y-106541390D02*
X104286303Y-106617580D01*
X104286303Y-106617580D02*
X104324398Y-106769961D01*
X104324398Y-106769961D02*
X104324398Y-107036628D01*
X104324398Y-107036628D02*
X104286303Y-107189009D01*
X104286303Y-107189009D02*
X104210112Y-107265200D01*
X104210112Y-107265200D02*
X104133922Y-107303295D01*
X104133922Y-107303295D02*
X103981541Y-107303295D01*
X103981541Y-107303295D02*
X103905350Y-107265200D01*
X103905350Y-107265200D02*
X103829160Y-107189009D01*
X103829160Y-107189009D02*
X103791064Y-107036628D01*
X103791064Y-107036628D02*
X103791064Y-106769961D01*
X103791064Y-106769961D02*
X103829160Y-106617580D01*
X103829160Y-106617580D02*
X103905350Y-106541390D01*
X103905350Y-106541390D02*
X103981541Y-106503295D01*
X104819636Y-106503295D02*
X104972017Y-106503295D01*
X104972017Y-106503295D02*
X105048207Y-106541390D01*
X105048207Y-106541390D02*
X105124398Y-106617580D01*
X105124398Y-106617580D02*
X105162493Y-106769961D01*
X105162493Y-106769961D02*
X105162493Y-107036628D01*
X105162493Y-107036628D02*
X105124398Y-107189009D01*
X105124398Y-107189009D02*
X105048207Y-107265200D01*
X105048207Y-107265200D02*
X104972017Y-107303295D01*
X104972017Y-107303295D02*
X104819636Y-107303295D01*
X104819636Y-107303295D02*
X104743445Y-107265200D01*
X104743445Y-107265200D02*
X104667255Y-107189009D01*
X104667255Y-107189009D02*
X104629159Y-107036628D01*
X104629159Y-107036628D02*
X104629159Y-106769961D01*
X104629159Y-106769961D02*
X104667255Y-106617580D01*
X104667255Y-106617580D02*
X104743445Y-106541390D01*
X104743445Y-106541390D02*
X104819636Y-106503295D01*
X105391064Y-106503295D02*
X105848207Y-106503295D01*
X105619635Y-107303295D02*
X105619635Y-106503295D01*
X106267255Y-106503295D02*
X106343445Y-106503295D01*
X106343445Y-106503295D02*
X106419636Y-106541390D01*
X106419636Y-106541390D02*
X106457731Y-106579485D01*
X106457731Y-106579485D02*
X106495826Y-106655676D01*
X106495826Y-106655676D02*
X106533921Y-106808057D01*
X106533921Y-106808057D02*
X106533921Y-106998533D01*
X106533921Y-106998533D02*
X106495826Y-107150914D01*
X106495826Y-107150914D02*
X106457731Y-107227104D01*
X106457731Y-107227104D02*
X106419636Y-107265200D01*
X106419636Y-107265200D02*
X106343445Y-107303295D01*
X106343445Y-107303295D02*
X106267255Y-107303295D01*
X106267255Y-107303295D02*
X106191064Y-107265200D01*
X106191064Y-107265200D02*
X106152969Y-107227104D01*
X106152969Y-107227104D02*
X106114874Y-107150914D01*
X106114874Y-107150914D02*
X106076778Y-106998533D01*
X106076778Y-106998533D02*
X106076778Y-106808057D01*
X106076778Y-106808057D02*
X106114874Y-106655676D01*
X106114874Y-106655676D02*
X106152969Y-106579485D01*
X106152969Y-106579485D02*
X106191064Y-106541390D01*
X106191064Y-106541390D02*
X106267255Y-106503295D01*
D11*
X107841358Y-86339299D02*
X107841358Y-87148822D01*
X107841358Y-87148822D02*
X107888977Y-87244060D01*
X107888977Y-87244060D02*
X107936596Y-87291680D01*
X107936596Y-87291680D02*
X108031834Y-87339299D01*
X108031834Y-87339299D02*
X108222310Y-87339299D01*
X108222310Y-87339299D02*
X108317548Y-87291680D01*
X108317548Y-87291680D02*
X108365167Y-87244060D01*
X108365167Y-87244060D02*
X108412786Y-87148822D01*
X108412786Y-87148822D02*
X108412786Y-86339299D01*
X108841358Y-87053584D02*
X109317548Y-87053584D01*
X108746120Y-87339299D02*
X109079453Y-86339299D01*
X109079453Y-86339299D02*
X109412786Y-87339299D01*
X110317548Y-87339299D02*
X109984215Y-86863108D01*
X109746120Y-87339299D02*
X109746120Y-86339299D01*
X109746120Y-86339299D02*
X110127072Y-86339299D01*
X110127072Y-86339299D02*
X110222310Y-86386918D01*
X110222310Y-86386918D02*
X110269929Y-86434537D01*
X110269929Y-86434537D02*
X110317548Y-86529775D01*
X110317548Y-86529775D02*
X110317548Y-86672632D01*
X110317548Y-86672632D02*
X110269929Y-86767870D01*
X110269929Y-86767870D02*
X110222310Y-86815489D01*
X110222310Y-86815489D02*
X110127072Y-86863108D01*
X110127072Y-86863108D02*
X109746120Y-86863108D01*
X110603263Y-86339299D02*
X111174691Y-86339299D01*
X110888977Y-87339299D02*
X110888977Y-86339299D01*
X97885489Y-115949308D02*
X97933108Y-115806451D01*
X97933108Y-115806451D02*
X97980727Y-115758832D01*
X97980727Y-115758832D02*
X98075965Y-115711213D01*
X98075965Y-115711213D02*
X98218822Y-115711213D01*
X98218822Y-115711213D02*
X98314060Y-115758832D01*
X98314060Y-115758832D02*
X98361680Y-115806451D01*
X98361680Y-115806451D02*
X98409299Y-115901689D01*
X98409299Y-115901689D02*
X98409299Y-116282641D01*
X98409299Y-116282641D02*
X97409299Y-116282641D01*
X97409299Y-116282641D02*
X97409299Y-115949308D01*
X97409299Y-115949308D02*
X97456918Y-115854070D01*
X97456918Y-115854070D02*
X97504537Y-115806451D01*
X97504537Y-115806451D02*
X97599775Y-115758832D01*
X97599775Y-115758832D02*
X97695013Y-115758832D01*
X97695013Y-115758832D02*
X97790251Y-115806451D01*
X97790251Y-115806451D02*
X97837870Y-115854070D01*
X97837870Y-115854070D02*
X97885489Y-115949308D01*
X97885489Y-115949308D02*
X97885489Y-116282641D01*
X154175608Y-79867857D02*
X152675608Y-79867857D01*
X152675608Y-79867857D02*
X153747037Y-79367857D01*
X153747037Y-79367857D02*
X152675608Y-78867857D01*
X152675608Y-78867857D02*
X154175608Y-78867857D01*
X152675608Y-77867856D02*
X152675608Y-77582142D01*
X152675608Y-77582142D02*
X152747037Y-77439285D01*
X152747037Y-77439285D02*
X152889894Y-77296428D01*
X152889894Y-77296428D02*
X153175608Y-77224999D01*
X153175608Y-77224999D02*
X153675608Y-77224999D01*
X153675608Y-77224999D02*
X153961322Y-77296428D01*
X153961322Y-77296428D02*
X154104180Y-77439285D01*
X154104180Y-77439285D02*
X154175608Y-77582142D01*
X154175608Y-77582142D02*
X154175608Y-77867856D01*
X154175608Y-77867856D02*
X154104180Y-78010714D01*
X154104180Y-78010714D02*
X153961322Y-78153571D01*
X153961322Y-78153571D02*
X153675608Y-78224999D01*
X153675608Y-78224999D02*
X153175608Y-78224999D01*
X153175608Y-78224999D02*
X152889894Y-78153571D01*
X152889894Y-78153571D02*
X152747037Y-78010714D01*
X152747037Y-78010714D02*
X152675608Y-77867856D01*
X152675608Y-76796427D02*
X152675608Y-75939285D01*
X154175608Y-76367856D02*
X152675608Y-76367856D01*
X154175608Y-73510713D02*
X154175608Y-74367856D01*
X154175608Y-73939285D02*
X152675608Y-73939285D01*
X152675608Y-73939285D02*
X152889894Y-74082142D01*
X152889894Y-74082142D02*
X153032751Y-74224999D01*
X153032751Y-74224999D02*
X153104180Y-74367856D01*
X110583358Y-100420299D02*
X110583358Y-99420299D01*
X110583358Y-99420299D02*
X110916691Y-100134584D01*
X110916691Y-100134584D02*
X111250024Y-99420299D01*
X111250024Y-99420299D02*
X111250024Y-100420299D01*
X111726215Y-100420299D02*
X111726215Y-99420299D01*
X112154786Y-100372680D02*
X112297643Y-100420299D01*
X112297643Y-100420299D02*
X112535738Y-100420299D01*
X112535738Y-100420299D02*
X112630976Y-100372680D01*
X112630976Y-100372680D02*
X112678595Y-100325060D01*
X112678595Y-100325060D02*
X112726214Y-100229822D01*
X112726214Y-100229822D02*
X112726214Y-100134584D01*
X112726214Y-100134584D02*
X112678595Y-100039346D01*
X112678595Y-100039346D02*
X112630976Y-99991727D01*
X112630976Y-99991727D02*
X112535738Y-99944108D01*
X112535738Y-99944108D02*
X112345262Y-99896489D01*
X112345262Y-99896489D02*
X112250024Y-99848870D01*
X112250024Y-99848870D02*
X112202405Y-99801251D01*
X112202405Y-99801251D02*
X112154786Y-99706013D01*
X112154786Y-99706013D02*
X112154786Y-99610775D01*
X112154786Y-99610775D02*
X112202405Y-99515537D01*
X112202405Y-99515537D02*
X112250024Y-99467918D01*
X112250024Y-99467918D02*
X112345262Y-99420299D01*
X112345262Y-99420299D02*
X112583357Y-99420299D01*
X112583357Y-99420299D02*
X112726214Y-99467918D01*
X113345262Y-99420299D02*
X113535738Y-99420299D01*
X113535738Y-99420299D02*
X113630976Y-99467918D01*
X113630976Y-99467918D02*
X113726214Y-99563156D01*
X113726214Y-99563156D02*
X113773833Y-99753632D01*
X113773833Y-99753632D02*
X113773833Y-100086965D01*
X113773833Y-100086965D02*
X113726214Y-100277441D01*
X113726214Y-100277441D02*
X113630976Y-100372680D01*
X113630976Y-100372680D02*
X113535738Y-100420299D01*
X113535738Y-100420299D02*
X113345262Y-100420299D01*
X113345262Y-100420299D02*
X113250024Y-100372680D01*
X113250024Y-100372680D02*
X113154786Y-100277441D01*
X113154786Y-100277441D02*
X113107167Y-100086965D01*
X113107167Y-100086965D02*
X113107167Y-99753632D01*
X113107167Y-99753632D02*
X113154786Y-99563156D01*
X113154786Y-99563156D02*
X113250024Y-99467918D01*
X113250024Y-99467918D02*
X113345262Y-99420299D01*
X95583584Y-128830260D02*
X95583584Y-128354070D01*
X95869299Y-128925498D02*
X94869299Y-128592165D01*
X94869299Y-128592165D02*
X95869299Y-128258832D01*
X111154786Y-95880060D02*
X111107167Y-95927680D01*
X111107167Y-95927680D02*
X110964310Y-95975299D01*
X110964310Y-95975299D02*
X110869072Y-95975299D01*
X110869072Y-95975299D02*
X110726215Y-95927680D01*
X110726215Y-95927680D02*
X110630977Y-95832441D01*
X110630977Y-95832441D02*
X110583358Y-95737203D01*
X110583358Y-95737203D02*
X110535739Y-95546727D01*
X110535739Y-95546727D02*
X110535739Y-95403870D01*
X110535739Y-95403870D02*
X110583358Y-95213394D01*
X110583358Y-95213394D02*
X110630977Y-95118156D01*
X110630977Y-95118156D02*
X110726215Y-95022918D01*
X110726215Y-95022918D02*
X110869072Y-94975299D01*
X110869072Y-94975299D02*
X110964310Y-94975299D01*
X110964310Y-94975299D02*
X111107167Y-95022918D01*
X111107167Y-95022918D02*
X111154786Y-95070537D01*
X111535739Y-95927680D02*
X111678596Y-95975299D01*
X111678596Y-95975299D02*
X111916691Y-95975299D01*
X111916691Y-95975299D02*
X112011929Y-95927680D01*
X112011929Y-95927680D02*
X112059548Y-95880060D01*
X112059548Y-95880060D02*
X112107167Y-95784822D01*
X112107167Y-95784822D02*
X112107167Y-95689584D01*
X112107167Y-95689584D02*
X112059548Y-95594346D01*
X112059548Y-95594346D02*
X112011929Y-95546727D01*
X112011929Y-95546727D02*
X111916691Y-95499108D01*
X111916691Y-95499108D02*
X111726215Y-95451489D01*
X111726215Y-95451489D02*
X111630977Y-95403870D01*
X111630977Y-95403870D02*
X111583358Y-95356251D01*
X111583358Y-95356251D02*
X111535739Y-95261013D01*
X111535739Y-95261013D02*
X111535739Y-95165775D01*
X111535739Y-95165775D02*
X111583358Y-95070537D01*
X111583358Y-95070537D02*
X111630977Y-95022918D01*
X111630977Y-95022918D02*
X111726215Y-94975299D01*
X111726215Y-94975299D02*
X111964310Y-94975299D01*
X111964310Y-94975299D02*
X112107167Y-95022918D01*
X154175608Y-129367857D02*
X152675608Y-129367857D01*
X152675608Y-129367857D02*
X153747037Y-128867857D01*
X153747037Y-128867857D02*
X152675608Y-128367857D01*
X152675608Y-128367857D02*
X154175608Y-128367857D01*
X152675608Y-127367856D02*
X152675608Y-127082142D01*
X152675608Y-127082142D02*
X152747037Y-126939285D01*
X152747037Y-126939285D02*
X152889894Y-126796428D01*
X152889894Y-126796428D02*
X153175608Y-126724999D01*
X153175608Y-126724999D02*
X153675608Y-126724999D01*
X153675608Y-126724999D02*
X153961322Y-126796428D01*
X153961322Y-126796428D02*
X154104180Y-126939285D01*
X154104180Y-126939285D02*
X154175608Y-127082142D01*
X154175608Y-127082142D02*
X154175608Y-127367856D01*
X154175608Y-127367856D02*
X154104180Y-127510714D01*
X154104180Y-127510714D02*
X153961322Y-127653571D01*
X153961322Y-127653571D02*
X153675608Y-127724999D01*
X153675608Y-127724999D02*
X153175608Y-127724999D01*
X153175608Y-127724999D02*
X152889894Y-127653571D01*
X152889894Y-127653571D02*
X152747037Y-127510714D01*
X152747037Y-127510714D02*
X152675608Y-127367856D01*
X152675608Y-126296427D02*
X152675608Y-125439285D01*
X154175608Y-125867856D02*
X152675608Y-125867856D01*
X152675608Y-123939285D02*
X152675608Y-123010713D01*
X152675608Y-123010713D02*
X153247037Y-123510713D01*
X153247037Y-123510713D02*
X153247037Y-123296428D01*
X153247037Y-123296428D02*
X153318465Y-123153571D01*
X153318465Y-123153571D02*
X153389894Y-123082142D01*
X153389894Y-123082142D02*
X153532751Y-123010713D01*
X153532751Y-123010713D02*
X153889894Y-123010713D01*
X153889894Y-123010713D02*
X154032751Y-123082142D01*
X154032751Y-123082142D02*
X154104180Y-123153571D01*
X154104180Y-123153571D02*
X154175608Y-123296428D01*
X154175608Y-123296428D02*
X154175608Y-123724999D01*
X154175608Y-123724999D02*
X154104180Y-123867856D01*
X154104180Y-123867856D02*
X154032751Y-123939285D01*
X105535739Y-95927680D02*
X105678596Y-95975299D01*
X105678596Y-95975299D02*
X105916691Y-95975299D01*
X105916691Y-95975299D02*
X106011929Y-95927680D01*
X106011929Y-95927680D02*
X106059548Y-95880060D01*
X106059548Y-95880060D02*
X106107167Y-95784822D01*
X106107167Y-95784822D02*
X106107167Y-95689584D01*
X106107167Y-95689584D02*
X106059548Y-95594346D01*
X106059548Y-95594346D02*
X106011929Y-95546727D01*
X106011929Y-95546727D02*
X105916691Y-95499108D01*
X105916691Y-95499108D02*
X105726215Y-95451489D01*
X105726215Y-95451489D02*
X105630977Y-95403870D01*
X105630977Y-95403870D02*
X105583358Y-95356251D01*
X105583358Y-95356251D02*
X105535739Y-95261013D01*
X105535739Y-95261013D02*
X105535739Y-95165775D01*
X105535739Y-95165775D02*
X105583358Y-95070537D01*
X105583358Y-95070537D02*
X105630977Y-95022918D01*
X105630977Y-95022918D02*
X105726215Y-94975299D01*
X105726215Y-94975299D02*
X105964310Y-94975299D01*
X105964310Y-94975299D02*
X106107167Y-95022918D01*
X107107167Y-95880060D02*
X107059548Y-95927680D01*
X107059548Y-95927680D02*
X106916691Y-95975299D01*
X106916691Y-95975299D02*
X106821453Y-95975299D01*
X106821453Y-95975299D02*
X106678596Y-95927680D01*
X106678596Y-95927680D02*
X106583358Y-95832441D01*
X106583358Y-95832441D02*
X106535739Y-95737203D01*
X106535739Y-95737203D02*
X106488120Y-95546727D01*
X106488120Y-95546727D02*
X106488120Y-95403870D01*
X106488120Y-95403870D02*
X106535739Y-95213394D01*
X106535739Y-95213394D02*
X106583358Y-95118156D01*
X106583358Y-95118156D02*
X106678596Y-95022918D01*
X106678596Y-95022918D02*
X106821453Y-94975299D01*
X106821453Y-94975299D02*
X106916691Y-94975299D01*
X106916691Y-94975299D02*
X107059548Y-95022918D01*
X107059548Y-95022918D02*
X107107167Y-95070537D01*
X107535739Y-95975299D02*
X107535739Y-94975299D01*
X108107167Y-95975299D02*
X107678596Y-95403870D01*
X108107167Y-94975299D02*
X107535739Y-95546727D01*
X109508167Y-89942918D02*
X109412929Y-89895299D01*
X109412929Y-89895299D02*
X109270072Y-89895299D01*
X109270072Y-89895299D02*
X109127215Y-89942918D01*
X109127215Y-89942918D02*
X109031977Y-90038156D01*
X109031977Y-90038156D02*
X108984358Y-90133394D01*
X108984358Y-90133394D02*
X108936739Y-90323870D01*
X108936739Y-90323870D02*
X108936739Y-90466727D01*
X108936739Y-90466727D02*
X108984358Y-90657203D01*
X108984358Y-90657203D02*
X109031977Y-90752441D01*
X109031977Y-90752441D02*
X109127215Y-90847680D01*
X109127215Y-90847680D02*
X109270072Y-90895299D01*
X109270072Y-90895299D02*
X109365310Y-90895299D01*
X109365310Y-90895299D02*
X109508167Y-90847680D01*
X109508167Y-90847680D02*
X109555786Y-90800060D01*
X109555786Y-90800060D02*
X109555786Y-90466727D01*
X109555786Y-90466727D02*
X109365310Y-90466727D01*
X109984358Y-90895299D02*
X109984358Y-89895299D01*
X109984358Y-89895299D02*
X110555786Y-90895299D01*
X110555786Y-90895299D02*
X110555786Y-89895299D01*
X111031977Y-90895299D02*
X111031977Y-89895299D01*
X111031977Y-89895299D02*
X111270072Y-89895299D01*
X111270072Y-89895299D02*
X111412929Y-89942918D01*
X111412929Y-89942918D02*
X111508167Y-90038156D01*
X111508167Y-90038156D02*
X111555786Y-90133394D01*
X111555786Y-90133394D02*
X111603405Y-90323870D01*
X111603405Y-90323870D02*
X111603405Y-90466727D01*
X111603405Y-90466727D02*
X111555786Y-90657203D01*
X111555786Y-90657203D02*
X111508167Y-90752441D01*
X111508167Y-90752441D02*
X111412929Y-90847680D01*
X111412929Y-90847680D02*
X111270072Y-90895299D01*
X111270072Y-90895299D02*
X111031977Y-90895299D01*
X97885489Y-103199308D02*
X97933108Y-103056451D01*
X97933108Y-103056451D02*
X97980727Y-103008832D01*
X97980727Y-103008832D02*
X98075965Y-102961213D01*
X98075965Y-102961213D02*
X98218822Y-102961213D01*
X98218822Y-102961213D02*
X98314060Y-103008832D01*
X98314060Y-103008832D02*
X98361680Y-103056451D01*
X98361680Y-103056451D02*
X98409299Y-103151689D01*
X98409299Y-103151689D02*
X98409299Y-103532641D01*
X98409299Y-103532641D02*
X97409299Y-103532641D01*
X97409299Y-103532641D02*
X97409299Y-103199308D01*
X97409299Y-103199308D02*
X97456918Y-103104070D01*
X97456918Y-103104070D02*
X97504537Y-103056451D01*
X97504537Y-103056451D02*
X97599775Y-103008832D01*
X97599775Y-103008832D02*
X97695013Y-103008832D01*
X97695013Y-103008832D02*
X97790251Y-103056451D01*
X97790251Y-103056451D02*
X97837870Y-103104070D01*
X97837870Y-103104070D02*
X97885489Y-103199308D01*
X97885489Y-103199308D02*
X97885489Y-103532641D01*
X91916918Y-117632832D02*
X91869299Y-117728070D01*
X91869299Y-117728070D02*
X91869299Y-117870927D01*
X91869299Y-117870927D02*
X91916918Y-118013784D01*
X91916918Y-118013784D02*
X92012156Y-118109022D01*
X92012156Y-118109022D02*
X92107394Y-118156641D01*
X92107394Y-118156641D02*
X92297870Y-118204260D01*
X92297870Y-118204260D02*
X92440727Y-118204260D01*
X92440727Y-118204260D02*
X92631203Y-118156641D01*
X92631203Y-118156641D02*
X92726441Y-118109022D01*
X92726441Y-118109022D02*
X92821680Y-118013784D01*
X92821680Y-118013784D02*
X92869299Y-117870927D01*
X92869299Y-117870927D02*
X92869299Y-117775689D01*
X92869299Y-117775689D02*
X92821680Y-117632832D01*
X92821680Y-117632832D02*
X92774060Y-117585213D01*
X92774060Y-117585213D02*
X92440727Y-117585213D01*
X92440727Y-117585213D02*
X92440727Y-117775689D01*
X92869299Y-117156641D02*
X91869299Y-117156641D01*
X91869299Y-117156641D02*
X92869299Y-116585213D01*
X92869299Y-116585213D02*
X91869299Y-116585213D01*
X92869299Y-116109022D02*
X91869299Y-116109022D01*
X91869299Y-116109022D02*
X91869299Y-115870927D01*
X91869299Y-115870927D02*
X91916918Y-115728070D01*
X91916918Y-115728070D02*
X92012156Y-115632832D01*
X92012156Y-115632832D02*
X92107394Y-115585213D01*
X92107394Y-115585213D02*
X92297870Y-115537594D01*
X92297870Y-115537594D02*
X92440727Y-115537594D01*
X92440727Y-115537594D02*
X92631203Y-115585213D01*
X92631203Y-115585213D02*
X92726441Y-115632832D01*
X92726441Y-115632832D02*
X92821680Y-115728070D01*
X92821680Y-115728070D02*
X92869299Y-115870927D01*
X92869299Y-115870927D02*
X92869299Y-116109022D01*
X108369299Y-129180451D02*
X108369299Y-129656641D01*
X108369299Y-129656641D02*
X107369299Y-129656641D01*
X107845489Y-128847117D02*
X107845489Y-128513784D01*
X108369299Y-128370927D02*
X108369299Y-128847117D01*
X108369299Y-128847117D02*
X107369299Y-128847117D01*
X107369299Y-128847117D02*
X107369299Y-128370927D01*
X108369299Y-127942355D02*
X107369299Y-127942355D01*
X107369299Y-127942355D02*
X107369299Y-127704260D01*
X107369299Y-127704260D02*
X107416918Y-127561403D01*
X107416918Y-127561403D02*
X107512156Y-127466165D01*
X107512156Y-127466165D02*
X107607394Y-127418546D01*
X107607394Y-127418546D02*
X107797870Y-127370927D01*
X107797870Y-127370927D02*
X107940727Y-127370927D01*
X107940727Y-127370927D02*
X108131203Y-127418546D01*
X108131203Y-127418546D02*
X108226441Y-127466165D01*
X108226441Y-127466165D02*
X108321680Y-127561403D01*
X108321680Y-127561403D02*
X108369299Y-127704260D01*
X108369299Y-127704260D02*
X108369299Y-127942355D01*
D12*
X128969457Y-137621993D02*
X129612314Y-137621993D01*
X129612314Y-137621993D02*
X129740885Y-137664850D01*
X129740885Y-137664850D02*
X129826600Y-137750564D01*
X129826600Y-137750564D02*
X129869457Y-137879136D01*
X129869457Y-137879136D02*
X129869457Y-137964850D01*
X129869457Y-136764850D02*
X129869457Y-137193422D01*
X129869457Y-137193422D02*
X128969457Y-137193422D01*
X129783742Y-135950565D02*
X129826600Y-135993422D01*
X129826600Y-135993422D02*
X129869457Y-136121994D01*
X129869457Y-136121994D02*
X129869457Y-136207708D01*
X129869457Y-136207708D02*
X129826600Y-136336279D01*
X129826600Y-136336279D02*
X129740885Y-136421994D01*
X129740885Y-136421994D02*
X129655171Y-136464851D01*
X129655171Y-136464851D02*
X129483742Y-136507708D01*
X129483742Y-136507708D02*
X129355171Y-136507708D01*
X129355171Y-136507708D02*
X129183742Y-136464851D01*
X129183742Y-136464851D02*
X129098028Y-136421994D01*
X129098028Y-136421994D02*
X129012314Y-136336279D01*
X129012314Y-136336279D02*
X128969457Y-136207708D01*
X128969457Y-136207708D02*
X128969457Y-136121994D01*
X128969457Y-136121994D02*
X129012314Y-135993422D01*
X129012314Y-135993422D02*
X129055171Y-135950565D01*
X128969457Y-135307708D02*
X129612314Y-135307708D01*
X129612314Y-135307708D02*
X129740885Y-135350565D01*
X129740885Y-135350565D02*
X129826600Y-135436279D01*
X129826600Y-135436279D02*
X129869457Y-135564851D01*
X129869457Y-135564851D02*
X129869457Y-135650565D01*
X129869457Y-134450565D02*
X129869457Y-134879137D01*
X129869457Y-134879137D02*
X128969457Y-134879137D01*
X129783742Y-133636280D02*
X129826600Y-133679137D01*
X129826600Y-133679137D02*
X129869457Y-133807709D01*
X129869457Y-133807709D02*
X129869457Y-133893423D01*
X129869457Y-133893423D02*
X129826600Y-134021994D01*
X129826600Y-134021994D02*
X129740885Y-134107709D01*
X129740885Y-134107709D02*
X129655171Y-134150566D01*
X129655171Y-134150566D02*
X129483742Y-134193423D01*
X129483742Y-134193423D02*
X129355171Y-134193423D01*
X129355171Y-134193423D02*
X129183742Y-134150566D01*
X129183742Y-134150566D02*
X129098028Y-134107709D01*
X129098028Y-134107709D02*
X129012314Y-134021994D01*
X129012314Y-134021994D02*
X128969457Y-133893423D01*
X128969457Y-133893423D02*
X128969457Y-133807709D01*
X128969457Y-133807709D02*
X129012314Y-133679137D01*
X129012314Y-133679137D02*
X129055171Y-133636280D01*
X128969457Y-132993423D02*
X129612314Y-132993423D01*
X129612314Y-132993423D02*
X129740885Y-133036280D01*
X129740885Y-133036280D02*
X129826600Y-133121994D01*
X129826600Y-133121994D02*
X129869457Y-133250566D01*
X129869457Y-133250566D02*
X129869457Y-133336280D01*
X129869457Y-132136280D02*
X129869457Y-132564852D01*
X129869457Y-132564852D02*
X128969457Y-132564852D01*
X129783742Y-131321995D02*
X129826600Y-131364852D01*
X129826600Y-131364852D02*
X129869457Y-131493424D01*
X129869457Y-131493424D02*
X129869457Y-131579138D01*
X129869457Y-131579138D02*
X129826600Y-131707709D01*
X129826600Y-131707709D02*
X129740885Y-131793424D01*
X129740885Y-131793424D02*
X129655171Y-131836281D01*
X129655171Y-131836281D02*
X129483742Y-131879138D01*
X129483742Y-131879138D02*
X129355171Y-131879138D01*
X129355171Y-131879138D02*
X129183742Y-131836281D01*
X129183742Y-131836281D02*
X129098028Y-131793424D01*
X129098028Y-131793424D02*
X129012314Y-131707709D01*
X129012314Y-131707709D02*
X128969457Y-131579138D01*
X128969457Y-131579138D02*
X128969457Y-131493424D01*
X128969457Y-131493424D02*
X129012314Y-131364852D01*
X129012314Y-131364852D02*
X129055171Y-131321995D01*
X128969457Y-130679138D02*
X129612314Y-130679138D01*
X129612314Y-130679138D02*
X129740885Y-130721995D01*
X129740885Y-130721995D02*
X129826600Y-130807709D01*
X129826600Y-130807709D02*
X129869457Y-130936281D01*
X129869457Y-130936281D02*
X129869457Y-131021995D01*
X129869457Y-129821995D02*
X129869457Y-130250567D01*
X129869457Y-130250567D02*
X128969457Y-130250567D01*
X129783742Y-129007710D02*
X129826600Y-129050567D01*
X129826600Y-129050567D02*
X129869457Y-129179139D01*
X129869457Y-129179139D02*
X129869457Y-129264853D01*
X129869457Y-129264853D02*
X129826600Y-129393424D01*
X129826600Y-129393424D02*
X129740885Y-129479139D01*
X129740885Y-129479139D02*
X129655171Y-129521996D01*
X129655171Y-129521996D02*
X129483742Y-129564853D01*
X129483742Y-129564853D02*
X129355171Y-129564853D01*
X129355171Y-129564853D02*
X129183742Y-129521996D01*
X129183742Y-129521996D02*
X129098028Y-129479139D01*
X129098028Y-129479139D02*
X129012314Y-129393424D01*
X129012314Y-129393424D02*
X128969457Y-129264853D01*
X128969457Y-129264853D02*
X128969457Y-129179139D01*
X128969457Y-129179139D02*
X129012314Y-129050567D01*
X129012314Y-129050567D02*
X129055171Y-129007710D01*
D11*
X95583584Y-103580260D02*
X95583584Y-103104070D01*
X95869299Y-103675498D02*
X94869299Y-103342165D01*
X94869299Y-103342165D02*
X95869299Y-103008832D01*
X105583358Y-100420299D02*
X105583358Y-99420299D01*
X105583358Y-99420299D02*
X105916691Y-100134584D01*
X105916691Y-100134584D02*
X106250024Y-99420299D01*
X106250024Y-99420299D02*
X106250024Y-100420299D01*
X106916691Y-99420299D02*
X107107167Y-99420299D01*
X107107167Y-99420299D02*
X107202405Y-99467918D01*
X107202405Y-99467918D02*
X107297643Y-99563156D01*
X107297643Y-99563156D02*
X107345262Y-99753632D01*
X107345262Y-99753632D02*
X107345262Y-100086965D01*
X107345262Y-100086965D02*
X107297643Y-100277441D01*
X107297643Y-100277441D02*
X107202405Y-100372680D01*
X107202405Y-100372680D02*
X107107167Y-100420299D01*
X107107167Y-100420299D02*
X106916691Y-100420299D01*
X106916691Y-100420299D02*
X106821453Y-100372680D01*
X106821453Y-100372680D02*
X106726215Y-100277441D01*
X106726215Y-100277441D02*
X106678596Y-100086965D01*
X106678596Y-100086965D02*
X106678596Y-99753632D01*
X106678596Y-99753632D02*
X106726215Y-99563156D01*
X106726215Y-99563156D02*
X106821453Y-99467918D01*
X106821453Y-99467918D02*
X106916691Y-99420299D01*
X107726215Y-100372680D02*
X107869072Y-100420299D01*
X107869072Y-100420299D02*
X108107167Y-100420299D01*
X108107167Y-100420299D02*
X108202405Y-100372680D01*
X108202405Y-100372680D02*
X108250024Y-100325060D01*
X108250024Y-100325060D02*
X108297643Y-100229822D01*
X108297643Y-100229822D02*
X108297643Y-100134584D01*
X108297643Y-100134584D02*
X108250024Y-100039346D01*
X108250024Y-100039346D02*
X108202405Y-99991727D01*
X108202405Y-99991727D02*
X108107167Y-99944108D01*
X108107167Y-99944108D02*
X107916691Y-99896489D01*
X107916691Y-99896489D02*
X107821453Y-99848870D01*
X107821453Y-99848870D02*
X107773834Y-99801251D01*
X107773834Y-99801251D02*
X107726215Y-99706013D01*
X107726215Y-99706013D02*
X107726215Y-99610775D01*
X107726215Y-99610775D02*
X107773834Y-99515537D01*
X107773834Y-99515537D02*
X107821453Y-99467918D01*
X107821453Y-99467918D02*
X107916691Y-99420299D01*
X107916691Y-99420299D02*
X108154786Y-99420299D01*
X108154786Y-99420299D02*
X108297643Y-99467918D01*
X108726215Y-100420299D02*
X108726215Y-99420299D01*
X91916918Y-130132832D02*
X91869299Y-130228070D01*
X91869299Y-130228070D02*
X91869299Y-130370927D01*
X91869299Y-130370927D02*
X91916918Y-130513784D01*
X91916918Y-130513784D02*
X92012156Y-130609022D01*
X92012156Y-130609022D02*
X92107394Y-130656641D01*
X92107394Y-130656641D02*
X92297870Y-130704260D01*
X92297870Y-130704260D02*
X92440727Y-130704260D01*
X92440727Y-130704260D02*
X92631203Y-130656641D01*
X92631203Y-130656641D02*
X92726441Y-130609022D01*
X92726441Y-130609022D02*
X92821680Y-130513784D01*
X92821680Y-130513784D02*
X92869299Y-130370927D01*
X92869299Y-130370927D02*
X92869299Y-130275689D01*
X92869299Y-130275689D02*
X92821680Y-130132832D01*
X92821680Y-130132832D02*
X92774060Y-130085213D01*
X92774060Y-130085213D02*
X92440727Y-130085213D01*
X92440727Y-130085213D02*
X92440727Y-130275689D01*
X92869299Y-129656641D02*
X91869299Y-129656641D01*
X91869299Y-129656641D02*
X92869299Y-129085213D01*
X92869299Y-129085213D02*
X91869299Y-129085213D01*
X92869299Y-128609022D02*
X91869299Y-128609022D01*
X91869299Y-128609022D02*
X91869299Y-128370927D01*
X91869299Y-128370927D02*
X91916918Y-128228070D01*
X91916918Y-128228070D02*
X92012156Y-128132832D01*
X92012156Y-128132832D02*
X92107394Y-128085213D01*
X92107394Y-128085213D02*
X92297870Y-128037594D01*
X92297870Y-128037594D02*
X92440727Y-128037594D01*
X92440727Y-128037594D02*
X92631203Y-128085213D01*
X92631203Y-128085213D02*
X92726441Y-128132832D01*
X92726441Y-128132832D02*
X92821680Y-128228070D01*
X92821680Y-128228070D02*
X92869299Y-128370927D01*
X92869299Y-128370927D02*
X92869299Y-128609022D01*
X95583584Y-116330260D02*
X95583584Y-115854070D01*
X95869299Y-116425498D02*
X94869299Y-116092165D01*
X94869299Y-116092165D02*
X95869299Y-115758832D01*
X154175608Y-104617857D02*
X152675608Y-104617857D01*
X152675608Y-104617857D02*
X153747037Y-104117857D01*
X153747037Y-104117857D02*
X152675608Y-103617857D01*
X152675608Y-103617857D02*
X154175608Y-103617857D01*
X152675608Y-102617856D02*
X152675608Y-102332142D01*
X152675608Y-102332142D02*
X152747037Y-102189285D01*
X152747037Y-102189285D02*
X152889894Y-102046428D01*
X152889894Y-102046428D02*
X153175608Y-101974999D01*
X153175608Y-101974999D02*
X153675608Y-101974999D01*
X153675608Y-101974999D02*
X153961322Y-102046428D01*
X153961322Y-102046428D02*
X154104180Y-102189285D01*
X154104180Y-102189285D02*
X154175608Y-102332142D01*
X154175608Y-102332142D02*
X154175608Y-102617856D01*
X154175608Y-102617856D02*
X154104180Y-102760714D01*
X154104180Y-102760714D02*
X153961322Y-102903571D01*
X153961322Y-102903571D02*
X153675608Y-102974999D01*
X153675608Y-102974999D02*
X153175608Y-102974999D01*
X153175608Y-102974999D02*
X152889894Y-102903571D01*
X152889894Y-102903571D02*
X152747037Y-102760714D01*
X152747037Y-102760714D02*
X152675608Y-102617856D01*
X152675608Y-101546427D02*
X152675608Y-100689285D01*
X154175608Y-101117856D02*
X152675608Y-101117856D01*
X152818465Y-99117856D02*
X152747037Y-99046428D01*
X152747037Y-99046428D02*
X152675608Y-98903571D01*
X152675608Y-98903571D02*
X152675608Y-98546428D01*
X152675608Y-98546428D02*
X152747037Y-98403571D01*
X152747037Y-98403571D02*
X152818465Y-98332142D01*
X152818465Y-98332142D02*
X152961322Y-98260713D01*
X152961322Y-98260713D02*
X153104180Y-98260713D01*
X153104180Y-98260713D02*
X153318465Y-98332142D01*
X153318465Y-98332142D02*
X154175608Y-99189285D01*
X154175608Y-99189285D02*
X154175608Y-98260713D01*
X91916918Y-104882832D02*
X91869299Y-104978070D01*
X91869299Y-104978070D02*
X91869299Y-105120927D01*
X91869299Y-105120927D02*
X91916918Y-105263784D01*
X91916918Y-105263784D02*
X92012156Y-105359022D01*
X92012156Y-105359022D02*
X92107394Y-105406641D01*
X92107394Y-105406641D02*
X92297870Y-105454260D01*
X92297870Y-105454260D02*
X92440727Y-105454260D01*
X92440727Y-105454260D02*
X92631203Y-105406641D01*
X92631203Y-105406641D02*
X92726441Y-105359022D01*
X92726441Y-105359022D02*
X92821680Y-105263784D01*
X92821680Y-105263784D02*
X92869299Y-105120927D01*
X92869299Y-105120927D02*
X92869299Y-105025689D01*
X92869299Y-105025689D02*
X92821680Y-104882832D01*
X92821680Y-104882832D02*
X92774060Y-104835213D01*
X92774060Y-104835213D02*
X92440727Y-104835213D01*
X92440727Y-104835213D02*
X92440727Y-105025689D01*
X92869299Y-104406641D02*
X91869299Y-104406641D01*
X91869299Y-104406641D02*
X92869299Y-103835213D01*
X92869299Y-103835213D02*
X91869299Y-103835213D01*
X92869299Y-103359022D02*
X91869299Y-103359022D01*
X91869299Y-103359022D02*
X91869299Y-103120927D01*
X91869299Y-103120927D02*
X91916918Y-102978070D01*
X91916918Y-102978070D02*
X92012156Y-102882832D01*
X92012156Y-102882832D02*
X92107394Y-102835213D01*
X92107394Y-102835213D02*
X92297870Y-102787594D01*
X92297870Y-102787594D02*
X92440727Y-102787594D01*
X92440727Y-102787594D02*
X92631203Y-102835213D01*
X92631203Y-102835213D02*
X92726441Y-102882832D01*
X92726441Y-102882832D02*
X92821680Y-102978070D01*
X92821680Y-102978070D02*
X92869299Y-103120927D01*
X92869299Y-103120927D02*
X92869299Y-103359022D01*
X128526299Y-83869047D02*
X128526299Y-84345237D01*
X128526299Y-84345237D02*
X127526299Y-84345237D01*
X128002489Y-83535713D02*
X128002489Y-83202380D01*
X128526299Y-83059523D02*
X128526299Y-83535713D01*
X128526299Y-83535713D02*
X127526299Y-83535713D01*
X127526299Y-83535713D02*
X127526299Y-83059523D01*
X128526299Y-82630951D02*
X127526299Y-82630951D01*
X127526299Y-82630951D02*
X127526299Y-82392856D01*
X127526299Y-82392856D02*
X127573918Y-82249999D01*
X127573918Y-82249999D02*
X127669156Y-82154761D01*
X127669156Y-82154761D02*
X127764394Y-82107142D01*
X127764394Y-82107142D02*
X127954870Y-82059523D01*
X127954870Y-82059523D02*
X128097727Y-82059523D01*
X128097727Y-82059523D02*
X128288203Y-82107142D01*
X128288203Y-82107142D02*
X128383441Y-82154761D01*
X128383441Y-82154761D02*
X128478680Y-82249999D01*
X128478680Y-82249999D02*
X128526299Y-82392856D01*
X128526299Y-82392856D02*
X128526299Y-82630951D01*
X127621537Y-81678570D02*
X127573918Y-81630951D01*
X127573918Y-81630951D02*
X127526299Y-81535713D01*
X127526299Y-81535713D02*
X127526299Y-81297618D01*
X127526299Y-81297618D02*
X127573918Y-81202380D01*
X127573918Y-81202380D02*
X127621537Y-81154761D01*
X127621537Y-81154761D02*
X127716775Y-81107142D01*
X127716775Y-81107142D02*
X127812013Y-81107142D01*
X127812013Y-81107142D02*
X127954870Y-81154761D01*
X127954870Y-81154761D02*
X128526299Y-81726189D01*
X128526299Y-81726189D02*
X128526299Y-81107142D01*
X91909142Y-110551894D02*
X92409142Y-110551894D01*
X92623428Y-111337608D02*
X91909142Y-111337608D01*
X91909142Y-111337608D02*
X91909142Y-109837608D01*
X91909142Y-109837608D02*
X92623428Y-109837608D01*
X93266285Y-111337608D02*
X93266285Y-109837608D01*
X93266285Y-109837608D02*
X94123428Y-111337608D01*
X94123428Y-111337608D02*
X94123428Y-109837608D01*
X95694857Y-111194751D02*
X95623429Y-111266180D01*
X95623429Y-111266180D02*
X95409143Y-111337608D01*
X95409143Y-111337608D02*
X95266286Y-111337608D01*
X95266286Y-111337608D02*
X95052000Y-111266180D01*
X95052000Y-111266180D02*
X94909143Y-111123322D01*
X94909143Y-111123322D02*
X94837714Y-110980465D01*
X94837714Y-110980465D02*
X94766286Y-110694751D01*
X94766286Y-110694751D02*
X94766286Y-110480465D01*
X94766286Y-110480465D02*
X94837714Y-110194751D01*
X94837714Y-110194751D02*
X94909143Y-110051894D01*
X94909143Y-110051894D02*
X95052000Y-109909037D01*
X95052000Y-109909037D02*
X95266286Y-109837608D01*
X95266286Y-109837608D02*
X95409143Y-109837608D01*
X95409143Y-109837608D02*
X95623429Y-109909037D01*
X95623429Y-109909037D02*
X95694857Y-109980465D01*
X97409143Y-109980465D02*
X97480571Y-109909037D01*
X97480571Y-109909037D02*
X97623429Y-109837608D01*
X97623429Y-109837608D02*
X97980571Y-109837608D01*
X97980571Y-109837608D02*
X98123429Y-109909037D01*
X98123429Y-109909037D02*
X98194857Y-109980465D01*
X98194857Y-109980465D02*
X98266286Y-110123322D01*
X98266286Y-110123322D02*
X98266286Y-110266180D01*
X98266286Y-110266180D02*
X98194857Y-110480465D01*
X98194857Y-110480465D02*
X97337714Y-111337608D01*
X97337714Y-111337608D02*
X98266286Y-111337608D01*
X91909142Y-123124894D02*
X92409142Y-123124894D01*
X92623428Y-123910608D02*
X91909142Y-123910608D01*
X91909142Y-123910608D02*
X91909142Y-122410608D01*
X91909142Y-122410608D02*
X92623428Y-122410608D01*
X93266285Y-123910608D02*
X93266285Y-122410608D01*
X93266285Y-122410608D02*
X94123428Y-123910608D01*
X94123428Y-123910608D02*
X94123428Y-122410608D01*
X95694857Y-123767751D02*
X95623429Y-123839180D01*
X95623429Y-123839180D02*
X95409143Y-123910608D01*
X95409143Y-123910608D02*
X95266286Y-123910608D01*
X95266286Y-123910608D02*
X95052000Y-123839180D01*
X95052000Y-123839180D02*
X94909143Y-123696322D01*
X94909143Y-123696322D02*
X94837714Y-123553465D01*
X94837714Y-123553465D02*
X94766286Y-123267751D01*
X94766286Y-123267751D02*
X94766286Y-123053465D01*
X94766286Y-123053465D02*
X94837714Y-122767751D01*
X94837714Y-122767751D02*
X94909143Y-122624894D01*
X94909143Y-122624894D02*
X95052000Y-122482037D01*
X95052000Y-122482037D02*
X95266286Y-122410608D01*
X95266286Y-122410608D02*
X95409143Y-122410608D01*
X95409143Y-122410608D02*
X95623429Y-122482037D01*
X95623429Y-122482037D02*
X95694857Y-122553465D01*
X98266286Y-123910608D02*
X97409143Y-123910608D01*
X97837714Y-123910608D02*
X97837714Y-122410608D01*
X97837714Y-122410608D02*
X97694857Y-122624894D01*
X97694857Y-122624894D02*
X97552000Y-122767751D01*
X97552000Y-122767751D02*
X97409143Y-122839180D01*
X91909142Y-97724894D02*
X92409142Y-97724894D01*
X92623428Y-98510608D02*
X91909142Y-98510608D01*
X91909142Y-98510608D02*
X91909142Y-97010608D01*
X91909142Y-97010608D02*
X92623428Y-97010608D01*
X93266285Y-98510608D02*
X93266285Y-97010608D01*
X93266285Y-97010608D02*
X94123428Y-98510608D01*
X94123428Y-98510608D02*
X94123428Y-97010608D01*
X95694857Y-98367751D02*
X95623429Y-98439180D01*
X95623429Y-98439180D02*
X95409143Y-98510608D01*
X95409143Y-98510608D02*
X95266286Y-98510608D01*
X95266286Y-98510608D02*
X95052000Y-98439180D01*
X95052000Y-98439180D02*
X94909143Y-98296322D01*
X94909143Y-98296322D02*
X94837714Y-98153465D01*
X94837714Y-98153465D02*
X94766286Y-97867751D01*
X94766286Y-97867751D02*
X94766286Y-97653465D01*
X94766286Y-97653465D02*
X94837714Y-97367751D01*
X94837714Y-97367751D02*
X94909143Y-97224894D01*
X94909143Y-97224894D02*
X95052000Y-97082037D01*
X95052000Y-97082037D02*
X95266286Y-97010608D01*
X95266286Y-97010608D02*
X95409143Y-97010608D01*
X95409143Y-97010608D02*
X95623429Y-97082037D01*
X95623429Y-97082037D02*
X95694857Y-97153465D01*
X97337714Y-97010608D02*
X98266286Y-97010608D01*
X98266286Y-97010608D02*
X97766286Y-97582037D01*
X97766286Y-97582037D02*
X97980571Y-97582037D01*
X97980571Y-97582037D02*
X98123429Y-97653465D01*
X98123429Y-97653465D02*
X98194857Y-97724894D01*
X98194857Y-97724894D02*
X98266286Y-97867751D01*
X98266286Y-97867751D02*
X98266286Y-98224894D01*
X98266286Y-98224894D02*
X98194857Y-98367751D01*
X98194857Y-98367751D02*
X98123429Y-98439180D01*
X98123429Y-98439180D02*
X97980571Y-98510608D01*
X97980571Y-98510608D02*
X97552000Y-98510608D01*
X97552000Y-98510608D02*
X97409143Y-98439180D01*
X97409143Y-98439180D02*
X97337714Y-98367751D01*
X131066299Y-83869047D02*
X131066299Y-84345237D01*
X131066299Y-84345237D02*
X130066299Y-84345237D01*
X130542489Y-83535713D02*
X130542489Y-83202380D01*
X131066299Y-83059523D02*
X131066299Y-83535713D01*
X131066299Y-83535713D02*
X130066299Y-83535713D01*
X130066299Y-83535713D02*
X130066299Y-83059523D01*
X131066299Y-82630951D02*
X130066299Y-82630951D01*
X130066299Y-82630951D02*
X130066299Y-82392856D01*
X130066299Y-82392856D02*
X130113918Y-82249999D01*
X130113918Y-82249999D02*
X130209156Y-82154761D01*
X130209156Y-82154761D02*
X130304394Y-82107142D01*
X130304394Y-82107142D02*
X130494870Y-82059523D01*
X130494870Y-82059523D02*
X130637727Y-82059523D01*
X130637727Y-82059523D02*
X130828203Y-82107142D01*
X130828203Y-82107142D02*
X130923441Y-82154761D01*
X130923441Y-82154761D02*
X131018680Y-82249999D01*
X131018680Y-82249999D02*
X131066299Y-82392856D01*
X131066299Y-82392856D02*
X131066299Y-82630951D01*
X131066299Y-81107142D02*
X131066299Y-81678570D01*
X131066299Y-81392856D02*
X130066299Y-81392856D01*
X130066299Y-81392856D02*
X130209156Y-81488094D01*
X130209156Y-81488094D02*
X130304394Y-81583332D01*
X130304394Y-81583332D02*
X130352013Y-81678570D01*
D13*
%TO.C,LED2*%
X128807000Y-84690500D02*
X127337000Y-84690500D01*
X127337000Y-84690500D02*
X127337000Y-87150500D01*
X128807000Y-87150500D02*
X128807000Y-84690500D01*
%TO.C,TP_MISO1*%
X113270000Y-102075000D02*
G75*
G03*
X113270000Y-102075000I-1200000J0D01*
G01*
D14*
%TO.C,U2*%
X135847000Y-105213500D02*
X135847000Y-102683500D01*
X142247000Y-105213500D02*
X135847000Y-105213500D01*
X142247000Y-105213500D02*
X142247000Y-102683500D01*
X135847000Y-100243500D02*
X135847000Y-97713500D01*
X142247000Y-100243500D02*
X142247000Y-97713500D01*
X142247000Y-97713500D02*
X135847000Y-97713500D01*
%TO.C,U6*%
X135847000Y-80530000D02*
X135847000Y-78000000D01*
X142247000Y-80530000D02*
X135847000Y-80530000D01*
X142247000Y-80530000D02*
X142247000Y-78000000D01*
X135847000Y-75560000D02*
X135847000Y-73030000D01*
X142247000Y-75560000D02*
X142247000Y-73030000D01*
X142247000Y-73030000D02*
X135847000Y-73030000D01*
D13*
%TO.C,MOT3*%
X144455000Y-131390000D02*
X152075000Y-131390000D01*
X152075000Y-131390000D02*
X152075000Y-121230000D01*
X144455000Y-121230000D02*
X144455000Y-131390000D01*
X150805000Y-121230000D02*
X150805000Y-131390000D01*
X152075000Y-121230000D02*
X144455000Y-121230000D01*
%TO.C,ENC 2*%
X88642000Y-114835000D02*
X88642000Y-113505000D01*
X89972000Y-114835000D02*
X88642000Y-114835000D01*
X91242000Y-114835000D02*
X98922000Y-114835000D01*
X91242000Y-114835000D02*
X91242000Y-112175000D01*
X98922000Y-114835000D02*
X98922000Y-112175000D01*
X91242000Y-112175000D02*
X98922000Y-112175000D01*
%TO.C,C8*%
X125011580Y-108427000D02*
X124730420Y-108427000D01*
X125011580Y-107407000D02*
X124730420Y-107407000D01*
%TO.C,R4*%
X131093000Y-124684436D02*
X131093000Y-125138564D01*
X129623000Y-124684436D02*
X129623000Y-125138564D01*
%TO.C,Q2*%
X117170000Y-132555000D02*
X117170000Y-129105000D01*
X117170000Y-132555000D02*
X117170000Y-134505000D01*
X112050000Y-132555000D02*
X112050000Y-130605000D01*
X112050000Y-132555000D02*
X112050000Y-134505000D01*
%TO.C,C16*%
X115981500Y-98370420D02*
X115981500Y-98651580D01*
X114961500Y-98370420D02*
X114961500Y-98651580D01*
%TO.C,C14*%
X117010580Y-123794000D02*
X116729420Y-123794000D01*
X117010580Y-122774000D02*
X116729420Y-122774000D01*
%TO.C,TP_SCK1*%
X109460000Y-97630000D02*
G75*
G03*
X109460000Y-97630000I-1200000J0D01*
G01*
%TO.C,R5*%
X104858000Y-131234564D02*
X104858000Y-130780436D01*
X106328000Y-131234564D02*
X106328000Y-130780436D01*
%TO.C,C9*%
X123881580Y-119857000D02*
X123600420Y-119857000D01*
X123881580Y-118837000D02*
X123600420Y-118837000D01*
D15*
%TO.C,SWITCH1*%
X102801000Y-114952000D02*
X106301000Y-114952000D01*
X106301000Y-114952000D02*
X106301000Y-108952000D01*
X106301000Y-108952000D02*
X102801000Y-108952000D01*
X102801000Y-108952000D02*
X102801000Y-114952000D01*
D13*
%TO.C,D2*%
X121915000Y-145099000D02*
X123815000Y-145099000D01*
X121915000Y-145099000D02*
X121915000Y-141439000D01*
X123815000Y-145099000D02*
X123815000Y-141439000D01*
%TO.C,C12*%
X120540580Y-123794000D02*
X120259420Y-123794000D01*
X120540580Y-122774000D02*
X120259420Y-122774000D01*
%TO.C,R2*%
X110900000Y-131415436D02*
X110900000Y-131869564D01*
X109430000Y-131415436D02*
X109430000Y-131869564D01*
%TO.C,R8*%
X124499258Y-73260500D02*
X124024742Y-73260500D01*
X124499258Y-72215500D02*
X124024742Y-72215500D01*
%TO.C,ZENER1*%
X114490000Y-128075000D02*
X114490000Y-126875000D01*
X112640000Y-128075000D02*
X114490000Y-128075000D01*
X112640000Y-126875000D02*
X114490000Y-126875000D01*
%TO.C,TP_GND1*%
X111492000Y-92550000D02*
G75*
G03*
X111492000Y-92550000I-1200000J0D01*
G01*
%TO.C,U1*%
X112776000Y-107887000D02*
X112776000Y-108837000D01*
X112776000Y-108837000D02*
X111436000Y-108837000D01*
X112776000Y-118107000D02*
X112776000Y-117157000D01*
X113726000Y-107887000D02*
X112776000Y-107887000D01*
X113726000Y-118107000D02*
X112776000Y-118107000D01*
X122046000Y-107887000D02*
X122996000Y-107887000D01*
X122046000Y-118107000D02*
X122996000Y-118107000D01*
X122996000Y-107887000D02*
X122996000Y-108837000D01*
X122996000Y-118107000D02*
X122996000Y-117157000D01*
%TO.C,C22*%
X95574580Y-134512000D02*
X95293420Y-134512000D01*
X95574580Y-133492000D02*
X95293420Y-133492000D01*
%TO.C,D5*%
X107144000Y-133125500D02*
X108614000Y-133125500D01*
X108614000Y-133125500D02*
X108614000Y-130840500D01*
X107144000Y-130840500D02*
X107144000Y-133125500D01*
%TO.C,R1*%
X124796936Y-105277000D02*
X125251064Y-105277000D01*
X124796936Y-106747000D02*
X125251064Y-106747000D01*
%TO.C,G\u002A\u002A\u002A*%
G36*
X102458072Y-84151648D02*
G01*
X102520272Y-84160325D01*
X102544026Y-84175792D01*
X102544618Y-84179584D01*
X102538520Y-84209243D01*
X102521498Y-84279041D01*
X102495451Y-84381791D01*
X102462279Y-84510303D01*
X102423880Y-84657389D01*
X102382154Y-84815861D01*
X102338999Y-84978529D01*
X102296316Y-85138206D01*
X102256002Y-85287702D01*
X102219957Y-85419829D01*
X102190081Y-85527399D01*
X102170569Y-85595463D01*
X102138075Y-85705791D01*
X101939362Y-85712871D01*
X101740649Y-85719951D01*
X101811830Y-85455438D01*
X101840463Y-85348722D01*
X101878411Y-85206818D01*
X101922417Y-85041937D01*
X101969223Y-84866286D01*
X102015571Y-84692073D01*
X102021455Y-84669932D01*
X102159899Y-84148938D01*
X102352266Y-84148938D01*
X102458072Y-84151648D01*
G37*
G36*
X101920637Y-84236991D02*
G01*
X101903222Y-84325572D01*
X101884266Y-84384278D01*
X101854285Y-84419248D01*
X101803797Y-84436622D01*
X101723320Y-84442542D01*
X101603373Y-84443146D01*
X101602266Y-84443146D01*
X101345172Y-84443146D01*
X101317921Y-84547345D01*
X101268177Y-84736312D01*
X101217537Y-84926444D01*
X101168431Y-85108797D01*
X101123289Y-85274423D01*
X101084539Y-85414380D01*
X101054610Y-85519720D01*
X101044935Y-85552557D01*
X100995262Y-85718050D01*
X100799859Y-85718050D01*
X100702672Y-85716975D01*
X100645484Y-85712340D01*
X100619282Y-85702027D01*
X100615052Y-85683920D01*
X100617155Y-85675144D01*
X100638850Y-85598972D01*
X100667971Y-85492610D01*
X100702470Y-85363961D01*
X100740299Y-85220931D01*
X100779409Y-85071422D01*
X100817752Y-84923338D01*
X100853279Y-84784583D01*
X100883942Y-84663061D01*
X100907693Y-84566675D01*
X100922482Y-84503329D01*
X100926486Y-84481641D01*
X100919444Y-84463812D01*
X100892773Y-84452371D01*
X100838157Y-84446012D01*
X100747278Y-84443430D01*
X100681312Y-84443146D01*
X100565144Y-84442711D01*
X100490988Y-84437612D01*
X100451832Y-84422158D01*
X100440664Y-84390658D01*
X100450472Y-84337420D01*
X100469854Y-84271525D01*
X100502826Y-84161196D01*
X101220061Y-84154692D01*
X101937296Y-84148188D01*
X101920637Y-84236991D01*
G37*
G36*
X107227343Y-84149934D02*
G01*
X107370368Y-84152761D01*
X107482944Y-84157175D01*
X107559337Y-84162936D01*
X107593812Y-84169800D01*
X107595212Y-84171585D01*
X107590050Y-84206891D01*
X107576857Y-84272244D01*
X107566634Y-84318041D01*
X107538055Y-84441849D01*
X107193583Y-84448627D01*
X106849111Y-84455405D01*
X106808463Y-84590250D01*
X106767814Y-84725096D01*
X107083444Y-84731937D01*
X107216614Y-84734819D01*
X107307461Y-84739643D01*
X107362631Y-84750856D01*
X107388773Y-84772905D01*
X107392533Y-84810237D01*
X107380558Y-84867299D01*
X107366407Y-84921235D01*
X107334687Y-85043822D01*
X107007697Y-85056081D01*
X106680708Y-85068339D01*
X106637311Y-85227081D01*
X106616950Y-85310164D01*
X106605609Y-85374188D01*
X106605663Y-85404832D01*
X106633171Y-85411793D01*
X106700370Y-85417610D01*
X106797918Y-85421767D01*
X106916477Y-85423747D01*
X106949677Y-85423841D01*
X107281943Y-85423841D01*
X107265354Y-85512270D01*
X107247594Y-85590024D01*
X107227353Y-85656979D01*
X107226456Y-85659374D01*
X107204148Y-85718050D01*
X106654700Y-85718050D01*
X106105252Y-85718050D01*
X106176178Y-85454488D01*
X106204724Y-85348092D01*
X106242592Y-85206487D01*
X106286531Y-85041857D01*
X106333288Y-84866388D01*
X106379612Y-84692265D01*
X106385548Y-84669932D01*
X106523992Y-84148938D01*
X107059602Y-84148938D01*
X107227343Y-84149934D01*
G37*
G36*
X104668323Y-80335311D02*
G01*
X104716587Y-80365653D01*
X104741323Y-80425369D01*
X104750237Y-80521904D01*
X104751197Y-80604331D01*
X104751197Y-80807380D01*
X104569584Y-80822732D01*
X104339659Y-80863282D01*
X104138432Y-80943583D01*
X103966010Y-81063551D01*
X103822502Y-81223098D01*
X103708014Y-81422140D01*
X103656879Y-81550067D01*
X103603755Y-81758103D01*
X103582610Y-81975715D01*
X103591975Y-82193600D01*
X103630380Y-82402457D01*
X103696356Y-82592983D01*
X103788433Y-82755874D01*
X103860975Y-82841920D01*
X104004851Y-82951849D01*
X104177534Y-83025491D01*
X104374428Y-83062465D01*
X104590939Y-83062385D01*
X104822475Y-83024867D01*
X105064441Y-82949527D01*
X105079238Y-82943777D01*
X105198882Y-82896755D01*
X105187648Y-83169425D01*
X105180191Y-83302085D01*
X105170060Y-83391785D01*
X105156311Y-83444568D01*
X105141556Y-83464619D01*
X105102842Y-83482300D01*
X105030913Y-83509294D01*
X104939439Y-83540547D01*
X104912466Y-83549284D01*
X104697641Y-83599825D01*
X104465272Y-83623243D01*
X104236513Y-83618231D01*
X104101486Y-83599443D01*
X103832122Y-83525516D01*
X103591967Y-83415905D01*
X103383615Y-83272934D01*
X103209659Y-83098926D01*
X103072694Y-82896208D01*
X102975314Y-82667102D01*
X102947188Y-82565041D01*
X102928536Y-82444386D01*
X102918852Y-82290343D01*
X102917740Y-82117656D01*
X102924803Y-81941072D01*
X102939645Y-81775333D01*
X102961869Y-81635185D01*
X102973483Y-81586872D01*
X103041226Y-81392834D01*
X103134870Y-81195601D01*
X103243812Y-81016180D01*
X103299137Y-80941663D01*
X103491015Y-80735304D01*
X103701414Y-80572997D01*
X103933803Y-80452938D01*
X104191653Y-80373325D01*
X104470391Y-80332960D01*
X104588826Y-80326895D01*
X104668323Y-80335311D01*
G37*
G36*
X96344966Y-84150826D02*
G01*
X96488661Y-84199003D01*
X96573869Y-84250771D01*
X96656260Y-84345444D01*
X96709014Y-84471216D01*
X96732408Y-84620338D01*
X96726721Y-84785057D01*
X96692232Y-84957623D01*
X96629219Y-85130285D01*
X96537959Y-85295291D01*
X96536263Y-85297838D01*
X96420899Y-85444967D01*
X96289134Y-85558723D01*
X96125639Y-85652056D01*
X96106209Y-85661106D01*
X95988006Y-85700714D01*
X95844587Y-85727164D01*
X95692444Y-85739373D01*
X95548070Y-85736257D01*
X95427960Y-85716733D01*
X95399236Y-85707556D01*
X95258244Y-85635114D01*
X95157230Y-85536345D01*
X95094402Y-85408526D01*
X95067967Y-85248934D01*
X95066834Y-85202440D01*
X95068515Y-85185691D01*
X95488884Y-85185691D01*
X95499139Y-85275816D01*
X95518072Y-85334130D01*
X95552183Y-85377807D01*
X95566510Y-85390764D01*
X95651695Y-85434695D01*
X95761153Y-85449398D01*
X95879538Y-85434541D01*
X95973533Y-85399550D01*
X96052505Y-85346254D01*
X96124459Y-85277483D01*
X96135083Y-85264372D01*
X96207662Y-85142494D01*
X96266709Y-84992792D01*
X96305407Y-84836014D01*
X96317220Y-84709836D01*
X96314288Y-84622102D01*
X96301467Y-84564758D01*
X96272722Y-84519311D01*
X96245554Y-84490295D01*
X96193976Y-84446482D01*
X96140301Y-84425235D01*
X96063374Y-84419101D01*
X96043285Y-84419032D01*
X95895352Y-84441037D01*
X95767927Y-84506838D01*
X95658976Y-84617586D01*
X95636649Y-84649040D01*
X95543832Y-84827947D01*
X95494485Y-85019413D01*
X95488884Y-85185691D01*
X95068515Y-85185691D01*
X95089299Y-84978583D01*
X95154019Y-84767554D01*
X95256980Y-84575915D01*
X95394172Y-84410227D01*
X95561580Y-84277049D01*
X95668728Y-84218321D01*
X95829553Y-84161575D01*
X96003685Y-84131691D01*
X96179399Y-84128248D01*
X96344966Y-84150826D01*
G37*
G36*
X97145601Y-80624565D02*
G01*
X97138552Y-80851351D01*
X96534631Y-80857902D01*
X95930710Y-80864454D01*
X95915687Y-81090817D01*
X95908110Y-81213527D01*
X95901336Y-81338248D01*
X95896563Y-81442548D01*
X95895773Y-81464285D01*
X95890882Y-81611389D01*
X96349225Y-81618060D01*
X96807567Y-81624730D01*
X96807567Y-81869363D01*
X96807567Y-82113996D01*
X96329478Y-82113996D01*
X95851390Y-82113996D01*
X95848946Y-82254971D01*
X95846695Y-82335330D01*
X95842381Y-82449350D01*
X95836630Y-82581731D01*
X95830194Y-82714671D01*
X95824557Y-82864625D01*
X95825023Y-82972424D01*
X95831528Y-83035593D01*
X95838766Y-83051410D01*
X95869901Y-83056915D01*
X95942253Y-83061779D01*
X96048005Y-83065724D01*
X96179341Y-83068472D01*
X96328444Y-83069746D01*
X96357061Y-83069798D01*
X96512833Y-83070662D01*
X96656295Y-83072850D01*
X96778538Y-83076115D01*
X96870651Y-83080213D01*
X96923725Y-83084898D01*
X96927089Y-83085497D01*
X97003706Y-83100820D01*
X97003706Y-83330670D01*
X97003706Y-83560521D01*
X96740144Y-83554802D01*
X96642134Y-83552966D01*
X96505178Y-83550810D01*
X96339363Y-83548471D01*
X96154776Y-83546088D01*
X95961505Y-83543797D01*
X95810296Y-83542153D01*
X95144009Y-83535222D01*
X95155128Y-83406896D01*
X95158453Y-83357602D01*
X95163803Y-83264532D01*
X95170909Y-83132893D01*
X95179506Y-82967891D01*
X95189326Y-82774730D01*
X95200102Y-82558619D01*
X95211568Y-82324761D01*
X95223457Y-82078363D01*
X95226440Y-82015926D01*
X95238516Y-81765172D01*
X95250364Y-81523999D01*
X95261699Y-81297873D01*
X95272238Y-81092255D01*
X95281695Y-80912611D01*
X95289786Y-80764404D01*
X95296227Y-80653098D01*
X95300734Y-80584155D01*
X95301412Y-80575530D01*
X95316191Y-80397779D01*
X96234421Y-80397779D01*
X97152651Y-80397779D01*
X97145601Y-80624565D01*
G37*
G36*
X99801916Y-84150826D02*
G01*
X99945611Y-84199003D01*
X100030819Y-84250771D01*
X100113210Y-84345444D01*
X100165964Y-84471216D01*
X100189358Y-84620338D01*
X100183671Y-84785057D01*
X100149182Y-84957623D01*
X100086168Y-85130285D01*
X99994909Y-85295291D01*
X99993213Y-85297838D01*
X99877849Y-85444967D01*
X99746083Y-85558723D01*
X99582589Y-85652056D01*
X99563158Y-85661106D01*
X99444956Y-85700714D01*
X99301537Y-85727164D01*
X99149394Y-85739373D01*
X99005020Y-85736257D01*
X98884910Y-85716733D01*
X98856186Y-85707556D01*
X98715194Y-85635114D01*
X98614180Y-85536345D01*
X98551352Y-85408526D01*
X98524917Y-85248934D01*
X98523783Y-85202440D01*
X98527993Y-85160486D01*
X98940579Y-85160486D01*
X98943723Y-85247490D01*
X98957340Y-85304585D01*
X98987712Y-85350715D01*
X99012245Y-85376692D01*
X99065801Y-85421622D01*
X99122294Y-85442817D01*
X99203924Y-85448348D01*
X99209361Y-85448359D01*
X99333509Y-85433637D01*
X99430483Y-85399550D01*
X99509455Y-85346254D01*
X99581409Y-85277483D01*
X99592033Y-85264372D01*
X99664612Y-85142494D01*
X99723659Y-84992792D01*
X99762357Y-84836014D01*
X99774170Y-84709836D01*
X99771238Y-84622102D01*
X99758417Y-84564758D01*
X99729672Y-84519311D01*
X99702503Y-84490295D01*
X99650926Y-84446482D01*
X99597250Y-84425235D01*
X99520324Y-84419101D01*
X99500235Y-84419032D01*
X99352112Y-84441106D01*
X99224535Y-84507049D01*
X99115636Y-84617917D01*
X99094041Y-84648378D01*
X98999322Y-84832746D01*
X98948801Y-85035233D01*
X98940579Y-85160486D01*
X98527993Y-85160486D01*
X98546249Y-84978583D01*
X98610968Y-84767554D01*
X98713930Y-84575915D01*
X98851122Y-84410227D01*
X99018529Y-84277049D01*
X99125678Y-84218321D01*
X99286503Y-84161575D01*
X99460635Y-84131691D01*
X99636349Y-84128248D01*
X99801916Y-84150826D01*
G37*
G36*
X105081427Y-84151647D02*
G01*
X105143625Y-84160324D01*
X105167378Y-84175789D01*
X105167971Y-84179584D01*
X105161813Y-84211813D01*
X105144664Y-84283561D01*
X105118495Y-84387057D01*
X105085274Y-84514531D01*
X105046971Y-84658210D01*
X105042157Y-84676061D01*
X104986554Y-84887922D01*
X104946661Y-85057701D01*
X104922951Y-85189926D01*
X104915896Y-85289124D01*
X104925969Y-85359820D01*
X104953643Y-85406541D01*
X104999389Y-85433814D01*
X105063681Y-85446164D01*
X105122790Y-85448359D01*
X105209342Y-85441037D01*
X105275535Y-85412332D01*
X105324872Y-85373698D01*
X105361830Y-85336622D01*
X105394556Y-85291141D01*
X105425570Y-85230739D01*
X105457395Y-85148900D01*
X105492550Y-85039106D01*
X105533558Y-84894842D01*
X105582939Y-84709591D01*
X105585296Y-84700579D01*
X105619006Y-84572544D01*
X105652143Y-84448315D01*
X105680647Y-84343018D01*
X105698782Y-84277654D01*
X105735371Y-84148938D01*
X105929770Y-84148938D01*
X106020394Y-84151072D01*
X106088455Y-84156742D01*
X106122308Y-84164843D01*
X106124073Y-84167326D01*
X106117103Y-84208901D01*
X106098043Y-84288767D01*
X106069359Y-84398388D01*
X106033514Y-84529232D01*
X105992976Y-84672763D01*
X105950207Y-84820446D01*
X105907674Y-84963748D01*
X105867842Y-85094135D01*
X105833176Y-85203071D01*
X105806141Y-85282023D01*
X105791864Y-85317449D01*
X105697433Y-85460967D01*
X105567783Y-85584898D01*
X105416253Y-85676495D01*
X105416167Y-85676534D01*
X105318496Y-85706836D01*
X105191396Y-85727479D01*
X105051445Y-85737665D01*
X104915222Y-85736595D01*
X104799307Y-85723468D01*
X104744835Y-85708897D01*
X104657700Y-85669688D01*
X104590912Y-85621380D01*
X104544014Y-85559264D01*
X104516554Y-85478633D01*
X104508075Y-85374779D01*
X104518124Y-85242993D01*
X104546246Y-85078568D01*
X104591985Y-84876795D01*
X104644641Y-84671410D01*
X104783258Y-84148938D01*
X104975625Y-84148938D01*
X105081427Y-84151647D01*
G37*
G36*
X94170193Y-84153324D02*
G01*
X94337391Y-84157489D01*
X94463099Y-84162813D01*
X94554859Y-84170036D01*
X94620215Y-84179898D01*
X94666708Y-84193140D01*
X94691455Y-84204484D01*
X94781972Y-84270922D01*
X94832192Y-84353718D01*
X94843573Y-84458240D01*
X94817574Y-84589855D01*
X94805944Y-84626041D01*
X94770932Y-84699180D01*
X94717755Y-84778161D01*
X94656413Y-84851283D01*
X94596905Y-84906845D01*
X94549230Y-84933147D01*
X94542883Y-84933869D01*
X94498377Y-84946442D01*
X94482341Y-84955067D01*
X94467448Y-84977000D01*
X94486491Y-85011222D01*
X94511284Y-85037684D01*
X94539661Y-85069607D01*
X94563256Y-85107446D01*
X94584887Y-85159426D01*
X94607369Y-85233776D01*
X94633522Y-85338722D01*
X94666163Y-85482491D01*
X94670822Y-85503523D01*
X94718266Y-85718050D01*
X94503611Y-85718050D01*
X94288956Y-85718050D01*
X94243793Y-85495579D01*
X94218718Y-85387534D01*
X94190540Y-85290033D01*
X94164017Y-85218841D01*
X94155003Y-85201371D01*
X94122460Y-85157573D01*
X94082964Y-85136372D01*
X94018408Y-85129887D01*
X93990169Y-85129633D01*
X93868962Y-85129633D01*
X93832095Y-85258349D01*
X93805457Y-85353465D01*
X93774331Y-85467613D01*
X93751676Y-85552557D01*
X93708124Y-85718050D01*
X93507653Y-85718050D01*
X93307182Y-85718050D01*
X93378108Y-85454488D01*
X93406601Y-85348290D01*
X93444431Y-85206829D01*
X93488360Y-85042234D01*
X93535151Y-84866639D01*
X93543455Y-84835424D01*
X93943796Y-84835424D01*
X94097472Y-84835424D01*
X94198613Y-84830553D01*
X94267702Y-84813443D01*
X94314903Y-84785274D01*
X94374570Y-84715603D01*
X94407758Y-84630285D01*
X94409888Y-84546419D01*
X94391486Y-84499290D01*
X94364264Y-84467792D01*
X94325688Y-84450766D01*
X94261508Y-84444014D01*
X94200895Y-84443146D01*
X94047091Y-84443146D01*
X93995444Y-84639285D01*
X93943796Y-84835424D01*
X93543455Y-84835424D01*
X93581566Y-84692173D01*
X93588079Y-84667668D01*
X93727124Y-84144409D01*
X94170193Y-84153324D01*
G37*
G36*
X97663997Y-84153487D02*
G01*
X97862730Y-84159515D01*
X98017768Y-84169793D01*
X98134420Y-84186783D01*
X98217992Y-84212948D01*
X98273793Y-84250747D01*
X98307130Y-84302643D01*
X98323310Y-84371097D01*
X98327642Y-84458571D01*
X98327644Y-84461252D01*
X98309530Y-84576535D01*
X98260977Y-84687208D01*
X98190675Y-84778408D01*
X98109519Y-84834376D01*
X98031917Y-84866520D01*
X98087841Y-84905011D01*
X98155603Y-84962106D01*
X98191129Y-85025954D01*
X98203304Y-85114720D01*
X98203739Y-85141891D01*
X98180853Y-85300561D01*
X98114181Y-85442144D01*
X98007680Y-85560737D01*
X97865307Y-85650436D01*
X97861814Y-85652034D01*
X97817305Y-85669822D01*
X97767450Y-85683313D01*
X97704256Y-85693325D01*
X97619727Y-85700673D01*
X97505872Y-85706177D01*
X97354695Y-85710654D01*
X97269391Y-85712615D01*
X96787297Y-85723093D01*
X96858899Y-85457009D01*
X96878831Y-85382719D01*
X97276518Y-85382719D01*
X97279905Y-85423853D01*
X97314515Y-85442866D01*
X97387987Y-85448178D01*
X97421289Y-85448359D01*
X97517952Y-85442406D01*
X97608254Y-85427108D01*
X97652576Y-85413514D01*
X97734303Y-85355172D01*
X97791580Y-85267251D01*
X97812780Y-85169017D01*
X97794231Y-85103684D01*
X97736930Y-85059936D01*
X97638392Y-85036525D01*
X97538578Y-85031563D01*
X97373357Y-85031563D01*
X97346696Y-85135762D01*
X97323913Y-85220023D01*
X97301117Y-85297285D01*
X97296716Y-85311042D01*
X97276518Y-85382719D01*
X96878831Y-85382719D01*
X96887613Y-85349988D01*
X96925649Y-85207756D01*
X96969755Y-85042499D01*
X97016680Y-84866402D01*
X97054627Y-84723771D01*
X97463400Y-84723771D01*
X97465809Y-84750254D01*
X97496929Y-84757349D01*
X97561912Y-84759523D01*
X97634237Y-84756956D01*
X97733169Y-84745855D01*
X97799984Y-84724172D01*
X97848764Y-84689064D01*
X97895364Y-84622572D01*
X97912316Y-84548408D01*
X97898834Y-84482164D01*
X97861176Y-84442804D01*
X97809420Y-84429172D01*
X97730016Y-84422783D01*
X97673295Y-84423554D01*
X97535088Y-84430888D01*
X97492456Y-84582437D01*
X97472778Y-84662927D01*
X97463400Y-84723771D01*
X97054627Y-84723771D01*
X97063172Y-84691651D01*
X97069625Y-84667372D01*
X97208748Y-84143819D01*
X97663997Y-84153487D01*
G37*
G36*
X103794505Y-84132123D02*
G01*
X103965821Y-84165361D01*
X104100155Y-84230521D01*
X104197838Y-84327853D01*
X104259203Y-84457607D01*
X104284579Y-84620032D01*
X104285367Y-84658376D01*
X104261818Y-84889876D01*
X104192157Y-85106153D01*
X104077858Y-85303808D01*
X103935085Y-85465771D01*
X103856790Y-85534657D01*
X103778813Y-85594898D01*
X103720045Y-85632293D01*
X103663657Y-85661791D01*
X103629616Y-85681090D01*
X103626598Y-85683234D01*
X103634383Y-85706110D01*
X103663167Y-85759548D01*
X103707189Y-85833024D01*
X103718538Y-85851137D01*
X103766490Y-85928615D01*
X103802115Y-85989133D01*
X103818980Y-86021685D01*
X103819536Y-86023916D01*
X103797027Y-86030086D01*
X103737523Y-86034639D01*
X103653054Y-86036727D01*
X103637158Y-86036776D01*
X103454780Y-86036776D01*
X103363982Y-85889671D01*
X103314137Y-85812173D01*
X103277042Y-85768031D01*
X103241239Y-85747959D01*
X103195273Y-85742669D01*
X103182496Y-85742567D01*
X103054873Y-85727332D01*
X102920169Y-85686988D01*
X102804054Y-85629578D01*
X102788725Y-85619210D01*
X102702723Y-85529301D01*
X102646781Y-85408912D01*
X102619963Y-85265556D01*
X102620867Y-85160486D01*
X103034980Y-85160486D01*
X103038124Y-85247490D01*
X103051742Y-85304585D01*
X103082113Y-85350715D01*
X103106647Y-85376692D01*
X103160203Y-85421622D01*
X103216696Y-85442817D01*
X103298325Y-85448348D01*
X103303762Y-85448359D01*
X103427911Y-85433637D01*
X103524884Y-85399550D01*
X103603857Y-85346254D01*
X103675810Y-85277483D01*
X103686434Y-85264372D01*
X103759014Y-85142494D01*
X103818060Y-84992792D01*
X103856759Y-84836014D01*
X103868571Y-84709836D01*
X103865639Y-84622102D01*
X103852819Y-84564758D01*
X103824073Y-84519311D01*
X103796905Y-84490295D01*
X103745327Y-84446482D01*
X103691652Y-84425235D01*
X103614725Y-84419101D01*
X103594637Y-84419032D01*
X103446514Y-84441106D01*
X103318937Y-84507049D01*
X103210037Y-84617917D01*
X103188443Y-84648378D01*
X103093724Y-84832746D01*
X103043203Y-85035233D01*
X103034980Y-85160486D01*
X102620867Y-85160486D01*
X102621329Y-85106746D01*
X102649943Y-84939994D01*
X102704865Y-84772815D01*
X102785160Y-84612720D01*
X102889888Y-84467224D01*
X102939174Y-84414030D01*
X103107051Y-84278809D01*
X103297484Y-84186789D01*
X103511668Y-84137447D01*
X103585877Y-84130556D01*
X103794505Y-84132123D01*
G37*
G36*
X101872129Y-80393867D02*
G01*
X101940234Y-80397904D01*
X101980152Y-80405739D01*
X101998816Y-80417893D01*
X102001734Y-80423620D01*
X102009636Y-80453010D01*
X102028417Y-80525875D01*
X102057041Y-80638126D01*
X102094476Y-80785673D01*
X102139686Y-80964425D01*
X102191638Y-81170293D01*
X102249298Y-81399186D01*
X102311631Y-81647015D01*
X102377604Y-81909688D01*
X102398110Y-81991409D01*
X102782542Y-83523745D01*
X102632941Y-83539267D01*
X102531646Y-83547372D01*
X102407492Y-83553936D01*
X102286651Y-83557586D01*
X102282016Y-83557655D01*
X102080693Y-83560521D01*
X102056838Y-83468581D01*
X102043276Y-83410515D01*
X102022959Y-83316342D01*
X101998419Y-83198101D01*
X101972189Y-83067831D01*
X101966595Y-83039527D01*
X101900206Y-82702413D01*
X101416729Y-82702413D01*
X100933251Y-82702413D01*
X100780075Y-83131467D01*
X100626899Y-83560521D01*
X100323121Y-83560521D01*
X100207569Y-83559963D01*
X100112238Y-83558440D01*
X100046454Y-83556179D01*
X100019540Y-83553407D01*
X100019343Y-83553140D01*
X100028012Y-83529122D01*
X100052841Y-83464003D01*
X100092063Y-83362297D01*
X100143910Y-83228522D01*
X100206616Y-83067192D01*
X100278413Y-82882823D01*
X100357535Y-82679932D01*
X100442213Y-82463035D01*
X100530681Y-82236646D01*
X100553781Y-82177585D01*
X101106093Y-82177585D01*
X101108158Y-82191236D01*
X101130832Y-82200855D01*
X101180554Y-82207086D01*
X101263759Y-82210572D01*
X101386886Y-82211956D01*
X101450987Y-82212065D01*
X101602748Y-82210391D01*
X101715158Y-82205517D01*
X101785013Y-82197668D01*
X101809111Y-82187068D01*
X101809112Y-82187031D01*
X101805177Y-82149447D01*
X101794257Y-82072198D01*
X101777676Y-81963287D01*
X101756761Y-81830716D01*
X101732835Y-81682485D01*
X101707226Y-81526599D01*
X101681258Y-81371058D01*
X101656257Y-81223864D01*
X101633547Y-81093020D01*
X101614455Y-80986527D01*
X101600305Y-80912388D01*
X101592423Y-80878605D01*
X101592379Y-80878493D01*
X101581478Y-80878406D01*
X101561146Y-80912004D01*
X101530376Y-80981783D01*
X101488160Y-81090237D01*
X101433490Y-81239862D01*
X101365360Y-81433153D01*
X101346451Y-81487594D01*
X101287149Y-81658618D01*
X101232688Y-81815442D01*
X101185242Y-81951817D01*
X101146990Y-82061496D01*
X101120107Y-82138231D01*
X101106770Y-82175775D01*
X101106093Y-82177585D01*
X100553781Y-82177585D01*
X100621172Y-82005283D01*
X100711919Y-81773460D01*
X100801154Y-81545694D01*
X100887111Y-81326500D01*
X100968021Y-81120395D01*
X101042119Y-80931894D01*
X101107637Y-80765513D01*
X101162807Y-80625768D01*
X101205863Y-80517174D01*
X101235037Y-80444249D01*
X101248563Y-80411507D01*
X101249262Y-80410145D01*
X101275343Y-80406863D01*
X101341705Y-80403244D01*
X101439602Y-80399641D01*
X101560284Y-80396405D01*
X101623629Y-80395088D01*
X101768905Y-80393102D01*
X101872129Y-80393867D01*
G37*
G36*
X98756943Y-81599131D02*
G01*
X98858068Y-81829184D01*
X98953533Y-82045172D01*
X99041502Y-82243021D01*
X99120138Y-82418655D01*
X99187605Y-82568001D01*
X99242065Y-82686983D01*
X99281681Y-82771525D01*
X99304618Y-82817555D01*
X99309556Y-82825000D01*
X99313408Y-82801269D01*
X99318710Y-82733171D01*
X99325233Y-82625343D01*
X99332746Y-82482423D01*
X99341022Y-82309048D01*
X99349830Y-82109857D01*
X99358943Y-81889488D01*
X99368129Y-81652579D01*
X99370122Y-81599131D01*
X99415489Y-80373262D01*
X99705158Y-80373262D01*
X99832128Y-80374331D01*
X99917299Y-80378113D01*
X99967871Y-80385473D01*
X99991043Y-80397276D01*
X99994826Y-80408050D01*
X99993641Y-80440559D01*
X99990291Y-80515657D01*
X99985078Y-80626957D01*
X99978308Y-80768077D01*
X99970284Y-80932630D01*
X99961310Y-81114233D01*
X99958322Y-81174218D01*
X99947519Y-81390996D01*
X99936098Y-81620805D01*
X99924689Y-81850880D01*
X99913925Y-82068459D01*
X99904440Y-82260777D01*
X99897800Y-82395945D01*
X99889055Y-82574201D01*
X99879820Y-82761972D01*
X99870853Y-82943887D01*
X99862910Y-83104574D01*
X99857775Y-83208086D01*
X99841768Y-83529878D01*
X99716029Y-83544986D01*
X99639949Y-83551106D01*
X99530546Y-83556063D01*
X99403527Y-83559288D01*
X99296081Y-83560240D01*
X99001872Y-83560386D01*
X98478174Y-82328455D01*
X98379417Y-82096560D01*
X98286077Y-81878186D01*
X98199963Y-81677514D01*
X98122885Y-81498724D01*
X98056655Y-81345997D01*
X98003081Y-81223513D01*
X97963975Y-81135453D01*
X97941147Y-81085996D01*
X97936122Y-81076692D01*
X97929253Y-81093232D01*
X97921540Y-81151384D01*
X97913634Y-81243747D01*
X97906184Y-81362922D01*
X97900634Y-81481229D01*
X97894634Y-81623793D01*
X97886697Y-81803303D01*
X97877377Y-82007732D01*
X97867230Y-82225056D01*
X97856808Y-82443247D01*
X97848335Y-82616602D01*
X97839220Y-82804748D01*
X97830970Y-82982440D01*
X97823903Y-83142194D01*
X97818341Y-83276524D01*
X97814603Y-83377946D01*
X97813009Y-83438977D01*
X97812975Y-83444063D01*
X97812780Y-83560521D01*
X97671805Y-83555885D01*
X97559429Y-83551349D01*
X97437904Y-83545229D01*
X97389855Y-83542403D01*
X97307624Y-83534357D01*
X97264236Y-83520970D01*
X97249524Y-83498592D01*
X97249128Y-83491874D01*
X97250361Y-83460458D01*
X97253827Y-83384459D01*
X97259313Y-83268269D01*
X97266607Y-83116277D01*
X97275495Y-82932875D01*
X97285765Y-82722454D01*
X97297204Y-82489405D01*
X97309599Y-82238118D01*
X97322432Y-81979150D01*
X97335582Y-81713357D01*
X97347979Y-81460784D01*
X97359411Y-81225921D01*
X97369663Y-81013261D01*
X97378522Y-80827297D01*
X97385772Y-80672518D01*
X97391201Y-80553419D01*
X97394593Y-80474490D01*
X97395736Y-80440685D01*
X97395984Y-80373262D01*
X97807757Y-80373262D01*
X98219530Y-80373262D01*
X98756943Y-81599131D01*
G37*
G36*
X104648875Y-75395190D02*
G01*
X104770442Y-75442178D01*
X104927222Y-75508721D01*
X105111285Y-75591067D01*
X105314703Y-75685464D01*
X105529544Y-75788160D01*
X105747882Y-75895405D01*
X105961785Y-76003446D01*
X106163325Y-76108531D01*
X106216178Y-76136762D01*
X106443031Y-76258648D01*
X106363282Y-76351736D01*
X106316416Y-76401396D01*
X106241601Y-76474854D01*
X106147764Y-76563587D01*
X106043828Y-76659073D01*
X106001583Y-76697109D01*
X105903950Y-76785052D01*
X105820114Y-76861674D01*
X105756530Y-76920988D01*
X105719655Y-76957003D01*
X105713111Y-76964679D01*
X105715892Y-76992332D01*
X105727499Y-77060320D01*
X105746492Y-77161028D01*
X105771430Y-77286843D01*
X105800873Y-77430150D01*
X105803897Y-77444615D01*
X105870879Y-77765024D01*
X105928253Y-78040916D01*
X105976664Y-78275724D01*
X106016756Y-78472880D01*
X106049177Y-78635818D01*
X106074572Y-78767971D01*
X106093585Y-78872772D01*
X106106864Y-78953654D01*
X106115053Y-79014050D01*
X106118798Y-79057393D01*
X106118745Y-79087116D01*
X106116089Y-79104658D01*
X106107006Y-79125845D01*
X106087682Y-79148737D01*
X106053564Y-79175994D01*
X106000095Y-79210275D01*
X105922723Y-79254241D01*
X105816892Y-79310550D01*
X105678049Y-79381862D01*
X105501639Y-79470836D01*
X105412825Y-79515324D01*
X105208870Y-79616150D01*
X105031013Y-79701629D01*
X104882784Y-79770167D01*
X104767714Y-79820167D01*
X104689330Y-79850032D01*
X104653966Y-79858397D01*
X104620042Y-79853810D01*
X104585144Y-79836032D01*
X104542721Y-79799036D01*
X104486222Y-79736796D01*
X104409097Y-79643285D01*
X104377976Y-79604504D01*
X104228576Y-79418600D01*
X104081685Y-79237706D01*
X103940608Y-79065744D01*
X103808649Y-78906636D01*
X103689114Y-78764302D01*
X103585307Y-78642665D01*
X103500533Y-78545644D01*
X103438098Y-78477162D01*
X103401305Y-78441140D01*
X103393590Y-78436526D01*
X103360612Y-78445033D01*
X103292656Y-78467967D01*
X103200303Y-78501619D01*
X103114819Y-78534211D01*
X102886849Y-78616327D01*
X102627804Y-78698716D01*
X102355332Y-78776126D01*
X102087079Y-78843302D01*
X102042027Y-78853582D01*
X101936149Y-78879320D01*
X101847153Y-78904593D01*
X101786734Y-78925878D01*
X101768146Y-78936076D01*
X101754666Y-78966442D01*
X101731471Y-79037858D01*
X101700438Y-79143729D01*
X101663444Y-79277459D01*
X101622364Y-79432453D01*
X101582439Y-79588706D01*
X101425440Y-80213899D01*
X101276194Y-80221142D01*
X101126948Y-80228385D01*
X101061851Y-80392764D01*
X101014853Y-80507492D01*
X100960627Y-80634206D01*
X100922670Y-80719477D01*
X100848586Y-80881812D01*
X100722044Y-80897015D01*
X100638066Y-80904032D01*
X100525399Y-80909391D01*
X100404382Y-80912210D01*
X100366992Y-80912431D01*
X100138483Y-80912644D01*
X100155906Y-80569401D01*
X100173330Y-80226158D01*
X99868108Y-80226158D01*
X99711513Y-80223622D01*
X99601986Y-80215914D01*
X99537814Y-80202880D01*
X99523624Y-80195511D01*
X99505305Y-80165534D01*
X99473491Y-80097373D01*
X99431267Y-79998990D01*
X99381716Y-79878348D01*
X99327924Y-79743410D01*
X99272974Y-79602137D01*
X99219950Y-79462493D01*
X99171938Y-79332440D01*
X99132020Y-79219941D01*
X99103283Y-79132958D01*
X99088808Y-79079455D01*
X99087683Y-79070056D01*
X99078068Y-79031303D01*
X99044129Y-79002041D01*
X98978226Y-78978606D01*
X98872716Y-78957329D01*
X98842509Y-78952429D01*
X98701754Y-78926581D01*
X98527800Y-78889009D01*
X98334086Y-78843125D01*
X98134054Y-78792342D01*
X97941144Y-78740071D01*
X97768796Y-78689726D01*
X97630450Y-78644720D01*
X97630082Y-78644590D01*
X97523603Y-78608734D01*
X97429849Y-78580260D01*
X97361211Y-78562766D01*
X97335121Y-78558976D01*
X97311941Y-78568622D01*
X97276412Y-78599772D01*
X97225800Y-78655744D01*
X97157369Y-78739857D01*
X97068386Y-78855430D01*
X96956118Y-79005781D01*
X96865498Y-79129005D01*
X96753701Y-79282006D01*
X96647392Y-79428075D01*
X96551193Y-79560816D01*
X96469727Y-79673833D01*
X96407615Y-79760730D01*
X96369482Y-79815111D01*
X96367292Y-79818328D01*
X96320061Y-79884932D01*
X96284567Y-79919224D01*
X96245866Y-79930028D01*
X96189012Y-79926170D01*
X96185375Y-79925745D01*
X96119665Y-79911561D01*
X96024854Y-79883444D01*
X95916246Y-79846809D01*
X95809143Y-79807071D01*
X95718847Y-79769647D01*
X95661048Y-79740200D01*
X95659108Y-79722818D01*
X95671165Y-79679963D01*
X95698367Y-79609038D01*
X95741862Y-79507447D01*
X95802799Y-79372594D01*
X95882325Y-79201882D01*
X95981589Y-78992715D01*
X96101740Y-78742497D01*
X96108275Y-78728946D01*
X96403978Y-78115965D01*
X99780710Y-78115965D01*
X99787237Y-78264681D01*
X99827485Y-78407263D01*
X99901397Y-78535640D01*
X100008916Y-78641743D01*
X100100486Y-78696712D01*
X100249055Y-78744458D01*
X100403045Y-78753454D01*
X100549324Y-78724379D01*
X100661288Y-78667805D01*
X100781219Y-78556038D01*
X100866213Y-78419436D01*
X100914981Y-78267242D01*
X100926237Y-78108698D01*
X100898693Y-77953047D01*
X100831063Y-77809534D01*
X100788676Y-77753085D01*
X100664745Y-77643239D01*
X100521658Y-77575902D01*
X100367067Y-77552523D01*
X100208627Y-77574554D01*
X100092941Y-77621187D01*
X99964020Y-77713727D01*
X99869045Y-77832417D01*
X99807961Y-77969187D01*
X99780710Y-78115965D01*
X96403978Y-78115965D01*
X96586480Y-77737644D01*
X96752188Y-77723724D01*
X96898896Y-77701055D01*
X97011962Y-77657335D01*
X97104368Y-77586686D01*
X97139347Y-77548515D01*
X97224306Y-77420761D01*
X97266364Y-77284122D01*
X97273397Y-77185573D01*
X97262159Y-77090250D01*
X103518446Y-77090250D01*
X103539653Y-77259274D01*
X103599948Y-77407366D01*
X103693255Y-77529834D01*
X103813500Y-77621985D01*
X103954608Y-77679125D01*
X104110503Y-77696561D01*
X104270263Y-77671052D01*
X104362921Y-77625960D01*
X104465500Y-77545718D01*
X104494595Y-77517819D01*
X104601547Y-77378552D01*
X104664218Y-77222653D01*
X104681421Y-77056879D01*
X104651973Y-76887988D01*
X104619615Y-76804982D01*
X104531958Y-76668388D01*
X104417194Y-76566093D01*
X104283436Y-76499351D01*
X104138798Y-76469415D01*
X103991394Y-76477540D01*
X103849338Y-76524978D01*
X103720744Y-76612982D01*
X103675494Y-76659137D01*
X103588501Y-76778645D01*
X103538451Y-76903535D01*
X103519176Y-77050744D01*
X103518446Y-77090250D01*
X97262159Y-77090250D01*
X97257633Y-77051854D01*
X97206378Y-76943071D01*
X97140881Y-76869133D01*
X97098521Y-76825038D01*
X97077700Y-76794495D01*
X97077258Y-76791997D01*
X97087073Y-76764031D01*
X97113760Y-76701213D01*
X97153187Y-76612996D01*
X97198807Y-76514000D01*
X97320355Y-76253700D01*
X97523662Y-76398639D01*
X97703519Y-76521344D01*
X97869911Y-76621203D01*
X98034334Y-76703086D01*
X98208286Y-76771865D01*
X98403262Y-76832412D01*
X98630760Y-76889597D01*
X98740114Y-76914076D01*
X99257993Y-77009775D01*
X99755510Y-77065847D01*
X100240913Y-77082491D01*
X100722447Y-77059906D01*
X101208360Y-76998291D01*
X101333024Y-76976530D01*
X101877777Y-76851634D01*
X102407490Y-76680408D01*
X102920230Y-76463774D01*
X103414065Y-76202654D01*
X103887063Y-75897970D01*
X104337289Y-75550642D01*
X104354667Y-75535986D01*
X104558812Y-75363225D01*
X104648875Y-75395190D01*
G37*
G36*
X102567952Y-68518280D02*
G01*
X102833348Y-68519017D01*
X103086395Y-68520494D01*
X103322411Y-68522710D01*
X103536716Y-68525667D01*
X103724629Y-68529365D01*
X103881470Y-68533807D01*
X104002557Y-68538991D01*
X104083211Y-68544921D01*
X104116217Y-68550452D01*
X104205490Y-68605462D01*
X104287283Y-68697557D01*
X104414925Y-68860481D01*
X104531265Y-68976310D01*
X104636818Y-69045538D01*
X104661191Y-69055483D01*
X104729422Y-69071666D01*
X104833638Y-69086546D01*
X104960790Y-69098545D01*
X105070988Y-69105040D01*
X105320945Y-69126668D01*
X105531762Y-69169748D01*
X105709440Y-69236575D01*
X105859977Y-69329443D01*
X105989372Y-69450646D01*
X105996865Y-69459181D01*
X106086271Y-69588334D01*
X106165210Y-69752899D01*
X106228559Y-69939544D01*
X106271197Y-70134937D01*
X106279298Y-70194244D01*
X106284513Y-70259291D01*
X106277665Y-70286395D01*
X106255486Y-70285854D01*
X106250797Y-70284089D01*
X106041383Y-70220087D01*
X105795711Y-70177631D01*
X105521575Y-70156724D01*
X105226765Y-70157367D01*
X104919072Y-70179561D01*
X104606289Y-70223309D01*
X104316293Y-70283672D01*
X104142047Y-70328814D01*
X104015673Y-70367758D01*
X103937364Y-70400426D01*
X103907314Y-70426740D01*
X103917606Y-70442865D01*
X103943629Y-70453924D01*
X104012993Y-70482439D01*
X104123559Y-70527544D01*
X104273184Y-70588374D01*
X104459727Y-70664062D01*
X104681048Y-70753744D01*
X104935005Y-70856553D01*
X105219457Y-70971623D01*
X105532263Y-71098089D01*
X105871282Y-71235085D01*
X106234372Y-71381746D01*
X106619392Y-71537205D01*
X107024201Y-71700597D01*
X107446658Y-71871056D01*
X107884622Y-72047716D01*
X108335951Y-72229712D01*
X108649459Y-72356100D01*
X109116325Y-72544295D01*
X109575574Y-72729422D01*
X110024763Y-72910494D01*
X110461445Y-73086528D01*
X110883176Y-73256536D01*
X111287512Y-73419534D01*
X111672009Y-73574535D01*
X112034220Y-73720555D01*
X112371702Y-73856608D01*
X112682010Y-73981708D01*
X112962700Y-74094870D01*
X113211326Y-74195108D01*
X113425444Y-74281437D01*
X113602609Y-74352870D01*
X113740376Y-74408424D01*
X113836302Y-74447111D01*
X113867168Y-74459562D01*
X114389799Y-74670436D01*
X114282982Y-74724722D01*
X114144355Y-74786558D01*
X113966323Y-74852634D01*
X113758054Y-74920465D01*
X113528713Y-74987561D01*
X113287466Y-75051435D01*
X113043481Y-75109601D01*
X112805924Y-75159570D01*
X112583961Y-75198856D01*
X112480299Y-75213899D01*
X112408515Y-75226516D01*
X112361790Y-75240714D01*
X112351583Y-75249159D01*
X112369457Y-75270734D01*
X112418333Y-75316741D01*
X112491091Y-75380772D01*
X112580610Y-75456420D01*
X112596433Y-75469521D01*
X112686888Y-75546349D01*
X112760336Y-75612878D01*
X112810072Y-75662715D01*
X112829389Y-75689468D01*
X112829133Y-75691315D01*
X112796430Y-75709632D01*
X112723276Y-75732011D01*
X112617923Y-75756815D01*
X112488623Y-75782406D01*
X112343626Y-75807146D01*
X112191185Y-75829397D01*
X112045116Y-75846938D01*
X111910919Y-75859700D01*
X111742109Y-75873582D01*
X111553058Y-75887527D01*
X111358139Y-75900478D01*
X111171725Y-75911376D01*
X111162490Y-75911870D01*
X111000616Y-75921035D01*
X110851687Y-75930533D01*
X110723941Y-75939752D01*
X110625616Y-75948084D01*
X110564950Y-75954917D01*
X110553607Y-75956965D01*
X110530147Y-75963595D01*
X110517606Y-75973733D01*
X110519350Y-75992486D01*
X110538747Y-76024960D01*
X110579163Y-76076258D01*
X110643965Y-76151488D01*
X110736522Y-76255755D01*
X110790481Y-76316145D01*
X110886033Y-76424037D01*
X110968429Y-76518995D01*
X111032767Y-76595209D01*
X111074146Y-76646869D01*
X111087664Y-76668166D01*
X111087587Y-76668276D01*
X111054056Y-76674040D01*
X110978948Y-76670496D01*
X110868612Y-76658700D01*
X110729395Y-76639710D01*
X110567647Y-76614582D01*
X110389718Y-76584375D01*
X110201955Y-76550145D01*
X110010708Y-76512949D01*
X109822326Y-76473845D01*
X109643158Y-76433890D01*
X109556602Y-76413338D01*
X109396908Y-76375174D01*
X109279979Y-76348908D01*
X109201237Y-76333669D01*
X109156105Y-76328584D01*
X109140006Y-76332782D01*
X109139807Y-76333952D01*
X109148405Y-76362523D01*
X109169745Y-76417859D01*
X109176583Y-76434442D01*
X109206065Y-76512597D01*
X109208695Y-76555090D01*
X109179494Y-76570145D01*
X109113489Y-76565983D01*
X109098206Y-76563951D01*
X108929944Y-76533588D01*
X108728188Y-76485305D01*
X108503618Y-76422468D01*
X108266912Y-76348445D01*
X108028749Y-76266602D01*
X107799809Y-76180306D01*
X107590771Y-76092925D01*
X107558849Y-76078598D01*
X107424994Y-76017774D01*
X107329632Y-75975806D01*
X107266265Y-75952045D01*
X107228399Y-75945844D01*
X107209536Y-75956553D01*
X107203181Y-75983526D01*
X107202836Y-76026114D01*
X107202934Y-76043086D01*
X107199177Y-76109880D01*
X107189648Y-76150525D01*
X107183568Y-76156274D01*
X107151106Y-76150500D01*
X107086560Y-76135518D01*
X107020336Y-76118801D01*
X106898436Y-76079690D01*
X106768533Y-76022651D01*
X106626063Y-75944811D01*
X106466463Y-75843297D01*
X106285167Y-75715237D01*
X106077612Y-75557756D01*
X105880224Y-75401110D01*
X105804752Y-75342329D01*
X105742841Y-75297884D01*
X105704924Y-75275140D01*
X105699648Y-75273648D01*
X105689735Y-75295870D01*
X105689153Y-75354987D01*
X105694455Y-75411695D01*
X105711702Y-75549741D01*
X105642116Y-75532517D01*
X105501428Y-75489396D01*
X105355540Y-75427027D01*
X105197932Y-75341743D01*
X105022086Y-75229880D01*
X104821482Y-75087773D01*
X104731278Y-75020455D01*
X104444729Y-74803995D01*
X104432471Y-74955537D01*
X104420212Y-75107078D01*
X104199556Y-74993803D01*
X104102838Y-74939720D01*
X103979412Y-74864121D01*
X103841740Y-74774993D01*
X103702281Y-74680323D01*
X103623397Y-74624517D01*
X103508032Y-74542092D01*
X103406211Y-74470582D01*
X103324639Y-74414596D01*
X103270024Y-74378745D01*
X103249507Y-74367506D01*
X103237989Y-74388594D01*
X103231586Y-74442488D01*
X103231119Y-74464348D01*
X103231119Y-74562191D01*
X103102403Y-74483260D01*
X103041314Y-74439325D01*
X102954674Y-74368293D01*
X102851422Y-74277921D01*
X102740497Y-74175965D01*
X102664725Y-74103467D01*
X102563811Y-74006037D01*
X102474879Y-73921762D01*
X102403878Y-73856150D01*
X102356756Y-73814711D01*
X102339870Y-73802606D01*
X102329933Y-73824381D01*
X102324391Y-73878802D01*
X102323977Y-73901142D01*
X102321710Y-73963515D01*
X102308548Y-73988665D01*
X102274947Y-73988384D01*
X102256554Y-73984452D01*
X102149781Y-73949400D01*
X102015312Y-73888127D01*
X101863161Y-73805755D01*
X101703339Y-73707409D01*
X101663150Y-73680787D01*
X101571943Y-73620683D01*
X101496741Y-73573434D01*
X101446055Y-73544239D01*
X101428533Y-73537560D01*
X101419613Y-73564748D01*
X101406793Y-73623960D01*
X101399951Y-73661333D01*
X101380058Y-73776417D01*
X100914228Y-73393881D01*
X100448397Y-73011344D01*
X100441098Y-73161801D01*
X100434733Y-73240410D01*
X100425443Y-73294905D01*
X100416581Y-73312383D01*
X100390136Y-73302824D01*
X100325620Y-73275981D01*
X100229664Y-73234720D01*
X100108901Y-73181906D01*
X99969962Y-73120405D01*
X99900921Y-73089605D01*
X99756027Y-73025826D01*
X99626226Y-72970629D01*
X99518109Y-72926659D01*
X99438267Y-72896560D01*
X99393294Y-72882975D01*
X99386056Y-72883067D01*
X99378414Y-72913053D01*
X99370914Y-72980855D01*
X99364590Y-73075262D01*
X99361498Y-73148751D01*
X99366802Y-73352376D01*
X99398817Y-73521339D01*
X99459814Y-73663486D01*
X99543354Y-73777183D01*
X99586205Y-73820884D01*
X99632753Y-73858004D01*
X99690239Y-73891743D01*
X99765903Y-73925302D01*
X99866986Y-73961879D01*
X100000730Y-74004675D01*
X100174374Y-74056890D01*
X100180252Y-74058628D01*
X100489201Y-74156869D01*
X100775162Y-74261563D01*
X101033290Y-74370453D01*
X101258738Y-74481284D01*
X101446661Y-74591802D01*
X101592211Y-74699750D01*
X101628018Y-74732386D01*
X101713801Y-74826058D01*
X101775596Y-74915396D01*
X101806657Y-74990037D01*
X101809020Y-75010499D01*
X101804820Y-75033409D01*
X101785120Y-75036392D01*
X101739474Y-75018048D01*
X101692654Y-74994890D01*
X101543554Y-74928347D01*
X101364696Y-74862323D01*
X101175020Y-74803064D01*
X100993468Y-74756816D01*
X100933226Y-74744457D01*
X100717049Y-74718884D01*
X100470246Y-74716122D01*
X100205287Y-74735595D01*
X99934644Y-74776726D01*
X99847722Y-74794621D01*
X99711252Y-74824462D01*
X99616352Y-74843847D01*
X99556662Y-74852669D01*
X99525821Y-74850822D01*
X99517468Y-74838198D01*
X99525244Y-74814692D01*
X99538055Y-74789430D01*
X99581914Y-74685932D01*
X99607771Y-74585901D01*
X99612780Y-74503620D01*
X99602739Y-74464931D01*
X99561822Y-74411804D01*
X99499970Y-74373570D01*
X99410199Y-74348220D01*
X99285526Y-74333742D01*
X99127860Y-74328222D01*
X98837052Y-74324842D01*
X98710712Y-74008560D01*
X98633641Y-73822464D01*
X98563488Y-73666656D01*
X98502224Y-73544981D01*
X98451816Y-73461286D01*
X98414234Y-73419416D01*
X98407326Y-73416013D01*
X98389634Y-73432073D01*
X98379923Y-73489708D01*
X98377685Y-73582200D01*
X98382411Y-73702828D01*
X98393592Y-73844875D01*
X98410722Y-74001621D01*
X98433291Y-74166346D01*
X98460791Y-74332333D01*
X98486644Y-74464575D01*
X98527489Y-74630544D01*
X98580718Y-74806326D01*
X98641303Y-74977822D01*
X98704220Y-75130933D01*
X98764442Y-75251558D01*
X98771422Y-75263471D01*
X98899168Y-75449923D01*
X99035707Y-75592932D01*
X99188410Y-75698069D01*
X99364648Y-75770907D01*
X99482518Y-75800958D01*
X99700306Y-75865073D01*
X99929596Y-75966436D01*
X100159207Y-76098824D01*
X100377955Y-76256015D01*
X100518924Y-76377750D01*
X100606339Y-76464965D01*
X100678153Y-76547004D01*
X100728728Y-76616393D01*
X100752425Y-76665660D01*
X100750047Y-76684128D01*
X100725393Y-76678893D01*
X100664541Y-76658393D01*
X100576685Y-76625902D01*
X100472419Y-76585252D01*
X100257681Y-76506141D01*
X100066260Y-76451861D01*
X99881087Y-76419435D01*
X99685090Y-76405888D01*
X99461198Y-76408245D01*
X99457641Y-76408382D01*
X99313344Y-76415548D01*
X99193263Y-76426192D01*
X99081031Y-76442936D01*
X98960278Y-76468401D01*
X98814635Y-76505208D01*
X98757521Y-76520507D01*
X98630881Y-76553910D01*
X98521773Y-76581136D01*
X98438530Y-76600230D01*
X98389485Y-76609235D01*
X98380043Y-76609123D01*
X98384916Y-76582521D01*
X98414672Y-76530458D01*
X98461395Y-76463919D01*
X98517165Y-76393890D01*
X98574066Y-76331357D01*
X98594191Y-76311980D01*
X98670969Y-76253525D01*
X98765397Y-76197206D01*
X98811444Y-76174989D01*
X98880926Y-76142991D01*
X98927625Y-76117761D01*
X98940005Y-76107239D01*
X98919305Y-76084689D01*
X98863138Y-76048163D01*
X98781308Y-76002530D01*
X98683615Y-75952664D01*
X98579863Y-75903433D01*
X98479853Y-75859710D01*
X98393386Y-75826366D01*
X98344846Y-75811476D01*
X98259865Y-75798737D01*
X98151549Y-75793901D01*
X98037549Y-75796519D01*
X97935517Y-75806140D01*
X97863103Y-75822315D01*
X97859183Y-75823852D01*
X97838090Y-75825358D01*
X97823630Y-75803185D01*
X97812864Y-75748717D01*
X97803507Y-75660580D01*
X97786185Y-75518084D01*
X97761612Y-75381262D01*
X97732009Y-75257176D01*
X97699596Y-75152887D01*
X97666593Y-75075459D01*
X97635221Y-75031953D01*
X97607700Y-75029431D01*
X97605655Y-75031287D01*
X97593082Y-75054685D01*
X97560484Y-75118612D01*
X97509570Y-75219644D01*
X97442050Y-75354354D01*
X97359633Y-75519317D01*
X97264028Y-75711108D01*
X97156944Y-75926301D01*
X97040090Y-76161471D01*
X96915177Y-76413192D01*
X96783911Y-76678039D01*
X96774515Y-76697009D01*
X96640320Y-76967851D01*
X96487451Y-77276199D01*
X96319080Y-77615664D01*
X96138381Y-77979853D01*
X95948526Y-78362375D01*
X95752689Y-78756839D01*
X95554043Y-79156853D01*
X95355761Y-79556026D01*
X95161016Y-79947966D01*
X94972981Y-80326282D01*
X94809436Y-80655212D01*
X94637213Y-81001614D01*
X94460234Y-81357744D01*
X94281109Y-81718340D01*
X94102449Y-82078140D01*
X93926865Y-82431882D01*
X93756967Y-82774305D01*
X93595365Y-83100147D01*
X93444672Y-83404145D01*
X93307496Y-83681038D01*
X93186449Y-83925564D01*
X93084141Y-84132462D01*
X93066917Y-84167326D01*
X92954931Y-84393306D01*
X92849058Y-84605522D01*
X92751332Y-84799993D01*
X92663788Y-84972741D01*
X92588459Y-85119785D01*
X92527379Y-85237146D01*
X92482582Y-85320843D01*
X92456102Y-85366898D01*
X92449833Y-85374806D01*
X92433720Y-85353168D01*
X92405985Y-85294548D01*
X92370789Y-85208394D01*
X92339162Y-85123503D01*
X92297752Y-85005998D01*
X92261127Y-84896896D01*
X92227049Y-84788193D01*
X92193279Y-84671885D01*
X92157580Y-84539967D01*
X92117712Y-84384436D01*
X92071438Y-84197288D01*
X92016519Y-83970518D01*
X92015205Y-83965057D01*
X91959452Y-83734041D01*
X91913760Y-83546522D01*
X91876994Y-83398255D01*
X91848022Y-83284998D01*
X91825709Y-83202508D01*
X91808922Y-83146541D01*
X91796527Y-83112853D01*
X91787391Y-83097202D01*
X91782676Y-83094691D01*
X91746284Y-83114886D01*
X91693685Y-83169597D01*
X91631628Y-83250007D01*
X91566862Y-83347301D01*
X91506135Y-83452665D01*
X91500679Y-83463048D01*
X91448952Y-83558567D01*
X91413751Y-83613379D01*
X91391868Y-83631662D01*
X91380630Y-83619461D01*
X91354744Y-83519292D01*
X91325063Y-83378012D01*
X91292745Y-83203295D01*
X91258948Y-83002815D01*
X91224832Y-82784245D01*
X91191555Y-82555259D01*
X91160275Y-82323531D01*
X91132150Y-82096734D01*
X91121093Y-81997269D01*
X92369224Y-81997269D01*
X92392830Y-82130279D01*
X92409061Y-82189227D01*
X92471541Y-82355544D01*
X92558920Y-82523838D01*
X92663964Y-82684178D01*
X92779438Y-82826635D01*
X92898107Y-82941278D01*
X93012736Y-83018177D01*
X93013182Y-83018398D01*
X93102476Y-83056880D01*
X93166787Y-83066534D01*
X93220943Y-83047157D01*
X93262092Y-83015009D01*
X93296032Y-82971729D01*
X93350229Y-82884707D01*
X93424727Y-82753858D01*
X93519569Y-82579101D01*
X93634799Y-82360351D01*
X93770460Y-82097526D01*
X93926596Y-81790541D01*
X94103249Y-81439314D01*
X94300464Y-81043761D01*
X94480788Y-80679729D01*
X94688268Y-80258135D01*
X94873320Y-79878539D01*
X95036527Y-79539636D01*
X95178472Y-79240124D01*
X95299739Y-78978700D01*
X95400912Y-78754061D01*
X95482572Y-78564904D01*
X95545303Y-78409925D01*
X95589689Y-78287823D01*
X95616313Y-78197293D01*
X95625758Y-78137033D01*
X95625133Y-78123003D01*
X95620188Y-78102641D01*
X95609043Y-78094881D01*
X95587251Y-78103257D01*
X95550363Y-78131305D01*
X95493930Y-78182559D01*
X95413503Y-78260557D01*
X95304634Y-78368832D01*
X95261645Y-78411872D01*
X95106293Y-78571081D01*
X94929890Y-78758037D01*
X94736318Y-78968209D01*
X94529458Y-79197064D01*
X94313189Y-79440070D01*
X94091394Y-79692694D01*
X93867953Y-79950406D01*
X93646747Y-80208673D01*
X93431656Y-80462963D01*
X93226562Y-80708743D01*
X93035345Y-80941482D01*
X92861887Y-81156648D01*
X92710067Y-81349708D01*
X92583767Y-81516131D01*
X92486867Y-81651384D01*
X92483820Y-81655845D01*
X92412549Y-81775533D01*
X92375074Y-81884180D01*
X92369224Y-81997269D01*
X91121093Y-81997269D01*
X91108340Y-81882541D01*
X91091122Y-81701829D01*
X91077306Y-81561167D01*
X91062990Y-81452822D01*
X91049042Y-81382189D01*
X91036328Y-81354661D01*
X91035268Y-81354482D01*
X91003832Y-81367320D01*
X90943054Y-81401017D01*
X90864326Y-81449133D01*
X90837587Y-81466273D01*
X90665965Y-81577540D01*
X90648911Y-81447361D01*
X90643192Y-81349675D01*
X90645258Y-81214717D01*
X90654316Y-81053493D01*
X90669572Y-80877009D01*
X90671934Y-80856347D01*
X91917400Y-80856347D01*
X91917478Y-80888127D01*
X91921161Y-81006499D01*
X91932641Y-81092435D01*
X91954828Y-81162293D01*
X91973140Y-81200723D01*
X92013692Y-81265298D01*
X92056323Y-81298901D01*
X92107597Y-81300372D01*
X92174074Y-81268553D01*
X92262318Y-81202283D01*
X92339120Y-81136049D01*
X92463603Y-81022005D01*
X92616215Y-80876419D01*
X92792794Y-80703643D01*
X92989179Y-80508030D01*
X93201207Y-80293930D01*
X93424717Y-80065697D01*
X93655547Y-79827682D01*
X93889535Y-79584236D01*
X94122519Y-79339713D01*
X94350337Y-79098463D01*
X94568827Y-78864839D01*
X94773828Y-78643193D01*
X94961178Y-78437876D01*
X95126714Y-78253240D01*
X95266274Y-78093638D01*
X95375698Y-77963422D01*
X95389567Y-77946306D01*
X95479163Y-77831093D01*
X95534457Y-77749211D01*
X95555307Y-77698814D01*
X95541570Y-77678053D01*
X95493105Y-77685082D01*
X95409769Y-77718054D01*
X95373301Y-77734924D01*
X95251073Y-77800638D01*
X95099987Y-77894654D01*
X94924014Y-78013658D01*
X94727122Y-78154335D01*
X94513280Y-78313374D01*
X94286458Y-78487460D01*
X94050624Y-78673279D01*
X93809747Y-78867518D01*
X93567798Y-79066864D01*
X93328744Y-79268003D01*
X93096555Y-79467621D01*
X92875200Y-79662405D01*
X92668648Y-79849041D01*
X92480868Y-80024216D01*
X92315829Y-80184616D01*
X92177501Y-80326928D01*
X92069852Y-80447838D01*
X91996852Y-80544033D01*
X91984242Y-80564236D01*
X91949971Y-80628299D01*
X91929688Y-80687274D01*
X91919971Y-80757758D01*
X91917400Y-80856347D01*
X90671934Y-80856347D01*
X90690234Y-80696271D01*
X90715508Y-80522286D01*
X90715617Y-80521620D01*
X90732981Y-80422627D01*
X90756149Y-80300323D01*
X90782873Y-80165535D01*
X90810906Y-80029087D01*
X90838001Y-79901802D01*
X90849322Y-79850999D01*
X91783157Y-79850999D01*
X91784141Y-79936448D01*
X91800846Y-79990119D01*
X91828497Y-80005198D01*
X91853016Y-79992018D01*
X91909799Y-79956213D01*
X91990761Y-79903021D01*
X92087818Y-79837680D01*
X92102837Y-79827447D01*
X92187780Y-79768367D01*
X92304888Y-79685295D01*
X92446938Y-79583438D01*
X92606704Y-79468008D01*
X92776963Y-79344214D01*
X92950490Y-79217265D01*
X93028866Y-79159652D01*
X93224529Y-79015674D01*
X93440602Y-78856818D01*
X93665237Y-78691784D01*
X93886587Y-78529275D01*
X94092806Y-78377989D01*
X94272045Y-78246629D01*
X94280755Y-78240250D01*
X94523094Y-78062077D01*
X94727693Y-77909962D01*
X94897001Y-77781866D01*
X95033464Y-77675750D01*
X95139530Y-77589578D01*
X95217646Y-77521308D01*
X95270261Y-77468905D01*
X95299822Y-77430328D01*
X95308775Y-77403540D01*
X95302659Y-77389139D01*
X95271602Y-77390657D01*
X95199114Y-77413901D01*
X95087243Y-77457929D01*
X94938042Y-77521799D01*
X94753558Y-77604570D01*
X94535843Y-77705302D01*
X94286945Y-77823052D01*
X94008916Y-77956879D01*
X93703804Y-78105842D01*
X93373660Y-78269000D01*
X93221367Y-78344859D01*
X92973081Y-78469016D01*
X92764630Y-78574204D01*
X92591924Y-78663239D01*
X92450868Y-78738940D01*
X92337372Y-78804122D01*
X92247341Y-78861604D01*
X92176684Y-78914202D01*
X92121308Y-78964734D01*
X92077120Y-79016017D01*
X92040028Y-79070868D01*
X92005939Y-79132104D01*
X91970761Y-79202543D01*
X91968407Y-79207369D01*
X91910348Y-79340158D01*
X91861490Y-79478352D01*
X91823136Y-79614515D01*
X91796590Y-79741209D01*
X91783157Y-79850999D01*
X90849322Y-79850999D01*
X90861911Y-79794506D01*
X90880389Y-79718023D01*
X90887991Y-79691250D01*
X90882855Y-79674556D01*
X90848536Y-79665870D01*
X90777455Y-79664068D01*
X90715928Y-79665752D01*
X90625916Y-79667242D01*
X90556350Y-79664915D01*
X90520515Y-79659280D01*
X90518898Y-79658209D01*
X90515114Y-79622672D01*
X90532731Y-79552328D01*
X90568217Y-79454592D01*
X90618042Y-79336881D01*
X90678672Y-79206610D01*
X90746577Y-79071194D01*
X90818225Y-78938050D01*
X90890085Y-78814594D01*
X90958625Y-78708241D01*
X90995671Y-78657046D01*
X91052270Y-78581392D01*
X91095173Y-78520684D01*
X91117188Y-78485211D01*
X91118645Y-78481033D01*
X91097325Y-78467399D01*
X91041380Y-78449670D01*
X90986510Y-78436767D01*
X90853484Y-78409151D01*
X90890896Y-78318571D01*
X90934640Y-78230311D01*
X92301207Y-78230311D01*
X92315769Y-78258290D01*
X92351020Y-78269542D01*
X92411340Y-78263831D01*
X92501108Y-78240920D01*
X92624703Y-78200575D01*
X92786506Y-78142560D01*
X92921563Y-78092532D01*
X93102658Y-78023510D01*
X93306646Y-77943175D01*
X93527091Y-77854272D01*
X93757551Y-77759550D01*
X93991588Y-77661754D01*
X94222761Y-77563634D01*
X94444632Y-77467934D01*
X94650761Y-77377403D01*
X94834709Y-77294788D01*
X94990035Y-77222835D01*
X95110301Y-77164292D01*
X95166127Y-77135004D01*
X95243898Y-77082287D01*
X95290944Y-77020060D01*
X95311131Y-76971448D01*
X95323373Y-76932000D01*
X95737124Y-76932000D01*
X95739161Y-77068847D01*
X95758383Y-77191127D01*
X95793947Y-77301923D01*
X95795717Y-77306206D01*
X95833181Y-77383534D01*
X95876450Y-77454994D01*
X95916890Y-77507814D01*
X95945865Y-77529223D01*
X95946518Y-77529247D01*
X95959008Y-77507567D01*
X95991832Y-77444015D01*
X96043894Y-77340822D01*
X96114095Y-77200219D01*
X96201340Y-77024438D01*
X96304530Y-76815710D01*
X96422570Y-76576265D01*
X96554361Y-76308336D01*
X96698806Y-76014152D01*
X96854809Y-75695946D01*
X97021273Y-75355949D01*
X97197099Y-74996392D01*
X97381192Y-74619505D01*
X97572454Y-74227521D01*
X97769788Y-73822670D01*
X97844945Y-73668369D01*
X98044355Y-73258607D01*
X98237894Y-72860356D01*
X98424471Y-72475883D01*
X98602997Y-72107455D01*
X98772383Y-71757338D01*
X98779134Y-71743359D01*
X99553513Y-71743359D01*
X99553687Y-71893970D01*
X99554893Y-72003133D01*
X99558155Y-72078436D01*
X99564499Y-72127467D01*
X99574947Y-72157812D01*
X99590526Y-72177058D01*
X99612260Y-72192794D01*
X99614400Y-72194197D01*
X99696760Y-72234259D01*
X99795587Y-72262665D01*
X99894530Y-72276732D01*
X99977238Y-72273781D01*
X100016716Y-72260153D01*
X100032506Y-72225772D01*
X100043291Y-72152247D01*
X100049153Y-72049205D01*
X100050172Y-71926273D01*
X100046433Y-71793076D01*
X100038015Y-71659243D01*
X100029799Y-71580418D01*
X100333264Y-71580418D01*
X100339754Y-71793711D01*
X100356634Y-71990426D01*
X100383001Y-72157953D01*
X100400169Y-72229373D01*
X100434406Y-72329553D01*
X100474245Y-72395664D01*
X100518760Y-72436090D01*
X100650800Y-72506845D01*
X100809198Y-72555339D01*
X100974091Y-72575678D01*
X100990205Y-72575937D01*
X101139735Y-72576737D01*
X101154744Y-72330384D01*
X101158733Y-72202496D01*
X101157243Y-72052932D01*
X101150999Y-71889682D01*
X101140723Y-71720735D01*
X101129556Y-71583752D01*
X101367799Y-71583752D01*
X101371249Y-71868347D01*
X101382150Y-72109544D01*
X101401327Y-72312531D01*
X101429603Y-72482495D01*
X101467803Y-72624624D01*
X101516752Y-72744106D01*
X101565773Y-72829248D01*
X101666381Y-72943033D01*
X101787671Y-73012532D01*
X101928594Y-73037216D01*
X101974576Y-73035801D01*
X102049839Y-73027845D01*
X102103105Y-73017786D01*
X102117914Y-73011629D01*
X102124223Y-72979764D01*
X102126293Y-72905845D01*
X102124594Y-72796625D01*
X102119595Y-72658858D01*
X102111768Y-72499297D01*
X102101583Y-72324697D01*
X102089510Y-72141810D01*
X102087321Y-72111885D01*
X102328081Y-72111885D01*
X102331350Y-72372711D01*
X102346380Y-72594674D01*
X102373956Y-72782326D01*
X102414867Y-72940220D01*
X102469902Y-73072907D01*
X102539847Y-73184939D01*
X102583313Y-73237586D01*
X102717170Y-73355364D01*
X102864601Y-73429517D01*
X103016592Y-73457255D01*
X103084015Y-73459362D01*
X103084015Y-73232158D01*
X103081068Y-73039825D01*
X103072740Y-72833099D01*
X103059803Y-72619779D01*
X103043029Y-72407661D01*
X103023190Y-72204543D01*
X103001058Y-72018223D01*
X102977404Y-71856499D01*
X102977107Y-71854924D01*
X103308546Y-71854924D01*
X103309819Y-71908507D01*
X103314335Y-71986101D01*
X103322273Y-72091870D01*
X103333815Y-72229981D01*
X103349142Y-72404598D01*
X103368435Y-72619887D01*
X103390903Y-72869224D01*
X103408533Y-73063778D01*
X103422871Y-73215549D01*
X103434991Y-73330592D01*
X103445967Y-73414966D01*
X103456873Y-73474725D01*
X103468784Y-73515928D01*
X103482774Y-73544629D01*
X103499918Y-73566887D01*
X103517948Y-73585438D01*
X103613033Y-73662891D01*
X103726521Y-73730066D01*
X103842092Y-73778945D01*
X103943431Y-73801512D01*
X103959064Y-73802162D01*
X104025975Y-73797584D01*
X104069440Y-73785592D01*
X104075551Y-73780382D01*
X104078004Y-73749995D01*
X104076596Y-73678766D01*
X104071706Y-73574704D01*
X104063711Y-73445817D01*
X104052991Y-73300115D01*
X104052678Y-73296163D01*
X104024237Y-72960245D01*
X103996003Y-72673119D01*
X103967940Y-72434546D01*
X103940011Y-72244284D01*
X103925354Y-72169399D01*
X104268559Y-72169399D01*
X104273399Y-72199656D01*
X104277951Y-72243805D01*
X104283835Y-72329042D01*
X104290615Y-72447453D01*
X104297855Y-72591122D01*
X104305119Y-72752136D01*
X104309014Y-72846428D01*
X104320629Y-73093081D01*
X104334632Y-73297774D01*
X104352118Y-73467565D01*
X104374180Y-73609510D01*
X104401915Y-73730668D01*
X104436414Y-73838096D01*
X104478196Y-73937615D01*
X104580101Y-74106213D01*
X104710341Y-74235141D01*
X104869625Y-74324843D01*
X105058661Y-74375760D01*
X105200141Y-74388336D01*
X105293583Y-74391023D01*
X105278036Y-74286824D01*
X105271040Y-74238889D01*
X105258018Y-74148627D01*
X105239860Y-74022254D01*
X105217459Y-73865988D01*
X105191704Y-73686045D01*
X105163488Y-73488643D01*
X105134882Y-73288267D01*
X105017841Y-72467959D01*
X105344618Y-72467959D01*
X105346779Y-72492476D01*
X105356558Y-72559776D01*
X105373026Y-72664361D01*
X105395257Y-72800729D01*
X105422321Y-72963379D01*
X105453292Y-73146813D01*
X105487242Y-73345528D01*
X105523242Y-73554026D01*
X105560365Y-73766805D01*
X105597682Y-73978365D01*
X105629429Y-74156281D01*
X105695116Y-74522216D01*
X105940289Y-74689471D01*
X106139268Y-74819992D01*
X106311760Y-74922317D01*
X106455801Y-74995573D01*
X106569426Y-75038886D01*
X106650670Y-75051384D01*
X106697566Y-75032194D01*
X106700985Y-75027411D01*
X106696285Y-74999982D01*
X106676957Y-74930581D01*
X106644407Y-74823577D01*
X106600044Y-74683336D01*
X106545273Y-74514228D01*
X106481502Y-74320618D01*
X106410137Y-74106876D01*
X106332586Y-73877368D01*
X106295069Y-73767257D01*
X105959982Y-72786310D01*
X106224092Y-72786310D01*
X106239969Y-72894123D01*
X106277145Y-73043999D01*
X106335438Y-73235325D01*
X106414669Y-73467487D01*
X106514657Y-73739873D01*
X106635219Y-74051870D01*
X106715121Y-74252273D01*
X106808392Y-74482780D01*
X106885683Y-74671184D01*
X106948612Y-74821149D01*
X106998799Y-74936338D01*
X107037862Y-75020418D01*
X107067420Y-75077051D01*
X107089090Y-75109903D01*
X107097928Y-75118922D01*
X107144466Y-75145677D01*
X107226774Y-75183451D01*
X107333991Y-75228097D01*
X107455256Y-75275465D01*
X107579708Y-75321410D01*
X107696488Y-75361782D01*
X107794733Y-75392434D01*
X107852644Y-75407161D01*
X107969162Y-75425562D01*
X108044093Y-75423644D01*
X108080648Y-75401035D01*
X108085560Y-75380210D01*
X108072675Y-75351840D01*
X108035998Y-75287067D01*
X107978492Y-75190579D01*
X107903118Y-75067064D01*
X107812841Y-74921210D01*
X107710622Y-74757706D01*
X107599427Y-74581240D01*
X107482216Y-74396501D01*
X107361954Y-74208176D01*
X107241603Y-74020954D01*
X107124126Y-73839524D01*
X107012487Y-73668572D01*
X106909649Y-73512789D01*
X106831907Y-73396600D01*
X106707997Y-73217375D01*
X106592083Y-73058427D01*
X106487401Y-72923683D01*
X106397187Y-72817066D01*
X106324678Y-72742502D01*
X106273110Y-72703915D01*
X106256958Y-72699324D01*
X106229695Y-72721173D01*
X106224092Y-72786310D01*
X105959982Y-72786310D01*
X105909750Y-72639259D01*
X106596119Y-72639259D01*
X106600635Y-72681927D01*
X106634321Y-72760435D01*
X106697468Y-72875462D01*
X106790363Y-73027684D01*
X106910552Y-73213616D01*
X107050056Y-73422932D01*
X107196475Y-73637880D01*
X107353525Y-73863693D01*
X107524923Y-74105602D01*
X107714385Y-74368840D01*
X107925628Y-74658639D01*
X108162369Y-74980232D01*
X108236843Y-75080889D01*
X108502638Y-75439771D01*
X108655730Y-75467898D01*
X108895040Y-75507992D01*
X109088533Y-75531892D01*
X109236665Y-75539635D01*
X109339887Y-75531262D01*
X109354334Y-75527886D01*
X109397377Y-75501279D01*
X109409496Y-75473057D01*
X109392570Y-75441066D01*
X109343931Y-75377947D01*
X109266785Y-75286997D01*
X109164336Y-75171515D01*
X109039792Y-75034797D01*
X108896358Y-74880141D01*
X108737238Y-74710845D01*
X108565640Y-74530204D01*
X108384768Y-74341518D01*
X108197828Y-74148083D01*
X108008027Y-73953196D01*
X107818569Y-73760156D01*
X107632660Y-73572259D01*
X107453506Y-73392803D01*
X107284313Y-73225085D01*
X107128287Y-73072402D01*
X106988632Y-72938053D01*
X106868555Y-72825333D01*
X106771262Y-72737542D01*
X106699957Y-72677975D01*
X106673444Y-72658742D01*
X106620485Y-72631757D01*
X106596119Y-72639259D01*
X105909750Y-72639259D01*
X105873344Y-72532683D01*
X105669827Y-72505555D01*
X106810656Y-72505555D01*
X106828284Y-72536182D01*
X106879219Y-72596941D01*
X106960538Y-72684925D01*
X107069319Y-72797222D01*
X107202639Y-72930925D01*
X107357575Y-73083123D01*
X107531204Y-73250907D01*
X107720605Y-73431368D01*
X107922853Y-73621596D01*
X108061042Y-73750238D01*
X108387033Y-74051918D01*
X108677790Y-74319822D01*
X108933482Y-74554102D01*
X109154278Y-74754908D01*
X109340347Y-74922392D01*
X109491857Y-75056707D01*
X109608977Y-75158003D01*
X109691875Y-75226431D01*
X109740721Y-75262144D01*
X109748562Y-75266413D01*
X109839482Y-75289476D01*
X109972498Y-75295207D01*
X110148922Y-75283592D01*
X110337190Y-75259595D01*
X110492830Y-75232013D01*
X110648427Y-75196497D01*
X110794660Y-75155935D01*
X110922211Y-75113219D01*
X111021761Y-75071236D01*
X111083989Y-75032876D01*
X111091183Y-75025840D01*
X111122411Y-74987196D01*
X111119774Y-74963804D01*
X111088938Y-74939331D01*
X111058136Y-74919775D01*
X110989478Y-74877592D01*
X110887192Y-74815325D01*
X110755504Y-74735516D01*
X110598642Y-74640705D01*
X110420833Y-74533436D01*
X110226303Y-74416250D01*
X110019281Y-74291689D01*
X109803993Y-74162294D01*
X109584667Y-74030608D01*
X109365529Y-73899172D01*
X109150806Y-73770528D01*
X108944727Y-73647218D01*
X108751518Y-73531784D01*
X108575406Y-73426768D01*
X108420618Y-73334711D01*
X108404285Y-73325016D01*
X108074554Y-73130677D01*
X107784976Y-72962866D01*
X107534734Y-72821164D01*
X107323015Y-72705151D01*
X107149003Y-72614409D01*
X107011885Y-72548519D01*
X106910845Y-72507061D01*
X106845067Y-72489618D01*
X106813739Y-72495770D01*
X106810656Y-72505555D01*
X105669827Y-72505555D01*
X105612608Y-72497928D01*
X105505718Y-72484182D01*
X105418625Y-72473933D01*
X105361622Y-72468331D01*
X105344618Y-72467959D01*
X105017841Y-72467959D01*
X105007275Y-72393908D01*
X104741250Y-72273559D01*
X104625164Y-72224135D01*
X104514049Y-72182252D01*
X104421633Y-72152781D01*
X104368011Y-72141126D01*
X104312483Y-72136132D01*
X106928835Y-72136132D01*
X106958638Y-72163633D01*
X107023932Y-72210294D01*
X107043571Y-72223749D01*
X107156872Y-72297050D01*
X107313171Y-72391682D01*
X107511557Y-72507146D01*
X107751119Y-72642946D01*
X108030946Y-72798584D01*
X108350128Y-72973561D01*
X108707754Y-73167380D01*
X109102914Y-73379544D01*
X109534697Y-73609554D01*
X110002192Y-73856912D01*
X110504488Y-74121122D01*
X110757953Y-74253923D01*
X110947694Y-74353201D01*
X111123249Y-74445026D01*
X111280015Y-74526994D01*
X111413385Y-74596697D01*
X111518756Y-74651729D01*
X111591521Y-74689684D01*
X111627076Y-74708154D01*
X111629879Y-74709571D01*
X111653231Y-74706663D01*
X111715547Y-74698626D01*
X111807174Y-74686710D01*
X111911829Y-74673035D01*
X112192933Y-74632395D01*
X112428878Y-74590071D01*
X112618832Y-74546273D01*
X112761965Y-74501212D01*
X112857449Y-74455097D01*
X112894065Y-74424063D01*
X112911275Y-74390781D01*
X112892701Y-74359434D01*
X112872723Y-74342139D01*
X112817639Y-74307639D01*
X112720027Y-74257899D01*
X112583485Y-74194317D01*
X112411610Y-74118292D01*
X112208000Y-74031219D01*
X111976254Y-73934499D01*
X111719968Y-73829527D01*
X111442741Y-73717703D01*
X111148171Y-73600423D01*
X110839854Y-73479086D01*
X110521390Y-73355089D01*
X110196376Y-73229830D01*
X109868409Y-73104707D01*
X109541088Y-72981118D01*
X109218010Y-72860460D01*
X108902774Y-72744131D01*
X108598976Y-72633529D01*
X108310215Y-72530052D01*
X108040088Y-72435098D01*
X107792194Y-72350063D01*
X107570130Y-72276347D01*
X107484884Y-72248924D01*
X107325376Y-72198504D01*
X107205329Y-72161583D01*
X107117622Y-72136352D01*
X107055131Y-72121002D01*
X107010736Y-72113723D01*
X106977313Y-72112706D01*
X106956683Y-72114744D01*
X106929769Y-72121824D01*
X106928835Y-72136132D01*
X104312483Y-72136132D01*
X104301909Y-72135181D01*
X104272698Y-72142167D01*
X104268559Y-72169399D01*
X103925354Y-72169399D01*
X103912180Y-72102093D01*
X103884410Y-72007731D01*
X103856664Y-71960959D01*
X103848059Y-71956084D01*
X103795658Y-71940125D01*
X103713557Y-71914992D01*
X103615529Y-71884917D01*
X103515348Y-71854131D01*
X103426786Y-71826864D01*
X103363617Y-71807349D01*
X103344457Y-71801379D01*
X103332241Y-71797390D01*
X103322361Y-71796585D01*
X103314997Y-71803128D01*
X103310332Y-71821186D01*
X103308546Y-71854924D01*
X102977107Y-71854924D01*
X102952999Y-71727168D01*
X102928616Y-71638028D01*
X102925413Y-71629611D01*
X102905219Y-71585560D01*
X102879484Y-71552256D01*
X102838527Y-71523142D01*
X102772667Y-71491659D01*
X102672223Y-71451250D01*
X102648563Y-71442073D01*
X102546716Y-71403710D01*
X102460731Y-71373252D01*
X102401559Y-71354466D01*
X102381799Y-71350281D01*
X102369886Y-71370984D01*
X102359198Y-71433841D01*
X102349541Y-71540762D01*
X102340725Y-71693662D01*
X102335782Y-71807646D01*
X102328081Y-72111885D01*
X102087321Y-72111885D01*
X102076020Y-71957390D01*
X102061583Y-71778192D01*
X102046670Y-71610968D01*
X102031751Y-71462472D01*
X102017297Y-71339458D01*
X102003777Y-71248679D01*
X101991663Y-71196890D01*
X101991467Y-71196371D01*
X101954656Y-71153911D01*
X101883005Y-71108440D01*
X101789861Y-71066014D01*
X101688572Y-71032690D01*
X101592487Y-71014525D01*
X101590253Y-71014317D01*
X101520574Y-71009584D01*
X101467206Y-71013342D01*
X101427975Y-71031153D01*
X101400709Y-71068579D01*
X101383234Y-71131182D01*
X101373377Y-71224526D01*
X101368966Y-71354172D01*
X101367827Y-71525682D01*
X101367799Y-71583752D01*
X101129556Y-71583752D01*
X101127137Y-71554080D01*
X101110965Y-71397709D01*
X101092930Y-71259609D01*
X101073754Y-71147770D01*
X101054160Y-71070183D01*
X101037730Y-71037144D01*
X101010283Y-71035856D01*
X100943460Y-71040822D01*
X100846394Y-71051149D01*
X100728220Y-71065941D01*
X100687863Y-71071412D01*
X100350328Y-71118012D01*
X100338069Y-71363156D01*
X100333264Y-71580418D01*
X100029799Y-71580418D01*
X100025002Y-71534398D01*
X100009735Y-71439216D01*
X99991020Y-71348330D01*
X99975347Y-71278362D01*
X99965433Y-71241253D01*
X99964056Y-71238374D01*
X99938697Y-71240633D01*
X99877315Y-71252912D01*
X99791330Y-71272838D01*
X99755164Y-71281775D01*
X99553513Y-71332416D01*
X99553513Y-71743359D01*
X98779134Y-71743359D01*
X98931537Y-71427800D01*
X99079372Y-71121107D01*
X99179238Y-70913462D01*
X99675985Y-70913462D01*
X99680290Y-70946277D01*
X99700640Y-70952866D01*
X99727687Y-70947708D01*
X99772414Y-70937843D01*
X99854589Y-70920171D01*
X99963668Y-70896944D01*
X100089109Y-70870412D01*
X100129672Y-70861868D01*
X100233771Y-70839626D01*
X100377727Y-70808377D01*
X100553559Y-70769877D01*
X100660527Y-70746316D01*
X102229271Y-70746316D01*
X102231852Y-70760797D01*
X102258650Y-70782523D01*
X102314676Y-70814724D01*
X102404942Y-70860629D01*
X102534461Y-70923469D01*
X102544633Y-70928349D01*
X103047623Y-71164715D01*
X103511679Y-71372734D01*
X103937650Y-71552725D01*
X104326382Y-71705009D01*
X104678722Y-71829907D01*
X104995520Y-71927738D01*
X105277621Y-71998824D01*
X105474975Y-72036043D01*
X105632298Y-72052061D01*
X105799035Y-72054626D01*
X105960869Y-72044631D01*
X106103487Y-72022966D01*
X106212574Y-71990524D01*
X106213697Y-71990040D01*
X106295316Y-71948715D01*
X106365191Y-71903196D01*
X106392353Y-71879596D01*
X106444705Y-71823870D01*
X106217015Y-71736027D01*
X106152441Y-71711094D01*
X106047006Y-71670357D01*
X105905583Y-71615700D01*
X105733046Y-71549007D01*
X105534267Y-71472163D01*
X105314119Y-71387050D01*
X105077476Y-71295553D01*
X104829210Y-71199555D01*
X104616351Y-71117243D01*
X103243378Y-70586302D01*
X103053122Y-70601419D01*
X102948022Y-70612152D01*
X102820884Y-70628740D01*
X102683116Y-70649282D01*
X102546125Y-70671879D01*
X102421319Y-70694631D01*
X102320105Y-70715638D01*
X102253891Y-70733000D01*
X102245894Y-70735852D01*
X102229271Y-70746316D01*
X100660527Y-70746316D01*
X100753285Y-70725885D01*
X100968925Y-70678158D01*
X101192496Y-70628454D01*
X101404575Y-70581093D01*
X101865651Y-70478910D01*
X102284349Y-70388482D01*
X102665690Y-70309011D01*
X103014697Y-70239695D01*
X103336389Y-70179737D01*
X103635790Y-70128336D01*
X103917921Y-70084694D01*
X104187804Y-70048009D01*
X104450461Y-70017484D01*
X104710912Y-69992318D01*
X104974181Y-69971713D01*
X105245288Y-69954867D01*
X105382857Y-69947727D01*
X105547286Y-69939029D01*
X105693764Y-69930023D01*
X105815734Y-69921216D01*
X105906637Y-69913115D01*
X105959914Y-69906227D01*
X105971274Y-69902243D01*
X105943700Y-69868236D01*
X105885052Y-69815291D01*
X105805421Y-69751110D01*
X105714902Y-69683392D01*
X105623588Y-69619839D01*
X105541571Y-69568151D01*
X105511235Y-69551258D01*
X105397475Y-69495569D01*
X105294573Y-69456519D01*
X105189259Y-69431394D01*
X105068264Y-69417482D01*
X104918315Y-69412069D01*
X104828689Y-69411700D01*
X104572828Y-69420479D01*
X104334484Y-69447488D01*
X104094726Y-69495768D01*
X103834623Y-69568354D01*
X103815741Y-69574243D01*
X103663915Y-69621816D01*
X103549354Y-69656233D01*
X103462377Y-69678498D01*
X103393302Y-69689614D01*
X103332448Y-69690584D01*
X103270133Y-69682411D01*
X103196678Y-69666100D01*
X103118107Y-69646550D01*
X103006182Y-69620585D01*
X102903676Y-69600155D01*
X102825291Y-69588036D01*
X102796639Y-69585907D01*
X102749591Y-69593454D01*
X102664700Y-69614663D01*
X102550445Y-69647112D01*
X102415305Y-69688376D01*
X102267758Y-69736032D01*
X102244998Y-69743609D01*
X101850425Y-69869699D01*
X101492795Y-69971430D01*
X101167113Y-70049851D01*
X100868383Y-70106012D01*
X100591610Y-70140960D01*
X100331800Y-70155745D01*
X100279729Y-70156383D01*
X99988474Y-70157689D01*
X99894387Y-70303262D01*
X99794293Y-70483699D01*
X99721794Y-70668377D01*
X99683169Y-70841258D01*
X99682933Y-70843231D01*
X99675985Y-70913462D01*
X99179238Y-70913462D01*
X99214797Y-70839526D01*
X99336721Y-70585323D01*
X99444057Y-70360767D01*
X99535713Y-70168122D01*
X99610601Y-70009656D01*
X99667630Y-69887636D01*
X99705711Y-69804329D01*
X99723754Y-69762001D01*
X99725135Y-69757236D01*
X99713330Y-69685505D01*
X99681498Y-69592107D01*
X99635011Y-69486738D01*
X99579242Y-69379100D01*
X99519564Y-69278890D01*
X99461350Y-69195807D01*
X99409972Y-69139551D01*
X99372016Y-69119787D01*
X99357604Y-69141229D01*
X99322923Y-69203496D01*
X99269529Y-69303504D01*
X99198975Y-69438167D01*
X99112814Y-69604398D01*
X99012600Y-69799112D01*
X98899886Y-70019223D01*
X98776226Y-70261645D01*
X98643173Y-70523293D01*
X98502282Y-70801081D01*
X98355106Y-71091923D01*
X98203198Y-71392733D01*
X98048111Y-71700426D01*
X97891401Y-72011915D01*
X97734619Y-72324115D01*
X97579320Y-72633940D01*
X97427057Y-72938305D01*
X97279384Y-73234123D01*
X97137855Y-73518309D01*
X97004022Y-73787777D01*
X96879440Y-74039442D01*
X96765662Y-74270216D01*
X96664242Y-74477016D01*
X96576733Y-74656754D01*
X96504689Y-74806346D01*
X96449663Y-74922705D01*
X96440399Y-74942664D01*
X96274679Y-75307089D01*
X96132873Y-75632272D01*
X96014140Y-75921297D01*
X95917639Y-76177248D01*
X95842528Y-76403209D01*
X95787966Y-76602265D01*
X95753112Y-76777501D01*
X95737124Y-76932000D01*
X95323373Y-76932000D01*
X95329706Y-76911594D01*
X95334074Y-76869084D01*
X95318891Y-76842855D01*
X95278817Y-76831845D01*
X95208510Y-76834989D01*
X95102627Y-76851224D01*
X94955827Y-76879488D01*
X94902880Y-76890180D01*
X94596465Y-76954918D01*
X94284569Y-77025575D01*
X93976673Y-77099750D01*
X93682261Y-77175040D01*
X93410816Y-77249043D01*
X93171821Y-77319357D01*
X93031892Y-77364100D01*
X92918566Y-77403868D01*
X92836858Y-77439740D01*
X92771154Y-77480992D01*
X92705838Y-77536898D01*
X92651872Y-77589834D01*
X92506405Y-77757608D01*
X92394772Y-77931688D01*
X92323060Y-78102353D01*
X92316633Y-78125114D01*
X92302955Y-78185840D01*
X92301207Y-78230311D01*
X90934640Y-78230311D01*
X90973086Y-78152741D01*
X91091421Y-77963351D01*
X91242299Y-77755555D01*
X91422116Y-77534508D01*
X91506869Y-77437306D01*
X91664929Y-77259555D01*
X91524455Y-77259555D01*
X91445654Y-77257820D01*
X91405991Y-77250352D01*
X91395627Y-77233764D01*
X91399879Y-77216650D01*
X91433439Y-77146315D01*
X91491936Y-77045156D01*
X91570218Y-76921066D01*
X91613471Y-76856300D01*
X93025278Y-76856300D01*
X93044131Y-76918976D01*
X93100327Y-76950439D01*
X93191255Y-76950604D01*
X93242983Y-76944011D01*
X93321892Y-76934567D01*
X93374489Y-76928481D01*
X93473511Y-76912431D01*
X93611811Y-76883114D01*
X93782044Y-76842448D01*
X93976863Y-76792348D01*
X94188922Y-76734731D01*
X94410875Y-76671513D01*
X94635376Y-76604610D01*
X94741183Y-76571969D01*
X94936337Y-76510808D01*
X95090189Y-76461384D01*
X95208292Y-76420970D01*
X95296197Y-76386841D01*
X95359457Y-76356272D01*
X95403623Y-76326537D01*
X95434248Y-76294910D01*
X95456883Y-76258667D01*
X95477082Y-76215081D01*
X95479468Y-76209548D01*
X95515366Y-76119173D01*
X95531101Y-76052318D01*
X95521973Y-76005645D01*
X95483285Y-75975821D01*
X95410339Y-75959509D01*
X95298437Y-75953375D01*
X95142881Y-75954083D01*
X95120201Y-75954486D01*
X94927255Y-75961668D01*
X94720857Y-75975673D01*
X94509153Y-75995390D01*
X94300294Y-76019709D01*
X94102426Y-76047518D01*
X93923699Y-76077706D01*
X93772259Y-76109164D01*
X93656255Y-76140779D01*
X93602717Y-76161355D01*
X93505308Y-76220414D01*
X93394385Y-76308166D01*
X93283074Y-76412134D01*
X93184502Y-76519843D01*
X93111795Y-76618819D01*
X93100109Y-76639041D01*
X93043895Y-76762844D01*
X93025278Y-76856300D01*
X91613471Y-76856300D01*
X91663134Y-76781937D01*
X91765530Y-76635664D01*
X91872255Y-76490139D01*
X91885704Y-76472314D01*
X91966447Y-76364303D01*
X92035539Y-76269286D01*
X92087971Y-76194358D01*
X92118739Y-76146614D01*
X92124749Y-76133554D01*
X92104797Y-76107364D01*
X92081843Y-76095978D01*
X92026934Y-76069071D01*
X91993496Y-76046862D01*
X91981626Y-76034270D01*
X91979228Y-76017157D01*
X91989645Y-75991182D01*
X92016220Y-75952005D01*
X92062294Y-75895285D01*
X92131211Y-75816680D01*
X92226313Y-75711851D01*
X92308526Y-75622537D01*
X93794170Y-75622537D01*
X93806165Y-75680166D01*
X93819016Y-75694613D01*
X93859892Y-75704305D01*
X93942068Y-75708992D01*
X94058098Y-75709016D01*
X94200541Y-75704717D01*
X94361952Y-75696436D01*
X94534887Y-75684513D01*
X94711903Y-75669288D01*
X94885557Y-75651104D01*
X94956505Y-75642564D01*
X95188355Y-75612272D01*
X95374590Y-75585292D01*
X95518477Y-75561075D01*
X95623284Y-75539070D01*
X95692278Y-75518725D01*
X95692927Y-75518480D01*
X95773115Y-75466838D01*
X95847811Y-75382923D01*
X95907112Y-75282418D01*
X95941120Y-75181006D01*
X95944749Y-75119567D01*
X95933509Y-75068110D01*
X95903149Y-75039364D01*
X95839131Y-75019321D01*
X95778305Y-75011003D01*
X95678018Y-75004302D01*
X95546391Y-74999204D01*
X95391547Y-74995693D01*
X95221608Y-74993757D01*
X95044695Y-74993379D01*
X94868931Y-74994546D01*
X94702439Y-74997244D01*
X94553339Y-75001458D01*
X94429755Y-75007173D01*
X94339809Y-75014376D01*
X94294536Y-75022055D01*
X94179466Y-75075104D01*
X94059899Y-75158932D01*
X93952603Y-75260134D01*
X93882644Y-75351303D01*
X93834655Y-75445988D01*
X93804415Y-75540438D01*
X93794170Y-75622537D01*
X92308526Y-75622537D01*
X92350942Y-75576457D01*
X92379644Y-75545394D01*
X92495716Y-75419440D01*
X92599979Y-75305568D01*
X92688042Y-75208635D01*
X92755510Y-75133498D01*
X92797993Y-75085015D01*
X92811235Y-75068156D01*
X92792205Y-75050599D01*
X92744398Y-75018749D01*
X92721241Y-75004737D01*
X92631246Y-74951639D01*
X92985178Y-74591649D01*
X93100347Y-74474229D01*
X93140045Y-74433571D01*
X94439238Y-74433571D01*
X94444392Y-74495599D01*
X94492857Y-74536035D01*
X94515193Y-74543922D01*
X94602237Y-74561308D01*
X94729428Y-74576091D01*
X94887933Y-74587973D01*
X95068918Y-74596657D01*
X95263550Y-74601844D01*
X95462996Y-74603237D01*
X95658422Y-74600538D01*
X95840995Y-74593451D01*
X95893080Y-74590350D01*
X96021483Y-74580404D01*
X96110539Y-74569007D01*
X96169932Y-74554219D01*
X96209347Y-74534099D01*
X96221116Y-74524638D01*
X96284167Y-74454095D01*
X96345419Y-74363114D01*
X96391346Y-74273115D01*
X96404618Y-74234065D01*
X96408428Y-74186169D01*
X96380612Y-74157438D01*
X96350432Y-74144177D01*
X96261744Y-74117582D01*
X96133846Y-74089522D01*
X95976467Y-74061600D01*
X95799336Y-74035415D01*
X95612183Y-74012567D01*
X95459112Y-73997537D01*
X95103610Y-73966770D01*
X94914823Y-74045829D01*
X94723137Y-74138340D01*
X94580102Y-74234932D01*
X94485824Y-74335532D01*
X94477180Y-74348859D01*
X94439238Y-74433571D01*
X93140045Y-74433571D01*
X93211237Y-74360658D01*
X93310465Y-74258540D01*
X93390646Y-74175475D01*
X93444395Y-74119064D01*
X93447506Y-74115744D01*
X93555903Y-73999828D01*
X93428743Y-73946983D01*
X93359415Y-73915523D01*
X93313230Y-73889489D01*
X93301583Y-73877865D01*
X93317830Y-73853291D01*
X93359797Y-73806783D01*
X93401767Y-73764676D01*
X93455438Y-73710954D01*
X93533067Y-73630916D01*
X93536119Y-73627719D01*
X94944247Y-73627719D01*
X94964461Y-73653505D01*
X94987152Y-73663118D01*
X95031171Y-73668179D01*
X95115410Y-73672150D01*
X95232649Y-73675073D01*
X95375672Y-73676989D01*
X95537261Y-73677939D01*
X95710197Y-73677964D01*
X95887265Y-73677107D01*
X96061245Y-73675408D01*
X96224921Y-73672908D01*
X96371074Y-73669650D01*
X96492486Y-73665674D01*
X96581941Y-73661022D01*
X96632220Y-73655735D01*
X96639401Y-73653652D01*
X96670056Y-73621385D01*
X96712550Y-73557500D01*
X96759629Y-73475543D01*
X96804036Y-73389061D01*
X96838516Y-73311599D01*
X96855813Y-73256704D01*
X96856602Y-73248150D01*
X96836777Y-73216027D01*
X96813697Y-73202236D01*
X96763587Y-73191371D01*
X96673760Y-73180829D01*
X96553535Y-73171044D01*
X96412229Y-73162449D01*
X96259159Y-73155479D01*
X96103644Y-73150566D01*
X95955002Y-73148144D01*
X95822550Y-73148647D01*
X95728803Y-73151744D01*
X95605833Y-73159045D01*
X95519462Y-73167374D01*
X95457299Y-73179814D01*
X95406950Y-73199446D01*
X95356025Y-73229354D01*
X95320238Y-73253375D01*
X95249021Y-73307467D01*
X95169474Y-73376304D01*
X95090451Y-73451071D01*
X95020808Y-73522951D01*
X94969400Y-73583127D01*
X94945083Y-73622783D01*
X94944247Y-73627719D01*
X93536119Y-73627719D01*
X93625345Y-73534265D01*
X93722958Y-73430705D01*
X93750350Y-73401393D01*
X93998748Y-73135025D01*
X93940451Y-73087819D01*
X93885405Y-73046305D01*
X93844291Y-73019424D01*
X93831546Y-73002862D01*
X93841177Y-72973813D01*
X93877396Y-72925400D01*
X93944414Y-72850750D01*
X93953736Y-72840761D01*
X94043647Y-72734342D01*
X95462458Y-72734342D01*
X95469241Y-72788388D01*
X95514276Y-72822374D01*
X95553592Y-72828520D01*
X95636499Y-72833551D01*
X95757564Y-72837349D01*
X95911352Y-72839795D01*
X96092429Y-72840770D01*
X96295362Y-72840157D01*
X96320793Y-72839972D01*
X96533114Y-72838185D01*
X96701891Y-72836220D01*
X96832616Y-72833702D01*
X96930779Y-72830257D01*
X97001872Y-72825513D01*
X97051385Y-72819095D01*
X97084810Y-72810629D01*
X97107638Y-72799742D01*
X97125359Y-72786060D01*
X97126387Y-72785135D01*
X97181959Y-72717146D01*
X97240226Y-72616545D01*
X97293172Y-72498570D01*
X97324129Y-72409318D01*
X97341709Y-72340920D01*
X97341099Y-72303342D01*
X97321909Y-72281713D01*
X97320761Y-72280977D01*
X97276789Y-72270010D01*
X97189712Y-72263047D01*
X97065294Y-72260075D01*
X96909301Y-72261085D01*
X96727498Y-72266067D01*
X96525649Y-72275010D01*
X96391110Y-72282654D01*
X96242757Y-72292428D01*
X96132872Y-72301986D01*
X96050938Y-72313266D01*
X95986437Y-72328205D01*
X95928848Y-72348740D01*
X95867655Y-72376810D01*
X95860276Y-72380429D01*
X95757413Y-72440172D01*
X95649884Y-72516610D01*
X95584117Y-72572203D01*
X95500707Y-72662435D01*
X95462458Y-72734342D01*
X94043647Y-72734342D01*
X94074095Y-72698304D01*
X94150401Y-72575475D01*
X94182546Y-72472566D01*
X94170422Y-72389867D01*
X94136711Y-72345213D01*
X94096952Y-72318382D01*
X94051932Y-72317014D01*
X94002337Y-72330900D01*
X93904875Y-72374378D01*
X93773904Y-72451084D01*
X93610868Y-72559859D01*
X93417213Y-72699545D01*
X93194382Y-72868981D01*
X92943823Y-73067009D01*
X92666979Y-73292469D01*
X92365296Y-73544202D01*
X92040219Y-73821049D01*
X91693193Y-74121850D01*
X91325664Y-74445446D01*
X90964231Y-74768074D01*
X90844706Y-74875012D01*
X90737104Y-74970483D01*
X90646853Y-75049735D01*
X90579380Y-75108020D01*
X90540112Y-75140585D01*
X90532714Y-75145753D01*
X90521313Y-75126846D01*
X90510087Y-75067616D01*
X90499800Y-74976769D01*
X90491216Y-74863013D01*
X90485099Y-74735055D01*
X90482212Y-74601602D01*
X90482085Y-74568581D01*
X90480613Y-74465935D01*
X90475291Y-74404526D01*
X90464754Y-74376619D01*
X90447861Y-74374392D01*
X90361557Y-74403869D01*
X90281436Y-74425125D01*
X90221322Y-74435004D01*
X90196030Y-74431866D01*
X90191907Y-74402071D01*
X90194028Y-74335235D01*
X90201814Y-74242878D01*
X90208446Y-74184196D01*
X90223543Y-74042730D01*
X90985532Y-74042730D01*
X90989756Y-74155798D01*
X91005487Y-74226839D01*
X91034853Y-74261958D01*
X91064311Y-74268436D01*
X91101978Y-74255641D01*
X91170053Y-74220959D01*
X91258307Y-74169942D01*
X91340901Y-74118299D01*
X91540880Y-73982545D01*
X91768435Y-73816744D01*
X92017080Y-73626122D01*
X92280330Y-73415904D01*
X92551700Y-73191319D01*
X92824704Y-72957592D01*
X93092858Y-72719950D01*
X93222053Y-72602247D01*
X93358865Y-72474789D01*
X93461172Y-72375458D01*
X93532005Y-72300836D01*
X93574398Y-72247500D01*
X93591381Y-72212030D01*
X93586305Y-72191318D01*
X93551616Y-72190036D01*
X93480459Y-72215703D01*
X93375977Y-72266365D01*
X93241312Y-72340066D01*
X93079609Y-72434855D01*
X92894009Y-72548775D01*
X92687656Y-72679873D01*
X92463693Y-72826195D01*
X92225262Y-72985787D01*
X91975508Y-73156694D01*
X91717572Y-73336963D01*
X91536332Y-73465883D01*
X91374024Y-73582529D01*
X91247275Y-73675378D01*
X91151676Y-73749043D01*
X91082823Y-73808139D01*
X91036308Y-73857282D01*
X91007726Y-73901084D01*
X90992669Y-73944163D01*
X90986733Y-73991131D01*
X90985532Y-74042730D01*
X90223543Y-74042730D01*
X90228714Y-73994280D01*
X90236582Y-73847532D01*
X90231179Y-73739461D01*
X90211633Y-73665575D01*
X90177069Y-73621383D01*
X90126616Y-73602392D01*
X90095144Y-73600944D01*
X90019621Y-73603091D01*
X90051724Y-73512839D01*
X90075109Y-73451753D01*
X90088894Y-73417666D01*
X91008957Y-73417666D01*
X91012462Y-73451339D01*
X91034338Y-73495278D01*
X91056600Y-73508397D01*
X91085542Y-73496283D01*
X91149915Y-73462371D01*
X91243235Y-73410307D01*
X91359017Y-73343737D01*
X91490776Y-73266307D01*
X91550419Y-73230767D01*
X91680590Y-73151991D01*
X91833651Y-73057878D01*
X92004508Y-72951686D01*
X92188070Y-72836669D01*
X92379245Y-72716082D01*
X92572941Y-72593182D01*
X92764066Y-72471223D01*
X92947529Y-72353461D01*
X93118237Y-72243152D01*
X93271099Y-72143551D01*
X93401022Y-72057913D01*
X93502916Y-71989494D01*
X93571687Y-71941549D01*
X93596712Y-71922489D01*
X93639849Y-71878397D01*
X93656988Y-71844592D01*
X93655703Y-71838981D01*
X93633447Y-71822618D01*
X93592715Y-71819352D01*
X93530770Y-71830291D01*
X93444874Y-71856545D01*
X93332288Y-71899222D01*
X93190275Y-71959433D01*
X93016097Y-72038287D01*
X92807015Y-72136891D01*
X92560291Y-72256356D01*
X92273188Y-72397791D01*
X92259594Y-72404531D01*
X91975705Y-72547098D01*
X91726967Y-72675683D01*
X91514919Y-72789407D01*
X91341100Y-72887393D01*
X91207050Y-72968764D01*
X91114308Y-73032642D01*
X91064412Y-73078149D01*
X91057092Y-73090219D01*
X91038317Y-73157321D01*
X91022460Y-73247017D01*
X91011885Y-73340176D01*
X91008957Y-73417666D01*
X90088894Y-73417666D01*
X90112143Y-73360175D01*
X90156913Y-73252578D01*
X90186463Y-73183003D01*
X90242381Y-73043638D01*
X90273444Y-72941358D01*
X90279755Y-72871040D01*
X90261416Y-72827560D01*
X90218526Y-72805794D01*
X90194005Y-72801969D01*
X90139752Y-72792579D01*
X90114548Y-72780020D01*
X90114324Y-72778840D01*
X90126221Y-72753396D01*
X90158963Y-72693731D01*
X90208132Y-72607650D01*
X90227828Y-72573941D01*
X91030316Y-72573941D01*
X91045843Y-72613343D01*
X91058625Y-72623345D01*
X91079344Y-72627336D01*
X91112716Y-72623830D01*
X91163453Y-72611342D01*
X91236268Y-72588385D01*
X91335876Y-72553472D01*
X91466989Y-72505119D01*
X91634321Y-72441838D01*
X91842586Y-72362143D01*
X91842799Y-72362061D01*
X92171890Y-72233000D01*
X92477651Y-72107591D01*
X92755885Y-71987724D01*
X93002396Y-71875292D01*
X93212989Y-71772187D01*
X93383466Y-71680298D01*
X93467075Y-71629856D01*
X93543541Y-71575796D01*
X93583599Y-71531874D01*
X93595762Y-71488575D01*
X93595791Y-71486018D01*
X93592630Y-71452214D01*
X93577885Y-71432842D01*
X93543663Y-71427585D01*
X93482074Y-71436131D01*
X93385224Y-71458165D01*
X93317926Y-71474944D01*
X93102381Y-71533478D01*
X92859603Y-71606476D01*
X92599929Y-71690291D01*
X92333697Y-71781273D01*
X92071241Y-71875774D01*
X91822900Y-71970145D01*
X91599009Y-72060737D01*
X91409905Y-72143901D01*
X91371524Y-72162024D01*
X91248027Y-72224067D01*
X91161819Y-72276636D01*
X91104513Y-72328093D01*
X91067724Y-72386800D01*
X91043065Y-72461120D01*
X91034510Y-72498060D01*
X91030316Y-72573941D01*
X90227828Y-72573941D01*
X90269305Y-72502956D01*
X90299266Y-72452364D01*
X90395574Y-72282600D01*
X90460915Y-72147644D01*
X90495565Y-72044512D01*
X90499800Y-71970223D01*
X90473897Y-71921790D01*
X90418133Y-71896233D01*
X90351360Y-71890250D01*
X90279042Y-71890250D01*
X90398951Y-71786875D01*
X90398986Y-71786844D01*
X91243869Y-71786844D01*
X91247971Y-71842353D01*
X91273757Y-71865579D01*
X91276952Y-71865733D01*
X91308517Y-71858973D01*
X91380902Y-71839852D01*
X91487960Y-71810108D01*
X91623547Y-71771479D01*
X91781516Y-71725702D01*
X91955723Y-71674517D01*
X92011963Y-71657853D01*
X92340004Y-71559698D01*
X92623252Y-71473208D01*
X92864305Y-71397453D01*
X93065759Y-71331500D01*
X93230212Y-71274416D01*
X93360260Y-71225269D01*
X93458500Y-71183128D01*
X93524152Y-71148823D01*
X93896061Y-71148823D01*
X93916042Y-71373509D01*
X93956292Y-71568669D01*
X94015602Y-71730319D01*
X94092760Y-71854476D01*
X94186556Y-71937157D01*
X94218021Y-71953393D01*
X94314235Y-71975085D01*
X94421103Y-71957332D01*
X94483735Y-71928247D01*
X95900424Y-71928247D01*
X95903110Y-71941911D01*
X95915030Y-71952056D01*
X95941982Y-71958951D01*
X95989763Y-71962863D01*
X96064171Y-71964061D01*
X96171003Y-71962815D01*
X96316055Y-71959393D01*
X96475884Y-71954911D01*
X96657185Y-71948922D01*
X96838676Y-71941591D01*
X97009047Y-71933474D01*
X97156989Y-71925124D01*
X97271190Y-71917096D01*
X97301194Y-71914455D01*
X97439331Y-71897981D01*
X97533566Y-71878636D01*
X97589004Y-71855291D01*
X97597089Y-71848980D01*
X97634128Y-71802598D01*
X97676917Y-71730541D01*
X97719091Y-71646451D01*
X97754284Y-71563971D01*
X97776129Y-71496746D01*
X97778785Y-71459604D01*
X97751800Y-71440556D01*
X97686819Y-71428893D01*
X97581614Y-71424584D01*
X97433957Y-71427598D01*
X97241619Y-71437903D01*
X97076030Y-71449682D01*
X96869276Y-71466402D01*
X96704568Y-71482152D01*
X96574967Y-71498197D01*
X96473535Y-71515800D01*
X96393334Y-71536226D01*
X96327425Y-71560739D01*
X96268870Y-71590603D01*
X96253862Y-71599481D01*
X96157376Y-71664169D01*
X96065096Y-71736835D01*
X95985809Y-71809302D01*
X95928305Y-71873395D01*
X95901374Y-71920938D01*
X95900424Y-71928247D01*
X94483735Y-71928247D01*
X94543085Y-71900686D01*
X94595832Y-71862689D01*
X94666967Y-71801132D01*
X94748674Y-71724056D01*
X94833140Y-71639500D01*
X94912551Y-71555504D01*
X94979092Y-71480109D01*
X95024951Y-71421353D01*
X95042313Y-71387278D01*
X95042316Y-71387015D01*
X95021752Y-71358635D01*
X94971373Y-71328754D01*
X94962635Y-71325094D01*
X94906797Y-71301942D01*
X94874882Y-71286980D01*
X94873409Y-71286014D01*
X94886227Y-71266858D01*
X94927794Y-71218632D01*
X94992640Y-71147388D01*
X95055487Y-71080315D01*
X96415289Y-71080315D01*
X96438657Y-71091902D01*
X96504448Y-71099751D01*
X96606190Y-71103852D01*
X96737415Y-71104198D01*
X96891653Y-71100780D01*
X97062432Y-71093591D01*
X97243283Y-71082623D01*
X97261139Y-71081356D01*
X97451816Y-71067624D01*
X97600175Y-71056204D01*
X97712789Y-71045612D01*
X97796227Y-71034363D01*
X97857061Y-71020973D01*
X97901860Y-71003958D01*
X97937195Y-70981834D01*
X97969638Y-70953117D01*
X98005759Y-70916323D01*
X98009701Y-70912271D01*
X98075448Y-70836411D01*
X98135377Y-70752689D01*
X98183047Y-70672096D01*
X98212019Y-70605624D01*
X98215851Y-70564263D01*
X98214804Y-70562248D01*
X98184203Y-70552214D01*
X98112773Y-70546208D01*
X98008525Y-70543881D01*
X97879472Y-70544885D01*
X97733622Y-70548872D01*
X97578988Y-70555493D01*
X97423580Y-70564400D01*
X97275408Y-70575244D01*
X97142485Y-70587679D01*
X97032820Y-70601355D01*
X96954425Y-70615923D01*
X96949173Y-70617267D01*
X96874499Y-70648696D01*
X96784450Y-70703944D01*
X96688007Y-70775220D01*
X96594152Y-70854736D01*
X96511866Y-70934701D01*
X96450129Y-71007326D01*
X96417924Y-71064821D01*
X96415289Y-71080315D01*
X95055487Y-71080315D01*
X95075294Y-71059176D01*
X95136797Y-70994750D01*
X95254331Y-70871949D01*
X95340452Y-70779434D01*
X95397943Y-70712346D01*
X95429586Y-70665829D01*
X95438164Y-70635024D01*
X95426459Y-70615073D01*
X95397254Y-70601119D01*
X95367386Y-70592178D01*
X95287257Y-70574844D01*
X95214197Y-70566563D01*
X95207809Y-70566449D01*
X95158838Y-70561735D01*
X95140386Y-70551635D01*
X95154558Y-70527842D01*
X95193354Y-70473061D01*
X95251195Y-70394932D01*
X95322503Y-70301094D01*
X95338714Y-70280046D01*
X95381291Y-70224061D01*
X96783050Y-70224061D01*
X96800490Y-70238697D01*
X96854455Y-70245510D01*
X96947411Y-70244403D01*
X97081825Y-70235281D01*
X97260164Y-70218047D01*
X97432760Y-70198747D01*
X97708366Y-70165448D01*
X97936777Y-70135298D01*
X98119715Y-70108016D01*
X98258900Y-70083319D01*
X98356053Y-70060924D01*
X98412894Y-70040548D01*
X98419395Y-70036807D01*
X98465683Y-69989953D01*
X98516094Y-69913999D01*
X98560983Y-69826907D01*
X98590707Y-69746640D01*
X98597336Y-69705400D01*
X98595318Y-69680958D01*
X98583222Y-69666217D01*
X98551981Y-69659770D01*
X98492530Y-69660206D01*
X98395804Y-69666115D01*
X98360543Y-69668577D01*
X98241031Y-69679034D01*
X98096997Y-69694810D01*
X97939732Y-69714332D01*
X97780527Y-69736028D01*
X97630671Y-69758327D01*
X97501454Y-69779656D01*
X97404166Y-69798443D01*
X97371384Y-69806296D01*
X97301932Y-69833758D01*
X97213232Y-69881267D01*
X97114330Y-69942396D01*
X97014277Y-70010721D01*
X96922119Y-70079816D01*
X96846907Y-70143255D01*
X96797689Y-70194615D01*
X96783050Y-70224061D01*
X95381291Y-70224061D01*
X95411293Y-70184611D01*
X95470611Y-70103889D01*
X95511389Y-70045276D01*
X95528349Y-70016165D01*
X95528342Y-70014436D01*
X95498231Y-70011430D01*
X95429395Y-70016759D01*
X95331170Y-70029034D01*
X95212891Y-70046867D01*
X95083893Y-70068869D01*
X94953514Y-70093651D01*
X94852869Y-70114906D01*
X94700008Y-70151331D01*
X94543803Y-70192707D01*
X94392610Y-70236391D01*
X94254788Y-70279742D01*
X94138694Y-70320117D01*
X94052685Y-70354875D01*
X94005117Y-70381375D01*
X94002542Y-70383721D01*
X93966948Y-70436221D01*
X93939416Y-70517463D01*
X93918796Y-70633078D01*
X93903941Y-70788696D01*
X93897558Y-70898594D01*
X93896061Y-71148823D01*
X93524152Y-71148823D01*
X93527528Y-71147059D01*
X93569942Y-71116131D01*
X93587371Y-71092273D01*
X93592307Y-71041853D01*
X93585710Y-70995311D01*
X93565977Y-70952754D01*
X93525016Y-70936015D01*
X93484764Y-70934073D01*
X93417307Y-70940856D01*
X93309823Y-70960000D01*
X93169226Y-70989692D01*
X93002430Y-71028123D01*
X92816350Y-71073480D01*
X92617901Y-71123953D01*
X92413998Y-71177731D01*
X92211555Y-71233003D01*
X92017487Y-71287957D01*
X91838708Y-71340784D01*
X91682134Y-71389671D01*
X91554678Y-71432809D01*
X91494963Y-71455216D01*
X91409331Y-71493652D01*
X91354581Y-71533612D01*
X91314139Y-71588947D01*
X91297287Y-71620387D01*
X91260594Y-71709405D01*
X91243869Y-71786844D01*
X90398986Y-71786844D01*
X90537990Y-71663036D01*
X90669844Y-71538189D01*
X90788303Y-71418808D01*
X90887155Y-71311362D01*
X90960189Y-71222326D01*
X90985253Y-71183493D01*
X91511304Y-71183493D01*
X91525163Y-71216732D01*
X91554720Y-71218841D01*
X91590027Y-71208918D01*
X91665294Y-71188143D01*
X91773168Y-71158534D01*
X91906291Y-71122107D01*
X92057309Y-71080879D01*
X92137007Y-71059156D01*
X92417153Y-70981790D01*
X92675111Y-70908463D01*
X92906403Y-70840536D01*
X93106555Y-70779366D01*
X93271089Y-70726311D01*
X93395529Y-70682730D01*
X93454816Y-70659262D01*
X93523963Y-70626432D01*
X93558558Y-70596536D01*
X93570307Y-70556230D01*
X93571274Y-70526517D01*
X93567149Y-70470671D01*
X93544691Y-70448025D01*
X93488774Y-70443726D01*
X93486966Y-70443725D01*
X93409116Y-70449216D01*
X93291849Y-70464597D01*
X93143412Y-70488235D01*
X92972047Y-70518497D01*
X92786001Y-70553748D01*
X92593518Y-70592355D01*
X92402843Y-70632683D01*
X92222220Y-70673099D01*
X92059895Y-70711969D01*
X91924113Y-70747659D01*
X91863183Y-70765511D01*
X91743116Y-70813706D01*
X91660067Y-70874770D01*
X91644769Y-70891589D01*
X91588066Y-70970246D01*
X91545254Y-71051169D01*
X91518834Y-71125279D01*
X91511304Y-71183493D01*
X90985253Y-71183493D01*
X91000085Y-71160512D01*
X91030414Y-71094912D01*
X91039763Y-71054973D01*
X91028520Y-71022223D01*
X91003722Y-70987124D01*
X90958021Y-70943741D01*
X90887822Y-70910702D01*
X90793037Y-70884623D01*
X90631033Y-70847431D01*
X92107283Y-70508644D01*
X92858860Y-70332348D01*
X93618004Y-70146535D01*
X94391992Y-69949310D01*
X95188102Y-69738777D01*
X96013613Y-69513040D01*
X96123193Y-69482177D01*
X97494054Y-69482177D01*
X97499135Y-69495762D01*
X97517793Y-69503651D01*
X97555148Y-69505276D01*
X97616319Y-69500072D01*
X97706427Y-69487474D01*
X97830592Y-69466914D01*
X97993934Y-69437826D01*
X98143764Y-69410345D01*
X98349031Y-69372091D01*
X98511710Y-69340671D01*
X98637517Y-69314477D01*
X98732166Y-69291900D01*
X98801373Y-69271330D01*
X98850851Y-69251159D01*
X98886317Y-69229778D01*
X98913484Y-69205578D01*
X98927670Y-69189641D01*
X98968234Y-69129141D01*
X98988931Y-69074231D01*
X98989614Y-69066015D01*
X98986243Y-69039881D01*
X98968982Y-69026736D01*
X98927111Y-69024478D01*
X98849910Y-69031002D01*
X98824728Y-69033663D01*
X98713814Y-69048593D01*
X98576350Y-69071730D01*
X98422520Y-69100871D01*
X98262506Y-69133813D01*
X98106492Y-69168354D01*
X97964659Y-69202290D01*
X97847191Y-69233418D01*
X97764270Y-69259537D01*
X97744921Y-69267252D01*
X97652235Y-69316865D01*
X97572431Y-69375095D01*
X97516160Y-69432816D01*
X97494077Y-69480901D01*
X97494054Y-69482177D01*
X96123193Y-69482177D01*
X96875803Y-69270205D01*
X97012777Y-69231032D01*
X97383854Y-69124914D01*
X97712402Y-69031637D01*
X98002950Y-68950256D01*
X98163657Y-68906226D01*
X99719007Y-68906226D01*
X99732566Y-69037597D01*
X99759343Y-69165207D01*
X99810711Y-69307849D01*
X99878221Y-69444324D01*
X99922191Y-69513353D01*
X100039388Y-69636090D01*
X100192343Y-69725999D01*
X100380224Y-69782893D01*
X100602199Y-69806586D01*
X100857435Y-69796893D01*
X101064250Y-69768633D01*
X101234351Y-69736301D01*
X101414026Y-69696014D01*
X101609536Y-69646023D01*
X101827139Y-69584580D01*
X102073094Y-69509936D01*
X102308621Y-69434725D01*
X103162719Y-69434725D01*
X103170917Y-69463871D01*
X103200473Y-69485584D01*
X103242190Y-69497060D01*
X103313718Y-69505147D01*
X103402292Y-69509745D01*
X103495150Y-69510758D01*
X103579527Y-69508086D01*
X103642658Y-69501631D01*
X103671781Y-69491295D01*
X103672432Y-69489217D01*
X103651891Y-69458331D01*
X103596874Y-69413906D01*
X103517291Y-69363241D01*
X103456364Y-69330053D01*
X103406218Y-69307037D01*
X103367792Y-69303203D01*
X103322009Y-69320787D01*
X103266354Y-69352309D01*
X103193472Y-69399681D01*
X103162719Y-69434725D01*
X102308621Y-69434725D01*
X102353662Y-69420342D01*
X102592544Y-69341625D01*
X102833084Y-69261933D01*
X103032296Y-69197171D01*
X103195177Y-69146193D01*
X103326721Y-69107853D01*
X103431925Y-69081006D01*
X103515787Y-69064504D01*
X103583301Y-69057203D01*
X103639464Y-69057955D01*
X103689272Y-69065616D01*
X103737549Y-69078983D01*
X103841105Y-69107834D01*
X103940666Y-69127925D01*
X104024474Y-69137679D01*
X104080768Y-69135523D01*
X104096966Y-69127101D01*
X104092935Y-69091453D01*
X104058160Y-69038881D01*
X104002411Y-68980083D01*
X103935460Y-68925756D01*
X103884979Y-68894993D01*
X103862457Y-68883911D01*
X103839200Y-68874583D01*
X103811144Y-68866912D01*
X103774223Y-68860797D01*
X103724374Y-68856141D01*
X103657532Y-68852845D01*
X103569632Y-68850808D01*
X103456610Y-68849933D01*
X103314401Y-68850120D01*
X103138942Y-68851271D01*
X102926166Y-68853285D01*
X102672011Y-68856066D01*
X102410116Y-68859076D01*
X102128646Y-68862488D01*
X101840726Y-68866265D01*
X101554039Y-68870287D01*
X101276272Y-68874434D01*
X101015109Y-68878589D01*
X100778237Y-68882630D01*
X100573339Y-68886440D01*
X100408102Y-68889898D01*
X100377911Y-68890598D01*
X99719007Y-68906226D01*
X98163657Y-68906226D01*
X98260026Y-68879823D01*
X98488156Y-68819393D01*
X98691871Y-68768018D01*
X98875696Y-68724752D01*
X99044161Y-68688649D01*
X99201792Y-68658762D01*
X99353119Y-68634145D01*
X99502668Y-68613850D01*
X99654969Y-68596933D01*
X99814548Y-68582445D01*
X99985934Y-68569442D01*
X100173654Y-68556975D01*
X100264517Y-68551297D01*
X100395971Y-68544705D01*
X100561882Y-68538842D01*
X100757569Y-68533708D01*
X100978353Y-68529305D01*
X101219552Y-68525633D01*
X101476486Y-68522693D01*
X101744473Y-68520487D01*
X102018834Y-68519015D01*
X102294887Y-68518279D01*
X102567952Y-68518280D01*
G37*
%TO.C,C23*%
X119897500Y-131732420D02*
X119897500Y-132013580D01*
X118877500Y-131732420D02*
X118877500Y-132013580D01*
%TO.C,C2*%
X139374000Y-86215000D02*
X140624000Y-86215000D01*
X139999000Y-85590000D02*
X139999000Y-86840000D01*
X140864000Y-84679437D02*
X140864000Y-87465000D01*
X140864000Y-84679437D02*
X141928437Y-83615000D01*
X140864000Y-93270563D02*
X140864000Y-90485000D01*
X140864000Y-93270563D02*
X141928437Y-94335000D01*
X141928437Y-83615000D02*
X151584000Y-83615000D01*
X141928437Y-94335000D02*
X151584000Y-94335000D01*
X151584000Y-83615000D02*
X151584000Y-87465000D01*
X151584000Y-94335000D02*
X151584000Y-90485000D01*
%TO.C,R7*%
X128850742Y-72215500D02*
X129325258Y-72215500D01*
X128850742Y-73260500D02*
X129325258Y-73260500D01*
%TO.C,C6*%
X141500000Y-133325000D02*
X141500000Y-134575000D01*
X142125000Y-133950000D02*
X140875000Y-133950000D01*
X143035563Y-134815000D02*
X140250000Y-134815000D01*
X143035563Y-134815000D02*
X144100000Y-135879437D01*
X134444437Y-134815000D02*
X137230000Y-134815000D01*
X134444437Y-134815000D02*
X133380000Y-135879437D01*
X144100000Y-135879437D02*
X144100000Y-145535000D01*
X133380000Y-135879437D02*
X133380000Y-145535000D01*
X144100000Y-145535000D02*
X140250000Y-145535000D01*
X133380000Y-145535000D02*
X137230000Y-145535000D01*
%TO.C,C11*%
X123881580Y-121762000D02*
X123600420Y-121762000D01*
X123881580Y-120742000D02*
X123600420Y-120742000D01*
%TO.C,R3*%
X127083000Y-125138564D02*
X127083000Y-124684436D01*
X128553000Y-125138564D02*
X128553000Y-124684436D01*
%TO.C,UART4*%
X107946000Y-77265000D02*
X109276000Y-77265000D01*
X107946000Y-78595000D02*
X107946000Y-77265000D01*
X107946000Y-79865000D02*
X107946000Y-85005000D01*
X107946000Y-79865000D02*
X110606000Y-79865000D01*
X107946000Y-85005000D02*
X110606000Y-85005000D01*
X110606000Y-79865000D02*
X110606000Y-85005000D01*
%TO.C,C17*%
X117726500Y-98370420D02*
X117726500Y-98651580D01*
X116706500Y-98370420D02*
X116706500Y-98651580D01*
%TO.C,ENC 1*%
X88642000Y-127535000D02*
X88642000Y-126205000D01*
X89972000Y-127535000D02*
X88642000Y-127535000D01*
X91242000Y-127535000D02*
X98922000Y-127535000D01*
X91242000Y-127535000D02*
X91242000Y-124875000D01*
X98922000Y-127535000D02*
X98922000Y-124875000D01*
X91242000Y-124875000D02*
X98922000Y-124875000D01*
%TO.C,ENC 3*%
X88642000Y-102135000D02*
X88642000Y-100805000D01*
X89972000Y-102135000D02*
X88642000Y-102135000D01*
X91242000Y-102135000D02*
X98922000Y-102135000D01*
X91242000Y-102135000D02*
X91242000Y-99475000D01*
X98922000Y-102135000D02*
X98922000Y-99475000D01*
X91242000Y-99475000D02*
X98922000Y-99475000D01*
%TO.C,C21*%
X95574580Y-137022000D02*
X95293420Y-137022000D01*
X95574580Y-136002000D02*
X95293420Y-136002000D01*
%TO.C,C15*%
X117010580Y-121889000D02*
X116729420Y-121889000D01*
X117010580Y-120869000D02*
X116729420Y-120869000D01*
%TO.C,Transfo18->5*%
X123407500Y-127132000D02*
X122167500Y-127132000D01*
X122167500Y-127132000D02*
X122167500Y-128372000D01*
X131027500Y-127372000D02*
X122407500Y-127372000D01*
X131027500Y-127372000D02*
X131027500Y-139093000D01*
X122407500Y-127372000D02*
X122407500Y-139093000D01*
X131027500Y-139093000D02*
X122407500Y-139093000D01*
%TO.C,TP_MOSI1*%
X109460000Y-102075000D02*
G75*
G03*
X109460000Y-102075000I-1200000J0D01*
G01*
%TO.C,C24*%
X118877500Y-135235580D02*
X118877500Y-134954420D01*
X119897500Y-135235580D02*
X119897500Y-134954420D01*
%TO.C,LED1*%
X131347000Y-84681000D02*
X129877000Y-84681000D01*
X129877000Y-84681000D02*
X129877000Y-87141000D01*
X131347000Y-87141000D02*
X131347000Y-84681000D01*
%TO.C,C18*%
X108236000Y-110811420D02*
X108236000Y-111092580D01*
X107216000Y-110811420D02*
X107216000Y-111092580D01*
%TO.C,C7*%
X110760420Y-117567000D02*
X111041580Y-117567000D01*
X110760420Y-118587000D02*
X111041580Y-118587000D01*
%TO.C,ALIM1*%
X106355000Y-137635000D02*
X106355000Y-145255000D01*
X106355000Y-145255000D02*
X116515000Y-145255000D01*
X116515000Y-137635000D02*
X106355000Y-137635000D01*
X116515000Y-143985000D02*
X106355000Y-143985000D01*
X116515000Y-145255000D02*
X116515000Y-137635000D01*
%TO.C,C10*%
X111890420Y-106137000D02*
X112171580Y-106137000D01*
X111890420Y-107157000D02*
X112171580Y-107157000D01*
%TO.C,C20*%
X95574580Y-139532000D02*
X95293420Y-139532000D01*
X95574580Y-138512000D02*
X95293420Y-138512000D01*
%TO.C,D3*%
X117300000Y-71280000D02*
X117300000Y-73180000D01*
X117300000Y-71280000D02*
X120960000Y-71280000D01*
X117300000Y-73180000D02*
X120960000Y-73180000D01*
%TO.C,C13*%
X120540580Y-121889000D02*
X120259420Y-121889000D01*
X120540580Y-120869000D02*
X120259420Y-120869000D01*
%TO.C,R6*%
X127337000Y-90237064D02*
X127337000Y-89782936D01*
X128807000Y-90237064D02*
X128807000Y-89782936D01*
%TO.C,C4*%
X139374000Y-110965000D02*
X140624000Y-110965000D01*
X139999000Y-110340000D02*
X139999000Y-111590000D01*
X140864000Y-109429437D02*
X140864000Y-112215000D01*
X140864000Y-109429437D02*
X141928437Y-108365000D01*
X140864000Y-118020563D02*
X140864000Y-115235000D01*
X140864000Y-118020563D02*
X141928437Y-119085000D01*
X141928437Y-108365000D02*
X151584000Y-108365000D01*
X141928437Y-119085000D02*
X151584000Y-119085000D01*
X151584000Y-108365000D02*
X151584000Y-112215000D01*
X151584000Y-119085000D02*
X151584000Y-115235000D01*
D14*
%TO.C,U3*%
X135720000Y-130060000D02*
X135720000Y-127530000D01*
X142120000Y-130060000D02*
X135720000Y-130060000D01*
X142120000Y-130060000D02*
X142120000Y-127530000D01*
X135720000Y-125090000D02*
X135720000Y-122560000D01*
X142120000Y-125090000D02*
X142120000Y-122560000D01*
X142120000Y-122560000D02*
X135720000Y-122560000D01*
D13*
%TO.C,R10*%
X129911000Y-90227564D02*
X129911000Y-89773436D01*
X131381000Y-90227564D02*
X131381000Y-89773436D01*
%TO.C,DEBUG1*%
X123424000Y-76178000D02*
X123424000Y-85998000D01*
X122874000Y-76178000D02*
X123424000Y-76178000D01*
X119554000Y-76178000D02*
X117754000Y-76178000D01*
X117754000Y-76178000D02*
X117754000Y-78028000D01*
X117754000Y-78028000D02*
X117014000Y-78028000D01*
X123424000Y-85998000D02*
X122874000Y-85998000D01*
X119554000Y-85998000D02*
X117754000Y-85998000D01*
X117754000Y-85998000D02*
X117754000Y-84148000D01*
%TO.C,IMU1*%
X118244000Y-100465000D02*
X118244000Y-100640000D01*
X117569000Y-103185000D02*
X118244000Y-103185000D01*
X117569000Y-100465000D02*
X118244000Y-100465000D01*
X115699000Y-103185000D02*
X115024000Y-103185000D01*
X115699000Y-100465000D02*
X115024000Y-100465000D01*
X115024000Y-103185000D02*
X115024000Y-103010000D01*
X115024000Y-100465000D02*
X115024000Y-100640000D01*
%TO.C,C19*%
X106879000Y-135131420D02*
X106879000Y-135412580D01*
X105859000Y-135131420D02*
X105859000Y-135412580D01*
%TO.C,C3*%
X139155580Y-109985000D02*
X138874420Y-109985000D01*
X139155580Y-108965000D02*
X138874420Y-108965000D01*
%TO.C,R9*%
X102111000Y-112134936D02*
X102111000Y-112589064D01*
X100641000Y-112134936D02*
X100641000Y-112589064D01*
%TO.C,MOT2*%
X144455000Y-106625000D02*
X152075000Y-106625000D01*
X152075000Y-106625000D02*
X152075000Y-96465000D01*
X144455000Y-96465000D02*
X144455000Y-106625000D01*
X150805000Y-96465000D02*
X150805000Y-106625000D01*
X152075000Y-96465000D02*
X144455000Y-96465000D01*
%TO.C,TP_CS1*%
X113270000Y-97630000D02*
G75*
G03*
X113270000Y-97630000I-1200000J0D01*
G01*
%TO.C,C1*%
X139155580Y-85235000D02*
X138874420Y-85235000D01*
X139155580Y-84215000D02*
X138874420Y-84215000D01*
%TO.C,MOT1*%
X144455000Y-81860000D02*
X152075000Y-81860000D01*
X152075000Y-81860000D02*
X152075000Y-71700000D01*
X144455000Y-71700000D02*
X144455000Y-81860000D01*
X150805000Y-71700000D02*
X150805000Y-81860000D01*
X152075000Y-71700000D02*
X144455000Y-71700000D01*
%TO.C,C5*%
X135705580Y-133700000D02*
X135424420Y-133700000D01*
X135705580Y-132680000D02*
X135424420Y-132680000D01*
%TD*%
%LPC*%
%TO.C,U2*%
D16*
X141697000Y-100463500D02*
X143047000Y-100463500D01*
X143047000Y-102463500D01*
X141697000Y-102463500D01*
X141697000Y-103763500D01*
X136397000Y-103763500D01*
X136397000Y-102463500D01*
X135047000Y-102463500D01*
X135047000Y-100463500D01*
X136397000Y-100463500D01*
X136397000Y-99163500D01*
X141697000Y-99163500D01*
X141697000Y-100463500D01*
G36*
X141697000Y-100463500D02*
G01*
X143047000Y-100463500D01*
X143047000Y-102463500D01*
X141697000Y-102463500D01*
X141697000Y-103763500D01*
X136397000Y-103763500D01*
X136397000Y-102463500D01*
X135047000Y-102463500D01*
X135047000Y-100463500D01*
X136397000Y-100463500D01*
X136397000Y-99163500D01*
X141697000Y-99163500D01*
X141697000Y-100463500D01*
G37*
%TO.C,U6*%
X141697000Y-75780000D02*
X143047000Y-75780000D01*
X143047000Y-77780000D01*
X141697000Y-77780000D01*
X141697000Y-79080000D01*
X136397000Y-79080000D01*
X136397000Y-77780000D01*
X135047000Y-77780000D01*
X135047000Y-75780000D01*
X136397000Y-75780000D01*
X136397000Y-74480000D01*
X141697000Y-74480000D01*
X141697000Y-75780000D01*
G36*
X141697000Y-75780000D02*
G01*
X143047000Y-75780000D01*
X143047000Y-77780000D01*
X141697000Y-77780000D01*
X141697000Y-79080000D01*
X136397000Y-79080000D01*
X136397000Y-77780000D01*
X135047000Y-77780000D01*
X135047000Y-75780000D01*
X136397000Y-75780000D01*
X136397000Y-74480000D01*
X141697000Y-74480000D01*
X141697000Y-75780000D01*
G37*
%TO.C,U3*%
X141570000Y-125310000D02*
X142920000Y-125310000D01*
X142920000Y-127310000D01*
X141570000Y-127310000D01*
X141570000Y-128610000D01*
X136270000Y-128610000D01*
X136270000Y-127310000D01*
X134920000Y-127310000D01*
X134920000Y-125310000D01*
X136270000Y-125310000D01*
X136270000Y-124010000D01*
X141570000Y-124010000D01*
X141570000Y-125310000D01*
G36*
X141570000Y-125310000D02*
G01*
X142920000Y-125310000D01*
X142920000Y-127310000D01*
X141570000Y-127310000D01*
X141570000Y-128610000D01*
X136270000Y-128610000D01*
X136270000Y-127310000D01*
X134920000Y-127310000D01*
X134920000Y-125310000D01*
X136270000Y-125310000D01*
X136270000Y-124010000D01*
X141570000Y-124010000D01*
X141570000Y-125310000D01*
G37*
%TD*%
D17*
%TO.C,REF\u002A\u002A*%
X151000000Y-37000000D03*
%TD*%
%TO.C,REF\u002A\u002A*%
X91000000Y-37000000D03*
%TD*%
D18*
%TO.C,LED2*%
X128072000Y-85475500D03*
X128072000Y-87225500D03*
%TD*%
D19*
%TO.C,TP_MISO1*%
X112070000Y-102075000D03*
%TD*%
D20*
%TO.C,U2*%
X136547000Y-106438500D03*
X137547000Y-106438500D03*
X138547000Y-106438500D03*
X139547000Y-106438500D03*
X140547000Y-106438500D03*
X141547000Y-106438500D03*
X141547000Y-96488500D03*
X140547000Y-96488500D03*
X139547000Y-96488500D03*
X138547000Y-96488500D03*
X137547000Y-96488500D03*
X136547000Y-96488500D03*
%TD*%
%TO.C,U6*%
X136547000Y-81755000D03*
X137547000Y-81755000D03*
X138547000Y-81755000D03*
X139547000Y-81755000D03*
X140547000Y-81755000D03*
X141547000Y-81755000D03*
X141547000Y-71805000D03*
X140547000Y-71805000D03*
X139547000Y-71805000D03*
X138547000Y-71805000D03*
X137547000Y-71805000D03*
X136547000Y-71805000D03*
%TD*%
D21*
%TO.C,MOT3*%
X148265000Y-128850000D03*
D22*
X148265000Y-123770000D03*
%TD*%
D23*
%TO.C,ENC 2*%
X89972000Y-113505000D03*
D24*
X92512000Y-113505000D03*
X95052000Y-113505000D03*
X97592000Y-113505000D03*
%TD*%
D25*
%TO.C,C8*%
X125646000Y-107917000D03*
X124096000Y-107917000D03*
%TD*%
D26*
%TO.C,R4*%
X130358000Y-123999000D03*
X130358000Y-125824000D03*
%TD*%
D27*
%TO.C,Q2*%
X116515000Y-130080000D03*
X115245000Y-130080000D03*
X113975000Y-130080000D03*
X112705000Y-130080000D03*
X112705000Y-135030000D03*
X113975000Y-135030000D03*
X115245000Y-135030000D03*
X116515000Y-135030000D03*
%TD*%
D28*
%TO.C,C16*%
X115471500Y-97736000D03*
X115471500Y-99286000D03*
%TD*%
D25*
%TO.C,C14*%
X117645000Y-123284000D03*
X116095000Y-123284000D03*
%TD*%
D29*
%TO.C,USB-C1*%
X129688000Y-68835000D03*
X123908000Y-68835000D03*
D30*
X130048000Y-69930000D03*
X129248000Y-69930000D03*
D31*
X128048000Y-69905000D03*
X127048000Y-69905000D03*
X126548000Y-69905000D03*
X125548000Y-69905000D03*
D30*
X123548000Y-69930000D03*
X124348000Y-69930000D03*
D31*
X125048000Y-69905000D03*
X126048000Y-69905000D03*
X127548000Y-69905000D03*
X128548000Y-69905000D03*
D32*
X131118000Y-69335000D03*
D33*
X131118000Y-65155000D03*
D32*
X122478000Y-69335000D03*
D33*
X122478000Y-65155000D03*
%TD*%
D34*
%TO.C,Transfo5->3.3*%
X103702000Y-134002000D03*
X101402000Y-134002000D03*
X99102000Y-134002000D03*
D35*
X101402000Y-140302000D03*
%TD*%
D36*
%TO.C,H4*%
X91000000Y-143000000D03*
%TD*%
D19*
%TO.C,TP_SCK1*%
X108260000Y-97630000D03*
%TD*%
D37*
%TO.C,R5*%
X105593000Y-131920000D03*
X105593000Y-130095000D03*
%TD*%
D25*
%TO.C,C9*%
X124516000Y-119347000D03*
X122966000Y-119347000D03*
%TD*%
D38*
%TO.C,SWITCH1*%
X104551000Y-114902000D03*
X104551000Y-109002000D03*
%TD*%
D39*
%TO.C,D2*%
X122865000Y-144239000D03*
X122865000Y-141439000D03*
%TD*%
D25*
%TO.C,C12*%
X121175000Y-123284000D03*
X119625000Y-123284000D03*
%TD*%
D26*
%TO.C,R2*%
X110165000Y-130730000D03*
X110165000Y-132555000D03*
%TD*%
D36*
%TO.C,H2*%
X151000000Y-67000000D03*
%TD*%
D40*
%TO.C,R8*%
X125087000Y-72738000D03*
X123437000Y-72738000D03*
%TD*%
D41*
%TO.C,ZENER1*%
X114040000Y-127475000D03*
X112640000Y-127475000D03*
%TD*%
D19*
%TO.C,TP_GND1*%
X110292000Y-92550000D03*
%TD*%
D42*
%TO.C,U1*%
X112211000Y-109247000D03*
X112211000Y-109747000D03*
X112211000Y-110247000D03*
X112211000Y-110747000D03*
X112211000Y-111247000D03*
X112211000Y-111747000D03*
X112211000Y-112247000D03*
X112211000Y-112747000D03*
X112211000Y-113247000D03*
X112211000Y-113747000D03*
X112211000Y-114247000D03*
X112211000Y-114747000D03*
X112211000Y-115247000D03*
X112211000Y-115747000D03*
X112211000Y-116247000D03*
X112211000Y-116747000D03*
D43*
X114136000Y-118672000D03*
X114636000Y-118672000D03*
X115136000Y-118672000D03*
X115636000Y-118672000D03*
X116136000Y-118672000D03*
X116636000Y-118672000D03*
X117136000Y-118672000D03*
X117636000Y-118672000D03*
X118136000Y-118672000D03*
X118636000Y-118672000D03*
X119136000Y-118672000D03*
X119636000Y-118672000D03*
X120136000Y-118672000D03*
X120636000Y-118672000D03*
X121136000Y-118672000D03*
X121636000Y-118672000D03*
D42*
X123561000Y-116747000D03*
X123561000Y-116247000D03*
X123561000Y-115747000D03*
X123561000Y-115247000D03*
X123561000Y-114747000D03*
X123561000Y-114247000D03*
X123561000Y-113747000D03*
X123561000Y-113247000D03*
X123561000Y-112747000D03*
X123561000Y-112247000D03*
X123561000Y-111747000D03*
X123561000Y-111247000D03*
X123561000Y-110747000D03*
X123561000Y-110247000D03*
X123561000Y-109747000D03*
X123561000Y-109247000D03*
D43*
X121636000Y-107322000D03*
X121136000Y-107322000D03*
X120636000Y-107322000D03*
X120136000Y-107322000D03*
X119636000Y-107322000D03*
X119136000Y-107322000D03*
X118636000Y-107322000D03*
X118136000Y-107322000D03*
X117636000Y-107322000D03*
X117136000Y-107322000D03*
X116636000Y-107322000D03*
X116136000Y-107322000D03*
X115636000Y-107322000D03*
X115136000Y-107322000D03*
X114636000Y-107322000D03*
X114136000Y-107322000D03*
%TD*%
D25*
%TO.C,C22*%
X96209000Y-134002000D03*
X94659000Y-134002000D03*
%TD*%
D44*
%TO.C,D5*%
X107879000Y-132428000D03*
X107879000Y-130853000D03*
%TD*%
D36*
%TO.C,H3*%
X151000000Y-143000000D03*
%TD*%
D45*
%TO.C,R1*%
X124111500Y-106012000D03*
X125936500Y-106012000D03*
%TD*%
D28*
%TO.C,C23*%
X119387500Y-131098000D03*
X119387500Y-132648000D03*
%TD*%
D46*
%TO.C,C2*%
X142024000Y-88975000D03*
X150424000Y-88975000D03*
%TD*%
D47*
%TO.C,R7*%
X128263000Y-72738000D03*
X129913000Y-72738000D03*
%TD*%
D48*
%TO.C,C6*%
X138740000Y-135975000D03*
X138740000Y-144375000D03*
%TD*%
D25*
%TO.C,C11*%
X124516000Y-121252000D03*
X122966000Y-121252000D03*
%TD*%
D37*
%TO.C,R3*%
X127818000Y-125824000D03*
X127818000Y-123999000D03*
%TD*%
D23*
%TO.C,UART4*%
X109276000Y-78595000D03*
D24*
X109276000Y-81135000D03*
X109276000Y-83675000D03*
%TD*%
D28*
%TO.C,C17*%
X117216500Y-97736000D03*
X117216500Y-99286000D03*
%TD*%
D23*
%TO.C,ENC 1*%
X89972000Y-126205000D03*
D24*
X92512000Y-126205000D03*
X95052000Y-126205000D03*
X97592000Y-126205000D03*
%TD*%
D23*
%TO.C,ENC 3*%
X89972000Y-100805000D03*
D24*
X92512000Y-100805000D03*
X95052000Y-100805000D03*
X97592000Y-100805000D03*
%TD*%
D25*
%TO.C,C21*%
X96209000Y-136512000D03*
X94659000Y-136512000D03*
%TD*%
%TO.C,C15*%
X117645000Y-121379000D03*
X116095000Y-121379000D03*
%TD*%
D49*
%TO.C,Transfo18->5*%
X124467500Y-130743000D03*
D50*
X124467500Y-133283000D03*
X124467500Y-135823000D03*
%TD*%
D19*
%TO.C,TP_MOSI1*%
X108260000Y-102075000D03*
%TD*%
D51*
%TO.C,C24*%
X119387500Y-135870000D03*
X119387500Y-134320000D03*
%TD*%
D52*
%TO.C,QUARTZ1*%
X109466000Y-109907000D03*
X109466000Y-111007000D03*
X110266000Y-111007000D03*
X110266000Y-109907000D03*
%TD*%
D18*
%TO.C,LED1*%
X130612000Y-85466000D03*
X130612000Y-87216000D03*
%TD*%
D28*
%TO.C,C18*%
X107726000Y-110177000D03*
X107726000Y-111727000D03*
%TD*%
D53*
%TO.C,C7*%
X110126000Y-118077000D03*
X111676000Y-118077000D03*
%TD*%
D21*
%TO.C,ALIM1*%
X108895000Y-141445000D03*
D22*
X113975000Y-141445000D03*
%TD*%
D53*
%TO.C,C10*%
X111256000Y-106647000D03*
X112806000Y-106647000D03*
%TD*%
D25*
%TO.C,C20*%
X96209000Y-139022000D03*
X94659000Y-139022000D03*
%TD*%
D39*
%TO.C,D3*%
X118160000Y-72230000D03*
X120960000Y-72230000D03*
%TD*%
D25*
%TO.C,C13*%
X121175000Y-121379000D03*
X119625000Y-121379000D03*
%TD*%
D37*
%TO.C,R6*%
X128072000Y-90922500D03*
X128072000Y-89097500D03*
%TD*%
D46*
%TO.C,C4*%
X142024000Y-113725000D03*
X150424000Y-113725000D03*
%TD*%
D20*
%TO.C,U3*%
X136420000Y-131285000D03*
X137420000Y-131285000D03*
X138420000Y-131285000D03*
X139420000Y-131285000D03*
X140420000Y-131285000D03*
X141420000Y-131285000D03*
X141420000Y-121335000D03*
X140420000Y-121335000D03*
X139420000Y-121335000D03*
X138420000Y-121335000D03*
X137420000Y-121335000D03*
X136420000Y-121335000D03*
%TD*%
D36*
%TO.C,H1*%
X91000000Y-67000000D03*
%TD*%
D37*
%TO.C,R10*%
X130646000Y-90913000D03*
X130646000Y-89088000D03*
%TD*%
D54*
%TO.C,DEBUG1*%
X117864000Y-78588000D03*
X117864000Y-79838000D03*
X117864000Y-81088000D03*
X117864000Y-82338000D03*
X117864000Y-83588000D03*
D55*
X121214000Y-76738000D03*
X121214000Y-85438000D03*
%TD*%
D56*
%TO.C,IMU1*%
X117796500Y-102575000D03*
X117796500Y-102075000D03*
X117796500Y-101575000D03*
X117796500Y-101075000D03*
D57*
X117134000Y-100912500D03*
X116634000Y-100912500D03*
X116134000Y-100912500D03*
D56*
X115471500Y-101075000D03*
X115471500Y-101575000D03*
X115471500Y-102075000D03*
X115471500Y-102575000D03*
D57*
X116134000Y-102737500D03*
X116634000Y-102737500D03*
X117134000Y-102737500D03*
%TD*%
D28*
%TO.C,C19*%
X106369000Y-134497000D03*
X106369000Y-136047000D03*
%TD*%
D25*
%TO.C,C3*%
X139790000Y-109475000D03*
X138240000Y-109475000D03*
%TD*%
D26*
%TO.C,R9*%
X101376000Y-111449500D03*
X101376000Y-113274500D03*
%TD*%
D21*
%TO.C,MOT2*%
X148265000Y-104085000D03*
D22*
X148265000Y-99005000D03*
%TD*%
D19*
%TO.C,TP_CS1*%
X112070000Y-97630000D03*
%TD*%
D25*
%TO.C,C1*%
X139790000Y-84725000D03*
X138240000Y-84725000D03*
%TD*%
D21*
%TO.C,MOT1*%
X148265000Y-79320000D03*
D22*
X148265000Y-74240000D03*
%TD*%
D25*
%TO.C,C5*%
X136340000Y-133190000D03*
X134790000Y-133190000D03*
%TD*%
%LPD*%
M02*
