%TF.GenerationSoftware,KiCad,Pcbnew,7.0.9-7.0.9~ubuntu22.04.1*%
%TF.CreationDate,2023-12-07T20:45:01+01:00*%
%TF.ProjectId,Carte_Base_roulante_2024,43617274-655f-4426-9173-655f726f756c,rev?*%
%TF.SameCoordinates,Original*%
%TF.FileFunction,Copper,L1,Top*%
%TF.FilePolarity,Positive*%
%FSLAX46Y46*%
G04 Gerber Fmt 4.6, Leading zero omitted, Abs format (unit mm)*
G04 Created by KiCad (PCBNEW 7.0.9-7.0.9~ubuntu22.04.1) date 2023-12-07 20:45:01*
%MOMM*%
%LPD*%
G01*
G04 APERTURE LIST*
G04 Aperture macros list*
%AMRoundRect*
0 Rectangle with rounded corners*
0 $1 Rounding radius*
0 $2 $3 $4 $5 $6 $7 $8 $9 X,Y pos of 4 corners*
0 Add a 4 corners polygon primitive as box body*
4,1,4,$2,$3,$4,$5,$6,$7,$8,$9,$2,$3,0*
0 Add four circle primitives for the rounded corners*
1,1,$1+$1,$2,$3*
1,1,$1+$1,$4,$5*
1,1,$1+$1,$6,$7*
1,1,$1+$1,$8,$9*
0 Add four rect primitives between the rounded corners*
20,1,$1+$1,$2,$3,$4,$5,0*
20,1,$1+$1,$4,$5,$6,$7,0*
20,1,$1+$1,$6,$7,$8,$9,0*
20,1,$1+$1,$8,$9,$2,$3,0*%
%AMFreePoly0*
4,1,29,0.903536,3.903536,0.905000,3.900000,0.905000,2.555000,2.200000,2.555000,2.203536,2.553536,2.205000,2.550000,2.205000,-2.550000,2.203536,-2.553536,2.200000,-2.555000,0.905000,-2.555000,0.905000,-3.900000,0.903536,-3.903536,0.900000,-3.905000,-0.900000,-3.905000,-0.903536,-3.903536,-0.905000,-3.900000,-0.905000,-2.555000,-2.200000,-2.555000,-2.203536,-2.553536,-2.205000,-2.550000,
-2.205000,2.550000,-2.203536,2.553536,-2.200000,2.555000,-0.905000,2.555000,-0.905000,3.900000,-0.903536,3.903536,-0.900000,3.905000,0.900000,3.905000,0.903536,3.903536,0.903536,3.903536,$1*%
G04 Aperture macros list end*
%TA.AperFunction,SMDPad,CuDef*%
%ADD10RoundRect,0.237500X-0.237500X0.287500X-0.237500X-0.287500X0.237500X-0.287500X0.237500X0.287500X0*%
%TD*%
%TA.AperFunction,SMDPad,CuDef*%
%ADD11C,2.000000*%
%TD*%
%TA.AperFunction,SMDPad,CuDef*%
%ADD12R,0.650000X1.350000*%
%TD*%
%TA.AperFunction,SMDPad,CuDef*%
%ADD13FreePoly0,90.000000*%
%TD*%
%TA.AperFunction,ComponentPad*%
%ADD14R,3.000000X3.000000*%
%TD*%
%TA.AperFunction,ComponentPad*%
%ADD15C,3.000000*%
%TD*%
%TA.AperFunction,ComponentPad*%
%ADD16R,1.700000X1.700000*%
%TD*%
%TA.AperFunction,ComponentPad*%
%ADD17O,1.700000X1.700000*%
%TD*%
%TA.AperFunction,SMDPad,CuDef*%
%ADD18RoundRect,0.225000X0.225000X0.250000X-0.225000X0.250000X-0.225000X-0.250000X0.225000X-0.250000X0*%
%TD*%
%TA.AperFunction,SMDPad,CuDef*%
%ADD19RoundRect,0.250000X-0.450000X0.262500X-0.450000X-0.262500X0.450000X-0.262500X0.450000X0.262500X0*%
%TD*%
%TA.AperFunction,SMDPad,CuDef*%
%ADD20RoundRect,0.150000X-0.150000X0.825000X-0.150000X-0.825000X0.150000X-0.825000X0.150000X0.825000X0*%
%TD*%
%TA.AperFunction,SMDPad,CuDef*%
%ADD21RoundRect,0.225000X-0.250000X0.225000X-0.250000X-0.225000X0.250000X-0.225000X0.250000X0.225000X0*%
%TD*%
%TA.AperFunction,SMDPad,CuDef*%
%ADD22R,0.600000X1.090000*%
%TD*%
%TA.AperFunction,SMDPad,CuDef*%
%ADD23R,0.300000X1.140000*%
%TD*%
%TA.AperFunction,ComponentPad*%
%ADD24O,1.000000X2.100000*%
%TD*%
%TA.AperFunction,ComponentPad*%
%ADD25O,1.000000X1.800000*%
%TD*%
%TA.AperFunction,SMDPad,CuDef*%
%ADD26R,1.000000X1.500000*%
%TD*%
%TA.AperFunction,SMDPad,CuDef*%
%ADD27R,3.300000X1.500000*%
%TD*%
%TA.AperFunction,SMDPad,CuDef*%
%ADD28RoundRect,0.250000X0.450000X-0.262500X0.450000X0.262500X-0.450000X0.262500X-0.450000X-0.262500X0*%
%TD*%
%TA.AperFunction,SMDPad,CuDef*%
%ADD29R,1.600000X2.500000*%
%TD*%
%TA.AperFunction,SMDPad,CuDef*%
%ADD30R,1.200000X1.200000*%
%TD*%
%TA.AperFunction,SMDPad,CuDef*%
%ADD31RoundRect,0.200000X0.200000X0.275000X-0.200000X0.275000X-0.200000X-0.275000X0.200000X-0.275000X0*%
%TD*%
%TA.AperFunction,SMDPad,CuDef*%
%ADD32R,0.600000X0.700000*%
%TD*%
%TA.AperFunction,SMDPad,CuDef*%
%ADD33RoundRect,0.075000X-0.700000X-0.075000X0.700000X-0.075000X0.700000X0.075000X-0.700000X0.075000X0*%
%TD*%
%TA.AperFunction,SMDPad,CuDef*%
%ADD34RoundRect,0.075000X-0.075000X-0.700000X0.075000X-0.700000X0.075000X0.700000X-0.075000X0.700000X0*%
%TD*%
%TA.AperFunction,SMDPad,CuDef*%
%ADD35RoundRect,0.218750X0.256250X-0.218750X0.256250X0.218750X-0.256250X0.218750X-0.256250X-0.218750X0*%
%TD*%
%TA.AperFunction,SMDPad,CuDef*%
%ADD36RoundRect,0.250000X-0.262500X-0.450000X0.262500X-0.450000X0.262500X0.450000X-0.262500X0.450000X0*%
%TD*%
%TA.AperFunction,SMDPad,CuDef*%
%ADD37RoundRect,0.250000X-1.950000X-1.000000X1.950000X-1.000000X1.950000X1.000000X-1.950000X1.000000X0*%
%TD*%
%TA.AperFunction,SMDPad,CuDef*%
%ADD38RoundRect,0.200000X-0.200000X-0.275000X0.200000X-0.275000X0.200000X0.275000X-0.200000X0.275000X0*%
%TD*%
%TA.AperFunction,SMDPad,CuDef*%
%ADD39RoundRect,0.250000X-1.000000X1.950000X-1.000000X-1.950000X1.000000X-1.950000X1.000000X1.950000X0*%
%TD*%
%TA.AperFunction,ComponentPad*%
%ADD40R,2.300000X1.500000*%
%TD*%
%TA.AperFunction,ComponentPad*%
%ADD41O,2.300000X1.500000*%
%TD*%
%TA.AperFunction,SMDPad,CuDef*%
%ADD42RoundRect,0.225000X0.250000X-0.225000X0.250000X0.225000X-0.250000X0.225000X-0.250000X-0.225000X0*%
%TD*%
%TA.AperFunction,SMDPad,CuDef*%
%ADD43RoundRect,0.027500X-0.222500X0.272500X-0.222500X-0.272500X0.222500X-0.272500X0.222500X0.272500X0*%
%TD*%
%TA.AperFunction,SMDPad,CuDef*%
%ADD44RoundRect,0.225000X-0.225000X-0.250000X0.225000X-0.250000X0.225000X0.250000X-0.225000X0.250000X0*%
%TD*%
%TA.AperFunction,SMDPad,CuDef*%
%ADD45RoundRect,0.150000X-0.700000X0.150000X-0.700000X-0.150000X0.700000X-0.150000X0.700000X0.150000X0*%
%TD*%
%TA.AperFunction,SMDPad,CuDef*%
%ADD46RoundRect,0.250000X-1.150000X0.250000X-1.150000X-0.250000X1.150000X-0.250000X1.150000X0.250000X0*%
%TD*%
%TA.AperFunction,SMDPad,CuDef*%
%ADD47RoundRect,0.087500X0.225000X0.087500X-0.225000X0.087500X-0.225000X-0.087500X0.225000X-0.087500X0*%
%TD*%
%TA.AperFunction,SMDPad,CuDef*%
%ADD48RoundRect,0.087500X0.087500X0.225000X-0.087500X0.225000X-0.087500X-0.225000X0.087500X-0.225000X0*%
%TD*%
%TA.AperFunction,ViaPad*%
%ADD49C,0.800000*%
%TD*%
%TA.AperFunction,ViaPad*%
%ADD50C,0.700000*%
%TD*%
%TA.AperFunction,Conductor*%
%ADD51C,0.300000*%
%TD*%
%TA.AperFunction,Conductor*%
%ADD52C,0.400000*%
%TD*%
%TA.AperFunction,Conductor*%
%ADD53C,0.600000*%
%TD*%
%TA.AperFunction,Conductor*%
%ADD54C,0.800000*%
%TD*%
%TA.AperFunction,Conductor*%
%ADD55C,1.000000*%
%TD*%
%TA.AperFunction,Conductor*%
%ADD56C,2.000000*%
%TD*%
%TA.AperFunction,Conductor*%
%ADD57C,0.250000*%
%TD*%
G04 APERTURE END LIST*
D10*
%TO.P,LED2,1,K*%
%TO.N,GND*%
X128072000Y-85475500D03*
%TO.P,LED2,2,A*%
%TO.N,Net-(LED2-A)*%
X128072000Y-87225500D03*
%TD*%
D11*
%TO.P,TP_MISO1,1,1*%
%TO.N,SPI1_MISO*%
X112070000Y-102075000D03*
%TD*%
D12*
%TO.P,U2,1,DIR*%
%TO.N,DIR2*%
X136547000Y-106438500D03*
%TO.P,U2,2,VSO*%
%TO.N,+3.3V*%
X137547000Y-106438500D03*
%TO.P,U2,3,SO*%
%TO.N,Net-(U2-SO)*%
X138547000Y-106438500D03*
%TO.P,U2,4,VS*%
%TO.N,+BATT*%
X139547000Y-106438500D03*
%TO.P,U2,5,OUT1*%
%TO.N,Net-(MOT2-Pin_1)*%
X140547000Y-106438500D03*
%TO.P,U2,6,GND*%
%TO.N,GND*%
X141547000Y-106438500D03*
%TO.P,U2,7,OUT2*%
%TO.N,Net-(MOT2-Pin_2)*%
X141547000Y-96488500D03*
%TO.P,U2,8,SI*%
%TO.N,Net-(U2-SI)*%
X140547000Y-96488500D03*
%TO.P,U2,9,CSN*%
%TO.N,GND*%
X139547000Y-96488500D03*
%TO.P,U2,10,SCK*%
X138547000Y-96488500D03*
%TO.P,U2,11,DIS*%
%TO.N,DIS*%
X137547000Y-96488500D03*
%TO.P,U2,12,PWM*%
%TO.N,PWM2*%
X136547000Y-96488500D03*
D13*
%TO.P,U2,13,GND*%
%TO.N,GND*%
X139047000Y-101463500D03*
%TD*%
D12*
%TO.P,U6,1,DIR*%
%TO.N,DIR1*%
X136547000Y-81755000D03*
%TO.P,U6,2,VSO*%
%TO.N,+3.3V*%
X137547000Y-81755000D03*
%TO.P,U6,3,SO*%
%TO.N,Net-(U2-SI)*%
X138547000Y-81755000D03*
%TO.P,U6,4,VS*%
%TO.N,+BATT*%
X139547000Y-81755000D03*
%TO.P,U6,5,OUT1*%
%TO.N,Net-(MOT1-Pin_1)*%
X140547000Y-81755000D03*
%TO.P,U6,6,GND*%
%TO.N,GND*%
X141547000Y-81755000D03*
%TO.P,U6,7,OUT2*%
%TO.N,Net-(MOT1-Pin_2)*%
X141547000Y-71805000D03*
%TO.P,U6,8,SI*%
%TO.N,GND*%
X140547000Y-71805000D03*
%TO.P,U6,9,CSN*%
X139547000Y-71805000D03*
%TO.P,U6,10,SCK*%
X138547000Y-71805000D03*
%TO.P,U6,11,DIS*%
%TO.N,DIS*%
X137547000Y-71805000D03*
%TO.P,U6,12,PWM*%
%TO.N,PWM1*%
X136547000Y-71805000D03*
D13*
%TO.P,U6,13,GND*%
%TO.N,GND*%
X139047000Y-76780000D03*
%TD*%
D14*
%TO.P,MOT3,1,Pin_1*%
%TO.N,Net-(MOT3-Pin_1)*%
X148265000Y-128850000D03*
D15*
%TO.P,MOT3,2,Pin_2*%
%TO.N,Net-(MOT3-Pin_2)*%
X148265000Y-123770000D03*
%TD*%
D16*
%TO.P,ENC 2,1,Pin_1*%
%TO.N,+5V*%
X89972000Y-113505000D03*
D17*
%TO.P,ENC 2,2,Pin_2*%
%TO.N,GND*%
X92512000Y-113505000D03*
%TO.P,ENC 2,3,Pin_3*%
%TO.N,Enc2_A*%
X95052000Y-113505000D03*
%TO.P,ENC 2,4,Pin_4*%
%TO.N,Enc2_B*%
X97592000Y-113505000D03*
%TD*%
D18*
%TO.P,C8,1*%
%TO.N,GND*%
X125646000Y-107917000D03*
%TO.P,C8,2*%
%TO.N,+3.3V*%
X124096000Y-107917000D03*
%TD*%
D19*
%TO.P,R4,1*%
%TO.N,MEAS_VBAT*%
X130358000Y-123999000D03*
%TO.P,R4,2*%
%TO.N,GND*%
X130358000Y-125824000D03*
%TD*%
D20*
%TO.P,Q2,1,S*%
%TO.N,+BATT*%
X116515000Y-130080000D03*
%TO.P,Q2,2,S*%
X115245000Y-130080000D03*
%TO.P,Q2,3,S*%
X113975000Y-130080000D03*
%TO.P,Q2,4,G*%
%TO.N,Net-(Q2-G)*%
X112705000Y-130080000D03*
%TO.P,Q2,5,D*%
%TO.N,Net-(ALIM1-Pin_2)*%
X112705000Y-135030000D03*
%TO.P,Q2,6,D*%
X113975000Y-135030000D03*
%TO.P,Q2,7,D*%
X115245000Y-135030000D03*
%TO.P,Q2,8,D*%
X116515000Y-135030000D03*
%TD*%
D21*
%TO.P,C16,1*%
%TO.N,GND*%
X115471500Y-97736000D03*
%TO.P,C16,2*%
%TO.N,+3.3V*%
X115471500Y-99286000D03*
%TD*%
D18*
%TO.P,C14,1*%
%TO.N,+3.3V*%
X117645000Y-123284000D03*
%TO.P,C14,2*%
%TO.N,GND*%
X116095000Y-123284000D03*
%TD*%
D22*
%TO.P,USB-C1,A1-B12,GND*%
%TO.N,GND*%
X130048000Y-69930000D03*
%TO.P,USB-C1,A4-B9,VBUS*%
%TO.N,VBUS*%
X129248000Y-69930000D03*
D23*
%TO.P,USB-C1,A5,CC1*%
%TO.N,Net-(USB-C1-CC1)*%
X128048000Y-69905000D03*
%TO.P,USB-C1,A6,D+1*%
%TO.N,USB_DP*%
X127048000Y-69905000D03*
%TO.P,USB-C1,A7,D-1*%
%TO.N,USB_DM*%
X126548000Y-69905000D03*
%TO.P,USB-C1,A8,SBU1*%
%TO.N,unconnected-(USB-C1-SBU1-PadA8)*%
X125548000Y-69905000D03*
D22*
%TO.P,USB-C1,B1-A12,GND*%
%TO.N,GND*%
X123548000Y-69930000D03*
%TO.P,USB-C1,B4-A9,VBUS*%
%TO.N,VBUS*%
X124348000Y-69930000D03*
D23*
%TO.P,USB-C1,B5,CC2*%
%TO.N,Net-(USB-C1-CC2)*%
X125048000Y-69905000D03*
%TO.P,USB-C1,B6,D+2*%
%TO.N,USB_DP*%
X126048000Y-69905000D03*
%TO.P,USB-C1,B7,D-2*%
%TO.N,USB_DM*%
X127548000Y-69905000D03*
%TO.P,USB-C1,B8,SBU2*%
%TO.N,unconnected-(USB-C1-SBU2-PadB8)*%
X128548000Y-69905000D03*
D24*
%TO.P,USB-C1,S,Shield*%
%TO.N,GND*%
X131118000Y-69335000D03*
D25*
X131118000Y-65155000D03*
D24*
X122478000Y-69335000D03*
D25*
X122478000Y-65155000D03*
%TD*%
D26*
%TO.P,Transfo5->3.3,1,IN*%
%TO.N,+5V*%
X103702000Y-134002000D03*
%TO.P,Transfo5->3.3,2,GND*%
%TO.N,GND*%
X101402000Y-134002000D03*
%TO.P,Transfo5->3.3,3,OUT*%
%TO.N,+3.3V*%
X99102000Y-134002000D03*
D27*
%TO.P,Transfo5->3.3,4,TAB*%
%TO.N,GND*%
X101402000Y-140302000D03*
%TD*%
D11*
%TO.P,TP_SCK1,1,1*%
%TO.N,SPI1_SCK*%
X108260000Y-97630000D03*
%TD*%
D28*
%TO.P,R5,1*%
%TO.N,+5V*%
X105593000Y-131920000D03*
%TO.P,R5,2*%
%TO.N,Net-(D5-A)*%
X105593000Y-130095000D03*
%TD*%
D18*
%TO.P,C9,1*%
%TO.N,GND*%
X124516000Y-119347000D03*
%TO.P,C9,2*%
%TO.N,+3.3V*%
X122966000Y-119347000D03*
%TD*%
D29*
%TO.P,SWITCH1,1,1*%
%TO.N,+3.3V*%
X104551000Y-114902000D03*
%TO.P,SWITCH1,2,2*%
%TO.N,/BOOT 0*%
X104551000Y-109002000D03*
%TD*%
D30*
%TO.P,D2,1,K*%
%TO.N,+5V*%
X122865000Y-144239000D03*
%TO.P,D2,2,A*%
%TO.N,Net-(D2-A)*%
X122865000Y-141439000D03*
%TD*%
D18*
%TO.P,C12,1*%
%TO.N,GND*%
X121175000Y-123284000D03*
%TO.P,C12,2*%
%TO.N,+3.3V*%
X119625000Y-123284000D03*
%TD*%
D19*
%TO.P,R2,1*%
%TO.N,Net-(Q2-G)*%
X110165000Y-130730000D03*
%TO.P,R2,2*%
%TO.N,GND*%
X110165000Y-132555000D03*
%TD*%
D31*
%TO.P,R8,1*%
%TO.N,Net-(USB-C1-CC2)*%
X125087000Y-72738000D03*
%TO.P,R8,2*%
%TO.N,GND*%
X123437000Y-72738000D03*
%TD*%
D32*
%TO.P,ZENER1,1,K*%
%TO.N,+BATT*%
X114040000Y-127475000D03*
%TO.P,ZENER1,2,A*%
%TO.N,Net-(Q2-G)*%
X112640000Y-127475000D03*
%TD*%
D11*
%TO.P,TP_GND1,1,1*%
%TO.N,GND*%
X110292000Y-92550000D03*
%TD*%
D33*
%TO.P,U1,1,VBAT*%
%TO.N,unconnected-(U1-VBAT-Pad1)*%
X112211000Y-109247000D03*
%TO.P,U1,2,PC13*%
%TO.N,unconnected-(U1-PC13-Pad2)*%
X112211000Y-109747000D03*
%TO.P,U1,3,PC14*%
%TO.N,unconnected-(U1-PC14-Pad3)*%
X112211000Y-110247000D03*
%TO.P,U1,4,PC15*%
%TO.N,unconnected-(U1-PC15-Pad4)*%
X112211000Y-110747000D03*
%TO.P,U1,5,PF0*%
%TO.N,OSCILATEUR*%
X112211000Y-111247000D03*
%TO.P,U1,6,PF1*%
%TO.N,unconnected-(U1-PF1-Pad6)*%
X112211000Y-111747000D03*
%TO.P,U1,7,PG10*%
%TO.N,RST*%
X112211000Y-112247000D03*
%TO.P,U1,8,PC0*%
%TO.N,unconnected-(U1-PC0-Pad8)*%
X112211000Y-112747000D03*
%TO.P,U1,9,PC1*%
%TO.N,unconnected-(U1-PC1-Pad9)*%
X112211000Y-113247000D03*
%TO.P,U1,10,PC2*%
%TO.N,unconnected-(U1-PC2-Pad10)*%
X112211000Y-113747000D03*
%TO.P,U1,11,PC3*%
%TO.N,unconnected-(U1-PC3-Pad11)*%
X112211000Y-114247000D03*
%TO.P,U1,12,PA0*%
%TO.N,Enc2_B*%
X112211000Y-114747000D03*
%TO.P,U1,13,PA1*%
%TO.N,Enc2_A*%
X112211000Y-115247000D03*
%TO.P,U1,14,PA2*%
%TO.N,unconnected-(U1-PA2-Pad14)*%
X112211000Y-115747000D03*
%TO.P,U1,15,VSS*%
%TO.N,GND*%
X112211000Y-116247000D03*
%TO.P,U1,16,VDD*%
%TO.N,+3.3V*%
X112211000Y-116747000D03*
D34*
%TO.P,U1,17,PA3*%
%TO.N,unconnected-(U1-PA3-Pad17)*%
X114136000Y-118672000D03*
%TO.P,U1,18,PA4*%
%TO.N,unconnected-(U1-PA4-Pad18)*%
X114636000Y-118672000D03*
%TO.P,U1,19,PA5*%
%TO.N,unconnected-(U1-PA5-Pad19)*%
X115136000Y-118672000D03*
%TO.P,U1,20,PA6*%
%TO.N,Enc1_A*%
X115636000Y-118672000D03*
%TO.P,U1,21,PA7*%
%TO.N,Enc1_B*%
X116136000Y-118672000D03*
%TO.P,U1,22,PC4*%
%TO.N,unconnected-(U1-PC4-Pad22)*%
X116636000Y-118672000D03*
%TO.P,U1,23,PC5*%
%TO.N,unconnected-(U1-PC5-Pad23)*%
X117136000Y-118672000D03*
%TO.P,U1,24,PB0*%
%TO.N,unconnected-(U1-PB0-Pad24)*%
X117636000Y-118672000D03*
%TO.P,U1,25,PB1*%
%TO.N,unconnected-(U1-PB1-Pad25)*%
X118136000Y-118672000D03*
%TO.P,U1,26,PB2*%
%TO.N,unconnected-(U1-PB2-Pad26)*%
X118636000Y-118672000D03*
%TO.P,U1,27,VSSA*%
%TO.N,GND*%
X119136000Y-118672000D03*
%TO.P,U1,28,VREF+*%
%TO.N,+3.3V*%
X119636000Y-118672000D03*
%TO.P,U1,29,VDDA*%
X120136000Y-118672000D03*
%TO.P,U1,30,PB10*%
%TO.N,unconnected-(U1-PB10-Pad30)*%
X120636000Y-118672000D03*
%TO.P,U1,31,VSS*%
%TO.N,GND*%
X121136000Y-118672000D03*
%TO.P,U1,32,VDD*%
%TO.N,+3.3V*%
X121636000Y-118672000D03*
D33*
%TO.P,U1,33,PB11*%
%TO.N,DIR2*%
X123561000Y-116747000D03*
%TO.P,U1,34,PB12*%
%TO.N,DIR3*%
X123561000Y-116247000D03*
%TO.P,U1,35,PB13*%
%TO.N,PWM3*%
X123561000Y-115747000D03*
%TO.P,U1,36,PB14*%
%TO.N,PWM2*%
X123561000Y-115247000D03*
%TO.P,U1,37,PB15*%
%TO.N,PWM1*%
X123561000Y-114747000D03*
%TO.P,U1,38,PC6*%
%TO.N,DIR1*%
X123561000Y-114247000D03*
%TO.P,U1,39,PC7*%
%TO.N,DIS*%
X123561000Y-113747000D03*
%TO.P,U1,40,PC8*%
%TO.N,ERROR_FLAG*%
X123561000Y-113247000D03*
%TO.P,U1,41,PC9*%
%TO.N,unconnected-(U1-PC9-Pad41)*%
X123561000Y-112747000D03*
%TO.P,U1,42,PA8*%
%TO.N,MEAS_VBAT*%
X123561000Y-112247000D03*
%TO.P,U1,43,PA9*%
%TO.N,LED1*%
X123561000Y-111747000D03*
%TO.P,U1,44,PA10*%
%TO.N,LED2*%
X123561000Y-111247000D03*
%TO.P,U1,45,PA11*%
%TO.N,USB_DM*%
X123561000Y-110747000D03*
%TO.P,U1,46,PA12*%
%TO.N,USB_DP*%
X123561000Y-110247000D03*
%TO.P,U1,47,VSS*%
%TO.N,GND*%
X123561000Y-109747000D03*
%TO.P,U1,48,VDD*%
%TO.N,+3.3V*%
X123561000Y-109247000D03*
D34*
%TO.P,U1,49,PA13*%
%TO.N,SWDIO*%
X121636000Y-107322000D03*
%TO.P,U1,50,PA14*%
%TO.N,SWCLK*%
X121136000Y-107322000D03*
%TO.P,U1,51,PA15*%
%TO.N,unconnected-(U1-PA15-Pad51)*%
X120636000Y-107322000D03*
%TO.P,U1,52,PC10*%
%TO.N,UART4_TX*%
X120136000Y-107322000D03*
%TO.P,U1,53,PC11*%
%TO.N,UART4_RX*%
X119636000Y-107322000D03*
%TO.P,U1,54,PC12*%
%TO.N,IMU_INT1*%
X119136000Y-107322000D03*
%TO.P,U1,55,PD2*%
%TO.N,SPI1_CS_IMU*%
X118636000Y-107322000D03*
%TO.P,U1,56,PB3*%
%TO.N,SPI1_SCK*%
X118136000Y-107322000D03*
%TO.P,U1,57,PB4*%
%TO.N,SPI1_MISO*%
X117636000Y-107322000D03*
%TO.P,U1,58,PB5*%
%TO.N,SPI1_MOSI*%
X117136000Y-107322000D03*
%TO.P,U1,59,PB6*%
%TO.N,Enc3_B*%
X116636000Y-107322000D03*
%TO.P,U1,60,PB7*%
%TO.N,Enc3_A*%
X116136000Y-107322000D03*
%TO.P,U1,61,PB8*%
%TO.N,/BOOT 0*%
X115636000Y-107322000D03*
%TO.P,U1,62,PB9*%
%TO.N,unconnected-(U1-PB9-Pad62)*%
X115136000Y-107322000D03*
%TO.P,U1,63,VSS*%
%TO.N,GND*%
X114636000Y-107322000D03*
%TO.P,U1,64,VDD*%
%TO.N,+3.3V*%
X114136000Y-107322000D03*
%TD*%
D18*
%TO.P,C22,1*%
%TO.N,+3.3V*%
X96209000Y-134002000D03*
%TO.P,C22,2*%
%TO.N,GND*%
X94659000Y-134002000D03*
%TD*%
D35*
%TO.P,D5,1,K*%
%TO.N,GND*%
X107879000Y-132428000D03*
%TO.P,D5,2,A*%
%TO.N,Net-(D5-A)*%
X107879000Y-130853000D03*
%TD*%
D36*
%TO.P,R1,1*%
%TO.N,+3.3V*%
X124111500Y-106012000D03*
%TO.P,R1,2*%
%TO.N,DIS*%
X125936500Y-106012000D03*
%TD*%
D21*
%TO.P,C23,1*%
%TO.N,+BATT*%
X119387500Y-131098000D03*
%TO.P,C23,2*%
%TO.N,GND*%
X119387500Y-132648000D03*
%TD*%
D37*
%TO.P,C2,1*%
%TO.N,+BATT*%
X142024000Y-88975000D03*
%TO.P,C2,2*%
%TO.N,GND*%
X150424000Y-88975000D03*
%TD*%
D38*
%TO.P,R7,1*%
%TO.N,Net-(USB-C1-CC1)*%
X128263000Y-72738000D03*
%TO.P,R7,2*%
%TO.N,GND*%
X129913000Y-72738000D03*
%TD*%
D39*
%TO.P,C6,1*%
%TO.N,+BATT*%
X138740000Y-135975000D03*
%TO.P,C6,2*%
%TO.N,GND*%
X138740000Y-144375000D03*
%TD*%
D18*
%TO.P,C11,1*%
%TO.N,GND*%
X124516000Y-121252000D03*
%TO.P,C11,2*%
%TO.N,+3.3V*%
X122966000Y-121252000D03*
%TD*%
D28*
%TO.P,R3,1*%
%TO.N,+BATT*%
X127818000Y-125824000D03*
%TO.P,R3,2*%
%TO.N,MEAS_VBAT*%
X127818000Y-123999000D03*
%TD*%
D16*
%TO.P,UART4,1,Pin_1*%
%TO.N,GND*%
X109276000Y-78595000D03*
D17*
%TO.P,UART4,2,Pin_2*%
%TO.N,UART4_TX*%
X109276000Y-81135000D03*
%TO.P,UART4,3,Pin_3*%
%TO.N,UART4_RX*%
X109276000Y-83675000D03*
%TD*%
D21*
%TO.P,C17,1*%
%TO.N,GND*%
X117216500Y-97736000D03*
%TO.P,C17,2*%
%TO.N,+3.3V*%
X117216500Y-99286000D03*
%TD*%
D16*
%TO.P,ENC 1,1,Pin_1*%
%TO.N,+5V*%
X89972000Y-126205000D03*
D17*
%TO.P,ENC 1,2,Pin_2*%
%TO.N,GND*%
X92512000Y-126205000D03*
%TO.P,ENC 1,3,Pin_3*%
%TO.N,Enc1_A*%
X95052000Y-126205000D03*
%TO.P,ENC 1,4,Pin_4*%
%TO.N,Enc1_B*%
X97592000Y-126205000D03*
%TD*%
D16*
%TO.P,ENC 3,1,Pin_1*%
%TO.N,+5V*%
X89972000Y-100805000D03*
D17*
%TO.P,ENC 3,2,Pin_2*%
%TO.N,GND*%
X92512000Y-100805000D03*
%TO.P,ENC 3,3,Pin_3*%
%TO.N,Enc3_A*%
X95052000Y-100805000D03*
%TO.P,ENC 3,4,Pin_4*%
%TO.N,Enc3_B*%
X97592000Y-100805000D03*
%TD*%
D18*
%TO.P,C21,1*%
%TO.N,+3.3V*%
X96209000Y-136512000D03*
%TO.P,C21,2*%
%TO.N,GND*%
X94659000Y-136512000D03*
%TD*%
%TO.P,C15,1*%
%TO.N,+3.3V*%
X117645000Y-121379000D03*
%TO.P,C15,2*%
%TO.N,GND*%
X116095000Y-121379000D03*
%TD*%
D40*
%TO.P,Transfo18->5,1,IN*%
%TO.N,+BATT*%
X124467500Y-130743000D03*
D41*
%TO.P,Transfo18->5,2,GND*%
%TO.N,GND*%
X124467500Y-133283000D03*
%TO.P,Transfo18->5,3,OUT*%
%TO.N,Net-(D2-A)*%
X124467500Y-135823000D03*
%TD*%
D11*
%TO.P,TP_MOSI1,1,1*%
%TO.N,SPI1_MOSI*%
X108260000Y-102075000D03*
%TD*%
D42*
%TO.P,C24,1*%
%TO.N,Net-(D2-A)*%
X119387500Y-135870000D03*
%TO.P,C24,2*%
%TO.N,GND*%
X119387500Y-134320000D03*
%TD*%
D43*
%TO.P,QUARTZ1,1,TS*%
%TO.N,+3.3V*%
X109466000Y-109907000D03*
%TO.P,QUARTZ1,2,GND*%
%TO.N,GND*%
X109466000Y-111007000D03*
%TO.P,QUARTZ1,3,OUT*%
%TO.N,OSCILATEUR*%
X110266000Y-111007000D03*
%TO.P,QUARTZ1,4,VDD*%
%TO.N,+3.3V*%
X110266000Y-109907000D03*
%TD*%
D10*
%TO.P,LED1,1,K*%
%TO.N,GND*%
X130612000Y-85466000D03*
%TO.P,LED1,2,A*%
%TO.N,Net-(LED1-A)*%
X130612000Y-87216000D03*
%TD*%
D21*
%TO.P,C18,1*%
%TO.N,+3.3V*%
X107726000Y-110177000D03*
%TO.P,C18,2*%
%TO.N,GND*%
X107726000Y-111727000D03*
%TD*%
D44*
%TO.P,C7,1*%
%TO.N,GND*%
X110126000Y-118077000D03*
%TO.P,C7,2*%
%TO.N,+3.3V*%
X111676000Y-118077000D03*
%TD*%
D14*
%TO.P,ALIM1,1,Pin_1*%
%TO.N,GND*%
X108895000Y-141445000D03*
D15*
%TO.P,ALIM1,2,Pin_2*%
%TO.N,Net-(ALIM1-Pin_2)*%
X113975000Y-141445000D03*
%TD*%
D44*
%TO.P,C10,1*%
%TO.N,GND*%
X111256000Y-106647000D03*
%TO.P,C10,2*%
%TO.N,+3.3V*%
X112806000Y-106647000D03*
%TD*%
D18*
%TO.P,C20,1*%
%TO.N,+3.3V*%
X96209000Y-139022000D03*
%TO.P,C20,2*%
%TO.N,GND*%
X94659000Y-139022000D03*
%TD*%
D30*
%TO.P,D3,1,K*%
%TO.N,+5V*%
X118160000Y-72230000D03*
%TO.P,D3,2,A*%
%TO.N,VBUS*%
X120960000Y-72230000D03*
%TD*%
D18*
%TO.P,C13,1*%
%TO.N,GND*%
X121175000Y-121379000D03*
%TO.P,C13,2*%
%TO.N,+3.3V*%
X119625000Y-121379000D03*
%TD*%
D28*
%TO.P,R6,1*%
%TO.N,LED2*%
X128072000Y-90922500D03*
%TO.P,R6,2*%
%TO.N,Net-(LED2-A)*%
X128072000Y-89097500D03*
%TD*%
D37*
%TO.P,C4,1*%
%TO.N,+BATT*%
X142024000Y-113725000D03*
%TO.P,C4,2*%
%TO.N,GND*%
X150424000Y-113725000D03*
%TD*%
D12*
%TO.P,U3,1,DIR*%
%TO.N,DIR3*%
X136420000Y-131285000D03*
%TO.P,U3,2,VSO*%
%TO.N,+3.3V*%
X137420000Y-131285000D03*
%TO.P,U3,3,SO*%
%TO.N,ERROR_FLAG*%
X138420000Y-131285000D03*
%TO.P,U3,4,VS*%
%TO.N,+BATT*%
X139420000Y-131285000D03*
%TO.P,U3,5,OUT1*%
%TO.N,Net-(MOT3-Pin_1)*%
X140420000Y-131285000D03*
%TO.P,U3,6,GND*%
%TO.N,GND*%
X141420000Y-131285000D03*
%TO.P,U3,7,OUT2*%
%TO.N,Net-(MOT3-Pin_2)*%
X141420000Y-121335000D03*
%TO.P,U3,8,SI*%
%TO.N,Net-(U2-SO)*%
X140420000Y-121335000D03*
%TO.P,U3,9,CSN*%
%TO.N,GND*%
X139420000Y-121335000D03*
%TO.P,U3,10,SCK*%
X138420000Y-121335000D03*
%TO.P,U3,11,DIS*%
%TO.N,DIS*%
X137420000Y-121335000D03*
%TO.P,U3,12,PWM*%
%TO.N,PWM3*%
X136420000Y-121335000D03*
D13*
%TO.P,U3,13,GND*%
%TO.N,GND*%
X138920000Y-126310000D03*
%TD*%
D28*
%TO.P,R10,1*%
%TO.N,LED1*%
X130646000Y-90913000D03*
%TO.P,R10,2*%
%TO.N,Net-(LED1-A)*%
X130646000Y-89088000D03*
%TD*%
D45*
%TO.P,DEBUG1,1,Pin_1*%
%TO.N,GND*%
X117864000Y-78588000D03*
%TO.P,DEBUG1,2,Pin_2*%
%TO.N,+3.3V*%
X117864000Y-79838000D03*
%TO.P,DEBUG1,3,Pin_3*%
%TO.N,RST*%
X117864000Y-81088000D03*
%TO.P,DEBUG1,4,Pin_4*%
%TO.N,SWCLK*%
X117864000Y-82338000D03*
%TO.P,DEBUG1,5,Pin_5*%
%TO.N,SWDIO*%
X117864000Y-83588000D03*
D46*
%TO.P,DEBUG1,MP*%
%TO.N,N/C*%
X121214000Y-76738000D03*
X121214000Y-85438000D03*
%TD*%
D47*
%TO.P,IMU1,1,SDO/SA0*%
%TO.N,SPI1_MISO*%
X117796500Y-102575000D03*
%TO.P,IMU1,2,SDX*%
%TO.N,GND*%
X117796500Y-102075000D03*
%TO.P,IMU1,3,SCX*%
X117796500Y-101575000D03*
%TO.P,IMU1,4,INT1*%
%TO.N,IMU_INT1*%
X117796500Y-101075000D03*
D48*
%TO.P,IMU1,5,VDDIO*%
%TO.N,+3.3V*%
X117134000Y-100912500D03*
%TO.P,IMU1,6,GND*%
%TO.N,GND*%
X116634000Y-100912500D03*
%TO.P,IMU1,7,GND*%
X116134000Y-100912500D03*
D47*
%TO.P,IMU1,8,VDD*%
%TO.N,+3.3V*%
X115471500Y-101075000D03*
%TO.P,IMU1,9,INT2*%
%TO.N,unconnected-(IMU1-INT2-Pad9)*%
X115471500Y-101575000D03*
%TO.P,IMU1,10,NC*%
%TO.N,unconnected-(IMU1-NC-Pad10)*%
X115471500Y-102075000D03*
%TO.P,IMU1,11,NC*%
%TO.N,unconnected-(IMU1-NC-Pad11)*%
X115471500Y-102575000D03*
D48*
%TO.P,IMU1,12,CS*%
%TO.N,SPI1_CS_IMU*%
X116134000Y-102737500D03*
%TO.P,IMU1,13,SCL*%
%TO.N,SPI1_SCK*%
X116634000Y-102737500D03*
%TO.P,IMU1,14,SDA*%
%TO.N,SPI1_MOSI*%
X117134000Y-102737500D03*
%TD*%
D21*
%TO.P,C19,1*%
%TO.N,+5V*%
X106369000Y-134497000D03*
%TO.P,C19,2*%
%TO.N,GND*%
X106369000Y-136047000D03*
%TD*%
D18*
%TO.P,C3,1*%
%TO.N,+BATT*%
X139790000Y-109475000D03*
%TO.P,C3,2*%
%TO.N,GND*%
X138240000Y-109475000D03*
%TD*%
D19*
%TO.P,R9,1*%
%TO.N,/BOOT 0*%
X101376000Y-111449500D03*
%TO.P,R9,2*%
%TO.N,GND*%
X101376000Y-113274500D03*
%TD*%
D14*
%TO.P,MOT2,1,Pin_1*%
%TO.N,Net-(MOT2-Pin_1)*%
X148265000Y-104085000D03*
D15*
%TO.P,MOT2,2,Pin_2*%
%TO.N,Net-(MOT2-Pin_2)*%
X148265000Y-99005000D03*
%TD*%
D11*
%TO.P,TP_CS1,1,1*%
%TO.N,SPI1_CS_IMU*%
X112070000Y-97630000D03*
%TD*%
D18*
%TO.P,C1,1*%
%TO.N,+BATT*%
X139790000Y-84725000D03*
%TO.P,C1,2*%
%TO.N,GND*%
X138240000Y-84725000D03*
%TD*%
D14*
%TO.P,MOT1,1,Pin_1*%
%TO.N,Net-(MOT1-Pin_1)*%
X148265000Y-79320000D03*
D15*
%TO.P,MOT1,2,Pin_2*%
%TO.N,Net-(MOT1-Pin_2)*%
X148265000Y-74240000D03*
%TD*%
D18*
%TO.P,C5,1*%
%TO.N,+BATT*%
X136340000Y-133190000D03*
%TO.P,C5,2*%
%TO.N,GND*%
X134790000Y-133190000D03*
%TD*%
D49*
%TO.N,PWM1*%
X133914000Y-82644000D03*
%TO.N,GND*%
X135890000Y-124714000D03*
X139192000Y-123444000D03*
X142240000Y-127762000D03*
X139192000Y-129032000D03*
X142240000Y-124714000D03*
X136906000Y-123444000D03*
X136906000Y-104140000D03*
X135890000Y-99822000D03*
X139192000Y-98552000D03*
X142240000Y-102870000D03*
X139192000Y-104140000D03*
X135890000Y-102870000D03*
X142240000Y-99822000D03*
X136906000Y-98552000D03*
%TO.N,+BATT*%
X139756000Y-116287000D03*
X144836000Y-87854000D03*
X141026000Y-139032000D03*
X145090000Y-110445000D03*
X144836000Y-90902000D03*
X140010000Y-91156000D03*
X145090000Y-116287000D03*
X142042000Y-85314000D03*
X145090000Y-113493000D03*
X141026000Y-133698000D03*
X144836000Y-85822000D03*
X137216000Y-139032000D03*
X136454000Y-135222000D03*
X142296000Y-110445000D03*
%TO.N,GND*%
X150678000Y-111969000D03*
X116388000Y-100170000D03*
X101402000Y-142588000D03*
X113538000Y-92550000D03*
X138994000Y-94836000D03*
X118615710Y-102141149D03*
X135890000Y-78232000D03*
X135890000Y-75184000D03*
X93274000Y-136492000D03*
X150678000Y-113493000D03*
X109784000Y-119474000D03*
X130612000Y-144366000D03*
X101402000Y-140556000D03*
X124516000Y-120236000D03*
X136906000Y-73914000D03*
X109276000Y-112362000D03*
X150424000Y-84806000D03*
X150424000Y-86330000D03*
X139502000Y-70198000D03*
X101402000Y-132428000D03*
X109022000Y-135222000D03*
X130358000Y-127094000D03*
X127564000Y-144366000D03*
X147630000Y-133698000D03*
X138213000Y-86525000D03*
X123020000Y-74090000D03*
X129088000Y-144366000D03*
X133533000Y-132428000D03*
X150424000Y-87854000D03*
X142550000Y-106520000D03*
X126040000Y-144366000D03*
X136906000Y-79502000D03*
X120452000Y-124554000D03*
X133660000Y-144366000D03*
X101402000Y-141572000D03*
X132136000Y-144366000D03*
X150678000Y-110699000D03*
X138213000Y-111002000D03*
X138994000Y-119728000D03*
X101402000Y-114648000D03*
X118674000Y-124554000D03*
X116896000Y-124554000D03*
X139192000Y-73914000D03*
X135184000Y-144366000D03*
X142240000Y-78232000D03*
X129342000Y-85466000D03*
X126802000Y-108044000D03*
X114375074Y-108676795D03*
X142804000Y-82390000D03*
X112324000Y-92550000D03*
X113848000Y-115918000D03*
X142240000Y-75184000D03*
X139192000Y-79502000D03*
X116388000Y-97736000D03*
X110292000Y-106774000D03*
X116020000Y-78090000D03*
%TO.N,+3.3V*%
X123085500Y-99535000D03*
D50*
X133914000Y-128110000D03*
X135184000Y-104996000D03*
X131894500Y-126078000D03*
X124111500Y-103726000D03*
D49*
X136200000Y-83660000D03*
X119055000Y-99535000D03*
X124770000Y-83660000D03*
X112070000Y-107790000D03*
X120320748Y-111397000D03*
D50*
%TO.N,VBUS*%
X124348000Y-71046000D03*
X129342000Y-70960000D03*
D49*
%TO.N,Enc2_A*%
X110735006Y-115596035D03*
X108260000Y-117950000D03*
%TO.N,Enc2_B*%
X110165000Y-114775000D03*
X108260000Y-116680000D03*
D50*
%TO.N,Enc1_A*%
X112832000Y-121760000D03*
X110038000Y-121760000D03*
%TO.N,Enc1_B*%
X109022000Y-123030000D03*
X111816000Y-123030000D03*
D49*
%TO.N,DIS*%
X131738140Y-110584000D03*
D50*
X127818000Y-106012000D03*
X131977088Y-88232000D03*
D49*
X137470000Y-119728000D03*
D50*
X131977088Y-106012000D03*
X134168000Y-88232000D03*
%TO.N,MEAS_VBAT*%
X129088000Y-123895500D03*
X121976000Y-112362000D03*
%TO.N,SPI1_SCK*%
X116950758Y-101843072D03*
D49*
X118420000Y-104996000D03*
X112705000Y-99535000D03*
%TO.N,SPI1_MISO*%
X113340000Y-103772500D03*
X117150000Y-109060000D03*
D50*
%TO.N,SPI1_CS_IMU*%
X118674000Y-108552000D03*
X115245000Y-103345000D03*
D49*
%TO.N,DIR2*%
X132066332Y-114324332D03*
X126040000Y-117696000D03*
%TO.N,PWM1*%
X133914000Y-85946000D03*
%TO.N,ERROR_FLAG*%
X128326000Y-116680000D03*
X121976000Y-113632000D03*
%TD*%
D51*
%TO.N,Enc1_A*%
X114950120Y-120236000D02*
X115636000Y-119550120D01*
X115636000Y-119550120D02*
X115636000Y-118672000D01*
D52*
%TO.N,RST*%
X119006899Y-81380886D02*
G75*
G03*
X118299785Y-81088000I-707099J-707114D01*
G01*
X119182030Y-86207258D02*
G75*
G03*
X119474893Y-86914365I999970J-42D01*
G01*
X122286010Y-90139686D02*
G75*
G03*
X121993107Y-89432579I-1000010J-14D01*
G01*
X117884616Y-112108011D02*
G75*
G03*
X118591723Y-111815107I-16J1000011D01*
G01*
X119182000Y-81556001D02*
X119182000Y-86207258D01*
X122286000Y-90139686D02*
X122286000Y-108120830D01*
X117864000Y-81088000D02*
X118299785Y-81088000D01*
X117884616Y-112108000D02*
X113298830Y-112108000D01*
X119006892Y-81380893D02*
X119182000Y-81556001D01*
X119474893Y-86914365D02*
X121993107Y-89432579D01*
X122286000Y-108120830D02*
X118591723Y-111815107D01*
D51*
%TO.N,UART4_TX*%
X120136000Y-107322000D02*
X120136000Y-106012000D01*
X120486000Y-105662000D02*
X120486000Y-105247786D01*
X120136000Y-106012000D02*
X120486000Y-105662000D01*
D53*
%TO.N,+3.3V*%
X123561000Y-109097000D02*
X124096000Y-108562000D01*
X124096000Y-108562000D02*
X124096000Y-107917000D01*
X120320748Y-111397000D02*
X122620748Y-109097000D01*
X122620748Y-109097000D02*
X123561000Y-109097000D01*
D54*
%TO.N,GND*%
X112324000Y-92550000D02*
X113538000Y-92550000D01*
X110292000Y-92550000D02*
X112324000Y-92550000D01*
D52*
%TO.N,ERROR_FLAG*%
X136052000Y-129194000D02*
X136052000Y-129187339D01*
X136052000Y-129187339D02*
X133704683Y-126840022D01*
X133558248Y-126486468D02*
G75*
G03*
X133704683Y-126840022I499952J-32D01*
G01*
X137722450Y-129340444D02*
G75*
G03*
X137368893Y-129194000I-353550J-353556D01*
G01*
%TO.N,+3.3V*%
X135451550Y-129647556D02*
G75*
G03*
X135805107Y-129794000I353550J353556D01*
G01*
X137052449Y-129940443D02*
G75*
G03*
X136698893Y-129794000I-353549J-353557D01*
G01*
X137419995Y-130515107D02*
G75*
G03*
X137273553Y-130161553I-499995J7D01*
G01*
%TO.N,ERROR_FLAG*%
X133558190Y-122326450D02*
G75*
G03*
X133265343Y-121619343I-999990J50D01*
G01*
X138420000Y-130058000D02*
X138420000Y-131285000D01*
X128326000Y-116680000D02*
X133265343Y-121619343D01*
X136052000Y-129194000D02*
X137368893Y-129194000D01*
X133558236Y-122326450D02*
X133558236Y-126486468D01*
X137722447Y-129340447D02*
X138430000Y-130048000D01*
X138430000Y-130048000D02*
X138420000Y-130058000D01*
%TO.N,+3.3V*%
X137420000Y-131285000D02*
X137420000Y-130515107D01*
X135451553Y-129647553D02*
X133914000Y-128110000D01*
X137273553Y-130161553D02*
X137052446Y-129940446D01*
X136698893Y-129794000D02*
X135805107Y-129794000D01*
D55*
%TO.N,GND*%
X135890000Y-99822000D02*
X137405500Y-99822000D01*
X137405500Y-99822000D02*
X139047000Y-101463500D01*
X136906000Y-98552000D02*
X136906000Y-99322500D01*
X136906000Y-99322500D02*
X139047000Y-101463500D01*
X139192000Y-98552000D02*
X139192000Y-101318500D01*
X139192000Y-101318500D02*
X139047000Y-101463500D01*
X142240000Y-99822000D02*
X140688500Y-99822000D01*
X140688500Y-99822000D02*
X139047000Y-101463500D01*
X142240000Y-102870000D02*
X140453500Y-102870000D01*
X140453500Y-102870000D02*
X139047000Y-101463500D01*
X139192000Y-104140000D02*
X139192000Y-101608500D01*
X139192000Y-101608500D02*
X139047000Y-101463500D01*
X136906000Y-104140000D02*
X136906000Y-103604500D01*
X136906000Y-103604500D02*
X139047000Y-101463500D01*
X135890000Y-102870000D02*
X137640500Y-102870000D01*
X137640500Y-102870000D02*
X139047000Y-101463500D01*
X142240000Y-127762000D02*
X140372000Y-127762000D01*
X140372000Y-127762000D02*
X138920000Y-126310000D01*
X142240000Y-124714000D02*
X140516000Y-124714000D01*
X140516000Y-124714000D02*
X138920000Y-126310000D01*
X139192000Y-123444000D02*
X139192000Y-126038000D01*
X139192000Y-126038000D02*
X138920000Y-126310000D01*
X136906000Y-123444000D02*
X136906000Y-124296000D01*
X136906000Y-124296000D02*
X138920000Y-126310000D01*
X135890000Y-124714000D02*
X137324000Y-124714000D01*
X137324000Y-124714000D02*
X138920000Y-126310000D01*
X139192000Y-129032000D02*
X139192000Y-126582000D01*
X139192000Y-126582000D02*
X138920000Y-126310000D01*
X135890000Y-78232000D02*
X137595000Y-78232000D01*
X137595000Y-78232000D02*
X139047000Y-76780000D01*
X136906000Y-79502000D02*
X136906000Y-78921000D01*
X136906000Y-78921000D02*
X139047000Y-76780000D01*
X139192000Y-79502000D02*
X139192000Y-76925000D01*
X139192000Y-76925000D02*
X139047000Y-76780000D01*
X142240000Y-78232000D02*
X140499000Y-78232000D01*
X140499000Y-78232000D02*
X139047000Y-76780000D01*
X142240000Y-75184000D02*
X140643000Y-75184000D01*
X140643000Y-75184000D02*
X139047000Y-76780000D01*
X139192000Y-73914000D02*
X139192000Y-76635000D01*
X139192000Y-76635000D02*
X139047000Y-76780000D01*
X136906000Y-73914000D02*
X136906000Y-74639000D01*
X136906000Y-74639000D02*
X139047000Y-76780000D01*
X135890000Y-75184000D02*
X137451000Y-75184000D01*
X137451000Y-75184000D02*
X139047000Y-76780000D01*
D52*
%TO.N,Enc1_A*%
X95344886Y-123603100D02*
G75*
G03*
X95052000Y-124310214I707114J-707100D01*
G01*
X97602214Y-121760010D02*
G75*
G03*
X96895107Y-122052893I-14J-999990D01*
G01*
X110038000Y-121760000D02*
X97602214Y-121760000D01*
X96895107Y-122052893D02*
X95344893Y-123603107D01*
X95052000Y-124310214D02*
X95052000Y-126205000D01*
D54*
%TO.N,+3.3V*%
X99102000Y-134002000D02*
X96209000Y-134002000D01*
X96209000Y-136512000D02*
X96209000Y-134002000D01*
X96209000Y-139022000D02*
X96209000Y-136512000D01*
%TO.N,+5V*%
X105593000Y-131920000D02*
X105593000Y-133721000D01*
X105593000Y-133721000D02*
X105874000Y-134002000D01*
X103702000Y-134002000D02*
X105874000Y-134002000D01*
X105874000Y-134002000D02*
X106369000Y-134497000D01*
%TO.N,Net-(D2-A)*%
X124467500Y-135823000D02*
X124467500Y-139836500D01*
X124467500Y-139836500D02*
X122865000Y-141439000D01*
X119387500Y-135870000D02*
X124420500Y-135870000D01*
X124420500Y-135870000D02*
X124467500Y-135823000D01*
D53*
%TO.N,+BATT*%
X139127107Y-135587893D02*
X138740000Y-135975000D01*
X139839893Y-86601893D02*
X142213000Y-88975000D01*
D54*
X127818000Y-125824000D02*
X127818000Y-129126000D01*
D53*
X139547000Y-106438500D02*
X139547000Y-110529786D01*
X139839893Y-111351893D02*
X142213000Y-113725000D01*
X124643000Y-130567500D02*
X124467500Y-130743000D01*
X139547000Y-81755000D02*
X139547000Y-85764786D01*
X139420000Y-131285000D02*
X139420000Y-134880786D01*
X139127114Y-135587900D02*
G75*
G03*
X139420000Y-134880786I-707114J707100D01*
G01*
X139547010Y-110644786D02*
G75*
G03*
X139839893Y-111351893I999990J-14D01*
G01*
X139547010Y-85894786D02*
G75*
G03*
X139839893Y-86601893I999990J-14D01*
G01*
D52*
%TO.N,GND*%
X116225107Y-78295107D02*
X116020000Y-78090000D01*
D53*
X124516000Y-119347000D02*
X124516000Y-120236000D01*
D56*
X150424000Y-86330000D02*
X150424000Y-84806000D01*
X150613000Y-113428000D02*
X150613000Y-112034000D01*
D57*
X118615710Y-102141149D02*
X118549561Y-102075000D01*
D53*
X108746000Y-111727000D02*
X108746000Y-111832000D01*
X126675000Y-107917000D02*
X126802000Y-108044000D01*
D56*
X129088000Y-144366000D02*
X129079000Y-144375000D01*
D53*
X141547000Y-81755000D02*
X141754786Y-81755000D01*
X108629893Y-134829893D02*
X109022000Y-135222000D01*
X141420000Y-131298000D02*
X141420000Y-131285000D01*
D56*
X150424000Y-88975000D02*
X150424000Y-87854000D01*
D53*
X139547000Y-70243000D02*
X139502000Y-70198000D01*
D55*
X120882107Y-124051893D02*
X120452000Y-124482000D01*
X120452000Y-124554000D02*
X120380000Y-124554000D01*
D54*
X128081500Y-85466000D02*
X128072000Y-85475500D01*
D52*
X116095000Y-121379000D02*
X117044582Y-120429418D01*
X123437000Y-72738000D02*
X123437000Y-73258786D01*
D53*
X124516000Y-120236000D02*
X124516000Y-121252000D01*
D52*
X130092000Y-69974000D02*
X130048000Y-69930000D01*
D55*
X120380000Y-124554000D02*
X120380000Y-124554000D01*
D54*
X138994000Y-121335000D02*
X138420000Y-121335000D01*
X130612000Y-85466000D02*
X128081500Y-85466000D01*
D53*
X110165000Y-92677000D02*
X110292000Y-92550000D01*
D51*
X125646000Y-108515968D02*
X125646000Y-107917000D01*
D56*
X101402000Y-141572000D02*
X101402000Y-142588000D01*
D53*
X110126000Y-118077000D02*
X110126000Y-118717786D01*
X101376000Y-114622000D02*
X101402000Y-114648000D01*
X94659000Y-136512000D02*
X93294000Y-136512000D01*
D52*
X130048000Y-69930000D02*
X130108786Y-69930000D01*
D53*
X107726000Y-111727000D02*
X108746000Y-111727000D01*
D56*
X131120000Y-144366000D02*
X131111000Y-144375000D01*
X150613000Y-113558000D02*
X150678000Y-113493000D01*
D51*
X121136000Y-118672000D02*
X121136000Y-119620830D01*
D55*
X130358000Y-125824000D02*
X130358000Y-127094000D01*
D56*
X132653000Y-144375000D02*
X132644000Y-144366000D01*
D53*
X108746000Y-111832000D02*
X109276000Y-112362000D01*
D51*
X123561000Y-109747000D02*
X124414968Y-109747000D01*
D53*
X143527107Y-133405107D02*
X141420000Y-131298000D01*
D56*
X138740000Y-144375000D02*
X132653000Y-144375000D01*
D53*
X119387500Y-132648000D02*
X119387500Y-134320000D01*
D54*
X138547000Y-96488500D02*
X138994000Y-96488500D01*
D53*
X94659000Y-139022000D02*
X94659000Y-136512000D01*
X141547000Y-106438500D02*
X142468500Y-106438500D01*
D54*
X139420000Y-121335000D02*
X138994000Y-121335000D01*
D53*
X94659000Y-134002000D02*
X94659000Y-136512000D01*
D55*
X120198000Y-124554000D02*
X118674000Y-124554000D01*
D53*
X139547000Y-71805000D02*
X139547000Y-70243000D01*
D57*
X118674000Y-102202000D02*
X118674000Y-102199439D01*
D55*
X118674000Y-124554000D02*
X117150000Y-124554000D01*
D56*
X129079000Y-144375000D02*
X127573000Y-144375000D01*
X101402000Y-140556000D02*
X101402000Y-141572000D01*
D52*
X122780107Y-69637107D02*
X122478000Y-69335000D01*
D53*
X107879000Y-134537000D02*
X107922786Y-134537000D01*
D56*
X131111000Y-144375000D02*
X129097000Y-144375000D01*
D57*
X117796500Y-101575000D02*
X117796500Y-102075000D01*
D56*
X131129000Y-144375000D02*
X131120000Y-144366000D01*
D54*
X115471500Y-97736000D02*
X117216500Y-97736000D01*
D56*
X150424000Y-87854000D02*
X150424000Y-86330000D01*
X126049000Y-144375000D02*
X126040000Y-144366000D01*
D55*
X116896000Y-124554000D02*
X116890000Y-124554000D01*
D56*
X127555000Y-144375000D02*
X126049000Y-144375000D01*
D57*
X118674000Y-102199439D02*
X118615710Y-102141149D01*
D54*
X138994000Y-96488500D02*
X138994000Y-94836000D01*
D53*
X101376000Y-113274500D02*
X101376000Y-114622000D01*
D55*
X121175000Y-123284000D02*
X121175000Y-123344786D01*
D56*
X101402000Y-140302000D02*
X101402000Y-140556000D01*
X129097000Y-144375000D02*
X129088000Y-144366000D01*
D52*
X130092000Y-72559000D02*
X130092000Y-72090000D01*
D55*
X116095000Y-123344786D02*
X116095000Y-123284000D01*
D53*
X140547000Y-71805000D02*
X138547000Y-71805000D01*
D52*
X121175000Y-121379000D02*
X121175000Y-119659830D01*
D56*
X150613000Y-112034000D02*
X150678000Y-111969000D01*
X150613000Y-111904000D02*
X150613000Y-110764000D01*
D51*
X119136000Y-118672000D02*
X119136000Y-119550120D01*
X125122075Y-109454107D02*
X125353107Y-109223075D01*
D56*
X150678000Y-113493000D02*
X150613000Y-113428000D01*
D55*
X117150000Y-124554000D02*
X116896000Y-124554000D01*
D56*
X127564000Y-144366000D02*
X127555000Y-144375000D01*
D51*
X114636000Y-107322000D02*
X114636000Y-108415869D01*
D52*
X117751689Y-120136525D02*
X119082526Y-120136525D01*
X123144107Y-73965893D02*
X123020000Y-74090000D01*
D51*
X114636000Y-108415869D02*
X114375074Y-108676795D01*
D53*
X142468500Y-106438500D02*
X142550000Y-106520000D01*
D52*
X123548000Y-69930000D02*
X123487214Y-69930000D01*
D53*
X110419000Y-92677000D02*
X110292000Y-92550000D01*
D51*
X121136000Y-119620830D02*
X121175000Y-119659830D01*
D54*
X138994000Y-121335000D02*
X138994000Y-119728000D01*
D53*
X142461893Y-82047893D02*
X142804000Y-82390000D01*
D56*
X132644000Y-144366000D02*
X132635000Y-144375000D01*
D55*
X121175000Y-121379000D02*
X121175000Y-123284000D01*
X120452000Y-124482000D02*
X120452000Y-124554000D01*
D53*
X123723393Y-134027107D02*
X124467500Y-133283000D01*
D57*
X118549561Y-102075000D02*
X117796500Y-102075000D01*
X116388000Y-100912500D02*
X116634000Y-100912500D01*
D53*
X138240000Y-86498000D02*
X138213000Y-86525000D01*
D54*
X134790000Y-133190000D02*
X134709214Y-133190000D01*
D53*
X119387500Y-134320000D02*
X123016286Y-134320000D01*
X108006000Y-132555000D02*
X107879000Y-132428000D01*
X109833107Y-119424893D02*
X109784000Y-119474000D01*
D52*
X117864000Y-78588000D02*
X116932214Y-78588000D01*
X130092000Y-72090000D02*
X130092000Y-69974000D01*
D56*
X150613000Y-110634000D02*
X150613000Y-110510000D01*
D55*
X116890000Y-124554000D02*
X116387893Y-124051893D01*
D54*
X138240000Y-109710000D02*
X138240000Y-110975000D01*
D52*
X129913000Y-72738000D02*
X130092000Y-72559000D01*
D53*
X107879000Y-134537000D02*
X107879000Y-132428000D01*
D57*
X116134000Y-100912500D02*
X116388000Y-100912500D01*
D56*
X150678000Y-111969000D02*
X150613000Y-111904000D01*
D55*
X101402000Y-134002000D02*
X101402000Y-132428000D01*
D53*
X110165000Y-132555000D02*
X108006000Y-132555000D01*
D51*
X113811893Y-115954107D02*
X113848000Y-115918000D01*
D54*
X134002107Y-132897107D02*
X133533000Y-132428000D01*
D52*
X119082526Y-120136525D02*
X119082526Y-119674304D01*
D56*
X150613000Y-113725000D02*
X150613000Y-113558000D01*
D54*
X138994000Y-96488500D02*
X139547000Y-96488500D01*
D53*
X125646000Y-107917000D02*
X126675000Y-107917000D01*
D56*
X150678000Y-110699000D02*
X150613000Y-110634000D01*
D55*
X120380000Y-124554000D02*
X120198000Y-124554000D01*
D56*
X132635000Y-144375000D02*
X131129000Y-144375000D01*
D55*
X116095000Y-121379000D02*
X116095000Y-123284000D01*
D53*
X111256000Y-106647000D02*
X110419000Y-106647000D01*
D56*
X127573000Y-144375000D02*
X127564000Y-144366000D01*
X150613000Y-110764000D02*
X150678000Y-110699000D01*
D53*
X108746000Y-111727000D02*
X109466000Y-111007000D01*
D57*
X116388000Y-100912500D02*
X116388000Y-100170000D01*
D51*
X112211000Y-116247000D02*
X113104786Y-116247000D01*
D54*
X138240000Y-110975000D02*
X138213000Y-111002000D01*
D53*
X110419000Y-106647000D02*
X110292000Y-106774000D01*
X106369000Y-136047000D02*
X107879000Y-134537000D01*
D52*
X130815893Y-69637107D02*
X131118000Y-69335000D01*
D53*
X147630000Y-133698000D02*
X144234214Y-133698000D01*
X93294000Y-136512000D02*
X93274000Y-136492000D01*
X138240000Y-84725000D02*
X138240000Y-86498000D01*
X142461900Y-82047886D02*
G75*
G03*
X141754786Y-81755000I-707100J-707114D01*
G01*
D51*
X124414968Y-109746977D02*
G75*
G03*
X125122075Y-109454107I32J999977D01*
G01*
D52*
X123144114Y-73965900D02*
G75*
G03*
X123437000Y-73258786I-707114J707100D01*
G01*
X122780100Y-69637114D02*
G75*
G03*
X123487214Y-69930000I707100J707114D01*
G01*
X130108786Y-69929990D02*
G75*
G03*
X130815893Y-69637107I14J999990D01*
G01*
X117751689Y-120136510D02*
G75*
G03*
X117044582Y-120429418I11J-999990D01*
G01*
D53*
X108629900Y-134829886D02*
G75*
G03*
X107922786Y-134537000I-707100J-707114D01*
G01*
D55*
X116095010Y-123344786D02*
G75*
G03*
X116387893Y-124051893I999990J-14D01*
G01*
D53*
X123016286Y-134319990D02*
G75*
G03*
X123723393Y-134027107I14J999990D01*
G01*
D52*
X116225100Y-78295114D02*
G75*
G03*
X116932214Y-78588000I707100J707114D01*
G01*
D55*
X120882114Y-124051900D02*
G75*
G03*
X121175000Y-123344786I-707114J707100D01*
G01*
D51*
X113104786Y-116246990D02*
G75*
G03*
X113811893Y-115954107I14J999990D01*
G01*
D53*
X109833114Y-119424900D02*
G75*
G03*
X110126000Y-118717786I-707114J707100D01*
G01*
X143527100Y-133405114D02*
G75*
G03*
X144234214Y-133698000I707100J707114D01*
G01*
D51*
X125353123Y-109223091D02*
G75*
G03*
X125646000Y-108515968I-707123J707091D01*
G01*
D54*
X134002100Y-132897114D02*
G75*
G03*
X134709214Y-133190000I707100J707114D01*
G01*
D53*
%TO.N,+3.3V*%
X111676000Y-118077000D02*
X111676000Y-121345786D01*
X100982107Y-129037893D02*
X99521893Y-130498107D01*
X119436000Y-116897000D02*
X119820748Y-116897000D01*
D52*
X115471500Y-99286000D02*
X117216500Y-99286000D01*
X117864000Y-79838000D02*
X118299785Y-79838000D01*
D53*
X124111500Y-107901500D02*
X124096000Y-107917000D01*
D51*
X119636000Y-120573000D02*
X119625000Y-120584000D01*
D52*
X119006892Y-80130893D02*
X124111500Y-85235501D01*
X137254107Y-105345607D02*
X137197393Y-105288893D01*
D53*
X104276786Y-128745000D02*
X101689214Y-128745000D01*
X121677000Y-117397000D02*
X121786000Y-117506000D01*
D51*
X119636000Y-117097000D02*
X119436000Y-116897000D01*
D53*
X107726000Y-110177000D02*
X109196000Y-110177000D01*
X131894500Y-124169626D02*
X131894500Y-126078000D01*
D52*
X112806000Y-107054000D02*
X112070000Y-107790000D01*
D54*
X119625000Y-123284000D02*
X119625000Y-121379000D01*
D52*
X124770000Y-83660000D02*
X124770000Y-84162787D01*
D53*
X113603893Y-106939893D02*
X113986000Y-107322000D01*
X110266000Y-109907000D02*
X109466000Y-109907000D01*
D52*
X123085500Y-99535000D02*
X124111500Y-99535000D01*
X136490286Y-104996000D02*
X135184000Y-104996000D01*
X112806000Y-106647000D02*
X112806000Y-107054000D01*
D53*
X120320748Y-111397000D02*
X120320748Y-117397000D01*
D52*
X115471500Y-99286000D02*
X115471500Y-101000000D01*
X118806000Y-99286000D02*
X119055000Y-99535000D01*
X137254107Y-83122893D02*
X137009893Y-83367107D01*
X104843893Y-113059107D02*
X107726000Y-110177000D01*
D54*
X117645000Y-123284000D02*
X119625000Y-123284000D01*
D53*
X112625214Y-116897000D02*
X119436000Y-116897000D01*
D52*
X117216500Y-99286000D02*
X118806000Y-99286000D01*
X124477107Y-84869894D02*
X124111500Y-85235501D01*
D54*
X122966000Y-120236000D02*
X122966000Y-121252000D01*
D53*
X112806000Y-106647000D02*
X112896786Y-106647000D01*
X109196000Y-110177000D02*
X109466000Y-109907000D01*
D52*
X124111500Y-103726000D02*
X124111500Y-106012000D01*
X117216500Y-99286000D02*
X117216500Y-100650646D01*
X137547000Y-106438500D02*
X137547000Y-106052714D01*
D51*
X120136000Y-117581748D02*
X120320748Y-117397000D01*
D53*
X121786000Y-117506000D02*
X121786000Y-118257786D01*
D52*
X124111500Y-85235501D02*
X124111500Y-99535000D01*
D51*
X120136000Y-118672000D02*
X120136000Y-117581748D01*
D54*
X122966000Y-119347000D02*
X122966000Y-120236000D01*
D52*
X124111500Y-99535000D02*
X124111500Y-103726000D01*
D53*
X111676000Y-117432000D02*
X111918107Y-117189893D01*
X130658981Y-122519893D02*
X131601607Y-123462519D01*
X99229000Y-131205214D02*
X99229000Y-134002000D01*
X122966000Y-121252000D02*
X123648107Y-121934107D01*
X120320748Y-117397000D02*
X121677000Y-117397000D01*
D51*
X119636000Y-118672000D02*
X119636000Y-120573000D01*
D53*
X108086786Y-114902000D02*
X104551000Y-114902000D01*
X124111500Y-106012000D02*
X124111500Y-107901500D01*
X119625000Y-121379000D02*
X119625000Y-120584000D01*
D52*
X137547000Y-81755000D02*
X137547000Y-82415786D01*
D53*
X122966000Y-119347000D02*
X122875214Y-119347000D01*
D52*
X136302786Y-83660000D02*
X136200000Y-83660000D01*
D54*
X117645000Y-123284000D02*
X117645000Y-121379000D01*
D53*
X122168107Y-119054107D02*
X122078893Y-118964893D01*
X111676000Y-118077000D02*
X108793893Y-115194893D01*
D52*
X104551000Y-114902000D02*
X104551000Y-113766214D01*
D53*
X119820748Y-116897000D02*
X120320748Y-117397000D01*
X111676000Y-118077000D02*
X111676000Y-117432000D01*
D51*
X119636000Y-118672000D02*
X119636000Y-117097000D01*
D53*
X111383107Y-122052893D02*
X104983893Y-128452107D01*
D54*
X117645000Y-121379000D02*
X119625000Y-121379000D01*
D53*
X124355214Y-122227000D02*
X129951874Y-122227000D01*
X111383114Y-122052900D02*
G75*
G03*
X111676000Y-121345786I-707114J707100D01*
G01*
X113603900Y-106939886D02*
G75*
G03*
X112896786Y-106647000I-707100J-707114D01*
G01*
X131894481Y-124169626D02*
G75*
G03*
X131601606Y-123462520I-999981J26D01*
G01*
X104276786Y-128744990D02*
G75*
G03*
X104983893Y-128452107I14J999990D01*
G01*
X122168100Y-119054114D02*
G75*
G03*
X122875214Y-119347000I707100J707114D01*
G01*
D52*
X137254114Y-83122900D02*
G75*
G03*
X137547000Y-82415786I-707114J707100D01*
G01*
D53*
X130658994Y-122519880D02*
G75*
G03*
X129951874Y-122227000I-707094J-707120D01*
G01*
X123648100Y-121934114D02*
G75*
G03*
X124355214Y-122227000I707100J707114D01*
G01*
X112625214Y-116897010D02*
G75*
G03*
X111918107Y-117189893I-14J-999990D01*
G01*
D52*
X137546990Y-106052714D02*
G75*
G03*
X137254107Y-105345607I-999990J14D01*
G01*
X104843886Y-113059100D02*
G75*
G03*
X104551000Y-113766214I707114J-707100D01*
G01*
D53*
X101689214Y-128745010D02*
G75*
G03*
X100982107Y-129037893I-14J-999990D01*
G01*
X121786010Y-118257786D02*
G75*
G03*
X122078893Y-118964893I999990J-14D01*
G01*
D52*
X119006899Y-80130886D02*
G75*
G03*
X118299785Y-79838000I-707099J-707114D01*
G01*
X137197400Y-105288886D02*
G75*
G03*
X136490286Y-104996000I-707100J-707114D01*
G01*
D53*
X108793900Y-115194886D02*
G75*
G03*
X108086786Y-114902000I-707100J-707114D01*
G01*
X99521886Y-130498100D02*
G75*
G03*
X99229000Y-131205214I707114J-707100D01*
G01*
D52*
X136302786Y-83659990D02*
G75*
G03*
X137009893Y-83367107I14J999990D01*
G01*
X124477113Y-84869900D02*
G75*
G03*
X124770000Y-84162787I-707113J707100D01*
G01*
D54*
%TO.N,+5V*%
X121404786Y-145285000D02*
X104831000Y-145285000D01*
X122865000Y-144239000D02*
X122111893Y-144992107D01*
X89972000Y-113505000D02*
X89972000Y-126205000D01*
X104538107Y-134711107D02*
X103829000Y-134002000D01*
D53*
X113355214Y-72230000D02*
X118160000Y-72230000D01*
D54*
X104831000Y-145285000D02*
X99688254Y-145285000D01*
D53*
X89972000Y-100805000D02*
X89972000Y-95613214D01*
D54*
X104831000Y-145285000D02*
X104831000Y-135418214D01*
D53*
X90264893Y-94906107D02*
X112648107Y-72522893D01*
D54*
X89972000Y-135568746D02*
X89972000Y-126205000D01*
X89972000Y-100805000D02*
X89972000Y-113505000D01*
X98981147Y-144992107D02*
X90264893Y-136275853D01*
D53*
X113355214Y-72230010D02*
G75*
G03*
X112648107Y-72522893I-14J-999990D01*
G01*
D54*
X98981170Y-144992084D02*
G75*
G03*
X99688254Y-145285000I707130J707084D01*
G01*
X121404786Y-145284990D02*
G75*
G03*
X122111893Y-144992107I14J999990D01*
G01*
X104830990Y-135418214D02*
G75*
G03*
X104538107Y-134711107I-999990J14D01*
G01*
D53*
X90264886Y-94906100D02*
G75*
G03*
X89972000Y-95613214I707114J-707100D01*
G01*
D54*
X89971968Y-135568746D02*
G75*
G03*
X90264894Y-136275852I1000032J46D01*
G01*
D52*
%TO.N,VBUS*%
X122201716Y-72230000D02*
X120960000Y-72230000D01*
X123507037Y-71338893D02*
X122908823Y-71937107D01*
D51*
X129248000Y-70866000D02*
X129342000Y-70960000D01*
D52*
X124214144Y-71046000D02*
X124348000Y-71046000D01*
D51*
X124348000Y-69930000D02*
X124348000Y-71046000D01*
X129248000Y-69930000D02*
X129248000Y-70866000D01*
D52*
X124214144Y-71046031D02*
G75*
G03*
X123507037Y-71338893I-44J-999969D01*
G01*
X122201716Y-72230011D02*
G75*
G03*
X122908823Y-71937107I-16J1000011D01*
G01*
%TO.N,Enc2_A*%
X108260000Y-117950000D02*
X99911214Y-117950000D01*
D51*
X110735006Y-115596035D02*
X110791148Y-115539893D01*
D52*
X99204107Y-117657107D02*
X95052000Y-113505000D01*
D51*
X111498255Y-115247000D02*
X112211000Y-115247000D01*
X111498255Y-115246968D02*
G75*
G03*
X110791148Y-115539893I45J-1000032D01*
G01*
D52*
X99204100Y-117657114D02*
G75*
G03*
X99911214Y-117950000I707100J707114D01*
G01*
D51*
%TO.N,Enc2_B*%
X110193000Y-114747000D02*
X110165000Y-114775000D01*
D52*
X100474107Y-116387107D02*
X97592000Y-113505000D01*
D51*
X112211000Y-114747000D02*
X110193000Y-114747000D01*
D52*
X108260000Y-116680000D02*
X101181214Y-116680000D01*
X100474100Y-116387114D02*
G75*
G03*
X101181214Y-116680000I707100J707114D01*
G01*
D51*
%TO.N,Enc3_A*%
X116136000Y-106373170D02*
X115954415Y-106191585D01*
D52*
X115774830Y-106012000D02*
X115954415Y-106191585D01*
X114102000Y-106012000D02*
X115774830Y-106012000D01*
X100433214Y-105772000D02*
X113862000Y-105772000D01*
D51*
X116136000Y-107322000D02*
X116136000Y-106373170D01*
D52*
X95052000Y-100805000D02*
X99726107Y-105479107D01*
X113862000Y-105772000D02*
X114102000Y-106012000D01*
X99726100Y-105479114D02*
G75*
G03*
X100433214Y-105772000I707100J707114D01*
G01*
%TO.N,Enc3_B*%
X115373305Y-105172000D02*
X115387786Y-105172000D01*
X97592000Y-100805000D02*
X97592000Y-102082258D01*
X97884893Y-102789365D02*
X99857764Y-104762236D01*
X100681742Y-105172000D02*
X113340000Y-105172000D01*
X113340000Y-105172000D02*
X115373305Y-105172000D01*
D51*
X116636000Y-106006000D02*
X116515000Y-105885000D01*
X116636000Y-107322000D02*
X116636000Y-106006000D01*
D52*
X116094893Y-105464893D02*
X116515000Y-105885000D01*
X99857764Y-104762236D02*
X99974635Y-104879107D01*
X97592030Y-102082258D02*
G75*
G03*
X97884893Y-102789365I999970J-42D01*
G01*
X99974614Y-104879128D02*
G75*
G03*
X100681742Y-105172000I707086J707128D01*
G01*
X116094900Y-105464886D02*
G75*
G03*
X115387786Y-105172000I-707100J-707114D01*
G01*
%TO.N,UART4_TX*%
X109276000Y-81135000D02*
X120193107Y-92052107D01*
X120486000Y-92759214D02*
X120486000Y-105247786D01*
X120485990Y-92759214D02*
G75*
G03*
X120193107Y-92052107I-999990J14D01*
G01*
%TO.N,UART4_RX*%
X119886000Y-94699214D02*
X119886000Y-105484183D01*
X109276000Y-83675000D02*
X119593107Y-93992107D01*
D51*
X119636000Y-107322000D02*
X119636000Y-105734183D01*
X119636000Y-105734183D02*
X119886000Y-105484183D01*
D52*
X119885990Y-94699214D02*
G75*
G03*
X119593107Y-93992107I-999990J14D01*
G01*
D51*
%TO.N,RST*%
X113159830Y-112247000D02*
X112211000Y-112247000D01*
X113298830Y-112108000D02*
X113159830Y-112247000D01*
D52*
%TO.N,SWCLK*%
X116721108Y-82630893D02*
X116680893Y-82671108D01*
X116680893Y-85817421D02*
X120793107Y-89929635D01*
X121086000Y-90636742D02*
X121086000Y-106266000D01*
D51*
X121136000Y-106316000D02*
X121086000Y-106266000D01*
D52*
X117864000Y-82338000D02*
X117428215Y-82338000D01*
D51*
X121136000Y-107322000D02*
X121136000Y-106316000D01*
D52*
X116388000Y-83378215D02*
X116388000Y-85110314D01*
X116387990Y-85110314D02*
G75*
G03*
X116680893Y-85817421I1000010J14D01*
G01*
X116680886Y-82671101D02*
G75*
G03*
X116388000Y-83378215I707114J-707099D01*
G01*
X121085970Y-90636742D02*
G75*
G03*
X120793107Y-89929635I-999970J42D01*
G01*
X117428215Y-82338011D02*
G75*
G03*
X116721108Y-82630893I-15J-999989D01*
G01*
%TO.N,SWDIO*%
X117864000Y-83588000D02*
X117864000Y-85737786D01*
X118156893Y-86444893D02*
X121393107Y-89681107D01*
X121686000Y-90388214D02*
X121686000Y-107322000D01*
X117864010Y-85737786D02*
G75*
G03*
X118156893Y-86444893I999990J-14D01*
G01*
X121685990Y-90388214D02*
G75*
G03*
X121393107Y-89681107I-999990J14D01*
G01*
D51*
%TO.N,USB_DP*%
X126048000Y-69905000D02*
X126048000Y-71460000D01*
X127048000Y-69905000D02*
X127048000Y-68985000D01*
D52*
X128846000Y-95348742D02*
X128846000Y-108714730D01*
X126340893Y-92429421D02*
X128553107Y-94641635D01*
D51*
X123561000Y-110247000D02*
X124692786Y-110247000D01*
D52*
X128553107Y-109421837D02*
X128467837Y-109507107D01*
D51*
X126048000Y-68985000D02*
X126048000Y-69905000D01*
X127048000Y-68985000D02*
X126048000Y-68985000D01*
D52*
X127760730Y-109800000D02*
X125554000Y-109800000D01*
D51*
X125399893Y-109954107D02*
X125532000Y-109822000D01*
D52*
X125554000Y-109800000D02*
X125532000Y-109822000D01*
X126048000Y-71460000D02*
X126048000Y-91722314D01*
X128553092Y-109421822D02*
G75*
G03*
X128846000Y-108714730I-707092J707122D01*
G01*
D51*
X124692786Y-110246990D02*
G75*
G03*
X125399893Y-109954107I14J999990D01*
G01*
D52*
X126047990Y-91722314D02*
G75*
G03*
X126340893Y-92429421I1000010J14D01*
G01*
X128845970Y-95348742D02*
G75*
G03*
X128553107Y-94641635I-999970J42D01*
G01*
X127760730Y-109800021D02*
G75*
G03*
X128467837Y-109507107I-30J1000021D01*
G01*
D51*
%TO.N,USB_DM*%
X125462183Y-110692893D02*
X125408076Y-110747000D01*
D52*
X126169290Y-110400000D02*
X128009258Y-110400000D01*
X126802000Y-91627786D02*
X126802000Y-70875000D01*
X128716365Y-110107107D02*
X129153107Y-109670365D01*
X129153107Y-94393107D02*
X127094893Y-92334893D01*
D51*
X127548000Y-69905000D02*
X127548000Y-70825000D01*
X126548000Y-70825000D02*
X126548000Y-69905000D01*
X123561000Y-110747000D02*
X125408076Y-110747000D01*
D52*
X129446000Y-108963258D02*
X129446000Y-95100214D01*
D51*
X127548000Y-70825000D02*
X126548000Y-70825000D01*
D52*
X129445990Y-95100214D02*
G75*
G03*
X129153107Y-94393107I-999990J14D01*
G01*
X129153128Y-109670386D02*
G75*
G03*
X129446000Y-108963258I-707128J707086D01*
G01*
X126802010Y-91627786D02*
G75*
G03*
X127094893Y-92334893I999990J-14D01*
G01*
X128009258Y-110399970D02*
G75*
G03*
X128716365Y-110107107I42J999970D01*
G01*
D51*
X126169290Y-110399993D02*
G75*
G03*
X125462183Y-110692893I10J-1000007D01*
G01*
D52*
%TO.N,Enc1_A*%
X113648303Y-121467107D02*
X114914765Y-120200645D01*
X112832000Y-121760000D02*
X112941196Y-121760000D01*
X112941196Y-121759997D02*
G75*
G03*
X113648303Y-121467107I4J999997D01*
G01*
D51*
%TO.N,Enc1_B*%
X116136000Y-118672000D02*
X116136000Y-119757226D01*
D52*
X106139893Y-125912107D02*
X109022000Y-123030000D01*
X113226831Y-122737107D02*
X116171356Y-119792582D01*
X97592000Y-126205000D02*
X105432786Y-126205000D01*
X111816000Y-123030000D02*
X112519724Y-123030000D01*
X112519724Y-123030017D02*
G75*
G03*
X113226831Y-122737107I-24J1000017D01*
G01*
X105432786Y-126204990D02*
G75*
G03*
X106139893Y-125912107I14J999990D01*
G01*
D51*
%TO.N,DIS*%
X123561000Y-113747000D02*
X124533862Y-113747000D01*
D52*
X137547000Y-95827714D02*
X137547000Y-96488500D01*
X132126588Y-88232000D02*
X132126588Y-106012000D01*
D51*
X125240969Y-113454107D02*
X125298076Y-113397000D01*
D52*
X131977088Y-106012000D02*
X132126588Y-106012000D01*
X132126588Y-83161412D02*
X132126588Y-88232000D01*
X125936500Y-106012000D02*
X127818000Y-106012000D01*
X132126588Y-106012000D02*
X132126588Y-110003500D01*
X137272000Y-70730000D02*
X136236214Y-70730000D01*
X131977088Y-88232000D02*
X132126588Y-88232000D01*
X135529107Y-71022893D02*
X132419481Y-74132519D01*
X132126588Y-74839626D02*
X132126588Y-83161412D01*
X134460893Y-92327393D02*
X137254107Y-95120607D01*
X134168000Y-88232000D02*
X134168000Y-91620286D01*
X137420000Y-121335000D02*
X137420000Y-119778000D01*
X132126588Y-110173614D02*
X128903202Y-113397000D01*
X128903202Y-113397000D02*
X125537472Y-113397000D01*
X137547000Y-71005000D02*
X137272000Y-70730000D01*
D51*
X125298076Y-113397000D02*
X125537472Y-113397000D01*
D52*
X132126588Y-110000000D02*
X132126588Y-110173614D01*
X137420000Y-119778000D02*
X137470000Y-119728000D01*
X137547000Y-71805000D02*
X137547000Y-71005000D01*
X137546990Y-95827714D02*
G75*
G03*
X137254107Y-95120607I-999990J14D01*
G01*
X132419466Y-74132504D02*
G75*
G03*
X132126588Y-74839626I707134J-707096D01*
G01*
X134168010Y-91620286D02*
G75*
G03*
X134460893Y-92327393I999990J-14D01*
G01*
X136236214Y-70730010D02*
G75*
G03*
X135529107Y-71022893I-14J-999990D01*
G01*
D51*
X124533862Y-113746973D02*
G75*
G03*
X125240969Y-113454107I38J999973D01*
G01*
D55*
%TO.N,MEAS_VBAT*%
X129088000Y-123895500D02*
X129191500Y-123999000D01*
D51*
X123561000Y-112247000D02*
X122091000Y-112247000D01*
D55*
X129191500Y-123999000D02*
X130358000Y-123999000D01*
D51*
X122091000Y-112247000D02*
X121976000Y-112362000D01*
D55*
X128984500Y-123999000D02*
X129088000Y-123895500D01*
X127818000Y-123999000D02*
X128984500Y-123999000D01*
D52*
%TO.N,LED2*%
X128072000Y-90922500D02*
X128072000Y-91280000D01*
X128707000Y-110965000D02*
X128672000Y-111000000D01*
X130046000Y-93668214D02*
X130046000Y-109211786D01*
X129753107Y-109918893D02*
X128707000Y-110965000D01*
X128072000Y-91280000D02*
X129753107Y-92961107D01*
D51*
X128425000Y-111247000D02*
X128707000Y-110965000D01*
X123561000Y-111247000D02*
X128425000Y-111247000D01*
D52*
X130045990Y-93668214D02*
G75*
G03*
X129753107Y-92961107I-999990J14D01*
G01*
X129753114Y-109918900D02*
G75*
G03*
X130046000Y-109211786I-707114J707100D01*
G01*
%TO.N,/BOOT 0*%
X101376000Y-111449500D02*
X101689286Y-111449500D01*
X115248098Y-109183902D02*
X115343107Y-109088893D01*
X102396393Y-111156607D02*
X104551000Y-109002000D01*
X114425009Y-109476795D02*
X114540991Y-109476795D01*
X115636000Y-108381786D02*
X115636000Y-108270830D01*
D51*
X115636000Y-107322000D02*
X115636000Y-108200120D01*
D52*
X105270214Y-108697000D02*
X112816786Y-108697000D01*
X113523893Y-108989893D02*
X113717902Y-109183902D01*
X104551000Y-109002000D02*
X104563107Y-108989893D01*
X114540991Y-109476790D02*
G75*
G03*
X115248098Y-109183902I9J999990D01*
G01*
X113717899Y-109183905D02*
G75*
G03*
X114425009Y-109476795I707101J707105D01*
G01*
X101689286Y-111449490D02*
G75*
G03*
X102396393Y-111156607I14J999990D01*
G01*
X113523900Y-108989886D02*
G75*
G03*
X112816786Y-108697000I-707100J-707114D01*
G01*
X105270214Y-108697010D02*
G75*
G03*
X104563107Y-108989893I-14J-999990D01*
G01*
X115343114Y-109088900D02*
G75*
G03*
X115636000Y-108381786I-707114J707100D01*
G01*
%TO.N,LED1*%
X130353107Y-110334893D02*
X128872893Y-111815107D01*
X130646000Y-90913000D02*
X130646000Y-109627786D01*
D51*
X126185893Y-112039893D02*
X126254000Y-112108000D01*
D52*
X128165786Y-112108000D02*
X126254000Y-112108000D01*
D51*
X123561000Y-111747000D02*
X125478786Y-111747000D01*
X126185900Y-112039886D02*
G75*
G03*
X125478786Y-111747000I-707100J-707114D01*
G01*
D52*
X128165786Y-112107990D02*
G75*
G03*
X128872893Y-111815107I14J999990D01*
G01*
X130353114Y-110334900D02*
G75*
G03*
X130646000Y-109627786I-707114J707100D01*
G01*
D57*
%TO.N,SPI1_SCK*%
X116950758Y-101843072D02*
X116926893Y-101866937D01*
D52*
X109872107Y-99242107D02*
X108260000Y-97630000D01*
D51*
X118136000Y-105280000D02*
X118136000Y-107322000D01*
X118420000Y-104996000D02*
X118136000Y-105280000D01*
D52*
X112705000Y-99535000D02*
X110579214Y-99535000D01*
D57*
X116634000Y-102574044D02*
X116634000Y-102737500D01*
D52*
X109872100Y-99242114D02*
G75*
G03*
X110579214Y-99535000I707100J707114D01*
G01*
D57*
X116926871Y-101866915D02*
G75*
G03*
X116634000Y-102574044I707129J-707085D01*
G01*
D51*
%TO.N,SPI1_MISO*%
X117636000Y-103494000D02*
X117796500Y-103333500D01*
X113047107Y-103052107D02*
X112070000Y-102075000D01*
X113340000Y-103772500D02*
X113340000Y-103759214D01*
X117343107Y-108866893D02*
X117150000Y-109060000D01*
X117796500Y-103333500D02*
X117796500Y-102600000D01*
X117636000Y-107322000D02*
X117636000Y-108159786D01*
X117636000Y-107322000D02*
X117636000Y-103494000D01*
X113339990Y-103759214D02*
G75*
G03*
X113047107Y-103052107I-999990J14D01*
G01*
X117343114Y-108866900D02*
G75*
G03*
X117636000Y-108159786I-707114J707100D01*
G01*
%TO.N,SPI1_MOSI*%
X117136000Y-104601000D02*
X117134000Y-104599000D01*
D52*
X116700893Y-104864893D02*
X117086000Y-105250000D01*
D51*
X117136000Y-105300000D02*
X117136000Y-107322000D01*
X117136000Y-105200000D02*
X117086000Y-105250000D01*
X117136000Y-104601000D02*
X117136000Y-105200000D01*
D52*
X111171214Y-104572000D02*
X115993786Y-104572000D01*
D51*
X117134000Y-104599000D02*
X117134000Y-103171144D01*
X117086000Y-105250000D02*
X117136000Y-105300000D01*
D57*
X117134000Y-102737500D02*
X117134000Y-103171144D01*
D52*
X108260000Y-102075000D02*
X110464107Y-104279107D01*
X110464100Y-104279114D02*
G75*
G03*
X111171214Y-104572000I707100J707114D01*
G01*
X116700900Y-104864886D02*
G75*
G03*
X115993786Y-104572000I-707100J-707114D01*
G01*
D51*
%TO.N,SPI1_CS_IMU*%
X118636000Y-107322000D02*
X118636000Y-108514000D01*
D57*
X115599788Y-103345000D02*
X116134000Y-102810788D01*
D52*
X114317107Y-99877107D02*
X112070000Y-97630000D01*
D57*
X116134000Y-102810788D02*
X116134000Y-102737500D01*
D52*
X114610000Y-102303640D02*
X114610000Y-100584214D01*
D51*
X118636000Y-108514000D02*
X118674000Y-108552000D01*
D57*
X115245000Y-103345000D02*
X115599788Y-103345000D01*
D52*
X115237146Y-103345000D02*
X114902893Y-103010747D01*
X115245000Y-103345000D02*
X115237146Y-103345000D01*
X114609990Y-100584214D02*
G75*
G03*
X114317107Y-99877107I-999990J14D01*
G01*
X114609972Y-102303640D02*
G75*
G03*
X114902893Y-103010747I1000028J40D01*
G01*
D51*
%TO.N,OSCILATEUR*%
X110506000Y-111247000D02*
X112211000Y-111247000D01*
X110266000Y-111007000D02*
X110506000Y-111247000D01*
D52*
%TO.N,DIR2*%
X132136000Y-114254664D02*
X132066332Y-114324332D01*
X136547000Y-106438500D02*
X136547000Y-108044786D01*
X134526588Y-110893626D02*
X134526588Y-111449862D01*
X126040000Y-117696000D02*
X125786000Y-117696000D01*
X132136000Y-114140000D02*
X132136000Y-114254664D01*
X124472786Y-116797000D02*
X123561000Y-116797000D01*
X136254107Y-108751893D02*
X134819481Y-110186519D01*
X125786000Y-117696000D02*
X125179893Y-117089893D01*
X134233695Y-112156969D02*
X132066332Y-114324332D01*
X136254114Y-108751900D02*
G75*
G03*
X136547000Y-108044786I-707114J707100D01*
G01*
X134819466Y-110186504D02*
G75*
G03*
X134526588Y-110893626I707134J-707096D01*
G01*
X134233711Y-112156985D02*
G75*
G03*
X134526588Y-111449862I-707111J707085D01*
G01*
X125179900Y-117089886D02*
G75*
G03*
X124472786Y-116797000I-707100J-707114D01*
G01*
%TO.N,DIR1*%
X132784922Y-85517078D02*
X132726588Y-85517078D01*
D51*
X125155183Y-114247000D02*
X125405183Y-113997000D01*
D52*
X129151730Y-113997000D02*
X125786000Y-113997000D01*
D51*
X125405183Y-113997000D02*
X125786000Y-113997000D01*
D52*
X132433695Y-111129249D02*
X129858837Y-113704107D01*
D51*
X123561000Y-114247000D02*
X125155183Y-114247000D01*
D52*
X132726588Y-85517078D02*
X132726588Y-110422142D01*
X136547000Y-81755000D02*
X132784922Y-85517078D01*
X132433671Y-111129225D02*
G75*
G03*
X132726588Y-110422142I-707071J707125D01*
G01*
X129151730Y-113997021D02*
G75*
G03*
X129858837Y-113704107I-30J1000021D01*
G01*
%TO.N,PWM1*%
X133326588Y-110670670D02*
X133326588Y-86947626D01*
X125786000Y-114597000D02*
X129400258Y-114597000D01*
X133926588Y-74839626D02*
X133926588Y-82631412D01*
X130107365Y-114304107D02*
X133033695Y-111377777D01*
D51*
X125786000Y-114597000D02*
X125608183Y-114597000D01*
D52*
X136547000Y-71805000D02*
X134219481Y-74132519D01*
D51*
X125608183Y-114597000D02*
X125458183Y-114747000D01*
D52*
X133926588Y-82631412D02*
X133914000Y-82644000D01*
D51*
X125458183Y-114747000D02*
X123561000Y-114747000D01*
D52*
X133619481Y-86240519D02*
X133914000Y-85946000D01*
X134219466Y-74132504D02*
G75*
G03*
X133926588Y-74839626I707134J-707096D01*
G01*
X129400258Y-114596970D02*
G75*
G03*
X130107365Y-114304107I42J999970D01*
G01*
X133619466Y-86240504D02*
G75*
G03*
X133326588Y-86947626I707134J-707096D01*
G01*
X133033707Y-111377789D02*
G75*
G03*
X133326588Y-110670670I-707107J707089D01*
G01*
%TO.N,PWM2*%
X134219481Y-98816019D02*
X136547000Y-96488500D01*
X130355893Y-114904107D02*
X133633695Y-111626305D01*
X125786000Y-115197000D02*
X129648786Y-115197000D01*
D51*
X125786000Y-115197000D02*
X125736000Y-115247000D01*
X125736000Y-115247000D02*
X123561000Y-115247000D01*
D52*
X133926588Y-110919198D02*
X133926588Y-99523126D01*
X129648786Y-115196990D02*
G75*
G03*
X130355893Y-114904107I14J999990D01*
G01*
X133633693Y-111626303D02*
G75*
G03*
X133926588Y-110919198I-707093J707103D01*
G01*
X134219466Y-98816004D02*
G75*
G03*
X133926588Y-99523126I707134J-707096D01*
G01*
%TO.N,PWM3*%
X130467786Y-115797000D02*
X126714818Y-115797000D01*
D51*
X126664818Y-115747000D02*
X126714818Y-115797000D01*
X123561000Y-115747000D02*
X126664818Y-115747000D01*
D52*
X136420000Y-121335000D02*
X131174893Y-116089893D01*
X131174900Y-116089886D02*
G75*
G03*
X130467786Y-115797000I-707100J-707114D01*
G01*
%TO.N,DIR3*%
X136420000Y-131285000D02*
X135979214Y-131285000D01*
X135272107Y-130992107D02*
X132936893Y-128656893D01*
X126537000Y-116397000D02*
X126466290Y-116397000D01*
D51*
X123561000Y-116247000D02*
X126387000Y-116247000D01*
D52*
X132644000Y-127949786D02*
X132644000Y-122918214D01*
X132351107Y-122211107D02*
X126537000Y-116397000D01*
X132643990Y-122918214D02*
G75*
G03*
X132351107Y-122211107I-999990J14D01*
G01*
X135272100Y-130992114D02*
G75*
G03*
X135979214Y-131285000I707100J707114D01*
G01*
X132644010Y-127949786D02*
G75*
G03*
X132936893Y-128656893I999990J-14D01*
G01*
D51*
%TO.N,ERROR_FLAG*%
X123561000Y-113247000D02*
X122775214Y-113247000D01*
X122068107Y-113539893D02*
X121976000Y-113632000D01*
X122775214Y-113247010D02*
G75*
G03*
X122068107Y-113539893I-14J-999990D01*
G01*
%TO.N,IMU_INT1*%
X119136000Y-105527077D02*
X119336000Y-105327077D01*
D57*
X117796500Y-101075000D02*
X119182000Y-101075000D01*
D51*
X119336000Y-105327077D02*
X119336000Y-102964000D01*
D57*
X119182000Y-101075000D02*
X119340710Y-101233710D01*
D51*
X119136000Y-107322000D02*
X119136000Y-105527077D01*
D57*
X119136000Y-107322000D02*
X119111000Y-107297000D01*
X119340710Y-101233710D02*
X119361000Y-101254000D01*
X119361000Y-101254000D02*
X119361000Y-102964000D01*
D52*
%TO.N,Net-(U2-SO)*%
X137053893Y-109006607D02*
X138254107Y-107806393D01*
X138547000Y-107099286D02*
X138547000Y-106438500D01*
X140127107Y-119008107D02*
X137053893Y-115934893D01*
X140420000Y-121335000D02*
X140420000Y-119715214D01*
X136761000Y-115227786D02*
X136761000Y-109713714D01*
X140419990Y-119715214D02*
G75*
G03*
X140127107Y-119008107I-999990J14D01*
G01*
X136761010Y-115227786D02*
G75*
G03*
X137053893Y-115934893I999990J-14D01*
G01*
X138254114Y-107806400D02*
G75*
G03*
X138547000Y-107099286I-707114J707100D01*
G01*
X137053886Y-109006600D02*
G75*
G03*
X136761000Y-109713714I707114J-707100D01*
G01*
%TO.N,Net-(U2-SI)*%
X140254107Y-94497107D02*
X137561893Y-91804893D01*
X140547000Y-96488500D02*
X140547000Y-95204214D01*
X138547000Y-82415786D02*
X138547000Y-81755000D01*
X137269000Y-91097786D02*
X137269000Y-84522214D01*
X137561893Y-83815107D02*
X138254107Y-83122893D01*
X137561886Y-83815100D02*
G75*
G03*
X137269000Y-84522214I707114J-707100D01*
G01*
X138254114Y-83122900D02*
G75*
G03*
X138547000Y-82415786I-707114J707100D01*
G01*
X140546990Y-95204214D02*
G75*
G03*
X140254107Y-94497107I-999990J14D01*
G01*
X137269010Y-91097786D02*
G75*
G03*
X137561893Y-91804893I999990J-14D01*
G01*
%TO.N,Net-(LED1-A)*%
X130646000Y-89088000D02*
X130646000Y-87250000D01*
X130646000Y-87250000D02*
X130612000Y-87216000D01*
%TO.N,Net-(LED2-A)*%
X128072000Y-89097500D02*
X128072000Y-87225500D01*
D53*
%TO.N,Net-(MOT1-Pin_1)*%
X141027000Y-80000000D02*
X140839893Y-80187107D01*
X144387107Y-79612893D02*
X144292893Y-79707107D01*
X148265000Y-79320000D02*
X145094214Y-79320000D01*
X140547000Y-81755000D02*
X140547000Y-80894214D01*
X143585786Y-80000000D02*
X141027000Y-80000000D01*
X143585786Y-79999990D02*
G75*
G03*
X144292893Y-79707107I14J999990D01*
G01*
X140839886Y-80187100D02*
G75*
G03*
X140547000Y-80894214I707114J-707100D01*
G01*
X145094214Y-79320010D02*
G75*
G03*
X144387107Y-79612893I-14J-999990D01*
G01*
%TO.N,Net-(MOT1-Pin_2)*%
X146244214Y-74240000D02*
X148265000Y-74240000D01*
X143687893Y-72097893D02*
X145537107Y-73947107D01*
X141547000Y-71805000D02*
X142980786Y-71805000D01*
X145537100Y-73947114D02*
G75*
G03*
X146244214Y-74240000I707100J707114D01*
G01*
X143687900Y-72097886D02*
G75*
G03*
X142980786Y-71805000I-707100J-707114D01*
G01*
%TO.N,Net-(MOT2-Pin_1)*%
X147186500Y-105163500D02*
X148265000Y-104085000D01*
X143622107Y-104377893D02*
X143292893Y-104707107D01*
X142585786Y-105000000D02*
X140710500Y-105000000D01*
X140710500Y-105000000D02*
X140547000Y-105163500D01*
X140547000Y-106438500D02*
X140547000Y-105163500D01*
X148265000Y-104085000D02*
X144329214Y-104085000D01*
X144329214Y-104085010D02*
G75*
G03*
X143622107Y-104377893I-14J-999990D01*
G01*
X142585786Y-104999990D02*
G75*
G03*
X143292893Y-104707107I14J999990D01*
G01*
%TO.N,Net-(MOT2-Pin_2)*%
X145609214Y-99005000D02*
X148265000Y-99005000D01*
X142971393Y-96781393D02*
X144902107Y-98712107D01*
X141547000Y-96488500D02*
X142264286Y-96488500D01*
X144902100Y-98712114D02*
G75*
G03*
X145609214Y-99005000I707100J707114D01*
G01*
X142971400Y-96781386D02*
G75*
G03*
X142264286Y-96488500I-707100J-707114D01*
G01*
%TO.N,Net-(MOT3-Pin_1)*%
X141440214Y-129634000D02*
X144421786Y-129634000D01*
X146034214Y-128850000D02*
X148265000Y-128850000D01*
X140712893Y-129947107D02*
X140733107Y-129926893D01*
X145128893Y-129341107D02*
X145327107Y-129142893D01*
X140420000Y-131285000D02*
X140420000Y-130654214D01*
X140712886Y-129947100D02*
G75*
G03*
X140420000Y-130654214I707114J-707100D01*
G01*
X141440214Y-129634010D02*
G75*
G03*
X140733107Y-129926893I-14J-999990D01*
G01*
X144421786Y-129633990D02*
G75*
G03*
X145128893Y-129341107I14J999990D01*
G01*
X146034214Y-128850010D02*
G75*
G03*
X145327107Y-129142893I-14J-999990D01*
G01*
%TO.N,Net-(MOT3-Pin_2)*%
X146244214Y-123770000D02*
X148265000Y-123770000D01*
X141420000Y-121335000D02*
X142980786Y-121335000D01*
X143687893Y-121627893D02*
X145537107Y-123477107D01*
X145537100Y-123477114D02*
G75*
G03*
X146244214Y-123770000I707100J707114D01*
G01*
X143687900Y-121627886D02*
G75*
G03*
X142980786Y-121335000I-707100J-707114D01*
G01*
D51*
%TO.N,Net-(USB-C1-CC1)*%
X128048000Y-69905000D02*
X128048000Y-72523000D01*
X128048000Y-72523000D02*
X128263000Y-72738000D01*
%TO.N,Net-(USB-C1-CC2)*%
X125048000Y-69905000D02*
X125048000Y-72699000D01*
X125048000Y-72699000D02*
X125087000Y-72738000D01*
D53*
%TO.N,Net-(D5-A)*%
X105593000Y-130095000D02*
X106706786Y-130095000D01*
X107413893Y-130387893D02*
X107879000Y-130853000D01*
X107413900Y-130387886D02*
G75*
G03*
X106706786Y-130095000I-707100J-707114D01*
G01*
%TD*%
%TA.AperFunction,Conductor*%
%TO.N,Net-(MOT1-Pin_2)*%
G36*
X143132053Y-70945895D02*
G01*
X145143000Y-71700000D01*
X152131000Y-71700000D01*
X152198039Y-71719685D01*
X152243794Y-71772489D01*
X152255000Y-71824000D01*
X152255000Y-76148000D01*
X152235315Y-76215039D01*
X152182511Y-76260794D01*
X152131000Y-76272000D01*
X145968813Y-76272000D01*
X145901774Y-76252315D01*
X145867910Y-76220074D01*
X144634999Y-74493999D01*
X142095006Y-73478002D01*
X142095003Y-73478001D01*
X142095000Y-73478000D01*
X141480285Y-73324321D01*
X141172925Y-73247481D01*
X141112662Y-73212124D01*
X141081080Y-73149800D01*
X141079000Y-73127183D01*
X141079000Y-73012314D01*
X141098685Y-72945275D01*
X141128687Y-72913048D01*
X141229546Y-72837546D01*
X141315796Y-72722331D01*
X141366091Y-72587483D01*
X141372500Y-72527873D01*
X141372499Y-71082128D01*
X141371760Y-71075254D01*
X141384166Y-71006495D01*
X141431777Y-70955358D01*
X141495050Y-70938000D01*
X143088514Y-70938000D01*
X143132053Y-70945895D01*
G37*
%TD.AperFunction*%
%TD*%
%TA.AperFunction,Conductor*%
%TO.N,Net-(MOT1-Pin_1)*%
G36*
X152147239Y-76825085D02*
G01*
X152192994Y-76877889D01*
X152204200Y-76929400D01*
X152204200Y-81761400D01*
X152184515Y-81828439D01*
X152131711Y-81874194D01*
X152080200Y-81885400D01*
X150934200Y-81885400D01*
X146506567Y-81885400D01*
X146472502Y-81880629D01*
X142107895Y-80633598D01*
X142103259Y-80632074D01*
X141979486Y-80585910D01*
X141979485Y-80585909D01*
X141979483Y-80585909D01*
X141919873Y-80579500D01*
X141919863Y-80579500D01*
X141174129Y-80579500D01*
X141174123Y-80579501D01*
X141114516Y-80585908D01*
X141089615Y-80595196D01*
X141019923Y-80600178D01*
X141002952Y-80595195D01*
X140979379Y-80586403D01*
X140979372Y-80586401D01*
X140919844Y-80580000D01*
X140797000Y-80580000D01*
X140797000Y-80615400D01*
X140774200Y-80615400D01*
X140774200Y-80848401D01*
X140727908Y-80972517D01*
X140721501Y-81032116D01*
X140721500Y-81032127D01*
X140721500Y-81717112D01*
X140721501Y-81881000D01*
X140701817Y-81948039D01*
X140649013Y-81993794D01*
X140597501Y-82005000D01*
X140496500Y-82005000D01*
X140429461Y-81985315D01*
X140383706Y-81932511D01*
X140372500Y-81881000D01*
X140372499Y-81032129D01*
X140372498Y-81032123D01*
X140372497Y-81032116D01*
X140366091Y-80972517D01*
X140315796Y-80837669D01*
X140315793Y-80837665D01*
X140312168Y-80831026D01*
X140297000Y-80771598D01*
X140297000Y-80580000D01*
X140263200Y-80580000D01*
X140196161Y-80560315D01*
X140150406Y-80507511D01*
X140139200Y-80456000D01*
X140139200Y-79857296D01*
X140149252Y-79808389D01*
X140151540Y-79803058D01*
X140192500Y-79603741D01*
X140192667Y-79602100D01*
X140193010Y-79601256D01*
X140193766Y-79597581D01*
X140194451Y-79597721D01*
X140219035Y-79537396D01*
X140276197Y-79497219D01*
X140316031Y-79490647D01*
X141627587Y-79490647D01*
X141642374Y-79489320D01*
X141642351Y-79489098D01*
X141651158Y-79488148D01*
X141651168Y-79488149D01*
X141681760Y-79480333D01*
X141697709Y-79476259D01*
X141728402Y-79472400D01*
X142044201Y-79472400D01*
X143314200Y-79091400D01*
X144584200Y-78710400D01*
X145509091Y-77323062D01*
X145817389Y-76860617D01*
X145870954Y-76815756D01*
X145920563Y-76805400D01*
X152080200Y-76805400D01*
X152147239Y-76825085D01*
G37*
%TD.AperFunction*%
%TD*%
%TA.AperFunction,Conductor*%
%TO.N,Net-(MOT2-Pin_2)*%
G36*
X143132053Y-95837895D02*
G01*
X143262896Y-95886961D01*
X145143000Y-96592000D01*
X152131000Y-96592000D01*
X152198039Y-96611685D01*
X152243794Y-96664489D01*
X152255000Y-96716000D01*
X152255000Y-101040000D01*
X152235315Y-101107039D01*
X152182511Y-101152794D01*
X152131000Y-101164000D01*
X145968813Y-101164000D01*
X145901774Y-101144315D01*
X145867910Y-101112074D01*
X144634999Y-99385999D01*
X142095006Y-98370002D01*
X142095003Y-98370001D01*
X142095000Y-98370000D01*
X141480285Y-98216321D01*
X141172925Y-98139481D01*
X141112662Y-98104124D01*
X141081080Y-98041800D01*
X141079000Y-98019183D01*
X141079000Y-97695814D01*
X141098685Y-97628775D01*
X141128687Y-97596548D01*
X141229546Y-97521046D01*
X141315796Y-97405831D01*
X141366091Y-97270983D01*
X141372500Y-97211373D01*
X141372499Y-95953999D01*
X141392184Y-95886961D01*
X141444987Y-95841206D01*
X141496499Y-95830000D01*
X143088514Y-95830000D01*
X143132053Y-95837895D01*
G37*
%TD.AperFunction*%
%TD*%
%TA.AperFunction,Conductor*%
%TO.N,+BATT*%
G36*
X139664539Y-81524685D02*
G01*
X139710294Y-81577489D01*
X139721500Y-81629000D01*
X139721500Y-82477870D01*
X139721501Y-82477876D01*
X139727908Y-82537483D01*
X139778202Y-82672328D01*
X139781830Y-82678971D01*
X139797000Y-82738402D01*
X139797000Y-82930000D01*
X139923149Y-82930000D01*
X139923149Y-82931196D01*
X139968731Y-82938503D01*
X145572187Y-85131160D01*
X145627442Y-85173919D01*
X145650810Y-85239766D01*
X145651000Y-85246633D01*
X145651000Y-91888000D01*
X145631315Y-91955039D01*
X145578511Y-92000794D01*
X145527000Y-92012000D01*
X139425000Y-92012000D01*
X139357961Y-91992315D01*
X139312206Y-91939511D01*
X139301000Y-91888000D01*
X139301000Y-85815278D01*
X139320685Y-85748239D01*
X139373489Y-85702484D01*
X139437604Y-85691920D01*
X139516685Y-85699999D01*
X139540000Y-85699998D01*
X139540000Y-84975000D01*
X140040000Y-84975000D01*
X140040000Y-85699999D01*
X140063308Y-85699999D01*
X140063322Y-85699998D01*
X140162607Y-85689855D01*
X140323481Y-85636547D01*
X140323492Y-85636542D01*
X140467728Y-85547575D01*
X140467732Y-85547572D01*
X140587572Y-85427732D01*
X140587575Y-85427728D01*
X140676542Y-85283492D01*
X140676547Y-85283481D01*
X140729855Y-85122606D01*
X140739999Y-85023322D01*
X140740000Y-85023309D01*
X140740000Y-84975000D01*
X140040000Y-84975000D01*
X139540000Y-84975000D01*
X139540000Y-83750000D01*
X140040000Y-83750000D01*
X140040000Y-84475000D01*
X140739999Y-84475000D01*
X140739999Y-84426692D01*
X140739998Y-84426677D01*
X140729855Y-84327392D01*
X140676547Y-84166518D01*
X140676542Y-84166507D01*
X140587575Y-84022271D01*
X140587572Y-84022267D01*
X140467732Y-83902427D01*
X140467728Y-83902424D01*
X140323492Y-83813457D01*
X140323481Y-83813452D01*
X140162606Y-83760144D01*
X140063322Y-83750000D01*
X140040000Y-83750000D01*
X139540000Y-83750000D01*
X139540000Y-83749999D01*
X139516693Y-83750000D01*
X139516671Y-83750001D01*
X139437601Y-83758079D01*
X139368908Y-83745309D01*
X139318024Y-83697428D01*
X139301000Y-83634721D01*
X139301000Y-82943131D01*
X139301000Y-82722731D01*
X139312170Y-82678971D01*
X139315793Y-82672334D01*
X139315796Y-82672331D01*
X139366091Y-82537483D01*
X139372500Y-82477873D01*
X139372499Y-81628998D01*
X139392183Y-81561961D01*
X139444987Y-81516206D01*
X139496499Y-81505000D01*
X139597500Y-81505000D01*
X139664539Y-81524685D01*
G37*
%TD.AperFunction*%
%TD*%
%TA.AperFunction,Conductor*%
%TO.N,Net-(MOT3-Pin_2)*%
G36*
X143132053Y-120475895D02*
G01*
X145143000Y-121230000D01*
X152131000Y-121230000D01*
X152198039Y-121249685D01*
X152243794Y-121302489D01*
X152255000Y-121354000D01*
X152255000Y-125678000D01*
X152235315Y-125745039D01*
X152182511Y-125790794D01*
X152131000Y-125802000D01*
X145968813Y-125802000D01*
X145901774Y-125782315D01*
X145867910Y-125750074D01*
X144634999Y-124023999D01*
X142095006Y-123008002D01*
X142095003Y-123008001D01*
X142095000Y-123008000D01*
X141480285Y-122854321D01*
X141172925Y-122777481D01*
X141112662Y-122742124D01*
X141081080Y-122679800D01*
X141079000Y-122657183D01*
X141079000Y-122440271D01*
X141098685Y-122373232D01*
X141103733Y-122365960D01*
X141188796Y-122252331D01*
X141239091Y-122117483D01*
X141245500Y-122057873D01*
X141245499Y-120612128D01*
X141244760Y-120605254D01*
X141257166Y-120536495D01*
X141304777Y-120485358D01*
X141368050Y-120468000D01*
X143088514Y-120468000D01*
X143132053Y-120475895D01*
G37*
%TD.AperFunction*%
%TD*%
%TA.AperFunction,Conductor*%
%TO.N,Net-(MOT3-Pin_1)*%
G36*
X152198039Y-126329685D02*
G01*
X152243794Y-126382489D01*
X152255000Y-126434000D01*
X152255000Y-131266000D01*
X152235315Y-131333039D01*
X152182511Y-131378794D01*
X152131000Y-131390000D01*
X150985000Y-131390000D01*
X146557367Y-131390000D01*
X146523302Y-131385229D01*
X142095004Y-130120000D01*
X142095000Y-130120000D01*
X141884247Y-130120000D01*
X141855735Y-130116677D01*
X141852484Y-130115909D01*
X141792882Y-130109501D01*
X141792873Y-130109500D01*
X141792863Y-130109500D01*
X141047129Y-130109500D01*
X141047123Y-130109501D01*
X140987515Y-130115909D01*
X140984270Y-130116676D01*
X140955752Y-130120000D01*
X140882053Y-130120000D01*
X140853539Y-130116677D01*
X140852373Y-130116401D01*
X140792844Y-130110000D01*
X140670000Y-130110000D01*
X140670000Y-130301598D01*
X140654832Y-130361026D01*
X140651202Y-130367672D01*
X140600908Y-130502517D01*
X140594501Y-130562116D01*
X140594500Y-130562127D01*
X140594500Y-131266000D01*
X140594501Y-131411000D01*
X140574817Y-131478039D01*
X140522013Y-131523794D01*
X140470501Y-131535000D01*
X140369500Y-131535000D01*
X140302461Y-131515315D01*
X140256706Y-131462511D01*
X140245500Y-131411000D01*
X140245499Y-130562129D01*
X140245498Y-130562123D01*
X140245497Y-130562116D01*
X140239091Y-130502517D01*
X140190000Y-130370897D01*
X140190000Y-129158517D01*
X140191883Y-129139997D01*
X140191864Y-129139995D01*
X140192667Y-129132100D01*
X140193011Y-129131254D01*
X140193767Y-129127579D01*
X140194452Y-129127719D01*
X140219035Y-129067396D01*
X140276197Y-129027219D01*
X140316031Y-129020647D01*
X141500587Y-129020647D01*
X141515374Y-129019320D01*
X141515351Y-129019098D01*
X141524158Y-129018148D01*
X141524168Y-129018149D01*
X141663612Y-128982524D01*
X141664606Y-128982112D01*
X141664605Y-128982111D01*
X141665549Y-128981720D01*
X141667322Y-128980987D01*
X141667329Y-128980982D01*
X141668551Y-128980477D01*
X141668593Y-128980459D01*
X141697244Y-128968583D01*
X141715406Y-128954729D01*
X141762227Y-128929163D01*
X141787912Y-128905248D01*
X141850390Y-128873971D01*
X141872411Y-128872000D01*
X142094999Y-128872000D01*
X142095000Y-128872000D01*
X144635000Y-128215000D01*
X145559891Y-126827662D01*
X145868189Y-126365217D01*
X145921754Y-126320356D01*
X145971363Y-126310000D01*
X152131000Y-126310000D01*
X152198039Y-126329685D01*
G37*
%TD.AperFunction*%
%TD*%
%TA.AperFunction,Conductor*%
%TO.N,+BATT*%
G36*
X126775879Y-127599549D02*
G01*
X126824890Y-127614821D01*
X129838255Y-129302622D01*
X129887126Y-129352557D01*
X129901613Y-129414228D01*
X129849999Y-131285000D01*
X135564999Y-135095000D01*
X135565000Y-135095000D01*
X135565000Y-134174752D01*
X135584685Y-134107713D01*
X135637489Y-134061958D01*
X135706647Y-134052014D01*
X135754098Y-134069214D01*
X135806512Y-134101544D01*
X135806518Y-134101547D01*
X135967393Y-134154855D01*
X136066683Y-134164999D01*
X136090000Y-134164998D01*
X136090000Y-133440000D01*
X136590000Y-133440000D01*
X136590000Y-134164999D01*
X136613308Y-134164999D01*
X136613322Y-134164998D01*
X136712607Y-134154855D01*
X136873481Y-134101547D01*
X136873492Y-134101542D01*
X137017728Y-134012575D01*
X137017732Y-134012572D01*
X137137572Y-133892732D01*
X137137575Y-133892728D01*
X137226542Y-133748492D01*
X137226547Y-133748481D01*
X137279855Y-133587606D01*
X137289999Y-133488322D01*
X137290000Y-133488309D01*
X137290000Y-133440000D01*
X136590000Y-133440000D01*
X136090000Y-133440000D01*
X136090000Y-133064000D01*
X136109685Y-132996961D01*
X136162489Y-132951206D01*
X136214000Y-132940000D01*
X137289999Y-132940000D01*
X137289999Y-132891692D01*
X137289998Y-132891677D01*
X137279855Y-132792392D01*
X137255206Y-132718004D01*
X137252804Y-132648175D01*
X137288536Y-132588134D01*
X137351057Y-132556941D01*
X137372912Y-132555000D01*
X138994000Y-132555000D01*
X139006055Y-132542944D01*
X139013685Y-132516961D01*
X139066489Y-132471206D01*
X139118000Y-132460000D01*
X139170000Y-132460000D01*
X139170000Y-132268402D01*
X139185170Y-132208971D01*
X139188793Y-132202334D01*
X139188796Y-132202331D01*
X139239091Y-132067483D01*
X139245500Y-132007873D01*
X139245499Y-131158998D01*
X139265183Y-131091961D01*
X139317987Y-131046206D01*
X139369499Y-131035000D01*
X139470500Y-131035000D01*
X139537539Y-131054685D01*
X139583294Y-131107489D01*
X139594500Y-131159000D01*
X139594500Y-132007870D01*
X139594501Y-132007876D01*
X139600908Y-132067483D01*
X139651202Y-132202328D01*
X139654830Y-132208971D01*
X139670000Y-132268402D01*
X139670000Y-132460000D01*
X139685796Y-132475796D01*
X139699039Y-132479685D01*
X139744794Y-132532489D01*
X139747937Y-132546937D01*
X139756000Y-132555000D01*
X141199255Y-132555000D01*
X141266294Y-132574685D01*
X141312049Y-132627489D01*
X141312659Y-132628845D01*
X141831086Y-133801041D01*
X141841682Y-133851196D01*
X141841682Y-135181268D01*
X141912879Y-139413914D01*
X141894325Y-139481276D01*
X141842298Y-139527912D01*
X141788897Y-139540000D01*
X136872544Y-139540000D01*
X136805505Y-139520315D01*
X136803761Y-139519174D01*
X133026400Y-137000933D01*
X133023659Y-136998997D01*
X126347683Y-132006268D01*
X126347682Y-132006268D01*
X120298143Y-132006268D01*
X120231104Y-131986583D01*
X120210462Y-131969950D01*
X120182919Y-131942407D01*
X120090544Y-131850032D01*
X120090541Y-131850030D01*
X120090540Y-131850029D01*
X119946205Y-131761001D01*
X119946199Y-131760998D01*
X119946197Y-131760997D01*
X119886263Y-131741137D01*
X119785209Y-131707651D01*
X119685846Y-131697500D01*
X119089162Y-131697500D01*
X119089144Y-131697501D01*
X118989792Y-131707650D01*
X118989789Y-131707651D01*
X118828805Y-131760996D01*
X118828794Y-131761001D01*
X118684459Y-131850029D01*
X118564538Y-131969950D01*
X118503215Y-132003434D01*
X118476857Y-132006268D01*
X118381027Y-132006268D01*
X118317231Y-131988597D01*
X117711682Y-131625268D01*
X117711681Y-131625268D01*
X113390682Y-131625268D01*
X113323643Y-131605583D01*
X113277888Y-131552779D01*
X113266682Y-131501268D01*
X113266682Y-131464626D01*
X113286367Y-131397587D01*
X113302996Y-131376949D01*
X113373081Y-131306865D01*
X113456744Y-131165398D01*
X113491373Y-131046206D01*
X113502597Y-131007573D01*
X113502598Y-131007567D01*
X113505500Y-130970696D01*
X113505500Y-129189304D01*
X113502598Y-129152432D01*
X113502597Y-129152426D01*
X113456745Y-128994606D01*
X113456744Y-128994603D01*
X113456744Y-128994602D01*
X113373081Y-128853135D01*
X113373079Y-128853133D01*
X113373076Y-128853129D01*
X113303001Y-128783054D01*
X113269516Y-128721731D01*
X113266682Y-128695373D01*
X113266682Y-128264772D01*
X113286367Y-128197733D01*
X113292640Y-128189952D01*
X113292231Y-128189646D01*
X113297546Y-128182546D01*
X113383796Y-128067331D01*
X113434091Y-127932483D01*
X113440500Y-127872873D01*
X113440499Y-127077128D01*
X113434091Y-127017517D01*
X113383796Y-126882669D01*
X113383795Y-126882668D01*
X113383793Y-126882664D01*
X113292232Y-126760355D01*
X113295001Y-126758281D01*
X113269500Y-126711511D01*
X113266682Y-126685227D01*
X113266682Y-126468179D01*
X113286367Y-126401140D01*
X113339171Y-126355385D01*
X113402263Y-126344721D01*
X126775879Y-127599549D01*
G37*
%TD.AperFunction*%
%TD*%
%TA.AperFunction,Conductor*%
%TO.N,+BATT*%
G36*
X139664539Y-106208185D02*
G01*
X139710294Y-106260989D01*
X139721500Y-106312500D01*
X139721500Y-107161370D01*
X139721501Y-107161376D01*
X139727908Y-107220983D01*
X139778202Y-107355828D01*
X139781830Y-107362471D01*
X139797000Y-107421902D01*
X139797000Y-107633717D01*
X139806166Y-107650504D01*
X139809000Y-107676862D01*
X139809000Y-107768000D01*
X145156525Y-109773322D01*
X145824539Y-110023827D01*
X145880399Y-110065798D01*
X145904700Y-110131305D01*
X145905000Y-110139932D01*
X145905000Y-116784000D01*
X145885315Y-116851039D01*
X145832511Y-116896794D01*
X145781000Y-116908000D01*
X139425000Y-116908000D01*
X139357961Y-116888315D01*
X139312206Y-116835511D01*
X139301000Y-116784000D01*
X139301000Y-110565278D01*
X139320685Y-110498239D01*
X139373489Y-110452484D01*
X139437604Y-110441920D01*
X139516685Y-110449999D01*
X139540000Y-110449998D01*
X139540000Y-109725000D01*
X140040000Y-109725000D01*
X140040000Y-110449999D01*
X140063308Y-110449999D01*
X140063322Y-110449998D01*
X140162607Y-110439855D01*
X140323481Y-110386547D01*
X140323492Y-110386542D01*
X140467728Y-110297575D01*
X140467732Y-110297572D01*
X140587572Y-110177732D01*
X140587575Y-110177728D01*
X140676542Y-110033492D01*
X140676547Y-110033481D01*
X140729855Y-109872606D01*
X140739999Y-109773322D01*
X140740000Y-109773309D01*
X140740000Y-109725000D01*
X140040000Y-109725000D01*
X139540000Y-109725000D01*
X139540000Y-108500000D01*
X140040000Y-108500000D01*
X140040000Y-109225000D01*
X140739999Y-109225000D01*
X140739999Y-109176692D01*
X140739998Y-109176677D01*
X140729855Y-109077392D01*
X140676547Y-108916518D01*
X140676542Y-108916507D01*
X140587575Y-108772271D01*
X140587572Y-108772267D01*
X140467732Y-108652427D01*
X140467728Y-108652424D01*
X140323492Y-108563457D01*
X140323481Y-108563452D01*
X140162606Y-108510144D01*
X140063322Y-108500000D01*
X140040000Y-108500000D01*
X139540000Y-108500000D01*
X139540000Y-108499999D01*
X139516693Y-108500000D01*
X139516671Y-108500001D01*
X139437601Y-108508079D01*
X139368908Y-108495309D01*
X139318024Y-108447428D01*
X139301000Y-108384721D01*
X139301000Y-107626631D01*
X139301000Y-107406231D01*
X139312170Y-107362471D01*
X139315793Y-107355834D01*
X139315796Y-107355831D01*
X139366091Y-107220983D01*
X139372500Y-107161373D01*
X139372499Y-106312498D01*
X139392183Y-106245461D01*
X139444987Y-106199706D01*
X139496499Y-106188500D01*
X139597500Y-106188500D01*
X139664539Y-106208185D01*
G37*
%TD.AperFunction*%
%TD*%
%TA.AperFunction,Conductor*%
%TO.N,Net-(Q2-G)*%
G36*
X112648039Y-126224685D02*
G01*
X112693794Y-126277489D01*
X112705000Y-126329000D01*
X112705000Y-131161000D01*
X112685315Y-131228039D01*
X112632511Y-131273794D01*
X112581000Y-131285000D01*
X109019000Y-131285000D01*
X108951961Y-131265315D01*
X108906206Y-131212511D01*
X108895000Y-131161000D01*
X108895000Y-130052544D01*
X108914685Y-129985505D01*
X108915826Y-129983761D01*
X111398189Y-126260217D01*
X111451754Y-126215356D01*
X111501363Y-126205000D01*
X112581000Y-126205000D01*
X112648039Y-126224685D01*
G37*
%TD.AperFunction*%
%TD*%
%TA.AperFunction,Conductor*%
%TO.N,Net-(MOT2-Pin_1)*%
G36*
X145968813Y-101669500D02*
G01*
X145968816Y-101669500D01*
X152131000Y-101669500D01*
X152198039Y-101689185D01*
X152243794Y-101741989D01*
X152255000Y-101793500D01*
X152255000Y-106501000D01*
X152235315Y-106568039D01*
X152182511Y-106613794D01*
X152131000Y-106625000D01*
X150985000Y-106625000D01*
X146557367Y-106625000D01*
X146523302Y-106620229D01*
X142224476Y-105391993D01*
X142184230Y-105372030D01*
X142114335Y-105319706D01*
X142114328Y-105319702D01*
X141979486Y-105269410D01*
X141979485Y-105269409D01*
X141979483Y-105269409D01*
X141919873Y-105263000D01*
X141919863Y-105263000D01*
X141174129Y-105263000D01*
X141174123Y-105263001D01*
X141114516Y-105269408D01*
X141089615Y-105278696D01*
X141019923Y-105283678D01*
X141002952Y-105278695D01*
X140979379Y-105269903D01*
X140979372Y-105269901D01*
X140919844Y-105263500D01*
X140797000Y-105263500D01*
X140797000Y-105455098D01*
X140781832Y-105514526D01*
X140778202Y-105521172D01*
X140727908Y-105656017D01*
X140721501Y-105715616D01*
X140721500Y-105715627D01*
X140721500Y-106331744D01*
X140721501Y-106564500D01*
X140701817Y-106631539D01*
X140649013Y-106677294D01*
X140597501Y-106688500D01*
X140496500Y-106688500D01*
X140429461Y-106668815D01*
X140383706Y-106616011D01*
X140372500Y-106564500D01*
X140372499Y-105715629D01*
X140372498Y-105715623D01*
X140372497Y-105715616D01*
X140366091Y-105656017D01*
X140315796Y-105521169D01*
X140315793Y-105521165D01*
X140312168Y-105514526D01*
X140297000Y-105455098D01*
X140297000Y-105263500D01*
X140289933Y-105256433D01*
X140246961Y-105243815D01*
X140201206Y-105191011D01*
X140190000Y-105139500D01*
X140190000Y-104805694D01*
X140209685Y-104738655D01*
X140262489Y-104692900D01*
X140270137Y-104689711D01*
X141621922Y-104178800D01*
X141642582Y-104173869D01*
X141642576Y-104173844D01*
X141651168Y-104171649D01*
X141790612Y-104136024D01*
X141791606Y-104135612D01*
X141791605Y-104135611D01*
X141792549Y-104135220D01*
X141794322Y-104134487D01*
X141794329Y-104134482D01*
X141795551Y-104133977D01*
X141795593Y-104133959D01*
X141824244Y-104122083D01*
X141842406Y-104108229D01*
X141889227Y-104082663D01*
X141889234Y-104082656D01*
X141890147Y-104081999D01*
X141918837Y-104066581D01*
X142086403Y-104003249D01*
X142103987Y-103998053D01*
X144635000Y-103450000D01*
X145791451Y-101715323D01*
X145845014Y-101670464D01*
X145912268Y-101661370D01*
X145968813Y-101669500D01*
G37*
%TD.AperFunction*%
%TD*%
%TA.AperFunction,Conductor*%
%TO.N,Net-(ALIM1-Pin_2)*%
G36*
X117290422Y-133845024D02*
G01*
X117336488Y-133897557D01*
X117348000Y-133949734D01*
X117348000Y-142456456D01*
X117328315Y-142523495D01*
X117327174Y-142525239D01*
X116369300Y-143962049D01*
X116315735Y-144006910D01*
X116264758Y-144017258D01*
X113374684Y-143985382D01*
X113310548Y-143966676D01*
X111818496Y-143038393D01*
X111771972Y-142986265D01*
X111760000Y-142933107D01*
X111760000Y-133981270D01*
X111779685Y-133914231D01*
X111832489Y-133868476D01*
X111883267Y-133857272D01*
X117223270Y-133825736D01*
X117290422Y-133845024D01*
G37*
%TD.AperFunction*%
%TD*%
M02*
