%TF.GenerationSoftware,KiCad,Pcbnew,7.0.9-7.0.9~ubuntu22.04.1*%
%TF.CreationDate,2023-12-07T20:45:01+01:00*%
%TF.ProjectId,Carte_Base_roulante_2024,43617274-655f-4426-9173-655f726f756c,rev?*%
%TF.SameCoordinates,Original*%
%TF.FileFunction,Legend,Bot*%
%TF.FilePolarity,Positive*%
%FSLAX46Y46*%
G04 Gerber Fmt 4.6, Leading zero omitted, Abs format (unit mm)*
G04 Created by KiCad (PCBNEW 7.0.9-7.0.9~ubuntu22.04.1) date 2023-12-07 20:45:01*
%MOMM*%
%LPD*%
G01*
G04 APERTURE LIST*
%ADD10C,0.010000*%
%ADD11C,5.000000*%
%ADD12R,3.000000X3.000000*%
%ADD13C,3.000000*%
%ADD14R,1.700000X1.700000*%
%ADD15O,1.700000X1.700000*%
%ADD16C,0.600000*%
%ADD17O,1.000000X2.100000*%
%ADD18O,1.000000X1.800000*%
%ADD19C,3.200000*%
%ADD20R,2.300000X1.500000*%
%ADD21O,2.300000X1.500000*%
G04 APERTURE END LIST*
%TO.C,G\u002A\u002A\u002A*%
D10*
X121282964Y-108417655D02*
X121379644Y-108572500D01*
X121410402Y-108708217D01*
X121483158Y-109048619D01*
X121554981Y-109405909D01*
X121617120Y-109734496D01*
X121660821Y-109988791D01*
X121677333Y-110123202D01*
X121633262Y-110202349D01*
X121465666Y-110244667D01*
X121326678Y-110236500D01*
X121254000Y-110211653D01*
X121247178Y-110169240D01*
X121212900Y-109990402D01*
X121156281Y-109706833D01*
X121084666Y-109355667D01*
X121064821Y-109259346D01*
X120986447Y-108874800D01*
X120941901Y-108622852D01*
X120932353Y-108475551D01*
X120958972Y-108404943D01*
X121022927Y-108383077D01*
X121125387Y-108382000D01*
X121282964Y-108417655D01*
G36*
X121282964Y-108417655D02*
G01*
X121379644Y-108572500D01*
X121410402Y-108708217D01*
X121483158Y-109048619D01*
X121554981Y-109405909D01*
X121617120Y-109734496D01*
X121660821Y-109988791D01*
X121677333Y-110123202D01*
X121633262Y-110202349D01*
X121465666Y-110244667D01*
X121326678Y-110236500D01*
X121254000Y-110211653D01*
X121247178Y-110169240D01*
X121212900Y-109990402D01*
X121156281Y-109706833D01*
X121084666Y-109355667D01*
X121064821Y-109259346D01*
X120986447Y-108874800D01*
X120941901Y-108622852D01*
X120932353Y-108475551D01*
X120958972Y-108404943D01*
X121022927Y-108383077D01*
X121125387Y-108382000D01*
X121282964Y-108417655D01*
G37*
X129495213Y-104085167D02*
X129507773Y-104190108D01*
X129528875Y-104462015D01*
X129551573Y-104844197D01*
X129573861Y-105301723D01*
X129593730Y-105799667D01*
X129607383Y-106156148D01*
X129627993Y-106614500D01*
X129648901Y-107001199D01*
X129668298Y-107283710D01*
X129684374Y-107429500D01*
X129690411Y-107459664D01*
X129693261Y-107527092D01*
X129655120Y-107572338D01*
X129550320Y-107599828D01*
X129353192Y-107613984D01*
X129038068Y-107619233D01*
X128579280Y-107620000D01*
X127434666Y-107620000D01*
X127434666Y-107112000D01*
X128874000Y-107112000D01*
X128874000Y-105926667D01*
X127688666Y-105926667D01*
X127688666Y-105334000D01*
X128789333Y-105334000D01*
X128789333Y-104402667D01*
X127265333Y-104402667D01*
X127265333Y-104159744D01*
X127283475Y-104002387D01*
X127373016Y-103914936D01*
X127582833Y-103864343D01*
X127647240Y-103855505D01*
X127922854Y-103833040D01*
X128285475Y-103817186D01*
X128674077Y-103810932D01*
X129447821Y-103810000D01*
X129495213Y-104085167D01*
G36*
X129495213Y-104085167D02*
G01*
X129507773Y-104190108D01*
X129528875Y-104462015D01*
X129551573Y-104844197D01*
X129573861Y-105301723D01*
X129593730Y-105799667D01*
X129607383Y-106156148D01*
X129627993Y-106614500D01*
X129648901Y-107001199D01*
X129668298Y-107283710D01*
X129684374Y-107429500D01*
X129690411Y-107459664D01*
X129693261Y-107527092D01*
X129655120Y-107572338D01*
X129550320Y-107599828D01*
X129353192Y-107613984D01*
X129038068Y-107619233D01*
X128579280Y-107620000D01*
X127434666Y-107620000D01*
X127434666Y-107112000D01*
X128874000Y-107112000D01*
X128874000Y-105926667D01*
X127688666Y-105926667D01*
X127688666Y-105334000D01*
X128789333Y-105334000D01*
X128789333Y-104402667D01*
X127265333Y-104402667D01*
X127265333Y-104159744D01*
X127283475Y-104002387D01*
X127373016Y-103914936D01*
X127582833Y-103864343D01*
X127647240Y-103855505D01*
X127922854Y-103833040D01*
X128285475Y-103817186D01*
X128674077Y-103810932D01*
X129447821Y-103810000D01*
X129495213Y-104085167D01*
G37*
X130062196Y-109448666D02*
X130031437Y-109749629D01*
X129883929Y-110012592D01*
X129608167Y-110208748D01*
X129498432Y-110250826D01*
X129106385Y-110299168D01*
X128735627Y-110203086D01*
X128416193Y-109981347D01*
X128178120Y-109652722D01*
X128061526Y-109269150D01*
X128550028Y-109269150D01*
X128620496Y-109553086D01*
X128748899Y-109795908D01*
X128920126Y-109938073D01*
X129132839Y-109992808D01*
X129363820Y-109949624D01*
X129504076Y-109764141D01*
X129551333Y-109438158D01*
X129550981Y-109402850D01*
X129502638Y-109114291D01*
X129355376Y-108904758D01*
X129333655Y-108885273D01*
X129091271Y-108752588D01*
X128837949Y-108729166D01*
X128636933Y-108822267D01*
X128552609Y-109003644D01*
X128550028Y-109269150D01*
X128061526Y-109269150D01*
X128051443Y-109235979D01*
X128038556Y-109005780D01*
X128098840Y-108831387D01*
X128264221Y-108640087D01*
X128377015Y-108536525D01*
X128597324Y-108414002D01*
X128878660Y-108382000D01*
X129247808Y-108440927D01*
X129569012Y-108605833D01*
X129819480Y-108847961D01*
X129987709Y-109138508D01*
X130059673Y-109438158D01*
X130062196Y-109448666D01*
G36*
X130062196Y-109448666D02*
G01*
X130031437Y-109749629D01*
X129883929Y-110012592D01*
X129608167Y-110208748D01*
X129498432Y-110250826D01*
X129106385Y-110299168D01*
X128735627Y-110203086D01*
X128416193Y-109981347D01*
X128178120Y-109652722D01*
X128061526Y-109269150D01*
X128550028Y-109269150D01*
X128620496Y-109553086D01*
X128748899Y-109795908D01*
X128920126Y-109938073D01*
X129132839Y-109992808D01*
X129363820Y-109949624D01*
X129504076Y-109764141D01*
X129551333Y-109438158D01*
X129550981Y-109402850D01*
X129502638Y-109114291D01*
X129355376Y-108904758D01*
X129333655Y-108885273D01*
X129091271Y-108752588D01*
X128837949Y-108729166D01*
X128636933Y-108822267D01*
X128552609Y-109003644D01*
X128550028Y-109269150D01*
X128061526Y-109269150D01*
X128051443Y-109235979D01*
X128038556Y-109005780D01*
X128098840Y-108831387D01*
X128264221Y-108640087D01*
X128377015Y-108536525D01*
X128597324Y-108414002D01*
X128878660Y-108382000D01*
X129247808Y-108440927D01*
X129569012Y-108605833D01*
X129819480Y-108847961D01*
X129987709Y-109138508D01*
X130059673Y-109438158D01*
X130062196Y-109448666D01*
G37*
X118688747Y-103882855D02*
X119130545Y-104100626D01*
X119510050Y-104439584D01*
X119806649Y-104875818D01*
X119999726Y-105385416D01*
X120068666Y-105944468D01*
X120027456Y-106366364D01*
X119848241Y-106858025D01*
X119534646Y-107255348D01*
X119095000Y-107544643D01*
X118813929Y-107635906D01*
X118376887Y-107695500D01*
X117925772Y-107688598D01*
X117541301Y-107611717D01*
X117395993Y-107549374D01*
X117297069Y-107433657D01*
X117274666Y-107220843D01*
X117284957Y-107031824D01*
X117337976Y-106959289D01*
X117465166Y-106977293D01*
X117790662Y-107054332D01*
X118281780Y-107088003D01*
X118670505Y-106989891D01*
X118961168Y-106758500D01*
X119158096Y-106392333D01*
X119244584Y-106053380D01*
X119259261Y-105567941D01*
X119148934Y-105128180D01*
X118926136Y-104760648D01*
X118603402Y-104491896D01*
X118193265Y-104348476D01*
X118191171Y-104348141D01*
X117979009Y-104299141D01*
X117887189Y-104215431D01*
X117867333Y-104053179D01*
X117868487Y-103984238D01*
X117897641Y-103866329D01*
X118001946Y-103818805D01*
X118228420Y-103810000D01*
X118688747Y-103882855D01*
G36*
X118688747Y-103882855D02*
G01*
X119130545Y-104100626D01*
X119510050Y-104439584D01*
X119806649Y-104875818D01*
X119999726Y-105385416D01*
X120068666Y-105944468D01*
X120027456Y-106366364D01*
X119848241Y-106858025D01*
X119534646Y-107255348D01*
X119095000Y-107544643D01*
X118813929Y-107635906D01*
X118376887Y-107695500D01*
X117925772Y-107688598D01*
X117541301Y-107611717D01*
X117395993Y-107549374D01*
X117297069Y-107433657D01*
X117274666Y-107220843D01*
X117284957Y-107031824D01*
X117337976Y-106959289D01*
X117465166Y-106977293D01*
X117790662Y-107054332D01*
X118281780Y-107088003D01*
X118670505Y-106989891D01*
X118961168Y-106758500D01*
X119158096Y-106392333D01*
X119244584Y-106053380D01*
X119259261Y-105567941D01*
X119148934Y-105128180D01*
X118926136Y-104760648D01*
X118603402Y-104491896D01*
X118193265Y-104348476D01*
X118191171Y-104348141D01*
X117979009Y-104299141D01*
X117887189Y-104215431D01*
X117867333Y-104053179D01*
X117868487Y-103984238D01*
X117897641Y-103866329D01*
X118001946Y-103818805D01*
X118228420Y-103810000D01*
X118688747Y-103882855D01*
G37*
X125743724Y-109540419D02*
X125669640Y-109863964D01*
X125482284Y-110119691D01*
X125191000Y-110271281D01*
X125174898Y-110275144D01*
X124872913Y-110287813D01*
X124532851Y-110225206D01*
X124251446Y-110104495D01*
X124234147Y-110092634D01*
X124029675Y-109875402D01*
X123861306Y-109572587D01*
X123758616Y-109250855D01*
X123754666Y-109105290D01*
X124215920Y-109105290D01*
X124248687Y-109388239D01*
X124363744Y-109666302D01*
X124548663Y-109882140D01*
X124718574Y-109965618D01*
X124961638Y-109970854D01*
X125154868Y-109856195D01*
X125210697Y-109756086D01*
X125254524Y-109492512D01*
X125220750Y-109192869D01*
X125112700Y-108930168D01*
X125012594Y-108827969D01*
X124778968Y-108728916D01*
X124523162Y-108723673D01*
X124318933Y-108822267D01*
X124277870Y-108874792D01*
X124215920Y-109105290D01*
X123754666Y-109105290D01*
X123751182Y-108976871D01*
X123765723Y-108921296D01*
X123934037Y-108636288D01*
X124218810Y-108449505D01*
X124588585Y-108383248D01*
X124940486Y-108422408D01*
X125275307Y-108581669D01*
X125548292Y-108882587D01*
X125695191Y-109185376D01*
X125737176Y-109492512D01*
X125743724Y-109540419D01*
G36*
X125743724Y-109540419D02*
G01*
X125669640Y-109863964D01*
X125482284Y-110119691D01*
X125191000Y-110271281D01*
X125174898Y-110275144D01*
X124872913Y-110287813D01*
X124532851Y-110225206D01*
X124251446Y-110104495D01*
X124234147Y-110092634D01*
X124029675Y-109875402D01*
X123861306Y-109572587D01*
X123758616Y-109250855D01*
X123754666Y-109105290D01*
X124215920Y-109105290D01*
X124248687Y-109388239D01*
X124363744Y-109666302D01*
X124548663Y-109882140D01*
X124718574Y-109965618D01*
X124961638Y-109970854D01*
X125154868Y-109856195D01*
X125210697Y-109756086D01*
X125254524Y-109492512D01*
X125220750Y-109192869D01*
X125112700Y-108930168D01*
X125012594Y-108827969D01*
X124778968Y-108728916D01*
X124523162Y-108723673D01*
X124318933Y-108822267D01*
X124277870Y-108874792D01*
X124215920Y-109105290D01*
X123754666Y-109105290D01*
X123751182Y-108976871D01*
X123765723Y-108921296D01*
X123934037Y-108636288D01*
X124218810Y-108449505D01*
X124588585Y-108383248D01*
X124940486Y-108422408D01*
X125275307Y-108581669D01*
X125548292Y-108882587D01*
X125695191Y-109185376D01*
X125737176Y-109492512D01*
X125743724Y-109540419D01*
G37*
X122544174Y-108400205D02*
X122837820Y-108410015D01*
X123134732Y-108428712D01*
X123313771Y-108458138D01*
X123405224Y-108504125D01*
X123439382Y-108572500D01*
X123441481Y-108640977D01*
X123367998Y-108704166D01*
X123165208Y-108720667D01*
X123052256Y-108720481D01*
X122942811Y-108734351D01*
X122888409Y-108792445D01*
X122882469Y-108925429D01*
X122918410Y-109163966D01*
X122989652Y-109538719D01*
X123006556Y-109627293D01*
X123062621Y-109924933D01*
X123101867Y-110139389D01*
X123116652Y-110229124D01*
X123054202Y-110240157D01*
X122887186Y-110229124D01*
X122881578Y-110228458D01*
X122757063Y-110198108D01*
X122675515Y-110118059D01*
X122613993Y-109949095D01*
X122549555Y-109652000D01*
X122535012Y-109577816D01*
X122459823Y-109197818D01*
X122401715Y-108950465D01*
X122344404Y-108807415D01*
X122271603Y-108740327D01*
X122167026Y-108720858D01*
X122014387Y-108720667D01*
X121817471Y-108710822D01*
X121704896Y-108661099D01*
X121677333Y-108548371D01*
X121677735Y-108525386D01*
X121694901Y-108456013D01*
X121759746Y-108414002D01*
X121902653Y-108394158D01*
X122154001Y-108391290D01*
X122544174Y-108400205D01*
G36*
X122544174Y-108400205D02*
G01*
X122837820Y-108410015D01*
X123134732Y-108428712D01*
X123313771Y-108458138D01*
X123405224Y-108504125D01*
X123439382Y-108572500D01*
X123441481Y-108640977D01*
X123367998Y-108704166D01*
X123165208Y-108720667D01*
X123052256Y-108720481D01*
X122942811Y-108734351D01*
X122888409Y-108792445D01*
X122882469Y-108925429D01*
X122918410Y-109163966D01*
X122989652Y-109538719D01*
X123006556Y-109627293D01*
X123062621Y-109924933D01*
X123101867Y-110139389D01*
X123116652Y-110229124D01*
X123054202Y-110240157D01*
X122887186Y-110229124D01*
X122881578Y-110228458D01*
X122757063Y-110198108D01*
X122675515Y-110118059D01*
X122613993Y-109949095D01*
X122549555Y-109652000D01*
X122535012Y-109577816D01*
X122459823Y-109197818D01*
X122401715Y-108950465D01*
X122344404Y-108807415D01*
X122271603Y-108740327D01*
X122167026Y-108720858D01*
X122014387Y-108720667D01*
X121817471Y-108710822D01*
X121704896Y-108661099D01*
X121677333Y-108548371D01*
X121677735Y-108525386D01*
X121694901Y-108456013D01*
X121759746Y-108414002D01*
X121902653Y-108394158D01*
X122154001Y-108391290D01*
X122544174Y-108400205D01*
G37*
X116862504Y-108388032D02*
X116936014Y-108403167D01*
X116938033Y-108440573D01*
X116968141Y-108639838D01*
X117025175Y-108921515D01*
X117097321Y-109235869D01*
X117172764Y-109533168D01*
X117239691Y-109763679D01*
X117286288Y-109877669D01*
X117347777Y-109929778D01*
X117532185Y-109985437D01*
X117721210Y-109962985D01*
X117836463Y-109864324D01*
X117845071Y-109805587D01*
X117837326Y-109599209D01*
X117805616Y-109311767D01*
X117757699Y-108997942D01*
X117701334Y-108712411D01*
X117644279Y-108509854D01*
X117635589Y-108481731D01*
X117670770Y-108404004D01*
X117843547Y-108382000D01*
X117955694Y-108387349D01*
X118041126Y-108425910D01*
X118102371Y-108531006D01*
X118157832Y-108735948D01*
X118225916Y-109074046D01*
X118258103Y-109250827D01*
X118305595Y-109657241D01*
X118284275Y-109941244D01*
X118189525Y-110128684D01*
X118016731Y-110245410D01*
X117877780Y-110284565D01*
X117544566Y-110286832D01*
X117207504Y-110199956D01*
X116948108Y-110039633D01*
X116948088Y-110039613D01*
X116818093Y-109851986D01*
X116705450Y-109552263D01*
X116599414Y-109111851D01*
X116450278Y-108382000D01*
X116693139Y-108382000D01*
X116862504Y-108388032D01*
G36*
X116862504Y-108388032D02*
G01*
X116936014Y-108403167D01*
X116938033Y-108440573D01*
X116968141Y-108639838D01*
X117025175Y-108921515D01*
X117097321Y-109235869D01*
X117172764Y-109533168D01*
X117239691Y-109763679D01*
X117286288Y-109877669D01*
X117347777Y-109929778D01*
X117532185Y-109985437D01*
X117721210Y-109962985D01*
X117836463Y-109864324D01*
X117845071Y-109805587D01*
X117837326Y-109599209D01*
X117805616Y-109311767D01*
X117757699Y-108997942D01*
X117701334Y-108712411D01*
X117644279Y-108509854D01*
X117635589Y-108481731D01*
X117670770Y-108404004D01*
X117843547Y-108382000D01*
X117955694Y-108387349D01*
X118041126Y-108425910D01*
X118102371Y-108531006D01*
X118157832Y-108735948D01*
X118225916Y-109074046D01*
X118258103Y-109250827D01*
X118305595Y-109657241D01*
X118284275Y-109941244D01*
X118189525Y-110128684D01*
X118016731Y-110245410D01*
X117877780Y-110284565D01*
X117544566Y-110286832D01*
X117207504Y-110199956D01*
X116948108Y-110039633D01*
X116948088Y-110039613D01*
X116818093Y-109851986D01*
X116705450Y-109552263D01*
X116599414Y-109111851D01*
X116450278Y-108382000D01*
X116693139Y-108382000D01*
X116862504Y-108388032D01*
G37*
X120665930Y-109595763D02*
X120563371Y-109912275D01*
X120337320Y-110156322D01*
X119998089Y-110296882D01*
X119993481Y-110297823D01*
X119777659Y-110383237D01*
X119639347Y-110509851D01*
X119543809Y-110607630D01*
X119341220Y-110668000D01*
X119225596Y-110663614D01*
X119176449Y-110619140D01*
X119253984Y-110487749D01*
X119291594Y-110430903D01*
X119325208Y-110324004D01*
X119267119Y-110212016D01*
X119099003Y-110042259D01*
X118959312Y-109892613D01*
X118754004Y-109549532D01*
X118684020Y-109236832D01*
X119162640Y-109236832D01*
X119235290Y-109544786D01*
X119395685Y-109806499D01*
X119442241Y-109852008D01*
X119682194Y-109977272D01*
X119921541Y-109952622D01*
X120118381Y-109779617D01*
X120196544Y-109593051D01*
X120184036Y-109270879D01*
X120018648Y-108911167D01*
X119845702Y-108765772D01*
X119609067Y-108712245D01*
X119377614Y-108756290D01*
X119217229Y-108898915D01*
X119192193Y-108956169D01*
X119162640Y-109236832D01*
X118684020Y-109236832D01*
X118676866Y-109204869D01*
X118720827Y-108887266D01*
X118878814Y-108625366D01*
X119143757Y-108447813D01*
X119508585Y-108383248D01*
X119860486Y-108422408D01*
X120195307Y-108581669D01*
X120468292Y-108882587D01*
X120634681Y-109237806D01*
X120665694Y-109593051D01*
X120665930Y-109595763D01*
G36*
X120665930Y-109595763D02*
G01*
X120563371Y-109912275D01*
X120337320Y-110156322D01*
X119998089Y-110296882D01*
X119993481Y-110297823D01*
X119777659Y-110383237D01*
X119639347Y-110509851D01*
X119543809Y-110607630D01*
X119341220Y-110668000D01*
X119225596Y-110663614D01*
X119176449Y-110619140D01*
X119253984Y-110487749D01*
X119291594Y-110430903D01*
X119325208Y-110324004D01*
X119267119Y-110212016D01*
X119099003Y-110042259D01*
X118959312Y-109892613D01*
X118754004Y-109549532D01*
X118684020Y-109236832D01*
X119162640Y-109236832D01*
X119235290Y-109544786D01*
X119395685Y-109806499D01*
X119442241Y-109852008D01*
X119682194Y-109977272D01*
X119921541Y-109952622D01*
X120118381Y-109779617D01*
X120196544Y-109593051D01*
X120184036Y-109270879D01*
X120018648Y-108911167D01*
X119845702Y-108765772D01*
X119609067Y-108712245D01*
X119377614Y-108756290D01*
X119217229Y-108898915D01*
X119192193Y-108956169D01*
X119162640Y-109236832D01*
X118684020Y-109236832D01*
X118676866Y-109204869D01*
X118720827Y-108887266D01*
X118878814Y-108625366D01*
X119143757Y-108447813D01*
X119508585Y-108383248D01*
X119860486Y-108422408D01*
X120195307Y-108581669D01*
X120468292Y-108882587D01*
X120634681Y-109237806D01*
X120665694Y-109593051D01*
X120665930Y-109595763D01*
G37*
X127732429Y-109741663D02*
X127826938Y-110244667D01*
X127218887Y-110244667D01*
X127064837Y-110243209D01*
X126759735Y-110222284D01*
X126551295Y-110167920D01*
X126387751Y-110069188D01*
X126238108Y-109912065D01*
X126176514Y-109687159D01*
X126637122Y-109687159D01*
X126724645Y-109861216D01*
X126843699Y-109938880D01*
X127059714Y-109990667D01*
X127140415Y-109985731D01*
X127241071Y-109921266D01*
X127265333Y-109741663D01*
X127235137Y-109531988D01*
X127115300Y-109418703D01*
X126888860Y-109431632D01*
X126701816Y-109529385D01*
X126637122Y-109687159D01*
X126176514Y-109687159D01*
X126171534Y-109668976D01*
X126270500Y-109392154D01*
X126296617Y-109347380D01*
X126326686Y-109223530D01*
X126228166Y-109135096D01*
X126137046Y-109040190D01*
X126098697Y-108911167D01*
X126603278Y-108911167D01*
X126671716Y-109058303D01*
X126863166Y-109128457D01*
X126963300Y-109135472D01*
X127071597Y-109092773D01*
X127096000Y-108937957D01*
X127088662Y-108834542D01*
X127020036Y-108741934D01*
X126836111Y-108720667D01*
X126713243Y-108726244D01*
X126609962Y-108776966D01*
X126603278Y-108911167D01*
X126098697Y-108911167D01*
X126080000Y-108848260D01*
X126095195Y-108735452D01*
X126237745Y-108539720D01*
X126528847Y-108421615D01*
X126966672Y-108382100D01*
X127477000Y-108382201D01*
X127581421Y-108937957D01*
X127732429Y-109741663D01*
G36*
X127732429Y-109741663D02*
G01*
X127826938Y-110244667D01*
X127218887Y-110244667D01*
X127064837Y-110243209D01*
X126759735Y-110222284D01*
X126551295Y-110167920D01*
X126387751Y-110069188D01*
X126238108Y-109912065D01*
X126176514Y-109687159D01*
X126637122Y-109687159D01*
X126724645Y-109861216D01*
X126843699Y-109938880D01*
X127059714Y-109990667D01*
X127140415Y-109985731D01*
X127241071Y-109921266D01*
X127265333Y-109741663D01*
X127235137Y-109531988D01*
X127115300Y-109418703D01*
X126888860Y-109431632D01*
X126701816Y-109529385D01*
X126637122Y-109687159D01*
X126176514Y-109687159D01*
X126171534Y-109668976D01*
X126270500Y-109392154D01*
X126296617Y-109347380D01*
X126326686Y-109223530D01*
X126228166Y-109135096D01*
X126137046Y-109040190D01*
X126098697Y-108911167D01*
X126603278Y-108911167D01*
X126671716Y-109058303D01*
X126863166Y-109128457D01*
X126963300Y-109135472D01*
X127071597Y-109092773D01*
X127096000Y-108937957D01*
X127088662Y-108834542D01*
X127020036Y-108741934D01*
X126836111Y-108720667D01*
X126713243Y-108726244D01*
X126609962Y-108776966D01*
X126603278Y-108911167D01*
X126098697Y-108911167D01*
X126080000Y-108848260D01*
X126095195Y-108735452D01*
X126237745Y-108539720D01*
X126528847Y-108421615D01*
X126966672Y-108382100D01*
X127477000Y-108382201D01*
X127581421Y-108937957D01*
X127732429Y-109741663D01*
G37*
X131958442Y-109260095D02*
X132023027Y-109603549D01*
X132068939Y-109885575D01*
X132087461Y-110054167D01*
X132087586Y-110064238D01*
X132044882Y-110206187D01*
X131887109Y-110244667D01*
X131760082Y-110223752D01*
X131678260Y-110124416D01*
X131624851Y-109901173D01*
X131619008Y-109867245D01*
X131569098Y-109666221D01*
X131491586Y-109585986D01*
X131349264Y-109583673D01*
X131298483Y-109592388D01*
X131141814Y-109686171D01*
X131033000Y-109906000D01*
X130997428Y-110001303D01*
X130881713Y-110167231D01*
X130700751Y-110229869D01*
X130581485Y-110238694D01*
X130503268Y-110199172D01*
X130525918Y-110060536D01*
X130593170Y-109871152D01*
X130697368Y-109629071D01*
X130758532Y-109472993D01*
X130737775Y-109343924D01*
X130604056Y-109188420D01*
X130444139Y-108989118D01*
X130438035Y-108953500D01*
X130921543Y-108953500D01*
X130944083Y-109068038D01*
X131032963Y-109171744D01*
X131234944Y-109213718D01*
X131379154Y-109222004D01*
X131476522Y-109193463D01*
X131467778Y-109100960D01*
X131443619Y-109025122D01*
X131414000Y-108840742D01*
X131356127Y-108756107D01*
X131154376Y-108720667D01*
X131008677Y-108728912D01*
X130922197Y-108790503D01*
X130921543Y-108953500D01*
X130438035Y-108953500D01*
X130411627Y-108799411D01*
X130518170Y-108588682D01*
X130563270Y-108536858D01*
X130684937Y-108467332D01*
X130886465Y-108433330D01*
X131212279Y-108424333D01*
X131786216Y-108424333D01*
X131934902Y-109144000D01*
X131944932Y-109193463D01*
X131958442Y-109260095D01*
G36*
X131958442Y-109260095D02*
G01*
X132023027Y-109603549D01*
X132068939Y-109885575D01*
X132087461Y-110054167D01*
X132087586Y-110064238D01*
X132044882Y-110206187D01*
X131887109Y-110244667D01*
X131760082Y-110223752D01*
X131678260Y-110124416D01*
X131624851Y-109901173D01*
X131619008Y-109867245D01*
X131569098Y-109666221D01*
X131491586Y-109585986D01*
X131349264Y-109583673D01*
X131298483Y-109592388D01*
X131141814Y-109686171D01*
X131033000Y-109906000D01*
X130997428Y-110001303D01*
X130881713Y-110167231D01*
X130700751Y-110229869D01*
X130581485Y-110238694D01*
X130503268Y-110199172D01*
X130525918Y-110060536D01*
X130593170Y-109871152D01*
X130697368Y-109629071D01*
X130758532Y-109472993D01*
X130737775Y-109343924D01*
X130604056Y-109188420D01*
X130444139Y-108989118D01*
X130438035Y-108953500D01*
X130921543Y-108953500D01*
X130944083Y-109068038D01*
X131032963Y-109171744D01*
X131234944Y-109213718D01*
X131379154Y-109222004D01*
X131476522Y-109193463D01*
X131467778Y-109100960D01*
X131443619Y-109025122D01*
X131414000Y-108840742D01*
X131356127Y-108756107D01*
X131154376Y-108720667D01*
X131008677Y-108728912D01*
X130922197Y-108790503D01*
X130921543Y-108953500D01*
X130438035Y-108953500D01*
X130411627Y-108799411D01*
X130518170Y-108588682D01*
X130563270Y-108536858D01*
X130684937Y-108467332D01*
X130886465Y-108433330D01*
X131212279Y-108424333D01*
X131786216Y-108424333D01*
X131934902Y-109144000D01*
X131944932Y-109193463D01*
X131958442Y-109260095D01*
G37*
X115568974Y-108386292D02*
X115787056Y-108407046D01*
X115902791Y-108452347D01*
X115952388Y-108530167D01*
X115975550Y-108624012D01*
X116024777Y-108857159D01*
X116085118Y-109164294D01*
X116147624Y-109497427D01*
X116203349Y-109808568D01*
X116243346Y-110049727D01*
X116258666Y-110172914D01*
X116255165Y-110181125D01*
X116147275Y-110213131D01*
X115917121Y-110229510D01*
X115603418Y-110227061D01*
X115289766Y-110210340D01*
X115073564Y-110180956D01*
X114961650Y-110131777D01*
X114919877Y-110054167D01*
X114915794Y-110024801D01*
X114943588Y-109949711D01*
X115066391Y-109914655D01*
X115321125Y-109906000D01*
X115429426Y-109904099D01*
X115670316Y-109872095D01*
X115749370Y-109800167D01*
X115703999Y-109630943D01*
X115542824Y-109519128D01*
X115242006Y-109467334D01*
X115094006Y-109451968D01*
X114906518Y-109395434D01*
X114835022Y-109292167D01*
X114833696Y-109284747D01*
X114848109Y-109196178D01*
X114955677Y-109154450D01*
X115194125Y-109144000D01*
X115307070Y-109143039D01*
X115489475Y-109124198D01*
X115565878Y-109062173D01*
X115581333Y-108932333D01*
X115573704Y-108826623D01*
X115521230Y-108755201D01*
X115382364Y-108726161D01*
X115115666Y-108720667D01*
X114952298Y-108718860D01*
X114757601Y-108700169D01*
X114670212Y-108649191D01*
X114650000Y-108551333D01*
X114650844Y-108522962D01*
X114677394Y-108447069D01*
X114767495Y-108404598D01*
X114956383Y-108386069D01*
X115279294Y-108382000D01*
X115568974Y-108386292D01*
G36*
X115568974Y-108386292D02*
G01*
X115787056Y-108407046D01*
X115902791Y-108452347D01*
X115952388Y-108530167D01*
X115975550Y-108624012D01*
X116024777Y-108857159D01*
X116085118Y-109164294D01*
X116147624Y-109497427D01*
X116203349Y-109808568D01*
X116243346Y-110049727D01*
X116258666Y-110172914D01*
X116255165Y-110181125D01*
X116147275Y-110213131D01*
X115917121Y-110229510D01*
X115603418Y-110227061D01*
X115289766Y-110210340D01*
X115073564Y-110180956D01*
X114961650Y-110131777D01*
X114919877Y-110054167D01*
X114915794Y-110024801D01*
X114943588Y-109949711D01*
X115066391Y-109914655D01*
X115321125Y-109906000D01*
X115429426Y-109904099D01*
X115670316Y-109872095D01*
X115749370Y-109800167D01*
X115703999Y-109630943D01*
X115542824Y-109519128D01*
X115242006Y-109467334D01*
X115094006Y-109451968D01*
X114906518Y-109395434D01*
X114835022Y-109292167D01*
X114833696Y-109284747D01*
X114848109Y-109196178D01*
X114955677Y-109154450D01*
X115194125Y-109144000D01*
X115307070Y-109143039D01*
X115489475Y-109124198D01*
X115565878Y-109062173D01*
X115581333Y-108932333D01*
X115573704Y-108826623D01*
X115521230Y-108755201D01*
X115382364Y-108726161D01*
X115115666Y-108720667D01*
X114952298Y-108718860D01*
X114757601Y-108700169D01*
X114670212Y-108649191D01*
X114650000Y-108551333D01*
X114650844Y-108522962D01*
X114677394Y-108447069D01*
X114767495Y-108404598D01*
X114956383Y-108386069D01*
X115279294Y-108382000D01*
X115568974Y-108386292D01*
G37*
X126959539Y-105012746D02*
X126961907Y-105064534D01*
X126986971Y-105579034D01*
X127014603Y-106097577D01*
X127041608Y-106562421D01*
X127064793Y-106915820D01*
X127115082Y-107608640D01*
X126788041Y-107635487D01*
X126461000Y-107662333D01*
X126406977Y-106900333D01*
X126403442Y-106849313D01*
X126376380Y-106381489D01*
X126354934Y-105883162D01*
X126343477Y-105453944D01*
X126341677Y-105360746D01*
X126327716Y-105049554D01*
X126305147Y-104819009D01*
X126277898Y-104713453D01*
X126275876Y-104712136D01*
X126218655Y-104774383D01*
X126112291Y-104963165D01*
X125971249Y-105250775D01*
X125809997Y-105609509D01*
X125659472Y-105957190D01*
X125469099Y-106396049D01*
X125297000Y-106791916D01*
X125167599Y-107088557D01*
X124937000Y-107615447D01*
X124418653Y-107617724D01*
X123900306Y-107620000D01*
X123844197Y-106159500D01*
X123830179Y-105816418D01*
X123806587Y-105310358D01*
X123782065Y-104855013D01*
X123758793Y-104489890D01*
X123738955Y-104254500D01*
X123689822Y-103810000D01*
X124362544Y-103810000D01*
X124416939Y-104330420D01*
X124428023Y-104454099D01*
X124450465Y-104828240D01*
X124466296Y-105269395D01*
X124472630Y-105706253D01*
X124475595Y-105950207D01*
X124489155Y-106288012D01*
X124511090Y-106539557D01*
X124538540Y-106663314D01*
X124576686Y-106646541D01*
X124676774Y-106495981D01*
X124827649Y-106213503D01*
X125021951Y-105813070D01*
X125252324Y-105308648D01*
X125901494Y-103852333D01*
X126904574Y-103802493D01*
X126959539Y-105012746D01*
G36*
X126959539Y-105012746D02*
G01*
X126961907Y-105064534D01*
X126986971Y-105579034D01*
X127014603Y-106097577D01*
X127041608Y-106562421D01*
X127064793Y-106915820D01*
X127115082Y-107608640D01*
X126788041Y-107635487D01*
X126461000Y-107662333D01*
X126406977Y-106900333D01*
X126403442Y-106849313D01*
X126376380Y-106381489D01*
X126354934Y-105883162D01*
X126343477Y-105453944D01*
X126341677Y-105360746D01*
X126327716Y-105049554D01*
X126305147Y-104819009D01*
X126277898Y-104713453D01*
X126275876Y-104712136D01*
X126218655Y-104774383D01*
X126112291Y-104963165D01*
X125971249Y-105250775D01*
X125809997Y-105609509D01*
X125659472Y-105957190D01*
X125469099Y-106396049D01*
X125297000Y-106791916D01*
X125167599Y-107088557D01*
X124937000Y-107615447D01*
X124418653Y-107617724D01*
X123900306Y-107620000D01*
X123844197Y-106159500D01*
X123830179Y-105816418D01*
X123806587Y-105310358D01*
X123782065Y-104855013D01*
X123758793Y-104489890D01*
X123738955Y-104254500D01*
X123689822Y-103810000D01*
X124362544Y-103810000D01*
X124416939Y-104330420D01*
X124428023Y-104454099D01*
X124450465Y-104828240D01*
X124466296Y-105269395D01*
X124472630Y-105706253D01*
X124475595Y-105950207D01*
X124489155Y-106288012D01*
X124511090Y-106539557D01*
X124538540Y-106663314D01*
X124576686Y-106646541D01*
X124676774Y-106495981D01*
X124827649Y-106213503D01*
X125021951Y-105813070D01*
X125252324Y-105308648D01*
X125901494Y-103852333D01*
X126904574Y-103802493D01*
X126959539Y-105012746D01*
G37*
X123015308Y-106057521D02*
X123211398Y-106551262D01*
X123379099Y-106977287D01*
X123509689Y-107313258D01*
X123594443Y-107536839D01*
X123624639Y-107625692D01*
X123611997Y-107636657D01*
X123486117Y-107644957D01*
X123268907Y-107625692D01*
X123067313Y-107589167D01*
X122938975Y-107519425D01*
X122843161Y-107374504D01*
X122735869Y-107112000D01*
X122558591Y-106646333D01*
X121977375Y-106620988D01*
X121708653Y-106613037D01*
X121471256Y-106635528D01*
X121334751Y-106723198D01*
X121260362Y-106905974D01*
X121209312Y-107213784D01*
X121153443Y-107620000D01*
X120738055Y-107620000D01*
X120596214Y-107614869D01*
X120399123Y-107583215D01*
X120322666Y-107531523D01*
X120326082Y-107505020D01*
X120361136Y-107337589D01*
X120427931Y-107049621D01*
X120518788Y-106671969D01*
X120626029Y-106235482D01*
X120692552Y-105969000D01*
X121465695Y-105969000D01*
X121473238Y-105984306D01*
X121586695Y-106026042D01*
X121788894Y-106052448D01*
X122018358Y-106060553D01*
X122213611Y-106047385D01*
X122313175Y-106009971D01*
X122314898Y-106001090D01*
X122288769Y-105877352D01*
X122218352Y-105648986D01*
X122119213Y-105359024D01*
X122006916Y-105050495D01*
X121897023Y-104766432D01*
X121805100Y-104549863D01*
X121746709Y-104443820D01*
X121720404Y-104492865D01*
X121675421Y-104668080D01*
X121620951Y-104928604D01*
X121564868Y-105231698D01*
X121515048Y-105534621D01*
X121479366Y-105794635D01*
X121465695Y-105969000D01*
X120692552Y-105969000D01*
X120741976Y-105771012D01*
X120858952Y-105309410D01*
X120969277Y-104881528D01*
X121065275Y-104518216D01*
X121139267Y-104250326D01*
X121268442Y-103801651D01*
X121700335Y-103826992D01*
X122132227Y-103852333D01*
X122878419Y-105715000D01*
X122992756Y-106001090D01*
X123015308Y-106057521D01*
G36*
X123015308Y-106057521D02*
G01*
X123211398Y-106551262D01*
X123379099Y-106977287D01*
X123509689Y-107313258D01*
X123594443Y-107536839D01*
X123624639Y-107625692D01*
X123611997Y-107636657D01*
X123486117Y-107644957D01*
X123268907Y-107625692D01*
X123067313Y-107589167D01*
X122938975Y-107519425D01*
X122843161Y-107374504D01*
X122735869Y-107112000D01*
X122558591Y-106646333D01*
X121977375Y-106620988D01*
X121708653Y-106613037D01*
X121471256Y-106635528D01*
X121334751Y-106723198D01*
X121260362Y-106905974D01*
X121209312Y-107213784D01*
X121153443Y-107620000D01*
X120738055Y-107620000D01*
X120596214Y-107614869D01*
X120399123Y-107583215D01*
X120322666Y-107531523D01*
X120326082Y-107505020D01*
X120361136Y-107337589D01*
X120427931Y-107049621D01*
X120518788Y-106671969D01*
X120626029Y-106235482D01*
X120692552Y-105969000D01*
X121465695Y-105969000D01*
X121473238Y-105984306D01*
X121586695Y-106026042D01*
X121788894Y-106052448D01*
X122018358Y-106060553D01*
X122213611Y-106047385D01*
X122313175Y-106009971D01*
X122314898Y-106001090D01*
X122288769Y-105877352D01*
X122218352Y-105648986D01*
X122119213Y-105359024D01*
X122006916Y-105050495D01*
X121897023Y-104766432D01*
X121805100Y-104549863D01*
X121746709Y-104443820D01*
X121720404Y-104492865D01*
X121675421Y-104668080D01*
X121620951Y-104928604D01*
X121564868Y-105231698D01*
X121515048Y-105534621D01*
X121479366Y-105794635D01*
X121465695Y-105969000D01*
X120692552Y-105969000D01*
X120741976Y-105771012D01*
X120858952Y-105309410D01*
X120969277Y-104881528D01*
X121065275Y-104518216D01*
X121139267Y-104250326D01*
X121268442Y-103801651D01*
X121700335Y-103826992D01*
X122132227Y-103852333D01*
X122878419Y-105715000D01*
X122992756Y-106001090D01*
X123015308Y-106057521D01*
G37*
X127060787Y-99877115D02*
X127108478Y-100168735D01*
X127181032Y-100324431D01*
X127396157Y-100526325D01*
X127712146Y-100592667D01*
X127790811Y-100605961D01*
X127876131Y-100664358D01*
X127974334Y-100789780D01*
X128099608Y-101004059D01*
X128161937Y-101125682D01*
X128266145Y-101329026D01*
X128488133Y-101786512D01*
X128533476Y-101881664D01*
X128747387Y-102349026D01*
X128896970Y-102710694D01*
X128976674Y-102952327D01*
X128980947Y-103059586D01*
X128972632Y-103066898D01*
X128826397Y-103133485D01*
X128604844Y-103186991D01*
X128503930Y-103200912D01*
X128392900Y-103194572D01*
X128287033Y-103139242D01*
X128160144Y-103012929D01*
X127986048Y-102793640D01*
X127738560Y-102459383D01*
X127530797Y-102183450D01*
X127315634Y-101913738D01*
X127149110Y-101722754D01*
X127055939Y-101640156D01*
X127052867Y-101639103D01*
X126913196Y-101642175D01*
X126666168Y-101687366D01*
X126363197Y-101765383D01*
X126056022Y-101850283D01*
X125654216Y-101951705D01*
X125315815Y-102027422D01*
X124847963Y-102120791D01*
X124607695Y-102797010D01*
X124544193Y-102974508D01*
X124424131Y-103280997D01*
X124315402Y-103470064D01*
X124187451Y-103571444D01*
X124009724Y-103614872D01*
X123751666Y-103630083D01*
X123623082Y-103637008D01*
X123505986Y-103674863D01*
X123462021Y-103787290D01*
X123455333Y-104021667D01*
X123455333Y-104402667D01*
X123039002Y-104402667D01*
X122821432Y-104398686D01*
X122666261Y-104360774D01*
X122571360Y-104248565D01*
X122477166Y-104021667D01*
X122389183Y-103820659D01*
X122277631Y-103679596D01*
X122139405Y-103640667D01*
X122064691Y-103631890D01*
X121988537Y-103578811D01*
X121921487Y-103450716D01*
X121848912Y-103217369D01*
X121756185Y-102848534D01*
X121565220Y-102056402D01*
X120626443Y-101787425D01*
X120283398Y-101689064D01*
X119943253Y-101591375D01*
X119689631Y-101518355D01*
X119560666Y-101480970D01*
X119494402Y-101498981D01*
X119320478Y-101637484D01*
X119063033Y-101902975D01*
X118729659Y-102288079D01*
X118698000Y-102325892D01*
X118420973Y-102642622D01*
X118176782Y-102898038D01*
X117989448Y-103068268D01*
X117882993Y-103129442D01*
X117788258Y-103106945D01*
X117572523Y-103022526D01*
X117287656Y-102893269D01*
X116970953Y-102738149D01*
X116659707Y-102576139D01*
X116391214Y-102426210D01*
X116202769Y-102307336D01*
X116131666Y-102238490D01*
X116135518Y-102205560D01*
X116165787Y-102029477D01*
X116221251Y-101733543D01*
X116296026Y-101348803D01*
X116350808Y-101073956D01*
X122524000Y-101073956D01*
X122534641Y-101186608D01*
X122618042Y-101448760D01*
X122754679Y-101679384D01*
X122908793Y-101810073D01*
X123080396Y-101857675D01*
X123416053Y-101846261D01*
X123697649Y-101705490D01*
X123890679Y-101457814D01*
X123960640Y-101125682D01*
X123959622Y-101088197D01*
X123922024Y-100838652D01*
X123847907Y-100659495D01*
X123649689Y-100495966D01*
X123355467Y-100389698D01*
X123067118Y-100390376D01*
X123012555Y-100407988D01*
X122776571Y-100568678D01*
X122596001Y-100812967D01*
X122524000Y-101073956D01*
X116350808Y-101073956D01*
X116384225Y-100906301D01*
X116618906Y-99742275D01*
X117878306Y-99742275D01*
X117912298Y-100050330D01*
X118114820Y-100345179D01*
X118238174Y-100448512D01*
X118537391Y-100573392D01*
X118834933Y-100560268D01*
X119093564Y-100424295D01*
X119276049Y-100180629D01*
X119345151Y-99844425D01*
X119305945Y-99574677D01*
X119153885Y-99296781D01*
X118920360Y-99118727D01*
X118640923Y-99055069D01*
X118351127Y-99120363D01*
X118086526Y-99329163D01*
X118012970Y-99425514D01*
X117878306Y-99742275D01*
X116618906Y-99742275D01*
X116636783Y-99653603D01*
X115708333Y-98827709D01*
X116786736Y-98313188D01*
X116922040Y-98248957D01*
X117302738Y-98071879D01*
X117621389Y-97928949D01*
X117847905Y-97833451D01*
X117952199Y-97798666D01*
X117972368Y-97803592D01*
X118111844Y-97877609D01*
X118336839Y-98021994D01*
X118609463Y-98212871D01*
X119434202Y-98747010D01*
X120487528Y-99256516D01*
X121580884Y-99603736D01*
X122707970Y-99786762D01*
X123862488Y-99803685D01*
X124609599Y-99733843D01*
X125366844Y-99597449D01*
X126008915Y-99405670D01*
X126511598Y-99164348D01*
X126704352Y-99048434D01*
X126899929Y-98940851D01*
X126999950Y-98899333D01*
X127048694Y-98933212D01*
X127127175Y-99079389D01*
X127193396Y-99279182D01*
X127226322Y-99464174D01*
X127204916Y-99565948D01*
X127126105Y-99647067D01*
X127070068Y-99844425D01*
X127060787Y-99877115D01*
G36*
X127060787Y-99877115D02*
G01*
X127108478Y-100168735D01*
X127181032Y-100324431D01*
X127396157Y-100526325D01*
X127712146Y-100592667D01*
X127790811Y-100605961D01*
X127876131Y-100664358D01*
X127974334Y-100789780D01*
X128099608Y-101004059D01*
X128161937Y-101125682D01*
X128266145Y-101329026D01*
X128488133Y-101786512D01*
X128533476Y-101881664D01*
X128747387Y-102349026D01*
X128896970Y-102710694D01*
X128976674Y-102952327D01*
X128980947Y-103059586D01*
X128972632Y-103066898D01*
X128826397Y-103133485D01*
X128604844Y-103186991D01*
X128503930Y-103200912D01*
X128392900Y-103194572D01*
X128287033Y-103139242D01*
X128160144Y-103012929D01*
X127986048Y-102793640D01*
X127738560Y-102459383D01*
X127530797Y-102183450D01*
X127315634Y-101913738D01*
X127149110Y-101722754D01*
X127055939Y-101640156D01*
X127052867Y-101639103D01*
X126913196Y-101642175D01*
X126666168Y-101687366D01*
X126363197Y-101765383D01*
X126056022Y-101850283D01*
X125654216Y-101951705D01*
X125315815Y-102027422D01*
X124847963Y-102120791D01*
X124607695Y-102797010D01*
X124544193Y-102974508D01*
X124424131Y-103280997D01*
X124315402Y-103470064D01*
X124187451Y-103571444D01*
X124009724Y-103614872D01*
X123751666Y-103630083D01*
X123623082Y-103637008D01*
X123505986Y-103674863D01*
X123462021Y-103787290D01*
X123455333Y-104021667D01*
X123455333Y-104402667D01*
X123039002Y-104402667D01*
X122821432Y-104398686D01*
X122666261Y-104360774D01*
X122571360Y-104248565D01*
X122477166Y-104021667D01*
X122389183Y-103820659D01*
X122277631Y-103679596D01*
X122139405Y-103640667D01*
X122064691Y-103631890D01*
X121988537Y-103578811D01*
X121921487Y-103450716D01*
X121848912Y-103217369D01*
X121756185Y-102848534D01*
X121565220Y-102056402D01*
X120626443Y-101787425D01*
X120283398Y-101689064D01*
X119943253Y-101591375D01*
X119689631Y-101518355D01*
X119560666Y-101480970D01*
X119494402Y-101498981D01*
X119320478Y-101637484D01*
X119063033Y-101902975D01*
X118729659Y-102288079D01*
X118698000Y-102325892D01*
X118420973Y-102642622D01*
X118176782Y-102898038D01*
X117989448Y-103068268D01*
X117882993Y-103129442D01*
X117788258Y-103106945D01*
X117572523Y-103022526D01*
X117287656Y-102893269D01*
X116970953Y-102738149D01*
X116659707Y-102576139D01*
X116391214Y-102426210D01*
X116202769Y-102307336D01*
X116131666Y-102238490D01*
X116135518Y-102205560D01*
X116165787Y-102029477D01*
X116221251Y-101733543D01*
X116296026Y-101348803D01*
X116350808Y-101073956D01*
X122524000Y-101073956D01*
X122534641Y-101186608D01*
X122618042Y-101448760D01*
X122754679Y-101679384D01*
X122908793Y-101810073D01*
X123080396Y-101857675D01*
X123416053Y-101846261D01*
X123697649Y-101705490D01*
X123890679Y-101457814D01*
X123960640Y-101125682D01*
X123959622Y-101088197D01*
X123922024Y-100838652D01*
X123847907Y-100659495D01*
X123649689Y-100495966D01*
X123355467Y-100389698D01*
X123067118Y-100390376D01*
X123012555Y-100407988D01*
X122776571Y-100568678D01*
X122596001Y-100812967D01*
X122524000Y-101073956D01*
X116350808Y-101073956D01*
X116384225Y-100906301D01*
X116618906Y-99742275D01*
X117878306Y-99742275D01*
X117912298Y-100050330D01*
X118114820Y-100345179D01*
X118238174Y-100448512D01*
X118537391Y-100573392D01*
X118834933Y-100560268D01*
X119093564Y-100424295D01*
X119276049Y-100180629D01*
X119345151Y-99844425D01*
X119305945Y-99574677D01*
X119153885Y-99296781D01*
X118920360Y-99118727D01*
X118640923Y-99055069D01*
X118351127Y-99120363D01*
X118086526Y-99329163D01*
X118012970Y-99425514D01*
X117878306Y-99742275D01*
X116618906Y-99742275D01*
X116636783Y-99653603D01*
X115708333Y-98827709D01*
X116786736Y-98313188D01*
X116922040Y-98248957D01*
X117302738Y-98071879D01*
X117621389Y-97928949D01*
X117847905Y-97833451D01*
X117952199Y-97798666D01*
X117972368Y-97803592D01*
X118111844Y-97877609D01*
X118336839Y-98021994D01*
X118609463Y-98212871D01*
X119434202Y-98747010D01*
X120487528Y-99256516D01*
X121580884Y-99603736D01*
X122707970Y-99786762D01*
X123862488Y-99803685D01*
X124609599Y-99733843D01*
X125366844Y-99597449D01*
X126008915Y-99405670D01*
X126511598Y-99164348D01*
X126704352Y-99048434D01*
X126899929Y-98940851D01*
X126999950Y-98899333D01*
X127048694Y-98933212D01*
X127127175Y-99079389D01*
X127193396Y-99279182D01*
X127226322Y-99464174D01*
X127204916Y-99565948D01*
X127126105Y-99647067D01*
X127070068Y-99844425D01*
X127060787Y-99877115D01*
G37*
X125690805Y-89860567D02*
X126256518Y-90014183D01*
X126930864Y-90199293D01*
X128148512Y-90530394D01*
X128455896Y-90612580D01*
X129242784Y-90822973D01*
X130239479Y-91083534D01*
X131164397Y-91318585D01*
X132043339Y-91534629D01*
X132902105Y-91738175D01*
X133766496Y-91935726D01*
X134662311Y-92133789D01*
X134806027Y-92166355D01*
X134997798Y-92221351D01*
X135049538Y-92265257D01*
X134979811Y-92308273D01*
X134858152Y-92382156D01*
X134814222Y-92539612D01*
X134846879Y-92607849D01*
X134920971Y-92762670D01*
X135179411Y-93055119D01*
X135200696Y-93076110D01*
X135410837Y-93305313D01*
X135447162Y-93368774D01*
X135507054Y-93473408D01*
X135510581Y-93616379D01*
X135505825Y-93641332D01*
X135540874Y-93877076D01*
X135690215Y-94193631D01*
X135774221Y-94350603D01*
X135828895Y-94493185D01*
X135837958Y-94516823D01*
X135824712Y-94581333D01*
X135768238Y-94604971D01*
X135735852Y-94742234D01*
X135782089Y-94972544D01*
X135903054Y-95262039D01*
X135905465Y-95266780D01*
X135912353Y-95280329D01*
X136004196Y-95480527D01*
X136013687Y-95574153D01*
X135945387Y-95597333D01*
X135929911Y-95598288D01*
X135861401Y-95650517D01*
X135826451Y-95806019D01*
X135816666Y-96097407D01*
X135816331Y-96121723D01*
X135813379Y-96336106D01*
X135793400Y-96501539D01*
X135743820Y-96562448D01*
X135651818Y-96554371D01*
X135586596Y-96543606D01*
X135518877Y-96579886D01*
X135482476Y-96713564D01*
X135461318Y-96980607D01*
X135435666Y-97449952D01*
X134758333Y-96857042D01*
X134436650Y-96577085D01*
X133738151Y-95981118D01*
X133095785Y-95449646D01*
X132520742Y-94991265D01*
X132024217Y-94614574D01*
X131617400Y-94328169D01*
X131311486Y-94140647D01*
X131117666Y-94060605D01*
X131113543Y-94059912D01*
X130969787Y-94091745D01*
X130923212Y-94225393D01*
X130973625Y-94424904D01*
X131045494Y-94536908D01*
X131120834Y-94654324D01*
X131176605Y-94724508D01*
X131261676Y-94864387D01*
X131252193Y-94920000D01*
X131176552Y-94943274D01*
X131175336Y-95055417D01*
X131298818Y-95249318D01*
X131541000Y-95512667D01*
X131630389Y-95604859D01*
X131778913Y-95758041D01*
X131896350Y-95914832D01*
X131898991Y-95996930D01*
X131795000Y-96020667D01*
X131710701Y-96032360D01*
X131682990Y-96089070D01*
X131752281Y-96207763D01*
X131928904Y-96404736D01*
X132171386Y-96644966D01*
X132223186Y-96696285D01*
X132385989Y-96856900D01*
X132594401Y-97084493D01*
X132685186Y-97227819D01*
X132668290Y-97300376D01*
X132631434Y-97360148D01*
X132687877Y-97484577D01*
X132865424Y-97689372D01*
X133071591Y-97905764D01*
X133116035Y-97953682D01*
X133317158Y-98170527D01*
X133469539Y-98350842D01*
X133544733Y-98468874D01*
X133558738Y-98546789D01*
X133527553Y-98606752D01*
X133511834Y-98636864D01*
X133530698Y-98761415D01*
X133645341Y-98967655D01*
X133866163Y-99276145D01*
X134028853Y-99494946D01*
X134036940Y-99505823D01*
X134204348Y-99752236D01*
X134276050Y-99903309D01*
X134260379Y-99979184D01*
X134165666Y-100000000D01*
X134052285Y-100036706D01*
X134082701Y-100151441D01*
X134262263Y-100345075D01*
X134281501Y-100363291D01*
X134443615Y-100544878D01*
X134625677Y-100783088D01*
X134795531Y-101031300D01*
X134913024Y-101229403D01*
X134921024Y-101242892D01*
X134970000Y-101371243D01*
X134955793Y-101402442D01*
X134843000Y-101439333D01*
X134831145Y-101439428D01*
X134743941Y-101457864D01*
X134732615Y-101528335D01*
X134804244Y-101679736D01*
X134965910Y-101940960D01*
X135049623Y-102076840D01*
X135220884Y-102383325D01*
X135348047Y-102646873D01*
X135480272Y-102963333D01*
X135225136Y-102963333D01*
X135221494Y-102963337D01*
X135043748Y-102974401D01*
X134970000Y-103000413D01*
X134985052Y-103085367D01*
X134991152Y-103114479D01*
X135028355Y-103292055D01*
X135090010Y-103571913D01*
X135138365Y-103806564D01*
X135213724Y-104240910D01*
X135231981Y-104374483D01*
X135267656Y-104635500D01*
X135286686Y-104828926D01*
X135293363Y-105039157D01*
X135264422Y-105139216D01*
X135194976Y-105164667D01*
X135134228Y-105156494D01*
X135012333Y-105080000D01*
X134982152Y-105046933D01*
X134838003Y-104995333D01*
X134801755Y-105002718D01*
X134735952Y-105107786D01*
X134715360Y-105355167D01*
X134704122Y-105605981D01*
X134695820Y-105683413D01*
X134654133Y-106072250D01*
X134568884Y-106637188D01*
X134453571Y-107262929D01*
X134364181Y-107710191D01*
X134180257Y-107438789D01*
X134148229Y-107392915D01*
X134010318Y-107222575D01*
X133910951Y-107139455D01*
X133892700Y-107146137D01*
X133828108Y-107263731D01*
X133749265Y-107497222D01*
X133669266Y-107810261D01*
X133562451Y-108250987D01*
X133430670Y-108742647D01*
X133303284Y-109175236D01*
X133265627Y-109290537D01*
X133165152Y-109558006D01*
X133080828Y-109728021D01*
X133027845Y-109767902D01*
X133016102Y-109749223D01*
X132936928Y-109603330D01*
X132791839Y-109326453D01*
X132588169Y-108932888D01*
X132333255Y-108436927D01*
X132034432Y-107852864D01*
X131699035Y-107194993D01*
X131334401Y-106477607D01*
X130947865Y-105715000D01*
X130879309Y-105579573D01*
X130471783Y-104775064D01*
X130070960Y-103984638D01*
X129686796Y-103227872D01*
X129329245Y-102524344D01*
X129008263Y-101893631D01*
X128733804Y-101355310D01*
X128624398Y-101141321D01*
X129145549Y-101141321D01*
X129171791Y-101298533D01*
X129279380Y-101592596D01*
X129466029Y-102030551D01*
X129508467Y-102125287D01*
X129666812Y-102463765D01*
X129875020Y-102894167D01*
X130120647Y-103392096D01*
X130391249Y-103933159D01*
X130674382Y-104492960D01*
X130957600Y-105047105D01*
X131228461Y-105571198D01*
X131474518Y-106040846D01*
X131683328Y-106431653D01*
X131842447Y-106719225D01*
X131939430Y-106879167D01*
X131952925Y-106898110D01*
X132077750Y-107048827D01*
X132160598Y-107109000D01*
X132190557Y-107105569D01*
X132408029Y-107001945D01*
X132646120Y-106786202D01*
X132872188Y-106498856D01*
X133053587Y-106180426D01*
X133157673Y-105871429D01*
X133162784Y-105842706D01*
X133172070Y-105683413D01*
X133128219Y-105528642D01*
X133012074Y-105334147D01*
X132804477Y-105055682D01*
X132651153Y-104863080D01*
X132341255Y-104489576D01*
X131961519Y-104044542D01*
X131537426Y-103556765D01*
X131094457Y-103055034D01*
X130658092Y-102568135D01*
X130253812Y-102124858D01*
X129907096Y-101753989D01*
X129643425Y-101484317D01*
X129577758Y-101420420D01*
X129346247Y-101209303D01*
X129202939Y-101113924D01*
X129145549Y-101141321D01*
X128624398Y-101141321D01*
X128515824Y-100928959D01*
X128364277Y-100634155D01*
X128313631Y-100535663D01*
X129219136Y-100535663D01*
X129225913Y-100610322D01*
X129301078Y-100741298D01*
X129452223Y-100937386D01*
X129686944Y-101207385D01*
X130012834Y-101560092D01*
X130437489Y-102004305D01*
X130968503Y-102548821D01*
X131613470Y-103202437D01*
X131620203Y-103209233D01*
X132053365Y-103644116D01*
X132452800Y-104040809D01*
X132801525Y-104382785D01*
X133082558Y-104653520D01*
X133278914Y-104836486D01*
X133373609Y-104915158D01*
X133518970Y-104932227D01*
X133641341Y-104824248D01*
X133716187Y-104625094D01*
X133729069Y-104374483D01*
X133665546Y-104112133D01*
X133660600Y-104100957D01*
X133524938Y-103903691D01*
X133268191Y-103622151D01*
X132905308Y-103270285D01*
X132451238Y-102862044D01*
X131920930Y-102411375D01*
X131329333Y-101932228D01*
X131137653Y-101781952D01*
X130719513Y-101463369D01*
X130312858Y-101164672D01*
X129942009Y-100902823D01*
X129631284Y-100694786D01*
X129405005Y-100557524D01*
X129287489Y-100508000D01*
X129273150Y-100508521D01*
X129219136Y-100535663D01*
X128313631Y-100535663D01*
X128104124Y-100128228D01*
X127799582Y-99531642D01*
X127494776Y-98930917D01*
X127227733Y-98400778D01*
X127203791Y-98353133D01*
X126967017Y-97898916D01*
X126780512Y-97574504D01*
X126649623Y-97388567D01*
X126579693Y-97349773D01*
X126548405Y-97404844D01*
X126492051Y-97598499D01*
X126447797Y-97861550D01*
X126416133Y-98098380D01*
X126371382Y-98229828D01*
X126284490Y-98266902D01*
X126123150Y-98248065D01*
X126073951Y-98243415D01*
X125848274Y-98265306D01*
X125582726Y-98333110D01*
X125329021Y-98428324D01*
X125138874Y-98532449D01*
X125064000Y-98626982D01*
X125117331Y-98702015D01*
X125270442Y-98796881D01*
X125420996Y-98895819D01*
X125574042Y-99072483D01*
X125618134Y-99161053D01*
X125611178Y-99222486D01*
X125473433Y-99190607D01*
X125230203Y-99120002D01*
X124528523Y-98999060D01*
X123869951Y-99007235D01*
X123286908Y-99145199D01*
X123115216Y-99204020D01*
X122933279Y-99246069D01*
X122862666Y-99231834D01*
X122922288Y-99123162D01*
X123100067Y-98959172D01*
X123358395Y-98772280D01*
X123659122Y-98587665D01*
X123964098Y-98430506D01*
X124235171Y-98325983D01*
X124329047Y-98296353D01*
X124771456Y-98070944D01*
X125125743Y-97724081D01*
X125396966Y-97247344D01*
X125590183Y-96632316D01*
X125710452Y-95870578D01*
X125712831Y-95847167D01*
X125738115Y-95559406D01*
X125736841Y-95409510D01*
X125704462Y-95369190D01*
X125636430Y-95410160D01*
X125565384Y-95496210D01*
X125441169Y-95710455D01*
X125316650Y-95981660D01*
X125306110Y-96007599D01*
X125198159Y-96255008D01*
X125105270Y-96385108D01*
X124984923Y-96435553D01*
X124794600Y-96444000D01*
X124618027Y-96450417D01*
X124328577Y-96514067D01*
X124183560Y-96650504D01*
X124174583Y-96865436D01*
X124191218Y-96943844D01*
X124193587Y-97052385D01*
X124111553Y-97073171D01*
X123904851Y-97030902D01*
X123503020Y-96969294D01*
X122965067Y-96956227D01*
X122439904Y-97007370D01*
X122000788Y-97119324D01*
X121985890Y-97124967D01*
X121694449Y-97223268D01*
X121545171Y-97241176D01*
X121530425Y-97176747D01*
X121642574Y-97028034D01*
X121774939Y-96909035D01*
X122119448Y-96695730D01*
X122589691Y-96481822D01*
X123159000Y-96280459D01*
X123308017Y-96233298D01*
X123738911Y-96085049D01*
X124040802Y-95952571D01*
X124241742Y-95818409D01*
X124369778Y-95665109D01*
X124452960Y-95475214D01*
X124469334Y-95420528D01*
X124517982Y-95142116D01*
X124511422Y-94909782D01*
X124460544Y-94678136D01*
X123877913Y-94926068D01*
X123838524Y-94942828D01*
X123527740Y-95073388D01*
X123339152Y-95143630D01*
X123242237Y-95159009D01*
X123206472Y-95124980D01*
X123201333Y-95047000D01*
X123193538Y-94973390D01*
X123146120Y-94933872D01*
X123036499Y-94976398D01*
X122842998Y-95110867D01*
X122543941Y-95347177D01*
X122449871Y-95422757D01*
X122209247Y-95605668D01*
X122068462Y-95686501D01*
X122007407Y-95673814D01*
X122005974Y-95576167D01*
X122005082Y-95540002D01*
X121937949Y-95520496D01*
X121767755Y-95594219D01*
X121479302Y-95766666D01*
X121303748Y-95873017D01*
X121049615Y-95993192D01*
X120888847Y-96005630D01*
X120800829Y-95914833D01*
X120799920Y-95912688D01*
X120730198Y-95873424D01*
X120602395Y-95978333D01*
X120489327Y-96097840D01*
X120231350Y-96340588D01*
X119999454Y-96521839D01*
X119822852Y-96620269D01*
X119730756Y-96614556D01*
X119720756Y-96603980D01*
X119603302Y-96612593D01*
X119368957Y-96725582D01*
X119011744Y-96945696D01*
X118857035Y-97045374D01*
X118583200Y-97214765D01*
X118378933Y-97331711D01*
X118279803Y-97375333D01*
X118235808Y-97340303D01*
X118206000Y-97198789D01*
X118197322Y-97115101D01*
X118148290Y-97093540D01*
X118027554Y-97157109D01*
X117803833Y-97314834D01*
X117535664Y-97500286D01*
X117210106Y-97699485D01*
X116942815Y-97833970D01*
X116770871Y-97883333D01*
X116729941Y-97868970D01*
X116682000Y-97756333D01*
X116672014Y-97676540D01*
X116622268Y-97646448D01*
X116509710Y-97692826D01*
X116311467Y-97825773D01*
X116004666Y-98055390D01*
X115948006Y-98098246D01*
X115516560Y-98394256D01*
X115178826Y-98566405D01*
X114939809Y-98612709D01*
X114804516Y-98531182D01*
X114757944Y-98471698D01*
X114671487Y-98452698D01*
X114513958Y-98497057D01*
X114244940Y-98610505D01*
X114080442Y-98679257D01*
X113720421Y-98811984D01*
X113328032Y-98939983D01*
X112950794Y-99049026D01*
X112636229Y-99124885D01*
X112431859Y-99153333D01*
X112347532Y-99133234D01*
X112333382Y-99026333D01*
X112350316Y-98981493D01*
X112355001Y-98936367D01*
X112314819Y-98915499D01*
X112205549Y-98920753D01*
X112002970Y-98953989D01*
X111682860Y-99017071D01*
X111221000Y-99111860D01*
X111213377Y-99113428D01*
X110812386Y-99194115D01*
X110467459Y-99260265D01*
X110215140Y-99305084D01*
X110091971Y-99321777D01*
X110080769Y-99272770D01*
X110163381Y-99131343D01*
X110324804Y-98929746D01*
X110483226Y-98741638D01*
X110618608Y-98561485D01*
X110670666Y-98464080D01*
X110613465Y-98430747D01*
X110428248Y-98402280D01*
X110159329Y-98391333D01*
X109831673Y-98382172D01*
X109441989Y-98357159D01*
X109030965Y-98320546D01*
X108636680Y-98276581D01*
X108297214Y-98229516D01*
X108050647Y-98183599D01*
X107935058Y-98143081D01*
X107926251Y-98122048D01*
X107978861Y-98009171D01*
X108117159Y-97866930D01*
X112025333Y-97866930D01*
X112084192Y-97926007D01*
X112262473Y-97956610D01*
X112512056Y-97952822D01*
X112783763Y-97918543D01*
X113028418Y-97857667D01*
X113196843Y-97774093D01*
X113232989Y-97740634D01*
X113320935Y-97641059D01*
X113740132Y-97641059D01*
X113744960Y-97738535D01*
X113871247Y-97793511D01*
X114133622Y-97755536D01*
X114528962Y-97624676D01*
X114958258Y-97459509D01*
X115037376Y-97261212D01*
X115412000Y-97261212D01*
X115412347Y-97274728D01*
X115454395Y-97357478D01*
X115578792Y-97352040D01*
X115802955Y-97253562D01*
X116144302Y-97057191D01*
X116664938Y-96740333D01*
X116716662Y-96432373D01*
X117145979Y-96432373D01*
X117203695Y-96508378D01*
X117390754Y-96528667D01*
X117559056Y-96516872D01*
X117839370Y-96418046D01*
X118052805Y-96207709D01*
X118206829Y-95872430D01*
X118261555Y-95618500D01*
X118630028Y-95618500D01*
X118631445Y-95676080D01*
X118678262Y-95815301D01*
X118819833Y-95850913D01*
X118827101Y-95850765D01*
X119025212Y-95792406D01*
X119234048Y-95660413D01*
X119286776Y-95613296D01*
X119367759Y-95516317D01*
X119425323Y-95385810D01*
X119437303Y-95330512D01*
X119843649Y-95330512D01*
X119890014Y-95410335D01*
X120006786Y-95425425D01*
X120259792Y-95376430D01*
X120509656Y-95186234D01*
X120686825Y-94850003D01*
X120754591Y-94539527D01*
X121089355Y-94539527D01*
X121100143Y-94755522D01*
X121130810Y-94868915D01*
X121190150Y-94912733D01*
X121286953Y-94920000D01*
X121535554Y-94867906D01*
X121749930Y-94682291D01*
X121899604Y-94356069D01*
X121947400Y-94098361D01*
X122272520Y-94098361D01*
X122292883Y-94295226D01*
X122343262Y-94389416D01*
X122431724Y-94406086D01*
X122566333Y-94370388D01*
X122676674Y-94339857D01*
X122875373Y-94292916D01*
X123047781Y-94204663D01*
X123183331Y-93989716D01*
X123183564Y-93988667D01*
X123605558Y-93988667D01*
X123852179Y-93988667D01*
X124045769Y-93966817D01*
X124200336Y-93864657D01*
X124279638Y-93653330D01*
X124302000Y-93304983D01*
X124301998Y-93289649D01*
X124296655Y-93023359D01*
X124265559Y-92878638D01*
X124185803Y-92809759D01*
X124034477Y-92770995D01*
X124022688Y-92768692D01*
X123827048Y-92747078D01*
X123719488Y-92764957D01*
X123718558Y-92765990D01*
X123690321Y-92873621D01*
X123661713Y-93101040D01*
X123638790Y-93400545D01*
X123605558Y-93988667D01*
X123183564Y-93988667D01*
X123261134Y-93639420D01*
X123286000Y-93140273D01*
X123286000Y-92571148D01*
X122852783Y-92513680D01*
X122691144Y-92496354D01*
X122474255Y-92489114D01*
X122367092Y-92508686D01*
X122347601Y-92580435D01*
X122322924Y-92792583D01*
X122300313Y-93106936D01*
X122293476Y-93256366D01*
X122282943Y-93486580D01*
X122274110Y-93773668D01*
X122272520Y-94098361D01*
X121947400Y-94098361D01*
X121987365Y-93882880D01*
X122016000Y-93256366D01*
X122016000Y-92464667D01*
X121740833Y-92465963D01*
X121512467Y-92488698D01*
X121347729Y-92541940D01*
X121315386Y-92570969D01*
X121223810Y-92769170D01*
X121153948Y-93114214D01*
X121108387Y-93589685D01*
X121104017Y-93727611D01*
X121089714Y-94179167D01*
X121089654Y-94187905D01*
X121089355Y-94539527D01*
X120754591Y-94539527D01*
X120792732Y-94364781D01*
X120828807Y-93727611D01*
X120827697Y-93518587D01*
X120818963Y-93198504D01*
X120803393Y-92968682D01*
X120783092Y-92868647D01*
X120762775Y-92861066D01*
X120622634Y-92879890D01*
X120409354Y-92949193D01*
X120338317Y-92978277D01*
X120184678Y-93062907D01*
X120082123Y-93180714D01*
X120016403Y-93365712D01*
X120007960Y-93421736D01*
X119973272Y-93651914D01*
X119938481Y-94073333D01*
X119911125Y-94436962D01*
X119881175Y-94797501D01*
X119855751Y-95068167D01*
X119848519Y-95140602D01*
X119843649Y-95330512D01*
X119437303Y-95330512D01*
X119468193Y-95187921D01*
X119505091Y-94888795D01*
X119544739Y-94454580D01*
X119545627Y-94444197D01*
X119577692Y-94052020D01*
X119601380Y-93728709D01*
X119614442Y-93507526D01*
X119614625Y-93421736D01*
X119521982Y-93414175D01*
X119334843Y-93462488D01*
X119118390Y-93546310D01*
X118934703Y-93641302D01*
X118845862Y-93723126D01*
X118828081Y-93803062D01*
X118827825Y-93804213D01*
X118790591Y-94041334D01*
X118759609Y-94278142D01*
X118747750Y-94368787D01*
X118704788Y-94738402D01*
X118667190Y-95102006D01*
X118640441Y-95411429D01*
X118630028Y-95618500D01*
X118261555Y-95618500D01*
X118308908Y-95398777D01*
X118366508Y-94773317D01*
X118370150Y-94704831D01*
X118387724Y-94278142D01*
X118378004Y-93999083D01*
X118327356Y-93848853D01*
X118222148Y-93808652D01*
X118048746Y-93859678D01*
X117793518Y-93983131D01*
X117472448Y-94146928D01*
X117440813Y-94373197D01*
X117326667Y-95189631D01*
X117324789Y-95203062D01*
X117266378Y-95615460D01*
X117214197Y-95974610D01*
X117173873Y-96242346D01*
X117151036Y-96380500D01*
X117145979Y-96432373D01*
X116716662Y-96432373D01*
X116849803Y-95639667D01*
X116860933Y-95573583D01*
X116932876Y-95154777D01*
X116997382Y-94792642D01*
X117047772Y-94523982D01*
X117077366Y-94385605D01*
X117080673Y-94373197D01*
X117078836Y-94284394D01*
X116986044Y-94251369D01*
X116764018Y-94258605D01*
X116407973Y-94285000D01*
X116398233Y-94312989D01*
X116356725Y-94432268D01*
X116276839Y-94661834D01*
X115909986Y-95716045D01*
X115768161Y-96128348D01*
X115625869Y-96553038D01*
X115513065Y-96902068D01*
X115438769Y-97147454D01*
X115412000Y-97261212D01*
X115037376Y-97261212D01*
X115388865Y-96380255D01*
X115606019Y-95826736D01*
X115799935Y-95303531D01*
X115926115Y-94918095D01*
X115986484Y-94661834D01*
X115982971Y-94526154D01*
X115917501Y-94502462D01*
X115792001Y-94582162D01*
X115760655Y-94614415D01*
X115632554Y-94777212D01*
X115440110Y-95042516D01*
X115201288Y-95383540D01*
X114934055Y-95773502D01*
X114656377Y-96185617D01*
X114386220Y-96593103D01*
X114141550Y-96969173D01*
X113940335Y-97287045D01*
X113800540Y-97519935D01*
X113740132Y-97641059D01*
X113320935Y-97641059D01*
X113383159Y-97570607D01*
X113594011Y-97305161D01*
X113849320Y-96967389D01*
X114132860Y-96580379D01*
X114428406Y-96167223D01*
X114719731Y-95751011D01*
X114990611Y-95354833D01*
X115224819Y-95001779D01*
X115406130Y-94714940D01*
X115518318Y-94517407D01*
X115545157Y-94432268D01*
X115538896Y-94428889D01*
X115436805Y-94460999D01*
X115268708Y-94565704D01*
X115139520Y-94673467D01*
X114915093Y-94880506D01*
X114622041Y-95162105D01*
X114279326Y-95498961D01*
X113905912Y-95871774D01*
X113520761Y-96261242D01*
X113142838Y-96648063D01*
X112791104Y-97012937D01*
X112484524Y-97336562D01*
X112242060Y-97599637D01*
X112082675Y-97782860D01*
X112025333Y-97866930D01*
X108117159Y-97866930D01*
X108125558Y-97858291D01*
X108180567Y-97811131D01*
X108326237Y-97675322D01*
X108384666Y-97602053D01*
X108384533Y-97601200D01*
X108302373Y-97567217D01*
X108097679Y-97516138D01*
X107813166Y-97458680D01*
X107798880Y-97456025D01*
X107419545Y-97373598D01*
X107111348Y-97295120D01*
X109908666Y-97295120D01*
X109944914Y-97335119D01*
X110104220Y-97414415D01*
X110347367Y-97499053D01*
X110481339Y-97533938D01*
X110870842Y-97602207D01*
X111236506Y-97629333D01*
X111278075Y-97629290D01*
X111455634Y-97623418D01*
X111602724Y-97594858D01*
X111750641Y-97525524D01*
X111930680Y-97397330D01*
X112174137Y-97192189D01*
X112512305Y-96892016D01*
X112733421Y-96694098D01*
X113334617Y-96151722D01*
X113872825Y-95659822D01*
X114337292Y-95228556D01*
X114717263Y-94868083D01*
X115001985Y-94588558D01*
X115180704Y-94400141D01*
X115242666Y-94312989D01*
X115198658Y-94273835D01*
X115052166Y-94290477D01*
X114925324Y-94345073D01*
X114672258Y-94474069D01*
X114322338Y-94663032D01*
X113895942Y-94900060D01*
X113413446Y-95173248D01*
X112895227Y-95470693D01*
X112361662Y-95780493D01*
X111833128Y-96090743D01*
X111330002Y-96389540D01*
X110872659Y-96664982D01*
X110481477Y-96905164D01*
X110176834Y-97098183D01*
X109979104Y-97232136D01*
X109908666Y-97295120D01*
X107111348Y-97295120D01*
X106977085Y-97260932D01*
X106564333Y-97141597D01*
X105887000Y-96929675D01*
X106141000Y-96814410D01*
X106201045Y-96788771D01*
X106417262Y-96700386D01*
X106737614Y-96571434D01*
X107707333Y-96571434D01*
X107721005Y-96603806D01*
X107848721Y-96690561D01*
X108067166Y-96766138D01*
X108200482Y-96795752D01*
X108546109Y-96857823D01*
X108892666Y-96905301D01*
X109059160Y-96920702D01*
X109233099Y-96919734D01*
X109405571Y-96885365D01*
X109614124Y-96805704D01*
X109896307Y-96668861D01*
X110289666Y-96462949D01*
X110523999Y-96339151D01*
X110991963Y-96092993D01*
X111529939Y-95810974D01*
X112088445Y-95519019D01*
X112618000Y-95243054D01*
X112736961Y-95181113D01*
X113505817Y-94776660D01*
X114122213Y-94443665D01*
X114586530Y-94180968D01*
X114899149Y-93987408D01*
X115060452Y-93861826D01*
X115070820Y-93803062D01*
X114930636Y-93809956D01*
X114640280Y-93881348D01*
X114200134Y-94016078D01*
X113610580Y-94212986D01*
X112872000Y-94470912D01*
X112620639Y-94560283D01*
X111727910Y-94882847D01*
X110891595Y-95192954D01*
X110124674Y-95485325D01*
X109440128Y-95754679D01*
X108850937Y-95995738D01*
X108370081Y-96203222D01*
X108010541Y-96371853D01*
X107785299Y-96496350D01*
X107707333Y-96571434D01*
X106737614Y-96571434D01*
X106759617Y-96562577D01*
X107208242Y-96383206D01*
X107743269Y-96170137D01*
X108344830Y-95931231D01*
X108993056Y-95674353D01*
X109668079Y-95407363D01*
X110350030Y-95138125D01*
X111019043Y-94874502D01*
X111655247Y-94624356D01*
X112238776Y-94395550D01*
X112749761Y-94195947D01*
X113168333Y-94033408D01*
X113411831Y-93938831D01*
X113799458Y-93787493D01*
X114281625Y-93598726D01*
X114600381Y-93473720D01*
X115758635Y-93473720D01*
X115821364Y-93585231D01*
X115891831Y-93620128D01*
X116105286Y-93665137D01*
X116399481Y-93697078D01*
X116720999Y-93712403D01*
X117016422Y-93707562D01*
X117232333Y-93679004D01*
X117390509Y-93634919D01*
X117787343Y-93508989D01*
X118236326Y-93350391D01*
X118713982Y-93169183D01*
X119196833Y-92975424D01*
X119661403Y-92779173D01*
X120084215Y-92590488D01*
X120441793Y-92419428D01*
X120710659Y-92276051D01*
X120867337Y-92170416D01*
X120888350Y-92112582D01*
X120750486Y-92072260D01*
X120496783Y-92029943D01*
X120184781Y-91995803D01*
X120120046Y-91990501D01*
X119942411Y-91979898D01*
X119778687Y-91983110D01*
X119604287Y-92006788D01*
X119394624Y-92057587D01*
X119125110Y-92142159D01*
X118771158Y-92267159D01*
X118308181Y-92439239D01*
X117711591Y-92665054D01*
X117355868Y-92800621D01*
X116856638Y-92992892D01*
X116425930Y-93161186D01*
X116086241Y-93296603D01*
X115860066Y-93390244D01*
X115769903Y-93433208D01*
X115758635Y-93473720D01*
X114600381Y-93473720D01*
X114833111Y-93382451D01*
X115428695Y-93148585D01*
X116043156Y-92907050D01*
X116651274Y-92667764D01*
X117227829Y-92440647D01*
X117747599Y-92235618D01*
X118185365Y-92062596D01*
X118515905Y-91931502D01*
X118714000Y-91852254D01*
X118925666Y-91766504D01*
X118662851Y-91654715D01*
X118650167Y-91649412D01*
X118292136Y-91543041D01*
X117831821Y-91463010D01*
X117332254Y-91415425D01*
X116856471Y-91406394D01*
X116467506Y-91442024D01*
X116247229Y-91478301D01*
X116035566Y-91501765D01*
X115939559Y-91496448D01*
X115927763Y-91429683D01*
X115969010Y-91249063D01*
X115989710Y-91194667D01*
X116232422Y-91194667D01*
X116919967Y-91194667D01*
X117021763Y-91195506D01*
X117651315Y-91229388D01*
X118417047Y-91313363D01*
X119323818Y-91448215D01*
X120376492Y-91634730D01*
X121579929Y-91873691D01*
X122691075Y-92112582D01*
X122938992Y-92165883D01*
X123276530Y-92240473D01*
X123650289Y-92319336D01*
X123897903Y-92360937D01*
X124042708Y-92364900D01*
X124108040Y-92330844D01*
X124117235Y-92258393D01*
X124093628Y-92147167D01*
X124015276Y-91920107D01*
X123893950Y-91668504D01*
X123822676Y-91559374D01*
X123711566Y-91466611D01*
X123536883Y-91419373D01*
X123245747Y-91395378D01*
X122791138Y-91354545D01*
X122280328Y-91268956D01*
X121703303Y-91131235D01*
X121016160Y-90932264D01*
X120786749Y-90863082D01*
X120471958Y-90778769D01*
X120245414Y-90741449D01*
X120061140Y-90745158D01*
X119873160Y-90783927D01*
X119725698Y-90817162D01*
X119515982Y-90830637D01*
X119274251Y-90792708D01*
X118937915Y-90697597D01*
X118554351Y-90604979D01*
X119137333Y-90604979D01*
X119158244Y-90637332D01*
X119289113Y-90676092D01*
X119480939Y-90683924D01*
X119664283Y-90660689D01*
X119769708Y-90606248D01*
X119762051Y-90506964D01*
X119643952Y-90429097D01*
X119472597Y-90396999D01*
X119306666Y-90432667D01*
X119203395Y-90504999D01*
X119137333Y-90604979D01*
X118554351Y-90604979D01*
X118394797Y-90566452D01*
X117776900Y-90513663D01*
X117221461Y-90573045D01*
X116752419Y-90741598D01*
X116393711Y-91016324D01*
X116232422Y-91194667D01*
X115989710Y-91194667D01*
X116057672Y-91016070D01*
X116172004Y-90785526D01*
X116290262Y-90612255D01*
X116495560Y-90433366D01*
X116906060Y-90244671D01*
X117394963Y-90178667D01*
X117796881Y-90139436D01*
X117871328Y-90106592D01*
X118629333Y-90106592D01*
X118632893Y-90122563D01*
X118744391Y-90161746D01*
X119008608Y-90141018D01*
X119071364Y-90132781D01*
X119282078Y-90126767D01*
X119521656Y-90160970D01*
X119832607Y-90243627D01*
X120257441Y-90382972D01*
X120464235Y-90452205D01*
X120951091Y-90604903D01*
X120955726Y-90606248D01*
X121438480Y-90746353D01*
X121846666Y-90852974D01*
X122277933Y-90945152D01*
X122781465Y-91011911D01*
X123166756Y-91002281D01*
X123452792Y-90917018D01*
X123478682Y-90898333D01*
X124046796Y-90898333D01*
X124046898Y-90900317D01*
X124087535Y-91012725D01*
X124197218Y-91262140D01*
X124369430Y-91634976D01*
X124597660Y-92117651D01*
X124665179Y-92258393D01*
X124815218Y-92571148D01*
X124875391Y-92696580D01*
X125170322Y-93304983D01*
X125196109Y-93358180D01*
X125553301Y-94088867D01*
X125940452Y-94875057D01*
X126351048Y-95703167D01*
X126384705Y-95770809D01*
X126793806Y-96590812D01*
X127181014Y-97363036D01*
X127539683Y-98074479D01*
X127863168Y-98712141D01*
X128144824Y-99263019D01*
X128378006Y-99714113D01*
X128556068Y-100052419D01*
X128672367Y-100264938D01*
X128720256Y-100338667D01*
X128768483Y-100322225D01*
X128864386Y-100182978D01*
X128873022Y-100151940D01*
X129424333Y-100151940D01*
X129636000Y-100364248D01*
X129741520Y-100454566D01*
X129972031Y-100634744D01*
X130301109Y-100883393D01*
X130707873Y-101184919D01*
X131171442Y-101523723D01*
X131670936Y-101884209D01*
X132128106Y-102211027D01*
X132591276Y-102539843D01*
X132998597Y-102826636D01*
X133329698Y-103057142D01*
X133564212Y-103217098D01*
X133681770Y-103292243D01*
X133807398Y-103345933D01*
X133859063Y-103298302D01*
X133867474Y-103114479D01*
X133849559Y-102936747D01*
X133739261Y-102571986D01*
X133558015Y-102228060D01*
X133340297Y-101979212D01*
X133271463Y-101934606D01*
X133052760Y-101814285D01*
X132725952Y-101646095D01*
X132319508Y-101443639D01*
X131861898Y-101220517D01*
X131381590Y-100990330D01*
X130907053Y-100766681D01*
X130466756Y-100563169D01*
X130089169Y-100393396D01*
X129802761Y-100270964D01*
X129636000Y-100209472D01*
X129424333Y-100151940D01*
X128873022Y-100151940D01*
X128932658Y-99937601D01*
X128958666Y-99629612D01*
X128958627Y-99622242D01*
X128948609Y-99534001D01*
X129479270Y-99534001D01*
X129479534Y-99629309D01*
X129479680Y-99629612D01*
X129509399Y-99691304D01*
X129663420Y-99828163D01*
X129952121Y-100000154D01*
X130382343Y-100210777D01*
X130960930Y-100463530D01*
X131694724Y-100761912D01*
X131782512Y-100796530D01*
X132198952Y-100956473D01*
X132572265Y-101093326D01*
X132864550Y-101193502D01*
X133037903Y-101243414D01*
X133199696Y-101267753D01*
X133262941Y-101229403D01*
X133237035Y-101092019D01*
X133196760Y-100979010D01*
X132980825Y-100620648D01*
X132671290Y-100316420D01*
X132560888Y-100259397D01*
X132299461Y-100161732D01*
X131935831Y-100045329D01*
X131505440Y-99920024D01*
X131043735Y-99795655D01*
X130586158Y-99682060D01*
X130168155Y-99589074D01*
X129825171Y-99526534D01*
X129741220Y-99514413D01*
X129553186Y-99499661D01*
X129479270Y-99534001D01*
X128948609Y-99534001D01*
X128927145Y-99344954D01*
X128848236Y-98988897D01*
X128738440Y-98629212D01*
X128736642Y-98624187D01*
X128726347Y-98598779D01*
X129221623Y-98598779D01*
X129273042Y-98752831D01*
X129284466Y-98775291D01*
X129375323Y-98876430D01*
X129545993Y-98975116D01*
X129824827Y-99085041D01*
X130240179Y-99219898D01*
X130500760Y-99298814D01*
X130903601Y-99416056D01*
X131254474Y-99512811D01*
X131498666Y-99573700D01*
X131849376Y-99639714D01*
X132135869Y-99658440D01*
X132295707Y-99610694D01*
X132345333Y-99494946D01*
X132335901Y-99430238D01*
X132226835Y-99214788D01*
X132031042Y-98981600D01*
X131793186Y-98778433D01*
X131557934Y-98653044D01*
X131414011Y-98618861D01*
X131118922Y-98568910D01*
X130740054Y-98517462D01*
X130324636Y-98471472D01*
X129963382Y-98439140D01*
X129596895Y-98420981D01*
X129364083Y-98438062D01*
X129245481Y-98495592D01*
X129221623Y-98598779D01*
X128726347Y-98598779D01*
X128640896Y-98387896D01*
X128483410Y-98035183D01*
X128272668Y-97582845D01*
X128210596Y-97452839D01*
X128704666Y-97452839D01*
X128777540Y-97694407D01*
X128980999Y-97894388D01*
X129275700Y-98005746D01*
X129288822Y-98007900D01*
X129594999Y-98049442D01*
X129971189Y-98088803D01*
X130369763Y-98122391D01*
X130743092Y-98146616D01*
X131043548Y-98157887D01*
X131223500Y-98152611D01*
X131277693Y-98143039D01*
X131390310Y-98082700D01*
X131392954Y-97953682D01*
X131290993Y-97721721D01*
X131227912Y-97625251D01*
X130957244Y-97417620D01*
X130545147Y-97285803D01*
X129999846Y-97231746D01*
X129329567Y-97257396D01*
X129098776Y-97281210D01*
X128859206Y-97322065D01*
X128738146Y-97376050D01*
X128704666Y-97452839D01*
X128210596Y-97452839D01*
X128017151Y-97047679D01*
X127725339Y-96446481D01*
X127679509Y-96353217D01*
X128112000Y-96353217D01*
X128149477Y-96444813D01*
X128260166Y-96598592D01*
X128315320Y-96653161D01*
X128459743Y-96730499D01*
X128688222Y-96778554D01*
X129043333Y-96808751D01*
X129048853Y-96809069D01*
X129516384Y-96823723D01*
X129952960Y-96815490D01*
X130312723Y-96786499D01*
X130549818Y-96738876D01*
X130560101Y-96734859D01*
X130616076Y-96644966D01*
X130548412Y-96503510D01*
X130379229Y-96339809D01*
X130130642Y-96183185D01*
X130070747Y-96153514D01*
X129839684Y-96066976D01*
X129596835Y-96040238D01*
X129265639Y-96062629D01*
X129165142Y-96074086D01*
X128746392Y-96135671D01*
X128412619Y-96207423D01*
X128191821Y-96282289D01*
X128112000Y-96353217D01*
X127679509Y-96353217D01*
X127405715Y-95796049D01*
X127077863Y-95135546D01*
X127615114Y-95135546D01*
X127624750Y-95240229D01*
X127687542Y-95425285D01*
X127793877Y-95682000D01*
X128884272Y-95682000D01*
X128957023Y-95681829D01*
X129354872Y-95674399D01*
X129678149Y-95657604D01*
X129895274Y-95633680D01*
X129974666Y-95604859D01*
X129958451Y-95557116D01*
X129838589Y-95417964D01*
X129644702Y-95258235D01*
X129427956Y-95117555D01*
X129239519Y-95035549D01*
X129137258Y-95022990D01*
X128897470Y-95018511D01*
X128588731Y-95026912D01*
X128258697Y-95045346D01*
X127955023Y-95070968D01*
X127725366Y-95100933D01*
X127617381Y-95132397D01*
X127615114Y-95135546D01*
X127077863Y-95135546D01*
X127066760Y-95113178D01*
X126716955Y-94414666D01*
X126573930Y-94131454D01*
X127011333Y-94131454D01*
X127039465Y-94270722D01*
X127138066Y-94470591D01*
X127150644Y-94486874D01*
X127339552Y-94602008D01*
X127676543Y-94672593D01*
X128166889Y-94699295D01*
X128815863Y-94682781D01*
X128917480Y-94675887D01*
X129183891Y-94627102D01*
X129287533Y-94536908D01*
X129230838Y-94399558D01*
X129016238Y-94209306D01*
X128958708Y-94169501D01*
X128809179Y-94097660D01*
X128608126Y-94050651D01*
X128316287Y-94021223D01*
X127894404Y-94002126D01*
X127822390Y-93999808D01*
X127450737Y-93990804D01*
X127213683Y-93995091D01*
X127081348Y-94017044D01*
X127023857Y-94061040D01*
X127011333Y-94131454D01*
X126573930Y-94131454D01*
X126476508Y-93938542D01*
X131655921Y-93938542D01*
X131731130Y-94045290D01*
X131907378Y-94228525D01*
X132162949Y-94469135D01*
X132476126Y-94748010D01*
X132825192Y-95046037D01*
X133188432Y-95344103D01*
X133544129Y-95623099D01*
X133870566Y-95863910D01*
X134257601Y-96132239D01*
X134535527Y-96306673D01*
X134717785Y-96387889D01*
X134823853Y-96380837D01*
X134873210Y-96290465D01*
X134885333Y-96121723D01*
X134884688Y-96065063D01*
X134872797Y-95986735D01*
X134831311Y-95908764D01*
X134741678Y-95815437D01*
X134585348Y-95691041D01*
X134343770Y-95519864D01*
X133998393Y-95286193D01*
X133530666Y-94974315D01*
X133503494Y-94956232D01*
X132939825Y-94585288D01*
X132498349Y-94304647D01*
X132164442Y-94106062D01*
X131923482Y-93981282D01*
X131760844Y-93922058D01*
X131661906Y-93920142D01*
X131655921Y-93938542D01*
X126476508Y-93938542D01*
X126364783Y-93717309D01*
X126018723Y-93037904D01*
X126009108Y-93019204D01*
X126418666Y-93019204D01*
X126418694Y-93020242D01*
X126455496Y-93123617D01*
X126541118Y-93302537D01*
X126608027Y-93414165D01*
X126694448Y-93487559D01*
X126837438Y-93534010D01*
X127074497Y-93565664D01*
X127443125Y-93594665D01*
X127474644Y-93596895D01*
X127997716Y-93630384D01*
X128372052Y-93645650D01*
X128616321Y-93642492D01*
X128749192Y-93620706D01*
X128789333Y-93580092D01*
X128789137Y-93574042D01*
X128709802Y-93431618D01*
X128520622Y-93274446D01*
X128271078Y-93136179D01*
X128010647Y-93050471D01*
X127907542Y-93033774D01*
X127631937Y-93005314D01*
X127309931Y-92986141D01*
X126984561Y-92977097D01*
X126698868Y-92979030D01*
X126495890Y-92992784D01*
X126418666Y-93019204D01*
X126009108Y-93019204D01*
X125687258Y-92393247D01*
X125472474Y-91980161D01*
X125910666Y-91980161D01*
X125911345Y-91999484D01*
X125998412Y-92215730D01*
X126193515Y-92399970D01*
X126442267Y-92499114D01*
X126451379Y-92500482D01*
X126783753Y-92540460D01*
X127150684Y-92569679D01*
X127511569Y-92586853D01*
X127825804Y-92590696D01*
X128052787Y-92579923D01*
X128151914Y-92553248D01*
X128160341Y-92528069D01*
X128103460Y-92406598D01*
X127939355Y-92258945D01*
X127708135Y-92111717D01*
X127449910Y-91991521D01*
X127204791Y-91924965D01*
X126897498Y-91890693D01*
X126515423Y-91870836D01*
X126201520Y-91880069D01*
X125988898Y-91916982D01*
X125910666Y-91980161D01*
X125472474Y-91980161D01*
X125378870Y-91800136D01*
X125102039Y-91275366D01*
X124941071Y-90976510D01*
X125432220Y-90976510D01*
X125511288Y-91136166D01*
X125535065Y-91170173D01*
X125631940Y-91263051D01*
X125782335Y-91329760D01*
X126024689Y-91383345D01*
X126397441Y-91436847D01*
X126522780Y-91452449D01*
X126895227Y-91493738D01*
X127217007Y-91522523D01*
X127429601Y-91533333D01*
X127578664Y-91527779D01*
X127651582Y-91492657D01*
X127604849Y-91407356D01*
X127566132Y-91363514D01*
X127516410Y-91326506D01*
X129297333Y-91326506D01*
X129302391Y-91367828D01*
X129381545Y-91490718D01*
X129383620Y-91492657D01*
X129446885Y-91551788D01*
X129554583Y-91708739D01*
X129572875Y-91745000D01*
X129586474Y-91865683D01*
X129457772Y-91943387D01*
X129430523Y-91953725D01*
X129353546Y-91998772D01*
X129355354Y-92067485D01*
X129449309Y-92192173D01*
X129648775Y-92405145D01*
X129758472Y-92528069D01*
X129842770Y-92622533D01*
X129935908Y-92773557D01*
X129909050Y-92842886D01*
X129885704Y-92858024D01*
X129882161Y-92965481D01*
X129980603Y-93131377D01*
X130155931Y-93320947D01*
X130383046Y-93499425D01*
X130538423Y-93580092D01*
X130612388Y-93618493D01*
X130831364Y-93627793D01*
X131022412Y-93492366D01*
X131054568Y-93436138D01*
X131597842Y-93436138D01*
X131599652Y-93492948D01*
X131640751Y-93540305D01*
X131805835Y-93672532D01*
X132073348Y-93863780D01*
X132418417Y-94096465D01*
X132816169Y-94353003D01*
X133408533Y-94724011D01*
X133885318Y-95014571D01*
X134248991Y-95224653D01*
X134513334Y-95361376D01*
X134692132Y-95431860D01*
X134799166Y-95443225D01*
X134848222Y-95402589D01*
X134855413Y-95266780D01*
X134806370Y-95062000D01*
X134771167Y-94996075D01*
X134673020Y-94892796D01*
X134501388Y-94770536D01*
X134235953Y-94616854D01*
X133856400Y-94419307D01*
X133342414Y-94165453D01*
X133279630Y-94134913D01*
X132718413Y-93864040D01*
X132290740Y-93663103D01*
X131980730Y-93525973D01*
X131772499Y-93446522D01*
X131650164Y-93418620D01*
X131597842Y-93436138D01*
X131054568Y-93436138D01*
X131097436Y-93361177D01*
X131185619Y-93096019D01*
X131196812Y-93045086D01*
X131583333Y-93045086D01*
X131597468Y-93080444D01*
X131741459Y-93199234D01*
X132033262Y-93362885D01*
X132463468Y-93566429D01*
X133022666Y-93804900D01*
X133409972Y-93960691D01*
X133851314Y-94133477D01*
X134234622Y-94279141D01*
X134811578Y-94493185D01*
X134784956Y-94262092D01*
X134754762Y-94157969D01*
X134646196Y-94020080D01*
X134443944Y-93879588D01*
X134130349Y-93726910D01*
X133687756Y-93552462D01*
X133098508Y-93346660D01*
X132806856Y-93250773D01*
X132271732Y-93090874D01*
X131889363Y-93003278D01*
X131659859Y-92988008D01*
X131583333Y-93045086D01*
X131196812Y-93045086D01*
X131255540Y-92777854D01*
X131293631Y-92471070D01*
X131293583Y-92469562D01*
X131620991Y-92469562D01*
X131621302Y-92471070D01*
X131636724Y-92546036D01*
X131777079Y-92641548D01*
X132052057Y-92761251D01*
X132471658Y-92910298D01*
X133045884Y-93093844D01*
X133280907Y-93165846D01*
X133698975Y-93290409D01*
X134049288Y-93390253D01*
X134300612Y-93456600D01*
X134421718Y-93480667D01*
X134467966Y-93470788D01*
X134537764Y-93368774D01*
X134527107Y-93211730D01*
X134433930Y-93069171D01*
X134304573Y-93005784D01*
X134045545Y-92917551D01*
X133695719Y-92815608D01*
X133291273Y-92708750D01*
X132868382Y-92605770D01*
X132463221Y-92515460D01*
X132111966Y-92446614D01*
X131850794Y-92408026D01*
X131715879Y-92408489D01*
X131620991Y-92469562D01*
X131293583Y-92469562D01*
X131286323Y-92240054D01*
X131243398Y-92030782D01*
X131211499Y-91908628D01*
X131668000Y-91908628D01*
X131690507Y-91979579D01*
X131816166Y-92075239D01*
X131824065Y-92077630D01*
X131975315Y-92121743D01*
X132249083Y-92200363D01*
X132609115Y-92303112D01*
X133019153Y-92419611D01*
X133342411Y-92511141D01*
X133709509Y-92613171D01*
X133954638Y-92675637D01*
X134102424Y-92702438D01*
X134177495Y-92697475D01*
X134204478Y-92664645D01*
X134208000Y-92607849D01*
X134191779Y-92493589D01*
X134096571Y-92348214D01*
X133897204Y-92223567D01*
X133572186Y-92107631D01*
X133100022Y-91988390D01*
X132615203Y-91885363D01*
X132182802Y-91813142D01*
X131888801Y-91793392D01*
X131721200Y-91825443D01*
X131668000Y-91908628D01*
X131211499Y-91908628D01*
X131184329Y-91804586D01*
X131112310Y-91675817D01*
X130998873Y-91602236D01*
X130815546Y-91541602D01*
X130588326Y-91480776D01*
X130241075Y-91399838D01*
X129882320Y-91325803D01*
X129635554Y-91281505D01*
X129425944Y-91256884D01*
X129324058Y-91271871D01*
X129297333Y-91326506D01*
X127516410Y-91326506D01*
X127262526Y-91137542D01*
X126828834Y-90974861D01*
X126249333Y-90869229D01*
X125878571Y-90832215D01*
X125599919Y-90830301D01*
X125456449Y-90876477D01*
X125432220Y-90976510D01*
X124941071Y-90976510D01*
X124865247Y-90835735D01*
X124676975Y-90498039D01*
X124545706Y-90279075D01*
X124479920Y-90195640D01*
X124428724Y-90206159D01*
X124311842Y-90319515D01*
X124187441Y-90508008D01*
X124088199Y-90718621D01*
X124046796Y-90898333D01*
X123478682Y-90898333D01*
X123618618Y-90797338D01*
X123827771Y-90557009D01*
X123985594Y-90282603D01*
X124027940Y-90117402D01*
X124934523Y-90117402D01*
X124980849Y-90219937D01*
X125166207Y-90326697D01*
X125469176Y-90427580D01*
X125868333Y-90512483D01*
X125870835Y-90512901D01*
X126188699Y-90566693D01*
X126453839Y-90612751D01*
X126609082Y-90641145D01*
X126688988Y-90650590D01*
X126792088Y-90612580D01*
X126765344Y-90517281D01*
X126608799Y-90401089D01*
X126534871Y-90367070D01*
X126277378Y-90278493D01*
X125957851Y-90194847D01*
X125621161Y-90124785D01*
X125312184Y-90076956D01*
X125075792Y-90060014D01*
X124956859Y-90082608D01*
X124934523Y-90117402D01*
X124027940Y-90117402D01*
X124048000Y-90039146D01*
X124048000Y-89840000D01*
X121502434Y-89840000D01*
X121045636Y-89840519D01*
X120349281Y-89844649D01*
X119797433Y-89854147D01*
X119374170Y-89870490D01*
X119063568Y-89895156D01*
X118849707Y-89929621D01*
X118716662Y-89975364D01*
X118648512Y-90033862D01*
X118629333Y-90106592D01*
X117871328Y-90106592D01*
X118099761Y-90005814D01*
X118329797Y-89760099D01*
X118450028Y-89619344D01*
X118631698Y-89523742D01*
X118919634Y-89469737D01*
X119219530Y-89445245D01*
X119698419Y-89427586D01*
X120291096Y-89421109D01*
X120968002Y-89425586D01*
X121699580Y-89440793D01*
X122456271Y-89466503D01*
X123208518Y-89502491D01*
X123688002Y-89530664D01*
X124132107Y-89564015D01*
X124508346Y-89605942D01*
X124862813Y-89664185D01*
X125241601Y-89746480D01*
X125609825Y-89840000D01*
X125690805Y-89860567D01*
G36*
X125690805Y-89860567D02*
G01*
X126256518Y-90014183D01*
X126930864Y-90199293D01*
X128148512Y-90530394D01*
X128455896Y-90612580D01*
X129242784Y-90822973D01*
X130239479Y-91083534D01*
X131164397Y-91318585D01*
X132043339Y-91534629D01*
X132902105Y-91738175D01*
X133766496Y-91935726D01*
X134662311Y-92133789D01*
X134806027Y-92166355D01*
X134997798Y-92221351D01*
X135049538Y-92265257D01*
X134979811Y-92308273D01*
X134858152Y-92382156D01*
X134814222Y-92539612D01*
X134846879Y-92607849D01*
X134920971Y-92762670D01*
X135179411Y-93055119D01*
X135200696Y-93076110D01*
X135410837Y-93305313D01*
X135447162Y-93368774D01*
X135507054Y-93473408D01*
X135510581Y-93616379D01*
X135505825Y-93641332D01*
X135540874Y-93877076D01*
X135690215Y-94193631D01*
X135774221Y-94350603D01*
X135828895Y-94493185D01*
X135837958Y-94516823D01*
X135824712Y-94581333D01*
X135768238Y-94604971D01*
X135735852Y-94742234D01*
X135782089Y-94972544D01*
X135903054Y-95262039D01*
X135905465Y-95266780D01*
X135912353Y-95280329D01*
X136004196Y-95480527D01*
X136013687Y-95574153D01*
X135945387Y-95597333D01*
X135929911Y-95598288D01*
X135861401Y-95650517D01*
X135826451Y-95806019D01*
X135816666Y-96097407D01*
X135816331Y-96121723D01*
X135813379Y-96336106D01*
X135793400Y-96501539D01*
X135743820Y-96562448D01*
X135651818Y-96554371D01*
X135586596Y-96543606D01*
X135518877Y-96579886D01*
X135482476Y-96713564D01*
X135461318Y-96980607D01*
X135435666Y-97449952D01*
X134758333Y-96857042D01*
X134436650Y-96577085D01*
X133738151Y-95981118D01*
X133095785Y-95449646D01*
X132520742Y-94991265D01*
X132024217Y-94614574D01*
X131617400Y-94328169D01*
X131311486Y-94140647D01*
X131117666Y-94060605D01*
X131113543Y-94059912D01*
X130969787Y-94091745D01*
X130923212Y-94225393D01*
X130973625Y-94424904D01*
X131045494Y-94536908D01*
X131120834Y-94654324D01*
X131176605Y-94724508D01*
X131261676Y-94864387D01*
X131252193Y-94920000D01*
X131176552Y-94943274D01*
X131175336Y-95055417D01*
X131298818Y-95249318D01*
X131541000Y-95512667D01*
X131630389Y-95604859D01*
X131778913Y-95758041D01*
X131896350Y-95914832D01*
X131898991Y-95996930D01*
X131795000Y-96020667D01*
X131710701Y-96032360D01*
X131682990Y-96089070D01*
X131752281Y-96207763D01*
X131928904Y-96404736D01*
X132171386Y-96644966D01*
X132223186Y-96696285D01*
X132385989Y-96856900D01*
X132594401Y-97084493D01*
X132685186Y-97227819D01*
X132668290Y-97300376D01*
X132631434Y-97360148D01*
X132687877Y-97484577D01*
X132865424Y-97689372D01*
X133071591Y-97905764D01*
X133116035Y-97953682D01*
X133317158Y-98170527D01*
X133469539Y-98350842D01*
X133544733Y-98468874D01*
X133558738Y-98546789D01*
X133527553Y-98606752D01*
X133511834Y-98636864D01*
X133530698Y-98761415D01*
X133645341Y-98967655D01*
X133866163Y-99276145D01*
X134028853Y-99494946D01*
X134036940Y-99505823D01*
X134204348Y-99752236D01*
X134276050Y-99903309D01*
X134260379Y-99979184D01*
X134165666Y-100000000D01*
X134052285Y-100036706D01*
X134082701Y-100151441D01*
X134262263Y-100345075D01*
X134281501Y-100363291D01*
X134443615Y-100544878D01*
X134625677Y-100783088D01*
X134795531Y-101031300D01*
X134913024Y-101229403D01*
X134921024Y-101242892D01*
X134970000Y-101371243D01*
X134955793Y-101402442D01*
X134843000Y-101439333D01*
X134831145Y-101439428D01*
X134743941Y-101457864D01*
X134732615Y-101528335D01*
X134804244Y-101679736D01*
X134965910Y-101940960D01*
X135049623Y-102076840D01*
X135220884Y-102383325D01*
X135348047Y-102646873D01*
X135480272Y-102963333D01*
X135225136Y-102963333D01*
X135221494Y-102963337D01*
X135043748Y-102974401D01*
X134970000Y-103000413D01*
X134985052Y-103085367D01*
X134991152Y-103114479D01*
X135028355Y-103292055D01*
X135090010Y-103571913D01*
X135138365Y-103806564D01*
X135213724Y-104240910D01*
X135231981Y-104374483D01*
X135267656Y-104635500D01*
X135286686Y-104828926D01*
X135293363Y-105039157D01*
X135264422Y-105139216D01*
X135194976Y-105164667D01*
X135134228Y-105156494D01*
X135012333Y-105080000D01*
X134982152Y-105046933D01*
X134838003Y-104995333D01*
X134801755Y-105002718D01*
X134735952Y-105107786D01*
X134715360Y-105355167D01*
X134704122Y-105605981D01*
X134695820Y-105683413D01*
X134654133Y-106072250D01*
X134568884Y-106637188D01*
X134453571Y-107262929D01*
X134364181Y-107710191D01*
X134180257Y-107438789D01*
X134148229Y-107392915D01*
X134010318Y-107222575D01*
X133910951Y-107139455D01*
X133892700Y-107146137D01*
X133828108Y-107263731D01*
X133749265Y-107497222D01*
X133669266Y-107810261D01*
X133562451Y-108250987D01*
X133430670Y-108742647D01*
X133303284Y-109175236D01*
X133265627Y-109290537D01*
X133165152Y-109558006D01*
X133080828Y-109728021D01*
X133027845Y-109767902D01*
X133016102Y-109749223D01*
X132936928Y-109603330D01*
X132791839Y-109326453D01*
X132588169Y-108932888D01*
X132333255Y-108436927D01*
X132034432Y-107852864D01*
X131699035Y-107194993D01*
X131334401Y-106477607D01*
X130947865Y-105715000D01*
X130879309Y-105579573D01*
X130471783Y-104775064D01*
X130070960Y-103984638D01*
X129686796Y-103227872D01*
X129329245Y-102524344D01*
X129008263Y-101893631D01*
X128733804Y-101355310D01*
X128624398Y-101141321D01*
X129145549Y-101141321D01*
X129171791Y-101298533D01*
X129279380Y-101592596D01*
X129466029Y-102030551D01*
X129508467Y-102125287D01*
X129666812Y-102463765D01*
X129875020Y-102894167D01*
X130120647Y-103392096D01*
X130391249Y-103933159D01*
X130674382Y-104492960D01*
X130957600Y-105047105D01*
X131228461Y-105571198D01*
X131474518Y-106040846D01*
X131683328Y-106431653D01*
X131842447Y-106719225D01*
X131939430Y-106879167D01*
X131952925Y-106898110D01*
X132077750Y-107048827D01*
X132160598Y-107109000D01*
X132190557Y-107105569D01*
X132408029Y-107001945D01*
X132646120Y-106786202D01*
X132872188Y-106498856D01*
X133053587Y-106180426D01*
X133157673Y-105871429D01*
X133162784Y-105842706D01*
X133172070Y-105683413D01*
X133128219Y-105528642D01*
X133012074Y-105334147D01*
X132804477Y-105055682D01*
X132651153Y-104863080D01*
X132341255Y-104489576D01*
X131961519Y-104044542D01*
X131537426Y-103556765D01*
X131094457Y-103055034D01*
X130658092Y-102568135D01*
X130253812Y-102124858D01*
X129907096Y-101753989D01*
X129643425Y-101484317D01*
X129577758Y-101420420D01*
X129346247Y-101209303D01*
X129202939Y-101113924D01*
X129145549Y-101141321D01*
X128624398Y-101141321D01*
X128515824Y-100928959D01*
X128364277Y-100634155D01*
X128313631Y-100535663D01*
X129219136Y-100535663D01*
X129225913Y-100610322D01*
X129301078Y-100741298D01*
X129452223Y-100937386D01*
X129686944Y-101207385D01*
X130012834Y-101560092D01*
X130437489Y-102004305D01*
X130968503Y-102548821D01*
X131613470Y-103202437D01*
X131620203Y-103209233D01*
X132053365Y-103644116D01*
X132452800Y-104040809D01*
X132801525Y-104382785D01*
X133082558Y-104653520D01*
X133278914Y-104836486D01*
X133373609Y-104915158D01*
X133518970Y-104932227D01*
X133641341Y-104824248D01*
X133716187Y-104625094D01*
X133729069Y-104374483D01*
X133665546Y-104112133D01*
X133660600Y-104100957D01*
X133524938Y-103903691D01*
X133268191Y-103622151D01*
X132905308Y-103270285D01*
X132451238Y-102862044D01*
X131920930Y-102411375D01*
X131329333Y-101932228D01*
X131137653Y-101781952D01*
X130719513Y-101463369D01*
X130312858Y-101164672D01*
X129942009Y-100902823D01*
X129631284Y-100694786D01*
X129405005Y-100557524D01*
X129287489Y-100508000D01*
X129273150Y-100508521D01*
X129219136Y-100535663D01*
X128313631Y-100535663D01*
X128104124Y-100128228D01*
X127799582Y-99531642D01*
X127494776Y-98930917D01*
X127227733Y-98400778D01*
X127203791Y-98353133D01*
X126967017Y-97898916D01*
X126780512Y-97574504D01*
X126649623Y-97388567D01*
X126579693Y-97349773D01*
X126548405Y-97404844D01*
X126492051Y-97598499D01*
X126447797Y-97861550D01*
X126416133Y-98098380D01*
X126371382Y-98229828D01*
X126284490Y-98266902D01*
X126123150Y-98248065D01*
X126073951Y-98243415D01*
X125848274Y-98265306D01*
X125582726Y-98333110D01*
X125329021Y-98428324D01*
X125138874Y-98532449D01*
X125064000Y-98626982D01*
X125117331Y-98702015D01*
X125270442Y-98796881D01*
X125420996Y-98895819D01*
X125574042Y-99072483D01*
X125618134Y-99161053D01*
X125611178Y-99222486D01*
X125473433Y-99190607D01*
X125230203Y-99120002D01*
X124528523Y-98999060D01*
X123869951Y-99007235D01*
X123286908Y-99145199D01*
X123115216Y-99204020D01*
X122933279Y-99246069D01*
X122862666Y-99231834D01*
X122922288Y-99123162D01*
X123100067Y-98959172D01*
X123358395Y-98772280D01*
X123659122Y-98587665D01*
X123964098Y-98430506D01*
X124235171Y-98325983D01*
X124329047Y-98296353D01*
X124771456Y-98070944D01*
X125125743Y-97724081D01*
X125396966Y-97247344D01*
X125590183Y-96632316D01*
X125710452Y-95870578D01*
X125712831Y-95847167D01*
X125738115Y-95559406D01*
X125736841Y-95409510D01*
X125704462Y-95369190D01*
X125636430Y-95410160D01*
X125565384Y-95496210D01*
X125441169Y-95710455D01*
X125316650Y-95981660D01*
X125306110Y-96007599D01*
X125198159Y-96255008D01*
X125105270Y-96385108D01*
X124984923Y-96435553D01*
X124794600Y-96444000D01*
X124618027Y-96450417D01*
X124328577Y-96514067D01*
X124183560Y-96650504D01*
X124174583Y-96865436D01*
X124191218Y-96943844D01*
X124193587Y-97052385D01*
X124111553Y-97073171D01*
X123904851Y-97030902D01*
X123503020Y-96969294D01*
X122965067Y-96956227D01*
X122439904Y-97007370D01*
X122000788Y-97119324D01*
X121985890Y-97124967D01*
X121694449Y-97223268D01*
X121545171Y-97241176D01*
X121530425Y-97176747D01*
X121642574Y-97028034D01*
X121774939Y-96909035D01*
X122119448Y-96695730D01*
X122589691Y-96481822D01*
X123159000Y-96280459D01*
X123308017Y-96233298D01*
X123738911Y-96085049D01*
X124040802Y-95952571D01*
X124241742Y-95818409D01*
X124369778Y-95665109D01*
X124452960Y-95475214D01*
X124469334Y-95420528D01*
X124517982Y-95142116D01*
X124511422Y-94909782D01*
X124460544Y-94678136D01*
X123877913Y-94926068D01*
X123838524Y-94942828D01*
X123527740Y-95073388D01*
X123339152Y-95143630D01*
X123242237Y-95159009D01*
X123206472Y-95124980D01*
X123201333Y-95047000D01*
X123193538Y-94973390D01*
X123146120Y-94933872D01*
X123036499Y-94976398D01*
X122842998Y-95110867D01*
X122543941Y-95347177D01*
X122449871Y-95422757D01*
X122209247Y-95605668D01*
X122068462Y-95686501D01*
X122007407Y-95673814D01*
X122005974Y-95576167D01*
X122005082Y-95540002D01*
X121937949Y-95520496D01*
X121767755Y-95594219D01*
X121479302Y-95766666D01*
X121303748Y-95873017D01*
X121049615Y-95993192D01*
X120888847Y-96005630D01*
X120800829Y-95914833D01*
X120799920Y-95912688D01*
X120730198Y-95873424D01*
X120602395Y-95978333D01*
X120489327Y-96097840D01*
X120231350Y-96340588D01*
X119999454Y-96521839D01*
X119822852Y-96620269D01*
X119730756Y-96614556D01*
X119720756Y-96603980D01*
X119603302Y-96612593D01*
X119368957Y-96725582D01*
X119011744Y-96945696D01*
X118857035Y-97045374D01*
X118583200Y-97214765D01*
X118378933Y-97331711D01*
X118279803Y-97375333D01*
X118235808Y-97340303D01*
X118206000Y-97198789D01*
X118197322Y-97115101D01*
X118148290Y-97093540D01*
X118027554Y-97157109D01*
X117803833Y-97314834D01*
X117535664Y-97500286D01*
X117210106Y-97699485D01*
X116942815Y-97833970D01*
X116770871Y-97883333D01*
X116729941Y-97868970D01*
X116682000Y-97756333D01*
X116672014Y-97676540D01*
X116622268Y-97646448D01*
X116509710Y-97692826D01*
X116311467Y-97825773D01*
X116004666Y-98055390D01*
X115948006Y-98098246D01*
X115516560Y-98394256D01*
X115178826Y-98566405D01*
X114939809Y-98612709D01*
X114804516Y-98531182D01*
X114757944Y-98471698D01*
X114671487Y-98452698D01*
X114513958Y-98497057D01*
X114244940Y-98610505D01*
X114080442Y-98679257D01*
X113720421Y-98811984D01*
X113328032Y-98939983D01*
X112950794Y-99049026D01*
X112636229Y-99124885D01*
X112431859Y-99153333D01*
X112347532Y-99133234D01*
X112333382Y-99026333D01*
X112350316Y-98981493D01*
X112355001Y-98936367D01*
X112314819Y-98915499D01*
X112205549Y-98920753D01*
X112002970Y-98953989D01*
X111682860Y-99017071D01*
X111221000Y-99111860D01*
X111213377Y-99113428D01*
X110812386Y-99194115D01*
X110467459Y-99260265D01*
X110215140Y-99305084D01*
X110091971Y-99321777D01*
X110080769Y-99272770D01*
X110163381Y-99131343D01*
X110324804Y-98929746D01*
X110483226Y-98741638D01*
X110618608Y-98561485D01*
X110670666Y-98464080D01*
X110613465Y-98430747D01*
X110428248Y-98402280D01*
X110159329Y-98391333D01*
X109831673Y-98382172D01*
X109441989Y-98357159D01*
X109030965Y-98320546D01*
X108636680Y-98276581D01*
X108297214Y-98229516D01*
X108050647Y-98183599D01*
X107935058Y-98143081D01*
X107926251Y-98122048D01*
X107978861Y-98009171D01*
X108117159Y-97866930D01*
X112025333Y-97866930D01*
X112084192Y-97926007D01*
X112262473Y-97956610D01*
X112512056Y-97952822D01*
X112783763Y-97918543D01*
X113028418Y-97857667D01*
X113196843Y-97774093D01*
X113232989Y-97740634D01*
X113320935Y-97641059D01*
X113740132Y-97641059D01*
X113744960Y-97738535D01*
X113871247Y-97793511D01*
X114133622Y-97755536D01*
X114528962Y-97624676D01*
X114958258Y-97459509D01*
X115037376Y-97261212D01*
X115412000Y-97261212D01*
X115412347Y-97274728D01*
X115454395Y-97357478D01*
X115578792Y-97352040D01*
X115802955Y-97253562D01*
X116144302Y-97057191D01*
X116664938Y-96740333D01*
X116716662Y-96432373D01*
X117145979Y-96432373D01*
X117203695Y-96508378D01*
X117390754Y-96528667D01*
X117559056Y-96516872D01*
X117839370Y-96418046D01*
X118052805Y-96207709D01*
X118206829Y-95872430D01*
X118261555Y-95618500D01*
X118630028Y-95618500D01*
X118631445Y-95676080D01*
X118678262Y-95815301D01*
X118819833Y-95850913D01*
X118827101Y-95850765D01*
X119025212Y-95792406D01*
X119234048Y-95660413D01*
X119286776Y-95613296D01*
X119367759Y-95516317D01*
X119425323Y-95385810D01*
X119437303Y-95330512D01*
X119843649Y-95330512D01*
X119890014Y-95410335D01*
X120006786Y-95425425D01*
X120259792Y-95376430D01*
X120509656Y-95186234D01*
X120686825Y-94850003D01*
X120754591Y-94539527D01*
X121089355Y-94539527D01*
X121100143Y-94755522D01*
X121130810Y-94868915D01*
X121190150Y-94912733D01*
X121286953Y-94920000D01*
X121535554Y-94867906D01*
X121749930Y-94682291D01*
X121899604Y-94356069D01*
X121947400Y-94098361D01*
X122272520Y-94098361D01*
X122292883Y-94295226D01*
X122343262Y-94389416D01*
X122431724Y-94406086D01*
X122566333Y-94370388D01*
X122676674Y-94339857D01*
X122875373Y-94292916D01*
X123047781Y-94204663D01*
X123183331Y-93989716D01*
X123183564Y-93988667D01*
X123605558Y-93988667D01*
X123852179Y-93988667D01*
X124045769Y-93966817D01*
X124200336Y-93864657D01*
X124279638Y-93653330D01*
X124302000Y-93304983D01*
X124301998Y-93289649D01*
X124296655Y-93023359D01*
X124265559Y-92878638D01*
X124185803Y-92809759D01*
X124034477Y-92770995D01*
X124022688Y-92768692D01*
X123827048Y-92747078D01*
X123719488Y-92764957D01*
X123718558Y-92765990D01*
X123690321Y-92873621D01*
X123661713Y-93101040D01*
X123638790Y-93400545D01*
X123605558Y-93988667D01*
X123183564Y-93988667D01*
X123261134Y-93639420D01*
X123286000Y-93140273D01*
X123286000Y-92571148D01*
X122852783Y-92513680D01*
X122691144Y-92496354D01*
X122474255Y-92489114D01*
X122367092Y-92508686D01*
X122347601Y-92580435D01*
X122322924Y-92792583D01*
X122300313Y-93106936D01*
X122293476Y-93256366D01*
X122282943Y-93486580D01*
X122274110Y-93773668D01*
X122272520Y-94098361D01*
X121947400Y-94098361D01*
X121987365Y-93882880D01*
X122016000Y-93256366D01*
X122016000Y-92464667D01*
X121740833Y-92465963D01*
X121512467Y-92488698D01*
X121347729Y-92541940D01*
X121315386Y-92570969D01*
X121223810Y-92769170D01*
X121153948Y-93114214D01*
X121108387Y-93589685D01*
X121104017Y-93727611D01*
X121089714Y-94179167D01*
X121089654Y-94187905D01*
X121089355Y-94539527D01*
X120754591Y-94539527D01*
X120792732Y-94364781D01*
X120828807Y-93727611D01*
X120827697Y-93518587D01*
X120818963Y-93198504D01*
X120803393Y-92968682D01*
X120783092Y-92868647D01*
X120762775Y-92861066D01*
X120622634Y-92879890D01*
X120409354Y-92949193D01*
X120338317Y-92978277D01*
X120184678Y-93062907D01*
X120082123Y-93180714D01*
X120016403Y-93365712D01*
X120007960Y-93421736D01*
X119973272Y-93651914D01*
X119938481Y-94073333D01*
X119911125Y-94436962D01*
X119881175Y-94797501D01*
X119855751Y-95068167D01*
X119848519Y-95140602D01*
X119843649Y-95330512D01*
X119437303Y-95330512D01*
X119468193Y-95187921D01*
X119505091Y-94888795D01*
X119544739Y-94454580D01*
X119545627Y-94444197D01*
X119577692Y-94052020D01*
X119601380Y-93728709D01*
X119614442Y-93507526D01*
X119614625Y-93421736D01*
X119521982Y-93414175D01*
X119334843Y-93462488D01*
X119118390Y-93546310D01*
X118934703Y-93641302D01*
X118845862Y-93723126D01*
X118828081Y-93803062D01*
X118827825Y-93804213D01*
X118790591Y-94041334D01*
X118759609Y-94278142D01*
X118747750Y-94368787D01*
X118704788Y-94738402D01*
X118667190Y-95102006D01*
X118640441Y-95411429D01*
X118630028Y-95618500D01*
X118261555Y-95618500D01*
X118308908Y-95398777D01*
X118366508Y-94773317D01*
X118370150Y-94704831D01*
X118387724Y-94278142D01*
X118378004Y-93999083D01*
X118327356Y-93848853D01*
X118222148Y-93808652D01*
X118048746Y-93859678D01*
X117793518Y-93983131D01*
X117472448Y-94146928D01*
X117440813Y-94373197D01*
X117326667Y-95189631D01*
X117324789Y-95203062D01*
X117266378Y-95615460D01*
X117214197Y-95974610D01*
X117173873Y-96242346D01*
X117151036Y-96380500D01*
X117145979Y-96432373D01*
X116716662Y-96432373D01*
X116849803Y-95639667D01*
X116860933Y-95573583D01*
X116932876Y-95154777D01*
X116997382Y-94792642D01*
X117047772Y-94523982D01*
X117077366Y-94385605D01*
X117080673Y-94373197D01*
X117078836Y-94284394D01*
X116986044Y-94251369D01*
X116764018Y-94258605D01*
X116407973Y-94285000D01*
X116398233Y-94312989D01*
X116356725Y-94432268D01*
X116276839Y-94661834D01*
X115909986Y-95716045D01*
X115768161Y-96128348D01*
X115625869Y-96553038D01*
X115513065Y-96902068D01*
X115438769Y-97147454D01*
X115412000Y-97261212D01*
X115037376Y-97261212D01*
X115388865Y-96380255D01*
X115606019Y-95826736D01*
X115799935Y-95303531D01*
X115926115Y-94918095D01*
X115986484Y-94661834D01*
X115982971Y-94526154D01*
X115917501Y-94502462D01*
X115792001Y-94582162D01*
X115760655Y-94614415D01*
X115632554Y-94777212D01*
X115440110Y-95042516D01*
X115201288Y-95383540D01*
X114934055Y-95773502D01*
X114656377Y-96185617D01*
X114386220Y-96593103D01*
X114141550Y-96969173D01*
X113940335Y-97287045D01*
X113800540Y-97519935D01*
X113740132Y-97641059D01*
X113320935Y-97641059D01*
X113383159Y-97570607D01*
X113594011Y-97305161D01*
X113849320Y-96967389D01*
X114132860Y-96580379D01*
X114428406Y-96167223D01*
X114719731Y-95751011D01*
X114990611Y-95354833D01*
X115224819Y-95001779D01*
X115406130Y-94714940D01*
X115518318Y-94517407D01*
X115545157Y-94432268D01*
X115538896Y-94428889D01*
X115436805Y-94460999D01*
X115268708Y-94565704D01*
X115139520Y-94673467D01*
X114915093Y-94880506D01*
X114622041Y-95162105D01*
X114279326Y-95498961D01*
X113905912Y-95871774D01*
X113520761Y-96261242D01*
X113142838Y-96648063D01*
X112791104Y-97012937D01*
X112484524Y-97336562D01*
X112242060Y-97599637D01*
X112082675Y-97782860D01*
X112025333Y-97866930D01*
X108117159Y-97866930D01*
X108125558Y-97858291D01*
X108180567Y-97811131D01*
X108326237Y-97675322D01*
X108384666Y-97602053D01*
X108384533Y-97601200D01*
X108302373Y-97567217D01*
X108097679Y-97516138D01*
X107813166Y-97458680D01*
X107798880Y-97456025D01*
X107419545Y-97373598D01*
X107111348Y-97295120D01*
X109908666Y-97295120D01*
X109944914Y-97335119D01*
X110104220Y-97414415D01*
X110347367Y-97499053D01*
X110481339Y-97533938D01*
X110870842Y-97602207D01*
X111236506Y-97629333D01*
X111278075Y-97629290D01*
X111455634Y-97623418D01*
X111602724Y-97594858D01*
X111750641Y-97525524D01*
X111930680Y-97397330D01*
X112174137Y-97192189D01*
X112512305Y-96892016D01*
X112733421Y-96694098D01*
X113334617Y-96151722D01*
X113872825Y-95659822D01*
X114337292Y-95228556D01*
X114717263Y-94868083D01*
X115001985Y-94588558D01*
X115180704Y-94400141D01*
X115242666Y-94312989D01*
X115198658Y-94273835D01*
X115052166Y-94290477D01*
X114925324Y-94345073D01*
X114672258Y-94474069D01*
X114322338Y-94663032D01*
X113895942Y-94900060D01*
X113413446Y-95173248D01*
X112895227Y-95470693D01*
X112361662Y-95780493D01*
X111833128Y-96090743D01*
X111330002Y-96389540D01*
X110872659Y-96664982D01*
X110481477Y-96905164D01*
X110176834Y-97098183D01*
X109979104Y-97232136D01*
X109908666Y-97295120D01*
X107111348Y-97295120D01*
X106977085Y-97260932D01*
X106564333Y-97141597D01*
X105887000Y-96929675D01*
X106141000Y-96814410D01*
X106201045Y-96788771D01*
X106417262Y-96700386D01*
X106737614Y-96571434D01*
X107707333Y-96571434D01*
X107721005Y-96603806D01*
X107848721Y-96690561D01*
X108067166Y-96766138D01*
X108200482Y-96795752D01*
X108546109Y-96857823D01*
X108892666Y-96905301D01*
X109059160Y-96920702D01*
X109233099Y-96919734D01*
X109405571Y-96885365D01*
X109614124Y-96805704D01*
X109896307Y-96668861D01*
X110289666Y-96462949D01*
X110523999Y-96339151D01*
X110991963Y-96092993D01*
X111529939Y-95810974D01*
X112088445Y-95519019D01*
X112618000Y-95243054D01*
X112736961Y-95181113D01*
X113505817Y-94776660D01*
X114122213Y-94443665D01*
X114586530Y-94180968D01*
X114899149Y-93987408D01*
X115060452Y-93861826D01*
X115070820Y-93803062D01*
X114930636Y-93809956D01*
X114640280Y-93881348D01*
X114200134Y-94016078D01*
X113610580Y-94212986D01*
X112872000Y-94470912D01*
X112620639Y-94560283D01*
X111727910Y-94882847D01*
X110891595Y-95192954D01*
X110124674Y-95485325D01*
X109440128Y-95754679D01*
X108850937Y-95995738D01*
X108370081Y-96203222D01*
X108010541Y-96371853D01*
X107785299Y-96496350D01*
X107707333Y-96571434D01*
X106737614Y-96571434D01*
X106759617Y-96562577D01*
X107208242Y-96383206D01*
X107743269Y-96170137D01*
X108344830Y-95931231D01*
X108993056Y-95674353D01*
X109668079Y-95407363D01*
X110350030Y-95138125D01*
X111019043Y-94874502D01*
X111655247Y-94624356D01*
X112238776Y-94395550D01*
X112749761Y-94195947D01*
X113168333Y-94033408D01*
X113411831Y-93938831D01*
X113799458Y-93787493D01*
X114281625Y-93598726D01*
X114600381Y-93473720D01*
X115758635Y-93473720D01*
X115821364Y-93585231D01*
X115891831Y-93620128D01*
X116105286Y-93665137D01*
X116399481Y-93697078D01*
X116720999Y-93712403D01*
X117016422Y-93707562D01*
X117232333Y-93679004D01*
X117390509Y-93634919D01*
X117787343Y-93508989D01*
X118236326Y-93350391D01*
X118713982Y-93169183D01*
X119196833Y-92975424D01*
X119661403Y-92779173D01*
X120084215Y-92590488D01*
X120441793Y-92419428D01*
X120710659Y-92276051D01*
X120867337Y-92170416D01*
X120888350Y-92112582D01*
X120750486Y-92072260D01*
X120496783Y-92029943D01*
X120184781Y-91995803D01*
X120120046Y-91990501D01*
X119942411Y-91979898D01*
X119778687Y-91983110D01*
X119604287Y-92006788D01*
X119394624Y-92057587D01*
X119125110Y-92142159D01*
X118771158Y-92267159D01*
X118308181Y-92439239D01*
X117711591Y-92665054D01*
X117355868Y-92800621D01*
X116856638Y-92992892D01*
X116425930Y-93161186D01*
X116086241Y-93296603D01*
X115860066Y-93390244D01*
X115769903Y-93433208D01*
X115758635Y-93473720D01*
X114600381Y-93473720D01*
X114833111Y-93382451D01*
X115428695Y-93148585D01*
X116043156Y-92907050D01*
X116651274Y-92667764D01*
X117227829Y-92440647D01*
X117747599Y-92235618D01*
X118185365Y-92062596D01*
X118515905Y-91931502D01*
X118714000Y-91852254D01*
X118925666Y-91766504D01*
X118662851Y-91654715D01*
X118650167Y-91649412D01*
X118292136Y-91543041D01*
X117831821Y-91463010D01*
X117332254Y-91415425D01*
X116856471Y-91406394D01*
X116467506Y-91442024D01*
X116247229Y-91478301D01*
X116035566Y-91501765D01*
X115939559Y-91496448D01*
X115927763Y-91429683D01*
X115969010Y-91249063D01*
X115989710Y-91194667D01*
X116232422Y-91194667D01*
X116919967Y-91194667D01*
X117021763Y-91195506D01*
X117651315Y-91229388D01*
X118417047Y-91313363D01*
X119323818Y-91448215D01*
X120376492Y-91634730D01*
X121579929Y-91873691D01*
X122691075Y-92112582D01*
X122938992Y-92165883D01*
X123276530Y-92240473D01*
X123650289Y-92319336D01*
X123897903Y-92360937D01*
X124042708Y-92364900D01*
X124108040Y-92330844D01*
X124117235Y-92258393D01*
X124093628Y-92147167D01*
X124015276Y-91920107D01*
X123893950Y-91668504D01*
X123822676Y-91559374D01*
X123711566Y-91466611D01*
X123536883Y-91419373D01*
X123245747Y-91395378D01*
X122791138Y-91354545D01*
X122280328Y-91268956D01*
X121703303Y-91131235D01*
X121016160Y-90932264D01*
X120786749Y-90863082D01*
X120471958Y-90778769D01*
X120245414Y-90741449D01*
X120061140Y-90745158D01*
X119873160Y-90783927D01*
X119725698Y-90817162D01*
X119515982Y-90830637D01*
X119274251Y-90792708D01*
X118937915Y-90697597D01*
X118554351Y-90604979D01*
X119137333Y-90604979D01*
X119158244Y-90637332D01*
X119289113Y-90676092D01*
X119480939Y-90683924D01*
X119664283Y-90660689D01*
X119769708Y-90606248D01*
X119762051Y-90506964D01*
X119643952Y-90429097D01*
X119472597Y-90396999D01*
X119306666Y-90432667D01*
X119203395Y-90504999D01*
X119137333Y-90604979D01*
X118554351Y-90604979D01*
X118394797Y-90566452D01*
X117776900Y-90513663D01*
X117221461Y-90573045D01*
X116752419Y-90741598D01*
X116393711Y-91016324D01*
X116232422Y-91194667D01*
X115989710Y-91194667D01*
X116057672Y-91016070D01*
X116172004Y-90785526D01*
X116290262Y-90612255D01*
X116495560Y-90433366D01*
X116906060Y-90244671D01*
X117394963Y-90178667D01*
X117796881Y-90139436D01*
X117871328Y-90106592D01*
X118629333Y-90106592D01*
X118632893Y-90122563D01*
X118744391Y-90161746D01*
X119008608Y-90141018D01*
X119071364Y-90132781D01*
X119282078Y-90126767D01*
X119521656Y-90160970D01*
X119832607Y-90243627D01*
X120257441Y-90382972D01*
X120464235Y-90452205D01*
X120951091Y-90604903D01*
X120955726Y-90606248D01*
X121438480Y-90746353D01*
X121846666Y-90852974D01*
X122277933Y-90945152D01*
X122781465Y-91011911D01*
X123166756Y-91002281D01*
X123452792Y-90917018D01*
X123478682Y-90898333D01*
X124046796Y-90898333D01*
X124046898Y-90900317D01*
X124087535Y-91012725D01*
X124197218Y-91262140D01*
X124369430Y-91634976D01*
X124597660Y-92117651D01*
X124665179Y-92258393D01*
X124815218Y-92571148D01*
X124875391Y-92696580D01*
X125170322Y-93304983D01*
X125196109Y-93358180D01*
X125553301Y-94088867D01*
X125940452Y-94875057D01*
X126351048Y-95703167D01*
X126384705Y-95770809D01*
X126793806Y-96590812D01*
X127181014Y-97363036D01*
X127539683Y-98074479D01*
X127863168Y-98712141D01*
X128144824Y-99263019D01*
X128378006Y-99714113D01*
X128556068Y-100052419D01*
X128672367Y-100264938D01*
X128720256Y-100338667D01*
X128768483Y-100322225D01*
X128864386Y-100182978D01*
X128873022Y-100151940D01*
X129424333Y-100151940D01*
X129636000Y-100364248D01*
X129741520Y-100454566D01*
X129972031Y-100634744D01*
X130301109Y-100883393D01*
X130707873Y-101184919D01*
X131171442Y-101523723D01*
X131670936Y-101884209D01*
X132128106Y-102211027D01*
X132591276Y-102539843D01*
X132998597Y-102826636D01*
X133329698Y-103057142D01*
X133564212Y-103217098D01*
X133681770Y-103292243D01*
X133807398Y-103345933D01*
X133859063Y-103298302D01*
X133867474Y-103114479D01*
X133849559Y-102936747D01*
X133739261Y-102571986D01*
X133558015Y-102228060D01*
X133340297Y-101979212D01*
X133271463Y-101934606D01*
X133052760Y-101814285D01*
X132725952Y-101646095D01*
X132319508Y-101443639D01*
X131861898Y-101220517D01*
X131381590Y-100990330D01*
X130907053Y-100766681D01*
X130466756Y-100563169D01*
X130089169Y-100393396D01*
X129802761Y-100270964D01*
X129636000Y-100209472D01*
X129424333Y-100151940D01*
X128873022Y-100151940D01*
X128932658Y-99937601D01*
X128958666Y-99629612D01*
X128958627Y-99622242D01*
X128948609Y-99534001D01*
X129479270Y-99534001D01*
X129479534Y-99629309D01*
X129479680Y-99629612D01*
X129509399Y-99691304D01*
X129663420Y-99828163D01*
X129952121Y-100000154D01*
X130382343Y-100210777D01*
X130960930Y-100463530D01*
X131694724Y-100761912D01*
X131782512Y-100796530D01*
X132198952Y-100956473D01*
X132572265Y-101093326D01*
X132864550Y-101193502D01*
X133037903Y-101243414D01*
X133199696Y-101267753D01*
X133262941Y-101229403D01*
X133237035Y-101092019D01*
X133196760Y-100979010D01*
X132980825Y-100620648D01*
X132671290Y-100316420D01*
X132560888Y-100259397D01*
X132299461Y-100161732D01*
X131935831Y-100045329D01*
X131505440Y-99920024D01*
X131043735Y-99795655D01*
X130586158Y-99682060D01*
X130168155Y-99589074D01*
X129825171Y-99526534D01*
X129741220Y-99514413D01*
X129553186Y-99499661D01*
X129479270Y-99534001D01*
X128948609Y-99534001D01*
X128927145Y-99344954D01*
X128848236Y-98988897D01*
X128738440Y-98629212D01*
X128736642Y-98624187D01*
X128726347Y-98598779D01*
X129221623Y-98598779D01*
X129273042Y-98752831D01*
X129284466Y-98775291D01*
X129375323Y-98876430D01*
X129545993Y-98975116D01*
X129824827Y-99085041D01*
X130240179Y-99219898D01*
X130500760Y-99298814D01*
X130903601Y-99416056D01*
X131254474Y-99512811D01*
X131498666Y-99573700D01*
X131849376Y-99639714D01*
X132135869Y-99658440D01*
X132295707Y-99610694D01*
X132345333Y-99494946D01*
X132335901Y-99430238D01*
X132226835Y-99214788D01*
X132031042Y-98981600D01*
X131793186Y-98778433D01*
X131557934Y-98653044D01*
X131414011Y-98618861D01*
X131118922Y-98568910D01*
X130740054Y-98517462D01*
X130324636Y-98471472D01*
X129963382Y-98439140D01*
X129596895Y-98420981D01*
X129364083Y-98438062D01*
X129245481Y-98495592D01*
X129221623Y-98598779D01*
X128726347Y-98598779D01*
X128640896Y-98387896D01*
X128483410Y-98035183D01*
X128272668Y-97582845D01*
X128210596Y-97452839D01*
X128704666Y-97452839D01*
X128777540Y-97694407D01*
X128980999Y-97894388D01*
X129275700Y-98005746D01*
X129288822Y-98007900D01*
X129594999Y-98049442D01*
X129971189Y-98088803D01*
X130369763Y-98122391D01*
X130743092Y-98146616D01*
X131043548Y-98157887D01*
X131223500Y-98152611D01*
X131277693Y-98143039D01*
X131390310Y-98082700D01*
X131392954Y-97953682D01*
X131290993Y-97721721D01*
X131227912Y-97625251D01*
X130957244Y-97417620D01*
X130545147Y-97285803D01*
X129999846Y-97231746D01*
X129329567Y-97257396D01*
X129098776Y-97281210D01*
X128859206Y-97322065D01*
X128738146Y-97376050D01*
X128704666Y-97452839D01*
X128210596Y-97452839D01*
X128017151Y-97047679D01*
X127725339Y-96446481D01*
X127679509Y-96353217D01*
X128112000Y-96353217D01*
X128149477Y-96444813D01*
X128260166Y-96598592D01*
X128315320Y-96653161D01*
X128459743Y-96730499D01*
X128688222Y-96778554D01*
X129043333Y-96808751D01*
X129048853Y-96809069D01*
X129516384Y-96823723D01*
X129952960Y-96815490D01*
X130312723Y-96786499D01*
X130549818Y-96738876D01*
X130560101Y-96734859D01*
X130616076Y-96644966D01*
X130548412Y-96503510D01*
X130379229Y-96339809D01*
X130130642Y-96183185D01*
X130070747Y-96153514D01*
X129839684Y-96066976D01*
X129596835Y-96040238D01*
X129265639Y-96062629D01*
X129165142Y-96074086D01*
X128746392Y-96135671D01*
X128412619Y-96207423D01*
X128191821Y-96282289D01*
X128112000Y-96353217D01*
X127679509Y-96353217D01*
X127405715Y-95796049D01*
X127077863Y-95135546D01*
X127615114Y-95135546D01*
X127624750Y-95240229D01*
X127687542Y-95425285D01*
X127793877Y-95682000D01*
X128884272Y-95682000D01*
X128957023Y-95681829D01*
X129354872Y-95674399D01*
X129678149Y-95657604D01*
X129895274Y-95633680D01*
X129974666Y-95604859D01*
X129958451Y-95557116D01*
X129838589Y-95417964D01*
X129644702Y-95258235D01*
X129427956Y-95117555D01*
X129239519Y-95035549D01*
X129137258Y-95022990D01*
X128897470Y-95018511D01*
X128588731Y-95026912D01*
X128258697Y-95045346D01*
X127955023Y-95070968D01*
X127725366Y-95100933D01*
X127617381Y-95132397D01*
X127615114Y-95135546D01*
X127077863Y-95135546D01*
X127066760Y-95113178D01*
X126716955Y-94414666D01*
X126573930Y-94131454D01*
X127011333Y-94131454D01*
X127039465Y-94270722D01*
X127138066Y-94470591D01*
X127150644Y-94486874D01*
X127339552Y-94602008D01*
X127676543Y-94672593D01*
X128166889Y-94699295D01*
X128815863Y-94682781D01*
X128917480Y-94675887D01*
X129183891Y-94627102D01*
X129287533Y-94536908D01*
X129230838Y-94399558D01*
X129016238Y-94209306D01*
X128958708Y-94169501D01*
X128809179Y-94097660D01*
X128608126Y-94050651D01*
X128316287Y-94021223D01*
X127894404Y-94002126D01*
X127822390Y-93999808D01*
X127450737Y-93990804D01*
X127213683Y-93995091D01*
X127081348Y-94017044D01*
X127023857Y-94061040D01*
X127011333Y-94131454D01*
X126573930Y-94131454D01*
X126476508Y-93938542D01*
X131655921Y-93938542D01*
X131731130Y-94045290D01*
X131907378Y-94228525D01*
X132162949Y-94469135D01*
X132476126Y-94748010D01*
X132825192Y-95046037D01*
X133188432Y-95344103D01*
X133544129Y-95623099D01*
X133870566Y-95863910D01*
X134257601Y-96132239D01*
X134535527Y-96306673D01*
X134717785Y-96387889D01*
X134823853Y-96380837D01*
X134873210Y-96290465D01*
X134885333Y-96121723D01*
X134884688Y-96065063D01*
X134872797Y-95986735D01*
X134831311Y-95908764D01*
X134741678Y-95815437D01*
X134585348Y-95691041D01*
X134343770Y-95519864D01*
X133998393Y-95286193D01*
X133530666Y-94974315D01*
X133503494Y-94956232D01*
X132939825Y-94585288D01*
X132498349Y-94304647D01*
X132164442Y-94106062D01*
X131923482Y-93981282D01*
X131760844Y-93922058D01*
X131661906Y-93920142D01*
X131655921Y-93938542D01*
X126476508Y-93938542D01*
X126364783Y-93717309D01*
X126018723Y-93037904D01*
X126009108Y-93019204D01*
X126418666Y-93019204D01*
X126418694Y-93020242D01*
X126455496Y-93123617D01*
X126541118Y-93302537D01*
X126608027Y-93414165D01*
X126694448Y-93487559D01*
X126837438Y-93534010D01*
X127074497Y-93565664D01*
X127443125Y-93594665D01*
X127474644Y-93596895D01*
X127997716Y-93630384D01*
X128372052Y-93645650D01*
X128616321Y-93642492D01*
X128749192Y-93620706D01*
X128789333Y-93580092D01*
X128789137Y-93574042D01*
X128709802Y-93431618D01*
X128520622Y-93274446D01*
X128271078Y-93136179D01*
X128010647Y-93050471D01*
X127907542Y-93033774D01*
X127631937Y-93005314D01*
X127309931Y-92986141D01*
X126984561Y-92977097D01*
X126698868Y-92979030D01*
X126495890Y-92992784D01*
X126418666Y-93019204D01*
X126009108Y-93019204D01*
X125687258Y-92393247D01*
X125472474Y-91980161D01*
X125910666Y-91980161D01*
X125911345Y-91999484D01*
X125998412Y-92215730D01*
X126193515Y-92399970D01*
X126442267Y-92499114D01*
X126451379Y-92500482D01*
X126783753Y-92540460D01*
X127150684Y-92569679D01*
X127511569Y-92586853D01*
X127825804Y-92590696D01*
X128052787Y-92579923D01*
X128151914Y-92553248D01*
X128160341Y-92528069D01*
X128103460Y-92406598D01*
X127939355Y-92258945D01*
X127708135Y-92111717D01*
X127449910Y-91991521D01*
X127204791Y-91924965D01*
X126897498Y-91890693D01*
X126515423Y-91870836D01*
X126201520Y-91880069D01*
X125988898Y-91916982D01*
X125910666Y-91980161D01*
X125472474Y-91980161D01*
X125378870Y-91800136D01*
X125102039Y-91275366D01*
X124941071Y-90976510D01*
X125432220Y-90976510D01*
X125511288Y-91136166D01*
X125535065Y-91170173D01*
X125631940Y-91263051D01*
X125782335Y-91329760D01*
X126024689Y-91383345D01*
X126397441Y-91436847D01*
X126522780Y-91452449D01*
X126895227Y-91493738D01*
X127217007Y-91522523D01*
X127429601Y-91533333D01*
X127578664Y-91527779D01*
X127651582Y-91492657D01*
X127604849Y-91407356D01*
X127566132Y-91363514D01*
X127516410Y-91326506D01*
X129297333Y-91326506D01*
X129302391Y-91367828D01*
X129381545Y-91490718D01*
X129383620Y-91492657D01*
X129446885Y-91551788D01*
X129554583Y-91708739D01*
X129572875Y-91745000D01*
X129586474Y-91865683D01*
X129457772Y-91943387D01*
X129430523Y-91953725D01*
X129353546Y-91998772D01*
X129355354Y-92067485D01*
X129449309Y-92192173D01*
X129648775Y-92405145D01*
X129758472Y-92528069D01*
X129842770Y-92622533D01*
X129935908Y-92773557D01*
X129909050Y-92842886D01*
X129885704Y-92858024D01*
X129882161Y-92965481D01*
X129980603Y-93131377D01*
X130155931Y-93320947D01*
X130383046Y-93499425D01*
X130538423Y-93580092D01*
X130612388Y-93618493D01*
X130831364Y-93627793D01*
X131022412Y-93492366D01*
X131054568Y-93436138D01*
X131597842Y-93436138D01*
X131599652Y-93492948D01*
X131640751Y-93540305D01*
X131805835Y-93672532D01*
X132073348Y-93863780D01*
X132418417Y-94096465D01*
X132816169Y-94353003D01*
X133408533Y-94724011D01*
X133885318Y-95014571D01*
X134248991Y-95224653D01*
X134513334Y-95361376D01*
X134692132Y-95431860D01*
X134799166Y-95443225D01*
X134848222Y-95402589D01*
X134855413Y-95266780D01*
X134806370Y-95062000D01*
X134771167Y-94996075D01*
X134673020Y-94892796D01*
X134501388Y-94770536D01*
X134235953Y-94616854D01*
X133856400Y-94419307D01*
X133342414Y-94165453D01*
X133279630Y-94134913D01*
X132718413Y-93864040D01*
X132290740Y-93663103D01*
X131980730Y-93525973D01*
X131772499Y-93446522D01*
X131650164Y-93418620D01*
X131597842Y-93436138D01*
X131054568Y-93436138D01*
X131097436Y-93361177D01*
X131185619Y-93096019D01*
X131196812Y-93045086D01*
X131583333Y-93045086D01*
X131597468Y-93080444D01*
X131741459Y-93199234D01*
X132033262Y-93362885D01*
X132463468Y-93566429D01*
X133022666Y-93804900D01*
X133409972Y-93960691D01*
X133851314Y-94133477D01*
X134234622Y-94279141D01*
X134811578Y-94493185D01*
X134784956Y-94262092D01*
X134754762Y-94157969D01*
X134646196Y-94020080D01*
X134443944Y-93879588D01*
X134130349Y-93726910D01*
X133687756Y-93552462D01*
X133098508Y-93346660D01*
X132806856Y-93250773D01*
X132271732Y-93090874D01*
X131889363Y-93003278D01*
X131659859Y-92988008D01*
X131583333Y-93045086D01*
X131196812Y-93045086D01*
X131255540Y-92777854D01*
X131293631Y-92471070D01*
X131293583Y-92469562D01*
X131620991Y-92469562D01*
X131621302Y-92471070D01*
X131636724Y-92546036D01*
X131777079Y-92641548D01*
X132052057Y-92761251D01*
X132471658Y-92910298D01*
X133045884Y-93093844D01*
X133280907Y-93165846D01*
X133698975Y-93290409D01*
X134049288Y-93390253D01*
X134300612Y-93456600D01*
X134421718Y-93480667D01*
X134467966Y-93470788D01*
X134537764Y-93368774D01*
X134527107Y-93211730D01*
X134433930Y-93069171D01*
X134304573Y-93005784D01*
X134045545Y-92917551D01*
X133695719Y-92815608D01*
X133291273Y-92708750D01*
X132868382Y-92605770D01*
X132463221Y-92515460D01*
X132111966Y-92446614D01*
X131850794Y-92408026D01*
X131715879Y-92408489D01*
X131620991Y-92469562D01*
X131293583Y-92469562D01*
X131286323Y-92240054D01*
X131243398Y-92030782D01*
X131211499Y-91908628D01*
X131668000Y-91908628D01*
X131690507Y-91979579D01*
X131816166Y-92075239D01*
X131824065Y-92077630D01*
X131975315Y-92121743D01*
X132249083Y-92200363D01*
X132609115Y-92303112D01*
X133019153Y-92419611D01*
X133342411Y-92511141D01*
X133709509Y-92613171D01*
X133954638Y-92675637D01*
X134102424Y-92702438D01*
X134177495Y-92697475D01*
X134204478Y-92664645D01*
X134208000Y-92607849D01*
X134191779Y-92493589D01*
X134096571Y-92348214D01*
X133897204Y-92223567D01*
X133572186Y-92107631D01*
X133100022Y-91988390D01*
X132615203Y-91885363D01*
X132182802Y-91813142D01*
X131888801Y-91793392D01*
X131721200Y-91825443D01*
X131668000Y-91908628D01*
X131211499Y-91908628D01*
X131184329Y-91804586D01*
X131112310Y-91675817D01*
X130998873Y-91602236D01*
X130815546Y-91541602D01*
X130588326Y-91480776D01*
X130241075Y-91399838D01*
X129882320Y-91325803D01*
X129635554Y-91281505D01*
X129425944Y-91256884D01*
X129324058Y-91271871D01*
X129297333Y-91326506D01*
X127516410Y-91326506D01*
X127262526Y-91137542D01*
X126828834Y-90974861D01*
X126249333Y-90869229D01*
X125878571Y-90832215D01*
X125599919Y-90830301D01*
X125456449Y-90876477D01*
X125432220Y-90976510D01*
X124941071Y-90976510D01*
X124865247Y-90835735D01*
X124676975Y-90498039D01*
X124545706Y-90279075D01*
X124479920Y-90195640D01*
X124428724Y-90206159D01*
X124311842Y-90319515D01*
X124187441Y-90508008D01*
X124088199Y-90718621D01*
X124046796Y-90898333D01*
X123478682Y-90898333D01*
X123618618Y-90797338D01*
X123827771Y-90557009D01*
X123985594Y-90282603D01*
X124027940Y-90117402D01*
X124934523Y-90117402D01*
X124980849Y-90219937D01*
X125166207Y-90326697D01*
X125469176Y-90427580D01*
X125868333Y-90512483D01*
X125870835Y-90512901D01*
X126188699Y-90566693D01*
X126453839Y-90612751D01*
X126609082Y-90641145D01*
X126688988Y-90650590D01*
X126792088Y-90612580D01*
X126765344Y-90517281D01*
X126608799Y-90401089D01*
X126534871Y-90367070D01*
X126277378Y-90278493D01*
X125957851Y-90194847D01*
X125621161Y-90124785D01*
X125312184Y-90076956D01*
X125075792Y-90060014D01*
X124956859Y-90082608D01*
X124934523Y-90117402D01*
X124027940Y-90117402D01*
X124048000Y-90039146D01*
X124048000Y-89840000D01*
X121502434Y-89840000D01*
X121045636Y-89840519D01*
X120349281Y-89844649D01*
X119797433Y-89854147D01*
X119374170Y-89870490D01*
X119063568Y-89895156D01*
X118849707Y-89929621D01*
X118716662Y-89975364D01*
X118648512Y-90033862D01*
X118629333Y-90106592D01*
X117871328Y-90106592D01*
X118099761Y-90005814D01*
X118329797Y-89760099D01*
X118450028Y-89619344D01*
X118631698Y-89523742D01*
X118919634Y-89469737D01*
X119219530Y-89445245D01*
X119698419Y-89427586D01*
X120291096Y-89421109D01*
X120968002Y-89425586D01*
X121699580Y-89440793D01*
X122456271Y-89466503D01*
X123208518Y-89502491D01*
X123688002Y-89530664D01*
X124132107Y-89564015D01*
X124508346Y-89605942D01*
X124862813Y-89664185D01*
X125241601Y-89746480D01*
X125609825Y-89840000D01*
X125690805Y-89860567D01*
G37*
%TD*%
%LPC*%
D11*
%TO.C,REF\u002A\u002A*%
X151000000Y-37000000D03*
%TD*%
%TO.C,REF\u002A\u002A*%
X91000000Y-37000000D03*
%TD*%
D12*
%TO.C,MOT3*%
X148265000Y-128850000D03*
D13*
X148265000Y-123770000D03*
%TD*%
D14*
%TO.C,ENC 2*%
X89972000Y-113505000D03*
D15*
X92512000Y-113505000D03*
X95052000Y-113505000D03*
X97592000Y-113505000D03*
%TD*%
D16*
%TO.C,USB-C1*%
X129688000Y-68835000D03*
X123908000Y-68835000D03*
D17*
X131118000Y-69335000D03*
D18*
X131118000Y-65155000D03*
D17*
X122478000Y-69335000D03*
D18*
X122478000Y-65155000D03*
%TD*%
D19*
%TO.C,H4*%
X91000000Y-143000000D03*
%TD*%
%TO.C,H2*%
X151000000Y-67000000D03*
%TD*%
%TO.C,H3*%
X151000000Y-143000000D03*
%TD*%
D14*
%TO.C,UART4*%
X109276000Y-78595000D03*
D15*
X109276000Y-81135000D03*
X109276000Y-83675000D03*
%TD*%
D14*
%TO.C,ENC 1*%
X89972000Y-126205000D03*
D15*
X92512000Y-126205000D03*
X95052000Y-126205000D03*
X97592000Y-126205000D03*
%TD*%
D14*
%TO.C,ENC 3*%
X89972000Y-100805000D03*
D15*
X92512000Y-100805000D03*
X95052000Y-100805000D03*
X97592000Y-100805000D03*
%TD*%
D20*
%TO.C,Transfo18->5*%
X124467500Y-130743000D03*
D21*
X124467500Y-133283000D03*
X124467500Y-135823000D03*
%TD*%
D12*
%TO.C,ALIM1*%
X108895000Y-141445000D03*
D13*
X113975000Y-141445000D03*
%TD*%
D19*
%TO.C,H1*%
X91000000Y-67000000D03*
%TD*%
D12*
%TO.C,MOT2*%
X148265000Y-104085000D03*
D13*
X148265000Y-99005000D03*
%TD*%
D12*
%TO.C,MOT1*%
X148265000Y-79320000D03*
D13*
X148265000Y-74240000D03*
%TD*%
%LPD*%
M02*
