%TF.GenerationSoftware,KiCad,Pcbnew,7.0.9-7.0.9~ubuntu22.04.1*%
%TF.CreationDate,2023-12-07T20:45:01+01:00*%
%TF.ProjectId,Carte_Base_roulante_2024,43617274-655f-4426-9173-655f726f756c,rev?*%
%TF.SameCoordinates,Original*%
%TF.FileFunction,Soldermask,Top*%
%TF.FilePolarity,Negative*%
%FSLAX46Y46*%
G04 Gerber Fmt 4.6, Leading zero omitted, Abs format (unit mm)*
G04 Created by KiCad (PCBNEW 7.0.9-7.0.9~ubuntu22.04.1) date 2023-12-07 20:45:01*
%MOMM*%
%LPD*%
G01*
G04 APERTURE LIST*
G04 Aperture macros list*
%AMRoundRect*
0 Rectangle with rounded corners*
0 $1 Rounding radius*
0 $2 $3 $4 $5 $6 $7 $8 $9 X,Y pos of 4 corners*
0 Add a 4 corners polygon primitive as box body*
4,1,4,$2,$3,$4,$5,$6,$7,$8,$9,$2,$3,0*
0 Add four circle primitives for the rounded corners*
1,1,$1+$1,$2,$3*
1,1,$1+$1,$4,$5*
1,1,$1+$1,$6,$7*
1,1,$1+$1,$8,$9*
0 Add four rect primitives between the rounded corners*
20,1,$1+$1,$2,$3,$4,$5,0*
20,1,$1+$1,$4,$5,$6,$7,0*
20,1,$1+$1,$6,$7,$8,$9,0*
20,1,$1+$1,$8,$9,$2,$3,0*%
G04 Aperture macros list end*
%ADD10C,0.010000*%
%ADD11C,5.000000*%
%ADD12RoundRect,0.237500X-0.237500X0.287500X-0.237500X-0.287500X0.237500X-0.287500X0.237500X0.287500X0*%
%ADD13C,2.000000*%
%ADD14RoundRect,0.102000X0.325000X-0.675000X0.325000X0.675000X-0.325000X0.675000X-0.325000X-0.675000X0*%
%ADD15R,3.000000X3.000000*%
%ADD16C,3.000000*%
%ADD17R,1.700000X1.700000*%
%ADD18O,1.700000X1.700000*%
%ADD19RoundRect,0.225000X0.225000X0.250000X-0.225000X0.250000X-0.225000X-0.250000X0.225000X-0.250000X0*%
%ADD20RoundRect,0.250000X-0.450000X0.262500X-0.450000X-0.262500X0.450000X-0.262500X0.450000X0.262500X0*%
%ADD21RoundRect,0.150000X-0.150000X0.825000X-0.150000X-0.825000X0.150000X-0.825000X0.150000X0.825000X0*%
%ADD22RoundRect,0.225000X-0.250000X0.225000X-0.250000X-0.225000X0.250000X-0.225000X0.250000X0.225000X0*%
%ADD23C,0.600000*%
%ADD24R,0.600000X1.090000*%
%ADD25R,0.300000X1.140000*%
%ADD26O,1.000000X2.100000*%
%ADD27O,1.000000X1.800000*%
%ADD28R,1.000000X1.500000*%
%ADD29R,3.300000X1.500000*%
%ADD30C,3.200000*%
%ADD31RoundRect,0.250000X0.450000X-0.262500X0.450000X0.262500X-0.450000X0.262500X-0.450000X-0.262500X0*%
%ADD32R,1.600000X2.500000*%
%ADD33R,1.200000X1.200000*%
%ADD34RoundRect,0.200000X0.200000X0.275000X-0.200000X0.275000X-0.200000X-0.275000X0.200000X-0.275000X0*%
%ADD35R,0.600000X0.700000*%
%ADD36RoundRect,0.075000X-0.700000X-0.075000X0.700000X-0.075000X0.700000X0.075000X-0.700000X0.075000X0*%
%ADD37RoundRect,0.075000X-0.075000X-0.700000X0.075000X-0.700000X0.075000X0.700000X-0.075000X0.700000X0*%
%ADD38RoundRect,0.218750X0.256250X-0.218750X0.256250X0.218750X-0.256250X0.218750X-0.256250X-0.218750X0*%
%ADD39RoundRect,0.250000X-0.262500X-0.450000X0.262500X-0.450000X0.262500X0.450000X-0.262500X0.450000X0*%
%ADD40RoundRect,0.250000X-1.950000X-1.000000X1.950000X-1.000000X1.950000X1.000000X-1.950000X1.000000X0*%
%ADD41RoundRect,0.200000X-0.200000X-0.275000X0.200000X-0.275000X0.200000X0.275000X-0.200000X0.275000X0*%
%ADD42RoundRect,0.250000X-1.000000X1.950000X-1.000000X-1.950000X1.000000X-1.950000X1.000000X1.950000X0*%
%ADD43R,2.300000X1.500000*%
%ADD44O,2.300000X1.500000*%
%ADD45RoundRect,0.225000X0.250000X-0.225000X0.250000X0.225000X-0.250000X0.225000X-0.250000X-0.225000X0*%
%ADD46RoundRect,0.027500X-0.222500X0.272500X-0.222500X-0.272500X0.222500X-0.272500X0.222500X0.272500X0*%
%ADD47RoundRect,0.225000X-0.225000X-0.250000X0.225000X-0.250000X0.225000X0.250000X-0.225000X0.250000X0*%
%ADD48RoundRect,0.150000X-0.700000X0.150000X-0.700000X-0.150000X0.700000X-0.150000X0.700000X0.150000X0*%
%ADD49RoundRect,0.250000X-1.150000X0.250000X-1.150000X-0.250000X1.150000X-0.250000X1.150000X0.250000X0*%
%ADD50RoundRect,0.087500X0.225000X0.087500X-0.225000X0.087500X-0.225000X-0.087500X0.225000X-0.087500X0*%
%ADD51RoundRect,0.087500X0.087500X0.225000X-0.087500X0.225000X-0.087500X-0.225000X0.087500X-0.225000X0*%
G04 APERTURE END LIST*
%TO.C,U2*%
D10*
X141697000Y-100463500D02*
X143047000Y-100463500D01*
X143047000Y-102463500D01*
X141697000Y-102463500D01*
X141697000Y-103763500D01*
X136397000Y-103763500D01*
X136397000Y-102463500D01*
X135047000Y-102463500D01*
X135047000Y-100463500D01*
X136397000Y-100463500D01*
X136397000Y-99163500D01*
X141697000Y-99163500D01*
X141697000Y-100463500D01*
G36*
X141697000Y-100463500D02*
G01*
X143047000Y-100463500D01*
X143047000Y-102463500D01*
X141697000Y-102463500D01*
X141697000Y-103763500D01*
X136397000Y-103763500D01*
X136397000Y-102463500D01*
X135047000Y-102463500D01*
X135047000Y-100463500D01*
X136397000Y-100463500D01*
X136397000Y-99163500D01*
X141697000Y-99163500D01*
X141697000Y-100463500D01*
G37*
%TO.C,U6*%
X141697000Y-75780000D02*
X143047000Y-75780000D01*
X143047000Y-77780000D01*
X141697000Y-77780000D01*
X141697000Y-79080000D01*
X136397000Y-79080000D01*
X136397000Y-77780000D01*
X135047000Y-77780000D01*
X135047000Y-75780000D01*
X136397000Y-75780000D01*
X136397000Y-74480000D01*
X141697000Y-74480000D01*
X141697000Y-75780000D01*
G36*
X141697000Y-75780000D02*
G01*
X143047000Y-75780000D01*
X143047000Y-77780000D01*
X141697000Y-77780000D01*
X141697000Y-79080000D01*
X136397000Y-79080000D01*
X136397000Y-77780000D01*
X135047000Y-77780000D01*
X135047000Y-75780000D01*
X136397000Y-75780000D01*
X136397000Y-74480000D01*
X141697000Y-74480000D01*
X141697000Y-75780000D01*
G37*
%TO.C,U3*%
X141570000Y-125310000D02*
X142920000Y-125310000D01*
X142920000Y-127310000D01*
X141570000Y-127310000D01*
X141570000Y-128610000D01*
X136270000Y-128610000D01*
X136270000Y-127310000D01*
X134920000Y-127310000D01*
X134920000Y-125310000D01*
X136270000Y-125310000D01*
X136270000Y-124010000D01*
X141570000Y-124010000D01*
X141570000Y-125310000D01*
G36*
X141570000Y-125310000D02*
G01*
X142920000Y-125310000D01*
X142920000Y-127310000D01*
X141570000Y-127310000D01*
X141570000Y-128610000D01*
X136270000Y-128610000D01*
X136270000Y-127310000D01*
X134920000Y-127310000D01*
X134920000Y-125310000D01*
X136270000Y-125310000D01*
X136270000Y-124010000D01*
X141570000Y-124010000D01*
X141570000Y-125310000D01*
G37*
%TD*%
D11*
%TO.C,REF\u002A\u002A*%
X151000000Y-37000000D03*
%TD*%
%TO.C,REF\u002A\u002A*%
X91000000Y-37000000D03*
%TD*%
D12*
%TO.C,LED2*%
X128072000Y-85475500D03*
X128072000Y-87225500D03*
%TD*%
D13*
%TO.C,TP_MISO1*%
X112070000Y-102075000D03*
%TD*%
D14*
%TO.C,U2*%
X136547000Y-106438500D03*
X137547000Y-106438500D03*
X138547000Y-106438500D03*
X139547000Y-106438500D03*
X140547000Y-106438500D03*
X141547000Y-106438500D03*
X141547000Y-96488500D03*
X140547000Y-96488500D03*
X139547000Y-96488500D03*
X138547000Y-96488500D03*
X137547000Y-96488500D03*
X136547000Y-96488500D03*
%TD*%
%TO.C,U6*%
X136547000Y-81755000D03*
X137547000Y-81755000D03*
X138547000Y-81755000D03*
X139547000Y-81755000D03*
X140547000Y-81755000D03*
X141547000Y-81755000D03*
X141547000Y-71805000D03*
X140547000Y-71805000D03*
X139547000Y-71805000D03*
X138547000Y-71805000D03*
X137547000Y-71805000D03*
X136547000Y-71805000D03*
%TD*%
D15*
%TO.C,MOT3*%
X148265000Y-128850000D03*
D16*
X148265000Y-123770000D03*
%TD*%
D17*
%TO.C,ENC 2*%
X89972000Y-113505000D03*
D18*
X92512000Y-113505000D03*
X95052000Y-113505000D03*
X97592000Y-113505000D03*
%TD*%
D19*
%TO.C,C8*%
X125646000Y-107917000D03*
X124096000Y-107917000D03*
%TD*%
D20*
%TO.C,R4*%
X130358000Y-123999000D03*
X130358000Y-125824000D03*
%TD*%
D21*
%TO.C,Q2*%
X116515000Y-130080000D03*
X115245000Y-130080000D03*
X113975000Y-130080000D03*
X112705000Y-130080000D03*
X112705000Y-135030000D03*
X113975000Y-135030000D03*
X115245000Y-135030000D03*
X116515000Y-135030000D03*
%TD*%
D22*
%TO.C,C16*%
X115471500Y-97736000D03*
X115471500Y-99286000D03*
%TD*%
D19*
%TO.C,C14*%
X117645000Y-123284000D03*
X116095000Y-123284000D03*
%TD*%
D23*
%TO.C,USB-C1*%
X129688000Y-68835000D03*
X123908000Y-68835000D03*
D24*
X130048000Y-69930000D03*
X129248000Y-69930000D03*
D25*
X128048000Y-69905000D03*
X127048000Y-69905000D03*
X126548000Y-69905000D03*
X125548000Y-69905000D03*
D24*
X123548000Y-69930000D03*
X124348000Y-69930000D03*
D25*
X125048000Y-69905000D03*
X126048000Y-69905000D03*
X127548000Y-69905000D03*
X128548000Y-69905000D03*
D26*
X131118000Y-69335000D03*
D27*
X131118000Y-65155000D03*
D26*
X122478000Y-69335000D03*
D27*
X122478000Y-65155000D03*
%TD*%
D28*
%TO.C,Transfo5->3.3*%
X103702000Y-134002000D03*
X101402000Y-134002000D03*
X99102000Y-134002000D03*
D29*
X101402000Y-140302000D03*
%TD*%
D30*
%TO.C,H4*%
X91000000Y-143000000D03*
%TD*%
D13*
%TO.C,TP_SCK1*%
X108260000Y-97630000D03*
%TD*%
D31*
%TO.C,R5*%
X105593000Y-131920000D03*
X105593000Y-130095000D03*
%TD*%
D19*
%TO.C,C9*%
X124516000Y-119347000D03*
X122966000Y-119347000D03*
%TD*%
D32*
%TO.C,SWITCH1*%
X104551000Y-114902000D03*
X104551000Y-109002000D03*
%TD*%
D33*
%TO.C,D2*%
X122865000Y-144239000D03*
X122865000Y-141439000D03*
%TD*%
D19*
%TO.C,C12*%
X121175000Y-123284000D03*
X119625000Y-123284000D03*
%TD*%
D20*
%TO.C,R2*%
X110165000Y-130730000D03*
X110165000Y-132555000D03*
%TD*%
D30*
%TO.C,H2*%
X151000000Y-67000000D03*
%TD*%
D34*
%TO.C,R8*%
X125087000Y-72738000D03*
X123437000Y-72738000D03*
%TD*%
D35*
%TO.C,ZENER1*%
X114040000Y-127475000D03*
X112640000Y-127475000D03*
%TD*%
D13*
%TO.C,TP_GND1*%
X110292000Y-92550000D03*
%TD*%
D36*
%TO.C,U1*%
X112211000Y-109247000D03*
X112211000Y-109747000D03*
X112211000Y-110247000D03*
X112211000Y-110747000D03*
X112211000Y-111247000D03*
X112211000Y-111747000D03*
X112211000Y-112247000D03*
X112211000Y-112747000D03*
X112211000Y-113247000D03*
X112211000Y-113747000D03*
X112211000Y-114247000D03*
X112211000Y-114747000D03*
X112211000Y-115247000D03*
X112211000Y-115747000D03*
X112211000Y-116247000D03*
X112211000Y-116747000D03*
D37*
X114136000Y-118672000D03*
X114636000Y-118672000D03*
X115136000Y-118672000D03*
X115636000Y-118672000D03*
X116136000Y-118672000D03*
X116636000Y-118672000D03*
X117136000Y-118672000D03*
X117636000Y-118672000D03*
X118136000Y-118672000D03*
X118636000Y-118672000D03*
X119136000Y-118672000D03*
X119636000Y-118672000D03*
X120136000Y-118672000D03*
X120636000Y-118672000D03*
X121136000Y-118672000D03*
X121636000Y-118672000D03*
D36*
X123561000Y-116747000D03*
X123561000Y-116247000D03*
X123561000Y-115747000D03*
X123561000Y-115247000D03*
X123561000Y-114747000D03*
X123561000Y-114247000D03*
X123561000Y-113747000D03*
X123561000Y-113247000D03*
X123561000Y-112747000D03*
X123561000Y-112247000D03*
X123561000Y-111747000D03*
X123561000Y-111247000D03*
X123561000Y-110747000D03*
X123561000Y-110247000D03*
X123561000Y-109747000D03*
X123561000Y-109247000D03*
D37*
X121636000Y-107322000D03*
X121136000Y-107322000D03*
X120636000Y-107322000D03*
X120136000Y-107322000D03*
X119636000Y-107322000D03*
X119136000Y-107322000D03*
X118636000Y-107322000D03*
X118136000Y-107322000D03*
X117636000Y-107322000D03*
X117136000Y-107322000D03*
X116636000Y-107322000D03*
X116136000Y-107322000D03*
X115636000Y-107322000D03*
X115136000Y-107322000D03*
X114636000Y-107322000D03*
X114136000Y-107322000D03*
%TD*%
D19*
%TO.C,C22*%
X96209000Y-134002000D03*
X94659000Y-134002000D03*
%TD*%
D38*
%TO.C,D5*%
X107879000Y-132428000D03*
X107879000Y-130853000D03*
%TD*%
D30*
%TO.C,H3*%
X151000000Y-143000000D03*
%TD*%
D39*
%TO.C,R1*%
X124111500Y-106012000D03*
X125936500Y-106012000D03*
%TD*%
D22*
%TO.C,C23*%
X119387500Y-131098000D03*
X119387500Y-132648000D03*
%TD*%
D40*
%TO.C,C2*%
X142024000Y-88975000D03*
X150424000Y-88975000D03*
%TD*%
D41*
%TO.C,R7*%
X128263000Y-72738000D03*
X129913000Y-72738000D03*
%TD*%
D42*
%TO.C,C6*%
X138740000Y-135975000D03*
X138740000Y-144375000D03*
%TD*%
D19*
%TO.C,C11*%
X124516000Y-121252000D03*
X122966000Y-121252000D03*
%TD*%
D31*
%TO.C,R3*%
X127818000Y-125824000D03*
X127818000Y-123999000D03*
%TD*%
D17*
%TO.C,UART4*%
X109276000Y-78595000D03*
D18*
X109276000Y-81135000D03*
X109276000Y-83675000D03*
%TD*%
D22*
%TO.C,C17*%
X117216500Y-97736000D03*
X117216500Y-99286000D03*
%TD*%
D17*
%TO.C,ENC 1*%
X89972000Y-126205000D03*
D18*
X92512000Y-126205000D03*
X95052000Y-126205000D03*
X97592000Y-126205000D03*
%TD*%
D17*
%TO.C,ENC 3*%
X89972000Y-100805000D03*
D18*
X92512000Y-100805000D03*
X95052000Y-100805000D03*
X97592000Y-100805000D03*
%TD*%
D19*
%TO.C,C21*%
X96209000Y-136512000D03*
X94659000Y-136512000D03*
%TD*%
%TO.C,C15*%
X117645000Y-121379000D03*
X116095000Y-121379000D03*
%TD*%
D43*
%TO.C,Transfo18->5*%
X124467500Y-130743000D03*
D44*
X124467500Y-133283000D03*
X124467500Y-135823000D03*
%TD*%
D13*
%TO.C,TP_MOSI1*%
X108260000Y-102075000D03*
%TD*%
D45*
%TO.C,C24*%
X119387500Y-135870000D03*
X119387500Y-134320000D03*
%TD*%
D46*
%TO.C,QUARTZ1*%
X109466000Y-109907000D03*
X109466000Y-111007000D03*
X110266000Y-111007000D03*
X110266000Y-109907000D03*
%TD*%
D12*
%TO.C,LED1*%
X130612000Y-85466000D03*
X130612000Y-87216000D03*
%TD*%
D22*
%TO.C,C18*%
X107726000Y-110177000D03*
X107726000Y-111727000D03*
%TD*%
D47*
%TO.C,C7*%
X110126000Y-118077000D03*
X111676000Y-118077000D03*
%TD*%
D15*
%TO.C,ALIM1*%
X108895000Y-141445000D03*
D16*
X113975000Y-141445000D03*
%TD*%
D47*
%TO.C,C10*%
X111256000Y-106647000D03*
X112806000Y-106647000D03*
%TD*%
D19*
%TO.C,C20*%
X96209000Y-139022000D03*
X94659000Y-139022000D03*
%TD*%
D33*
%TO.C,D3*%
X118160000Y-72230000D03*
X120960000Y-72230000D03*
%TD*%
D19*
%TO.C,C13*%
X121175000Y-121379000D03*
X119625000Y-121379000D03*
%TD*%
D31*
%TO.C,R6*%
X128072000Y-90922500D03*
X128072000Y-89097500D03*
%TD*%
D40*
%TO.C,C4*%
X142024000Y-113725000D03*
X150424000Y-113725000D03*
%TD*%
D14*
%TO.C,U3*%
X136420000Y-131285000D03*
X137420000Y-131285000D03*
X138420000Y-131285000D03*
X139420000Y-131285000D03*
X140420000Y-131285000D03*
X141420000Y-131285000D03*
X141420000Y-121335000D03*
X140420000Y-121335000D03*
X139420000Y-121335000D03*
X138420000Y-121335000D03*
X137420000Y-121335000D03*
X136420000Y-121335000D03*
%TD*%
D30*
%TO.C,H1*%
X91000000Y-67000000D03*
%TD*%
D31*
%TO.C,R10*%
X130646000Y-90913000D03*
X130646000Y-89088000D03*
%TD*%
D48*
%TO.C,DEBUG1*%
X117864000Y-78588000D03*
X117864000Y-79838000D03*
X117864000Y-81088000D03*
X117864000Y-82338000D03*
X117864000Y-83588000D03*
D49*
X121214000Y-76738000D03*
X121214000Y-85438000D03*
%TD*%
D50*
%TO.C,IMU1*%
X117796500Y-102575000D03*
X117796500Y-102075000D03*
X117796500Y-101575000D03*
X117796500Y-101075000D03*
D51*
X117134000Y-100912500D03*
X116634000Y-100912500D03*
X116134000Y-100912500D03*
D50*
X115471500Y-101075000D03*
X115471500Y-101575000D03*
X115471500Y-102075000D03*
X115471500Y-102575000D03*
D51*
X116134000Y-102737500D03*
X116634000Y-102737500D03*
X117134000Y-102737500D03*
%TD*%
D22*
%TO.C,C19*%
X106369000Y-134497000D03*
X106369000Y-136047000D03*
%TD*%
D19*
%TO.C,C3*%
X139790000Y-109475000D03*
X138240000Y-109475000D03*
%TD*%
D20*
%TO.C,R9*%
X101376000Y-111449500D03*
X101376000Y-113274500D03*
%TD*%
D15*
%TO.C,MOT2*%
X148265000Y-104085000D03*
D16*
X148265000Y-99005000D03*
%TD*%
D13*
%TO.C,TP_CS1*%
X112070000Y-97630000D03*
%TD*%
D19*
%TO.C,C1*%
X139790000Y-84725000D03*
X138240000Y-84725000D03*
%TD*%
D15*
%TO.C,MOT1*%
X148265000Y-79320000D03*
D16*
X148265000Y-74240000D03*
%TD*%
D19*
%TO.C,C5*%
X136340000Y-133190000D03*
X134790000Y-133190000D03*
%TD*%
M02*
