M48
INCH
T1C0.0157
T2C0.0236
T3C0.0394
T4C0.0598
%
G90
G05
T1
X3.6722Y-5.3737
X3.9922Y-4.5137
X3.9922Y-5.2137
X3.9922Y-5.5337
X3.9922Y-5.5737
X3.9922Y-5.6137
X4.2622Y-4.5937
X4.2622Y-4.6437
X4.2922Y-4.8437
X4.2922Y-5.3237
X4.3022Y-4.4237
X4.3222Y-4.7037
X4.3322Y-4.7937
X4.3372Y-4.5187
X4.3422Y-4.2037
X4.3596Y-4.551
X4.4022Y-4.8437
X4.4122Y-4.2437
X4.4222Y-3.6437
X4.4372Y-3.9187
X4.4422Y-4.7937
X4.4622Y-4.0855
X4.47Y-3.6437
X4.4822Y-4.5637
X4.503Y-4.2786
X4.5372Y-4.0687
X4.5677Y-3.0744
X4.5822Y-3.8479
X4.5822Y-3.9437
X4.6022Y-4.9037
X4.6044Y-4.0096
X4.6122Y-4.2937
X4.6622Y-4.1337
X4.6699Y-4.0213
X4.6722Y-4.2737
X4.6722Y-4.9037
X4.6872Y-3.9187
X4.737Y-4.3857
X4.7422Y-4.9037
X4.8022Y-4.4237
X4.8022Y-4.4737
X4.8433Y-2.9169
X4.8459Y-3.9187
X4.8863Y-4.0837
X4.8956Y-2.7971
X4.9022Y-4.7337
X4.9122Y-3.2937
X4.9622Y-4.6337
X4.9622Y-5.6837
X4.9922Y-4.2537
X5.0222Y-5.6837
X5.0322Y-4.1737
X5.0522Y-4.5937
X5.0822Y-4.8778
X5.0822Y-5.6837
X5.0922Y-2.7937
X5.0922Y-3.3648
X5.1322Y-5.0037
X5.1422Y-5.6837
X5.1865Y-4.3537
X5.1927Y-4.9637
X5.1959Y-3.4737
X5.1959Y-4.1737
X5.1995Y-4.501
X5.2022Y-5.6837
X5.2572Y-5.2137
X5.2622Y-5.6837
X5.2722Y-3.2537
X5.2722Y-3.3837
X5.2722Y-5.0437
X5.2822Y-3.4737
X5.3222Y-4.1337
X5.3222Y-5.6837
X5.35Y-2.96
X5.35Y-3.08
X5.35Y-3.93
X5.35Y-4.05
X5.35Y-4.91
X5.3622Y-3.2937
X5.3722Y-5.3237
X5.39Y-2.91
X5.39Y-3.13
X5.39Y-3.88
X5.39Y-4.1
X5.39Y-4.86
X5.4022Y-5.4737
X5.4122Y-4.7137
X5.4415Y-3.4065
X5.4415Y-4.3702
X5.4722Y-3.7337
X5.4722Y-4.7137
X5.48Y-2.91
X5.48Y-3.13
X5.48Y-3.88
X5.48Y-4.1
X5.48Y-4.86
X5.48Y-5.08
X5.4922Y-2.7637
X5.5022Y-4.5782
X5.5122Y-3.5888
X5.5522Y-5.2637
X5.5522Y-5.4737
X5.5922Y-3.3588
X5.6Y-2.96
X5.6Y-3.08
X5.6Y-3.93
X5.6Y-4.05
X5.6Y-4.91
X5.6Y-5.03
X5.6022Y-4.3482
X5.6122Y-4.1937
X5.6222Y-3.2437
X5.7022Y-3.3788
X5.7022Y-3.4588
X5.7022Y-3.5788
X5.7122Y-4.3482
X5.7122Y-4.4682
X5.7122Y-4.5782
X5.8122Y-5.2637
X5.9222Y-3.3388
X5.9222Y-3.3988
X5.9222Y-3.4588
X5.9322Y-4.3582
X5.9322Y-4.4082
X5.9322Y-4.4682
T3
X3.5422Y-3.9687
X3.5422Y-4.4687
X3.5422Y-4.9687
X3.6422Y-3.9687
X3.6422Y-4.4687
X3.6422Y-4.9687
X3.7422Y-3.9687
X3.7422Y-4.4687
X3.7422Y-4.9687
X3.8422Y-3.9687
X3.8422Y-4.4687
X3.8422Y-4.9687
X4.3022Y-3.0943
X4.3022Y-3.1943
X4.3022Y-3.2943
X4.9003Y-5.1474
X4.9003Y-5.2474
X4.9003Y-5.3474
T4
X4.2872Y-5.5687
X4.4872Y-5.5687
X5.8372Y-2.9228
X5.8372Y-3.1228
X5.8372Y-3.8978
X5.8372Y-4.0978
X5.8372Y-4.8728
X5.8372Y-5.0728
T2
G00X4.822Y-2.5809
M15
G01X4.822Y-2.5494
M16
G05
G00X4.822Y-2.7514
M15
G01X4.822Y-2.7081
M16
G05
G00X5.1621Y-2.5809
M15
G01X5.1621Y-2.5494
M16
G05
G00X5.1621Y-2.7514
M15
G01X5.1621Y-2.7081
M16
G05
T0
M30
